<?xml version="1.0" encoding="UTF-8" standalone="no"?>
<!DOCTYPE svg PUBLIC "-//W3C//DTD SVG 1.1//EN" "http://www.w3.org/Graphics/SVG/1.1/DTD/svg11.dtd">
<svg xmlns="http://www.w3.org/2000/svg" version="1.1" viewBox="0 0 512 512">
<g stroke-width="2.00" fill="none" stroke-linecap="butt">
<path stroke="#338099" vector-effect="non-scaling-stroke" d="
  M 280.75 133.79
  C 286.23 149.53 302.61 158.26 318.75 154.25
  Q 327.62 152.04 370.43 141.01
  C 376.61 139.42 381.32 139.26 383.75 145.79"
/>
<path stroke="#6b7073" vector-effect="non-scaling-stroke" d="
  M 383.75 145.79
  Q 384.66 153.80 376.81 155.83
  Q 345.36 163.96 328.19 168.30
  Q 316.48 171.26 310.48 171.27
  C 289.07 171.33 270.76 156.50 264.55 136.42
  Q 262.57 130.02 261.33 127.81
  C 254.39 115.42 240.37 109.03 226.53 112.13
  Q 219.61 113.67 212.76 115.48
  A 0.36 0.36 0.0 0 0 212.52 115.98
  Q 219.13 130.59 224.47 145.36"
/>
<path stroke="#898b8e" vector-effect="non-scaling-stroke" d="
  M 224.47 145.36
  Q 238.44 186.41 241.86 229.31
  C 243.44 249.17 242.76 270.82 236.10 290.68
  Q 235.95 291.14 236.41 291.02
  Q 333.69 266.14 430.82 241.10
  Q 450.00 236.15 461.79 221.00"
/>
<path stroke="#6b7073" vector-effect="non-scaling-stroke" d="
  M 461.79 221.00
  Q 478.38 199.43 471.87 172.53
  Q 467.25 153.45 462.33 134.45
  A 0.56 0.56 0.0 0 0 461.64 134.05
  C 455.48 135.83 447.92 138.19 445.46 129.75"
/>
<path stroke="#338099" vector-effect="non-scaling-stroke" d="
  M 445.46 129.75
  C 444.55 123.50 447.97 121.14 453.68 119.65
  Q 471.15 115.09 488.52 110.68
  A 0.69 0.69 0.0 0 0 489.02 109.84
  C 487.02 102.08 485.02 93.42 482.58 86.57
  C 471.11 54.42 444.65 28.95 411.00 20.54"
/>
<path stroke="#758f99" vector-effect="non-scaling-stroke" d="
  M 411.00 20.54
  Q 384.85 13.46 359.05 20.06
  Q 305.88 33.66 18.41 107.54
  A 0.52 0.52 0.0 0 0 18.02 108.15
  Q 19.46 115.57 20.54 118.19
  C 26.61 132.90 41.69 142.79 58.04 138.60
  Q 138.87 117.89 219.62 96.92
  Q 238.94 91.90 256.00 101.01
  C 269.82 108.39 275.84 119.27 280.75 133.79"
/>
<path stroke="#75dcff" vector-effect="non-scaling-stroke" d="
  M 411.00 20.54
  L 411.00 20.81
  A 0.84 0.83 -65.5 0 0 411.22 21.40
  Q 428.87 40.94 436.05 66.03
  C 439.31 77.41 437.01 87.96 426.98 94.77
  C 422.34 97.92 416.45 99.00 410.51 100.53
  Q 313.21 125.57 280.75 133.79"
/>
<path stroke="#6bbdd9" vector-effect="non-scaling-stroke" d="
  M 445.46 129.75
  Q 438.78 132.20 431.75 133.29"
/>
<path stroke="#338099" vector-effect="non-scaling-stroke" d="
  M 431.75 133.29
  C 429.11 126.87 424.57 127.13 418.39 128.70
  C 411.28 130.51 398.91 130.96 400.21 141.50"
/>
<path stroke="#6bbdd9" vector-effect="non-scaling-stroke" d="
  M 400.21 141.50
  L 383.75 145.79"
/>
<path stroke="#6b7073" vector-effect="non-scaling-stroke" d="
  M 400.21 141.50
  C 402.35 147.68 406.82 148.12 412.76 146.62
  Q 418.98 145.06 425.17 143.37
  Q 432.81 141.28 431.75 133.29"
/>
<path stroke="#c0c8ce" vector-effect="non-scaling-stroke" d="
  M 461.79 221.00
  Q 458.72 202.55 455.00 192.50
  C 449.35 177.20 433.14 168.07 417.56 172.06
  Q 359.65 186.88 301.75 201.73
  C 284.50 206.16 267.29 199.95 257.33 185.12
  C 253.44 179.32 252.11 172.10 250.08 167.42
  Q 242.60 150.19 224.47 145.36"
/>
<path stroke="#555c60" vector-effect="non-scaling-stroke" d="
  M 190.75 30.46
  L 165.30 36.92
  A 0.51 0.50 -14.6 0 0 164.94 37.53
  L 167.18 46.72"
/>
<path stroke="#414547" vector-effect="non-scaling-stroke" d="
  M 167.18 46.72
  L 168.63 51.88
  A 0.53 0.51 74.7 0 0 169.26 52.25
  L 214.62 40.58
  A 0.52 0.51 -14.4 0 0 215.00 39.95
  L 211.33 25.56
  A 0.49 0.49 0.0 0 0 210.73 25.21
  L 190.75 30.46"
/>
<path stroke="#636d73" vector-effect="non-scaling-stroke" d="
  M 167.18 46.72
  Q 175.01 42.32 183.83 40.24
  C 189.07 39.00 191.85 36.03 190.75 30.46"
/>
<path stroke="#4e4e4e" vector-effect="non-scaling-stroke" d="
  M 133.46 151.75
  Q 140.95 170.90 146.29 190.75"
/>
<path stroke="#414547" vector-effect="non-scaling-stroke" d="
  M 146.29 190.75
  L 150.75 208.79"
/>
<path stroke="#4e4e4e" vector-effect="non-scaling-stroke" d="
  M 150.75 208.79
  Q 154.81 228.60 156.54 248.75"
/>
<path stroke="#414547" vector-effect="non-scaling-stroke" d="
  M 156.54 248.75
  C 158.58 269.56 157.98 292.36 151.18 312.21
  Q 150.92 312.99 151.71 312.78
  Q 178.50 305.90 205.27 299.04
  C 211.25 297.50 214.43 296.92 217.47 292.22
  C 226.56 278.15 227.59 254.71 226.46 238.50"
/>
<path stroke="#4e4e4e" vector-effect="non-scaling-stroke" d="
  M 226.46 238.50
  Q 225.85 218.29 221.71 198.50"
/>
<path stroke="#414547" vector-effect="non-scaling-stroke" d="
  M 221.71 198.50
  L 218.60 183.53"
/>
<path stroke="#4e4e4e" vector-effect="non-scaling-stroke" d="
  M 218.60 183.53
  Q 214.20 163.34 206.96 144.75"
/>
<path stroke="#414547" vector-effect="non-scaling-stroke" d="
  M 206.96 144.75
  Q 202.65 132.20 196.70 120.09
  A 0.63 0.62 69.2 0 0 195.98 119.76
  L 127.74 137.30
  A 0.46 0.45 71.2 0 0 127.44 137.92
  L 133.46 151.75"
/>
<path stroke="#5c5f61" vector-effect="non-scaling-stroke" d="
  M 206.96 144.75
  Q 169.00 149.21 137.44 151.19
  Q 134.69 151.36 133.46 151.75"
/>
<path stroke="#5c5f61" vector-effect="non-scaling-stroke" d="
  M 218.60 183.53
  Q 197.25 186.92 175.71 188.25"
/>
<path stroke="#a3a5a8" vector-effect="non-scaling-stroke" d="
  M 175.71 188.25
  C 174.28 183.87 168.23 184.76 168.21 189.54"
/>
<path stroke="#5c5f61" vector-effect="non-scaling-stroke" d="
  M 168.21 189.54
  L 146.29 190.75"
/>
<path stroke="#5c5f61" vector-effect="non-scaling-stroke" d="
  M 221.71 198.50
  Q 186.13 203.00 150.75 208.79"
/>
<path stroke="#979ca1" vector-effect="non-scaling-stroke" d="
  M 168.21 189.54
  C 169.46 195.65 176.55 193.73 175.71 188.25"
/>
<path stroke="#5c5f61" vector-effect="non-scaling-stroke" d="
  M 226.46 238.50
  Q 191.37 242.73 156.54 248.75"
/>
<path stroke="#6a6a6a" vector-effect="non-scaling-stroke" d="
  M 109.09 311.91
  C 135.58 337.92 141.00 290.56 141.39 276.25
  C 142.63 231.07 130.78 183.11 111.58 142.02
  A 0.71 0.70 70.3 0 0 110.77 141.63
  L 95.99 145.46
  A 0.33 0.33 0.0 0 0 95.78 145.92
  C 115.28 186.81 128.75 237.68 124.78 283.23
  C 124.00 292.22 114.75 295.88 109.55 287.94
  C 84.04 248.96 71.08 199.04 68.30 152.95
  A 0.41 0.40 -10.2 0 0 67.77 152.59
  Q 60.67 154.73 53.27 155.41
  A 0.56 0.55 86.8 0 0 52.76 155.99
  C 54.26 188.50 61.93 221.63 73.55 252.19
  C 81.12 272.08 92.61 295.73 109.09 311.91"
/>
<path stroke="#288e75" vector-effect="non-scaling-stroke" d="
  M 85.00 162.32
  Q 89.76 209.51 108.46 253.03
  Q 108.70 253.59 108.68 252.98
  Q 108.46 247.11 107.08 237.69
  Q 101.21 197.75 85.76 162.13
  Q 84.75 159.80 85.00 162.32"
/>
<path stroke="#6a6a6a" vector-effect="non-scaling-stroke" d="
  M 380.75 270.54
  L 320.20 286.05
  A 0.53 0.52 -13.5 0 0 319.82 286.66
  C 322.57 299.71 327.92 310.15 342.38 311.66
  Q 346.78 312.11 353.97 310.37
  Q 365.17 307.66 376.25 304.46"
/>
<path stroke="#4e4e4e" vector-effect="non-scaling-stroke" d="
  M 376.25 304.46
  C 396.43 300.08 416.28 297.04 415.10 273.79
  C 414.92 270.40 413.58 266.39 412.58 262.93
  A 0.51 0.51 0.0 0 0 411.96 262.58
  L 380.75 270.54"
/>
<path stroke="#848484" vector-effect="non-scaling-stroke" d="
  M 376.25 304.46
  Q 387.34 288.83 380.75 270.54"
/>
<path stroke="#6a6a6a" vector-effect="non-scaling-stroke" d="
  M 376.14 449.86
  Q 383.10 456.00 392.50 456.00
  Q 444.08 456.01 495.04 455.99
  A 0.96 0.95 0.0 0 0 496.00 455.04
  L 496.00 296.61
  A 0.58 0.58 0.0 0 0 495.42 296.03
  L 480.66 295.99
  A 0.65 0.65 0.0 0 0 480.01 296.63
  Q 479.97 345.58 480.02 394.54
  C 480.03 407.52 476.75 418.34 463.48 422.59
  Q 458.94 424.04 448.87 424.03
  Q 408.71 423.96 368.56 424.02
  A 0.52 0.52 0.0 0 0 368.04 424.52
  C 367.51 434.38 368.46 443.11 376.14 449.86"
/>
<path stroke="#555c60" vector-effect="non-scaling-stroke" d="
  M 407.88 343.99
  A 23.88 23.88 0.0 0 0 384.00 320.11
  A 23.88 23.88 0.0 0 0 360.12 343.99
  A 23.88 23.88 0.0 0 0 384.00 367.87
  A 23.88 23.88 0.0 0 0 407.88 343.99"
/>
<path stroke="#555c60" vector-effect="non-scaling-stroke" d="
  M 344.04 400.00
  L 344.14 407.43
  A 0.58 0.58 0.0 0 0 344.72 408.00
  L 423.37 408.00
  A 0.63 0.63 0.0 0 0 424.00 407.37
  L 424.00 384.76
  A 0.61 0.61 0.0 0 0 423.39 384.15
  L 400.23 384.07"
/>
<path stroke="#74838a" vector-effect="non-scaling-stroke" d="
  M 400.23 384.07
  L 344.55 384.02
  A 0.51 0.50 -0.0 0 0 344.04 384.52
  L 344.04 400.00"
/>
<path stroke="#96acb6" vector-effect="non-scaling-stroke" d="
  M 400.23 384.07
  C 399.85 391.03 401.22 400.07 391.00 399.96
  Q 381.12 399.85 344.04 400.00"
/>
<path stroke="#555c60" vector-effect="non-scaling-stroke" d="
  M 480.00 495.96
  L 495.51 495.99
  A 0.49 0.49 0.0 0 0 496.00 495.50
  L 496.00 472.73
  A 0.61 0.61 0.0 0 0 495.38 472.12
  L 480.21 472.25"
/>
<path stroke="#74838a" vector-effect="non-scaling-stroke" d="
  M 480.21 472.25
  L 464.61 472.12
  A 0.61 0.61 0.0 0 0 464.00 472.73
  L 464.00 495.46
  A 0.50 0.50 0.0 0 0 464.50 495.96
  L 480.00 495.96"
/>
<path stroke="#96acb6" vector-effect="non-scaling-stroke" d="
  M 480.21 472.25
  L 480.00 495.96"
/>
<path stroke="#a3a5a8" vector-effect="non-scaling-stroke" d="
  M 160.0139 181.3100
  A 7.98 7.66 89.9 0 0 167.6600 173.3166
  A 7.98 7.66 89.9 0 0 159.9861 165.3500
  A 7.98 7.66 89.9 0 0 152.3400 173.3434
  A 7.98 7.66 89.9 0 0 160.0139 181.3100"
/>
<path stroke="#555c60" vector-effect="non-scaling-stroke" d="
  M 392.01 343.98
  A 8.01 8.01 0.0 0 0 384.00 335.97
  A 8.01 8.01 0.0 0 0 375.99 343.98
  A 8.01 8.01 0.0 0 0 384.00 351.99
  A 8.01 8.01 0.0 0 0 392.01 343.98"
/>
</g>
<path fill="#333333" d="
  M 512.00 287.31
  L 512.00 505.31
  Q 510.40 510.89 504.69 512.00
  L 455.44 512.00
  Q 447.94 510.65 447.97 503.50
  Q 448.03 487.91 447.98 472.39
  A 0.40 0.40 0.0 0 0 447.58 471.99
  Q 423.59 472.01 399.66 471.99
  Q 387.18 471.98 381.62 470.49
  C 369.46 467.22 359.38 458.30 354.76 446.42
  C 352.03 439.38 351.84 432.58 351.98 424.54
  A 0.50 0.50 0.0 0 0 351.49 424.03
  C 341.82 423.83 333.55 424.16 329.34 414.06
  C 326.67 407.66 328.01 395.72 327.99 388.42
  C 327.97 378.48 330.30 371.04 340.52 368.46
  C 343.73 367.65 347.81 368.16 351.48 367.82
  A 0.33 0.33 0.0 0 0 351.72 367.31
  Q 339.01 349.03 347.47 328.24
  A 0.29 0.29 0.0 0 0 347.18 327.84
  C 329.81 328.74 314.85 318.94 308.09 303.57
  C 306.39 299.70 305.33 294.99 304.32 290.64
  A 0.51 0.50 -13.2 0 0 303.70 290.26
  Q 219.48 311.91 135.20 333.52
  Q 126.16 335.84 121.60 335.52
  C 102.24 334.16 85.63 311.16 76.81 295.94
  C 52.30 253.61 38.97 202.57 36.46 153.79
  A 0.76 0.76 0.0 0 0 35.96 153.12
  Q 16.34 146.20 7.55 128.32
  C 4.11 121.33 2.17 111.51 0.00 103.19
  L 0.00 100.44
  Q 1.44 95.38 5.56 94.32
  Q 79.16 75.40 152.51 56.57
  A 0.70 0.70 0.0 0 0 153.01 55.72
  Q 150.55 46.02 148.18 36.88
  C 146.05 28.65 147.07 24.94 155.39 22.80
  Q 183.21 15.64 211.04 8.48
  C 219.62 6.27 223.24 7.32 225.41 15.99
  Q 227.92 26.01 230.67 35.98
  A 0.52 0.51 -14.4 0 0 231.29 36.34
  Q 287.94 21.76 344.56 7.22
  Q 358.27 3.70 364.04 2.73
  C 419.64 -6.67 474.26 23.37 495.58 75.61
  C 499.95 86.33 504.70 104.07 506.63 114.08
  Q 508.18 122.12 499.99 124.22
  Q 489.10 127.01 478.23 129.90
  A 0.51 0.50 -14.6 0 0 477.87 130.51
  Q 481.84 146.07 485.80 161.55
  Q 489.13 174.59 489.63 181.14
  C 492.00 212.01 474.39 240.78 445.74 253.00
  Q 440.49 255.24 428.54 258.36
  A 0.51 0.50 -15.7 0 0 428.18 259.00
  Q 439.31 293.98 408.68 312.22
  A 0.33 0.33 0.0 0 0 408.64 312.76
  C 425.41 326.27 429.09 349.66 416.35 367.31
  A 0.29 0.29 0.0 0 0 416.55 367.77
  Q 419.29 368.09 422.03 368.06
  C 429.55 367.97 435.76 370.83 438.65 377.88
  Q 440.02 381.22 440.00 388.27
  Q 439.98 397.88 440.03 407.46
  A 0.50 0.50 0.0 0 0 440.53 407.96
  Q 446.70 408.01 452.82 408.01
  C 461.12 408.01 464.00 405.48 464.00 397.34
  Q 464.00 344.14 464.00 290.93
  C 464.00 283.82 466.14 280.02 473.52 280.01
  Q 487.26 279.99 501.00 280.00
  C 506.94 280.00 510.85 281.18 512.00 287.31
  Z
  M 280.75 133.79
  C 286.23 149.53 302.61 158.26 318.75 154.25
  Q 327.62 152.04 370.43 141.01
  C 376.61 139.42 381.32 139.26 383.75 145.79
  Q 384.66 153.80 376.81 155.83
  Q 345.36 163.96 328.19 168.30
  Q 316.48 171.26 310.48 171.27
  C 289.07 171.33 270.76 156.50 264.55 136.42
  Q 262.57 130.02 261.33 127.81
  C 254.39 115.42 240.37 109.03 226.53 112.13
  Q 219.61 113.67 212.76 115.48
  A 0.36 0.36 0.0 0 0 212.52 115.98
  Q 219.13 130.59 224.47 145.36
  Q 238.44 186.41 241.86 229.31
  C 243.44 249.17 242.76 270.82 236.10 290.68
  Q 235.95 291.14 236.41 291.02
  Q 333.69 266.14 430.82 241.10
  Q 450.00 236.15 461.79 221.00
  Q 478.38 199.43 471.87 172.53
  Q 467.25 153.45 462.33 134.45
  A 0.56 0.56 0.0 0 0 461.64 134.05
  C 455.48 135.83 447.92 138.19 445.46 129.75
  C 444.55 123.50 447.97 121.14 453.68 119.65
  Q 471.15 115.09 488.52 110.68
  A 0.69 0.69 0.0 0 0 489.02 109.84
  C 487.02 102.08 485.02 93.42 482.58 86.57
  C 471.11 54.42 444.65 28.95 411.00 20.54
  Q 384.85 13.46 359.05 20.06
  Q 305.88 33.66 18.41 107.54
  A 0.52 0.52 0.0 0 0 18.02 108.15
  Q 19.46 115.57 20.54 118.19
  C 26.61 132.90 41.69 142.79 58.04 138.60
  Q 138.87 117.89 219.62 96.92
  Q 238.94 91.90 256.00 101.01
  C 269.82 108.39 275.84 119.27 280.75 133.79
  Z
  M 190.75 30.46
  L 165.30 36.92
  A 0.51 0.50 -14.6 0 0 164.94 37.53
  L 167.18 46.72
  L 168.63 51.88
  A 0.53 0.51 74.7 0 0 169.26 52.25
  L 214.62 40.58
  A 0.52 0.51 -14.4 0 0 215.00 39.95
  L 211.33 25.56
  A 0.49 0.49 0.0 0 0 210.73 25.21
  L 190.75 30.46
  Z
  M 133.46 151.75
  Q 140.95 170.90 146.29 190.75
  L 150.75 208.79
  Q 154.81 228.60 156.54 248.75
  C 158.58 269.56 157.98 292.36 151.18 312.21
  Q 150.92 312.99 151.71 312.78
  Q 178.50 305.90 205.27 299.04
  C 211.25 297.50 214.43 296.92 217.47 292.22
  C 226.56 278.15 227.59 254.71 226.46 238.50
  Q 225.85 218.29 221.71 198.50
  L 218.60 183.53
  Q 214.20 163.34 206.96 144.75
  Q 202.65 132.20 196.70 120.09
  A 0.63 0.62 69.2 0 0 195.98 119.76
  L 127.74 137.30
  A 0.46 0.45 71.2 0 0 127.44 137.92
  L 133.46 151.75
  Z
  M 109.09 311.91
  C 135.58 337.92 141.00 290.56 141.39 276.25
  C 142.63 231.07 130.78 183.11 111.58 142.02
  A 0.71 0.70 70.3 0 0 110.77 141.63
  L 95.99 145.46
  A 0.33 0.33 0.0 0 0 95.78 145.92
  C 115.28 186.81 128.75 237.68 124.78 283.23
  C 124.00 292.22 114.75 295.88 109.55 287.94
  C 84.04 248.96 71.08 199.04 68.30 152.95
  A 0.41 0.40 -10.2 0 0 67.77 152.59
  Q 60.67 154.73 53.27 155.41
  A 0.56 0.55 86.8 0 0 52.76 155.99
  C 54.26 188.50 61.93 221.63 73.55 252.19
  C 81.12 272.08 92.61 295.73 109.09 311.91
  Z
  M 85.00 162.32
  Q 89.76 209.51 108.46 253.03
  Q 108.70 253.59 108.68 252.98
  Q 108.46 247.11 107.08 237.69
  Q 101.21 197.75 85.76 162.13
  Q 84.75 159.80 85.00 162.32
  Z
  M 380.75 270.54
  L 320.20 286.05
  A 0.53 0.52 -13.5 0 0 319.82 286.66
  C 322.57 299.71 327.92 310.15 342.38 311.66
  Q 346.78 312.11 353.97 310.37
  Q 365.17 307.66 376.25 304.46
  C 396.43 300.08 416.28 297.04 415.10 273.79
  C 414.92 270.40 413.58 266.39 412.58 262.93
  A 0.51 0.51 0.0 0 0 411.96 262.58
  L 380.75 270.54
  Z
  M 376.14 449.86
  Q 383.10 456.00 392.50 456.00
  Q 444.08 456.01 495.04 455.99
  A 0.96 0.95 0.0 0 0 496.00 455.04
  L 496.00 296.61
  A 0.58 0.58 0.0 0 0 495.42 296.03
  L 480.66 295.99
  A 0.65 0.65 0.0 0 0 480.01 296.63
  Q 479.97 345.58 480.02 394.54
  C 480.03 407.52 476.75 418.34 463.48 422.59
  Q 458.94 424.04 448.87 424.03
  Q 408.71 423.96 368.56 424.02
  A 0.52 0.52 0.0 0 0 368.04 424.52
  C 367.51 434.38 368.46 443.11 376.14 449.86
  Z
  M 407.88 343.99
  A 23.88 23.88 0.0 0 0 384.00 320.11
  A 23.88 23.88 0.0 0 0 360.12 343.99
  A 23.88 23.88 0.0 0 0 384.00 367.87
  A 23.88 23.88 0.0 0 0 407.88 343.99
  Z
  M 344.04 400.00
  L 344.14 407.43
  A 0.58 0.58 0.0 0 0 344.72 408.00
  L 423.37 408.00
  A 0.63 0.63 0.0 0 0 424.00 407.37
  L 424.00 384.76
  A 0.61 0.61 0.0 0 0 423.39 384.15
  L 400.23 384.07
  L 344.55 384.02
  A 0.51 0.50 -0.0 0 0 344.04 384.52
  L 344.04 400.00
  Z
  M 480.00 495.96
  L 495.51 495.99
  A 0.49 0.49 0.0 0 0 496.00 495.50
  L 496.00 472.73
  A 0.61 0.61 0.0 0 0 495.38 472.12
  L 480.21 472.25
  L 464.61 472.12
  A 0.61 0.61 0.0 0 0 464.00 472.73
  L 464.00 495.46
  A 0.50 0.50 0.0 0 0 464.50 495.96
  L 480.00 495.96
  Z"
/>
<path fill="#b6ebff" d="
  M 411.00 20.54
  L 411.00 20.81
  A 0.84 0.83 -65.5 0 0 411.22 21.40
  Q 428.87 40.94 436.05 66.03
  C 439.31 77.41 437.01 87.96 426.98 94.77
  C 422.34 97.92 416.45 99.00 410.51 100.53
  Q 313.21 125.57 280.75 133.79
  C 275.84 119.27 269.82 108.39 256.00 101.01
  Q 238.94 91.90 219.62 96.92
  Q 138.87 117.89 58.04 138.60
  C 41.69 142.79 26.61 132.90 20.54 118.19
  Q 19.46 115.57 18.02 108.15
  A 0.52 0.52 0.0 0 1 18.41 107.54
  Q 305.88 33.66 359.05 20.06
  Q 384.85 13.46 411.00 20.54
  Z"
/>
<path fill="#33ccff" d="
  M 411.00 20.54
  C 444.65 28.95 471.11 54.42 482.58 86.57
  C 485.02 93.42 487.02 102.08 489.02 109.84
  A 0.69 0.69 0.0 0 1 488.52 110.68
  Q 471.15 115.09 453.68 119.65
  C 447.97 121.14 444.55 123.50 445.46 129.75
  Q 438.78 132.20 431.75 133.29
  C 429.11 126.87 424.57 127.13 418.39 128.70
  C 411.28 130.51 398.91 130.96 400.21 141.50
  L 383.75 145.79
  C 381.32 139.26 376.61 139.42 370.43 141.01
  Q 327.62 152.04 318.75 154.25
  C 302.61 158.26 286.23 149.53 280.75 133.79
  Q 313.21 125.57 410.51 100.53
  C 416.45 99.00 422.34 97.92 426.98 94.77
  C 437.01 87.96 439.31 77.41 436.05 66.03
  Q 428.87 40.94 411.22 21.40
  A 0.84 0.83 -65.5 0 1 411.00 20.81
  L 411.00 20.54
  Z"
/>
<path fill="#4f565a" d="
  M 167.18 46.72
  Q 175.01 42.32 183.83 40.24
  C 189.07 39.00 191.85 36.03 190.75 30.46
  L 210.73 25.21
  A 0.49 0.49 0.0 0 1 211.33 25.56
  L 215.00 39.95
  A 0.52 0.51 -14.4 0 1 214.62 40.58
  L 169.26 52.25
  A 0.53 0.51 74.7 0 1 168.63 51.88
  L 167.18 46.72
  Z"
/>
<path fill="#77848c" d="
  M 190.75 30.46
  C 191.85 36.03 189.07 39.00 183.83 40.24
  Q 175.01 42.32 167.18 46.72
  L 164.94 37.53
  A 0.51 0.50 -14.6 0 1 165.30 36.92
  L 190.75 30.46
  Z"
/>
<path fill="#a2adb3" d="
  M 383.75 145.79
  L 400.21 141.50
  C 402.35 147.68 406.82 148.12 412.76 146.62
  Q 418.98 145.06 425.17 143.37
  Q 432.81 141.28 431.75 133.29
  Q 438.78 132.20 445.46 129.75
  C 447.92 138.19 455.48 135.83 461.64 134.05
  A 0.56 0.56 0.0 0 1 462.33 134.45
  Q 467.25 153.45 471.87 172.53
  Q 478.38 199.43 461.79 221.00
  Q 458.72 202.55 455.00 192.50
  C 449.35 177.20 433.14 168.07 417.56 172.06
  Q 359.65 186.88 301.75 201.73
  C 284.50 206.16 267.29 199.95 257.33 185.12
  C 253.44 179.32 252.11 172.10 250.08 167.42
  Q 242.60 150.19 224.47 145.36
  Q 219.13 130.59 212.52 115.98
  A 0.36 0.36 0.0 0 1 212.76 115.48
  Q 219.61 113.67 226.53 112.13
  C 240.37 109.03 254.39 115.42 261.33 127.81
  Q 262.57 130.02 264.55 136.42
  C 270.76 156.50 289.07 171.33 310.48 171.27
  Q 316.48 171.26 328.19 168.30
  Q 345.36 163.96 376.81 155.83
  Q 384.66 153.80 383.75 145.79
  Z"
/>
<path fill="#4f565a" d="
  M 206.96 144.75
  Q 169.00 149.21 137.44 151.19
  Q 134.69 151.36 133.46 151.75
  L 127.44 137.92
  A 0.46 0.45 71.2 0 1 127.74 137.30
  L 195.98 119.76
  A 0.63 0.62 69.2 0 1 196.70 120.09
  Q 202.65 132.20 206.96 144.75
  Z"
/>
<path fill="#333333" d="
  M 431.75 133.29
  Q 432.81 141.28 425.17 143.37
  Q 418.98 145.06 412.76 146.62
  C 406.82 148.12 402.35 147.68 400.21 141.50
  C 398.91 130.96 411.28 130.51 418.39 128.70
  C 424.57 127.13 429.11 126.87 431.75 133.29
  Z"
/>
<path fill="#a0a0a0" d="
  M 109.09 311.91
  C 92.61 295.73 81.12 272.08 73.55 252.19
  C 61.93 221.63 54.26 188.50 52.76 155.99
  A 0.56 0.55 86.8 0 1 53.27 155.41
  Q 60.67 154.73 67.77 152.59
  A 0.41 0.40 -10.2 0 1 68.30 152.95
  C 71.08 199.04 84.04 248.96 109.55 287.94
  C 114.75 295.88 124.00 292.22 124.78 283.23
  C 128.75 237.68 115.28 186.81 95.78 145.92
  A 0.33 0.33 0.0 0 1 95.99 145.46
  L 110.77 141.63
  A 0.71 0.70 70.3 0 1 111.58 142.02
  C 130.78 183.11 142.63 231.07 141.39 276.25
  C 141.00 290.56 135.58 337.92 109.09 311.91
  Z"
/>
<path fill="#686868" d="
  M 206.96 144.75
  Q 214.20 163.34 218.60 183.53
  Q 197.25 186.92 175.71 188.25
  C 174.28 183.87 168.23 184.76 168.21 189.54
  L 146.29 190.75
  Q 140.95 170.90 133.46 151.75
  Q 134.69 151.36 137.44 151.19
  Q 169.00 149.21 206.96 144.75
  Z
  M 160.0139 181.3100
  A 7.98 7.66 89.9 0 0 167.6600 173.3166
  A 7.98 7.66 89.9 0 0 159.9861 165.3500
  A 7.98 7.66 89.9 0 0 152.3400 173.3434
  A 7.98 7.66 89.9 0 0 160.0139 181.3100
  Z"
/>
<path fill="#dee2e8" d="
  M 461.79 221.00
  Q 450.00 236.15 430.82 241.10
  Q 333.69 266.14 236.41 291.02
  Q 235.95 291.14 236.10 290.68
  C 242.76 270.82 243.44 249.17 241.86 229.31
  Q 238.44 186.41 224.47 145.36
  Q 242.60 150.19 250.08 167.42
  C 252.11 172.10 253.44 179.32 257.33 185.12
  C 267.29 199.95 284.50 206.16 301.75 201.73
  Q 359.65 186.88 417.56 172.06
  C 433.14 168.07 449.35 177.20 455.00 192.50
  Q 458.72 202.55 461.79 221.00
  Z"
/>
<path fill="#1de9b6" d="
  M 85.00 162.32
  Q 84.75 159.80 85.76 162.13
  Q 101.21 197.75 107.08 237.69
  Q 108.46 247.11 108.68 252.98
  Q 108.70 253.59 108.46 253.03
  Q 89.76 209.51 85.00 162.32
  Z"
/>
<ellipse fill="#dee2e8" cx="0.00" cy="0.00" transform="translate(160.00,173.33) rotate(89.9)" rx="7.98" ry="7.66"/>
<path fill="#4f565a" d="
  M 218.60 183.53
  L 221.71 198.50
  Q 186.13 203.00 150.75 208.79
  L 146.29 190.75
  L 168.21 189.54
  C 169.46 195.65 176.55 193.73 175.71 188.25
  Q 197.25 186.92 218.60 183.53
  Z"
/>
<path fill="#dee2e8" d="
  M 175.71 188.25
  C 176.55 193.73 169.46 195.65 168.21 189.54
  C 168.23 184.76 174.28 183.87 175.71 188.25
  Z"
/>
<path fill="#686868" d="
  M 221.71 198.50
  Q 225.85 218.29 226.46 238.50
  Q 191.37 242.73 156.54 248.75
  Q 154.81 228.60 150.75 208.79
  Q 186.13 203.00 221.71 198.50
  Z"
/>
<path fill="#4f565a" d="
  M 226.46 238.50
  C 227.59 254.71 226.56 278.15 217.47 292.22
  C 214.43 296.92 211.25 297.50 205.27 299.04
  Q 178.50 305.90 151.71 312.78
  Q 150.92 312.99 151.18 312.21
  C 157.98 292.36 158.58 269.56 156.54 248.75
  Q 191.37 242.73 226.46 238.50
  Z"
/>
<path fill="#686868" d="
  M 376.25 304.46
  Q 387.34 288.83 380.75 270.54
  L 411.96 262.58
  A 0.51 0.51 0.0 0 1 412.58 262.93
  C 413.58 266.39 414.92 270.40 415.10 273.79
  C 416.28 297.04 396.43 300.08 376.25 304.46
  Z"
/>
<path fill="#a0a0a0" d="
  M 380.75 270.54
  Q 387.34 288.83 376.25 304.46
  Q 365.17 307.66 353.97 310.37
  Q 346.78 312.11 342.38 311.66
  C 327.92 310.15 322.57 299.71 319.82 286.66
  A 0.53 0.52 -13.5 0 1 320.20 286.05
  L 380.75 270.54
  Z"
/>
<path fill="#a0a0a0" d="
  M 376.14 449.86
  C 368.46 443.11 367.51 434.38 368.04 424.52
  A 0.52 0.52 0.0 0 1 368.56 424.02
  Q 408.71 423.96 448.87 424.03
  Q 458.94 424.04 463.48 422.59
  C 476.75 418.34 480.03 407.52 480.02 394.54
  Q 479.97 345.58 480.01 296.63
  A 0.65 0.65 0.0 0 1 480.66 295.99
  L 495.42 296.03
  A 0.58 0.58 0.0 0 1 496.00 296.61
  L 496.00 455.04
  A 0.96 0.95 -0.0 0 1 495.04 455.99
  Q 444.08 456.01 392.50 456.00
  Q 383.10 456.00 376.14 449.86
  Z"
/>
<path fill="#77848c" d="
  M 407.88 343.99
  A 23.88 23.88 0.0 0 1 384.00 367.87
  A 23.88 23.88 0.0 0 1 360.12 343.99
  A 23.88 23.88 0.0 0 1 384.00 320.11
  A 23.88 23.88 0.0 0 1 407.88 343.99
  Z
  M 392.01 343.98
  A 8.01 8.01 0.0 0 0 384.00 335.97
  A 8.01 8.01 0.0 0 0 375.99 343.98
  A 8.01 8.01 0.0 0 0 384.00 351.99
  A 8.01 8.01 0.0 0 0 392.01 343.98
  Z"
/>
<circle fill="#333333" cx="384.00" cy="343.98" r="8.01"/>
<path fill="#b4d3e0" d="
  M 400.23 384.07
  C 399.85 391.03 401.22 400.07 391.00 399.96
  Q 381.12 399.85 344.04 400.00
  L 344.04 384.52
  A 0.51 0.50 -0.0 0 1 344.55 384.02
  L 400.23 384.07
  Z"
/>
<path fill="#77848c" d="
  M 344.04 400.00
  Q 381.12 399.85 391.00 399.96
  C 401.22 400.07 399.85 391.03 400.23 384.07
  L 423.39 384.15
  A 0.61 0.61 0.0 0 1 424.00 384.76
  L 424.00 407.37
  A 0.63 0.63 0.0 0 1 423.37 408.00
  L 344.72 408.00
  A 0.58 0.58 0.0 0 1 344.14 407.43
  L 344.04 400.00
  Z"
/>
<path fill="#b4d3e0" d="
  M 480.21 472.25
  L 480.00 495.96
  L 464.50 495.96
  A 0.50 0.50 0.0 0 1 464.00 495.46
  L 464.00 472.73
  A 0.61 0.61 0.0 0 1 464.61 472.12
  L 480.21 472.25
  Z"
/>
<path fill="#77848c" d="
  M 480.00 495.96
  L 480.21 472.25
  L 495.38 472.12
  A 0.61 0.61 0.0 0 1 496.00 472.73
  L 496.00 495.50
  A 0.49 0.49 0.0 0 1 495.51 495.99
  L 480.00 495.96
  Z"
/>
</svg>
