<?xml version="1.0" encoding="UTF-8" standalone="no"?>
<svg
   version="1.1"
   viewBox="0 0 155.69073 193.98096"
   id="svg284"
   sodipodi:docname="circulo.svg"
   inkscape:version="1.2.1 (9c6d41e410, 2022-07-14)"
   width="155.69073"
   height="193.98096"
   xmlns:inkscape="http://www.inkscape.org/namespaces/inkscape"
   xmlns:sodipodi="http://sodipodi.sourceforge.net/DTD/sodipodi-0.dtd"
   xmlns="http://www.w3.org/2000/svg"
   xmlns:svg="http://www.w3.org/2000/svg">
  <defs
     id="defs288" />
  <sodipodi:namedview
     id="namedview286"
     pagecolor="#ffffff"
     bordercolor="#666666"
     borderopacity="1.0"
     inkscape:showpageshadow="2"
     inkscape:pageopacity="0.0"
     inkscape:pagecheckerboard="0"
     inkscape:deskcolor="#d1d1d1"
     showgrid="false"
     inkscape:zoom="2.2486095"
     inkscape:cx="161.87782"
     inkscape:cy="101.396"
     inkscape:window-width="1366"
     inkscape:window-height="705"
     inkscape:window-x="-8"
     inkscape:window-y="-8"
     inkscape:window-maximized="1"
     inkscape:current-layer="svg284" />
  <path
     fill="#080808"
     d="M 38.653451,10.133962 C 55.011287,-1.4693185 71.662815,-2.5687015 90.055655,4.0939195 99.042625,7.3493984 105.88337,9.7951776 113.02919,16.214866 q 3.59918,3.224362 6.4996,5.273873 27.36239,19.290089 34.05582,52.358923 c 5.05445,24.997756 1.29216,53.747538 -14.34292,74.252208 q -3.61253,4.75577 -6.21351,8.75679 c -16.92176,26.05521 -42.177705,43.47952 -74.255844,34.92857 q -29.44845,-7.851 -45.598576,-33.1794 C -0.85431125,136.61058 -1.0692802,110.40372 0.87244575,85.400872 3.0783358,56.94458 14.723376,27.103031 38.653451,10.133962 Z M 77.286015,169.64989 q -2.46788,0.57794 -4.91393,1.38506 -0.49017,0.16318 0.0227,0.20684 c 19.69154,1.79293 40.386255,-3.86979 55.245815,-17.22717 q 3.06383,-2.75091 5.15414,-6.63436 c 1.2939,-2.38124 8.836,-17.59097 8.15181,-19.76336 q -0.16616,-0.52611 -0.36231,-0.006 c -4.1255,11.07695 -14.95948,24.71775 -28.28391,23.0861 a 1.09,1.11 27.341368 0 0 -0.8668,0.28631 c -9.61549,8.97816 -21.325655,15.68959 -34.147575,18.66667 z m 72.260045,-56.94371 c 5.43129,-28.089689 -1.29492,-59.074073 -22.29749,-79.429609 q -0.37856,-0.369312 -0.17461,0.10913 0.78057,1.791454 2.78556,5.356975 c 3.66693,6.552831 5.73164,14.28797 9.43305,21.088411 q 13.53351,24.852787 9.93185,53.291443 -0.0633,0.44496 0.15453,0.0512 0.12094,-0.21879 0.1671,-0.46753 z m -31.00319,53.23539 q -26.116685,13.89733 -54.648347,7.46745 -4.784754,-1.08032 -8.863765,-1.37045 C 34.309335,170.57888 18.309469,160.82867 9.3491288,142.0471 q -0.0663,-0.12808 -0.227333,-0.0228 a 0.28,0.26 63.241368 0 0 -0.09359,0.31391 c 7.4214252,20.05602 22.3162472,34.86301 42.2113032,42.32203 26.078966,9.77012 50.749891,2.02099 68.437521,-18.86849 q 0.22095,-0.25491 -0.11232,-0.3135 c -0.49842,-0.0699 -0.68322,0.28497 -1.02185,0.46338 z m 21.80102,-72.984851 c -1.65107,20.695581 -10.92842,41.047821 -25.68997,54.847921 q -1.13624,1.06288 0.41067,0.88985 c 11.26168,-1.18877 20.00409,-14.04356 23.16002,-23.75976 q 4.77113,-14.66228 2.59362,-32.2985 -0.0405,-0.319474 -0.28581,-0.123764 -0.16195,0.127559 -0.18849,0.444262 z M 113.35013,32.641622 c 1.39401,0.599441 6.11724,4.456804 6.55439,4.492849 q 0.49543,0.03399 0.22652,-0.388961 -4.94305,-7.944107 -7.51711,-9.984551 C 100.46256,17.139115 80.650155,10.708523 65.552103,17.409166 Q 35.452984,30.738386 21.761667,61.676677 c -11.05437,24.991713 -15.4263862,59.266413 2.310024,82.718073 5.770922,7.62485 13.733567,11.07953 22.79653,13.4743 22.21233,5.87221 44.902494,-2.03521 61.628869,-16.37145 C 134.886,118.88341 140.21562,84.075518 127.92671,52.529069 125.33473,45.85076 117.7606,39.93699 112.53673,34.877191 c -0.70163,-0.673658 -0.79541,-1.433993 -0.0566,-2.088156 a 0.83,0.83 0 0 1 0.86997,-0.147413 z M 60.182052,168.38509 c 16.958743,-0.95235 32.325193,-7.00179 45.298828,-17.73394 a 0.57,0.55 23.541368 0 1 0.34552,-0.12889 q 0.3098,-0.023 0.17994,-0.34615 a 0.27,0.27 0 0 0 -0.41108,-0.12457 c -15.547245,11.37731 -31.365105,15.57735 -50.477225,14.05911 -3.372834,-0.26529 -6.782304,-1.37359 -10.221123,-2.09818 q -1.011534,-0.21655 -0.106258,0.29549 5.975188,3.34981 12.419354,5.64486 1.442403,0.51193 2.972031,0.43217 z m -17.363675,-3.41958 q -6.396369,-3.66271 -18.267679,-14.101 C 0.66599675,129.85226 4.8258398,90.443755 14.291118,63.944829 c 0.0802,-0.207043 0.577916,-0.983114 0.335461,-1.28859 a 0.36,0.36 0 0 0 -0.606927,0.06433 Q 6.5886488,77.626068 4.7985458,90.885741 C 0.80088375,120.45382 11.826195,161.84871 46.943042,167.71484 q 0.524672,0.0844 0.08505,-0.21579 -1.197257,-0.8106 -4.209713,-2.53354 z M 43.207167,24.547613 C 57.298815,13.839483 72.949905,8.8044772 90.680565,10.17586 q 0.52651,0.03975 0.11984,-0.299395 -1.78811,-1.4572829 -4.18687,-1.789579 C 70.242955,5.8677963 53.857621,13.387837 42.207568,24.4748 q -0.255955,0.235557 0.0909,0.290235 0.515912,0.0796 0.908696,-0.217422 z M 13.828712,56.535789 Q 23.132258,42.562911 33.256762,29.192551 C 42.040529,17.606183 55.28327,8.3712319 69.935441,5.0806897 a 0.33,0.32 89.641368 0 0 0.248131,-0.262738 l 0.06064,-0.2749952 A 0.17,0.17 0 0 0 70.068993,4.3432184 C 35.846344,6.1591721 14.838992,35.965803 7.8534108,66.886957 q -0.146415,0.616086 0.387108,0.271196 c 0.43654,-0.272824 4.6285052,-9.176162 5.5881932,-10.622364 z m 5.168064,5.326042 c 2.185439,-3.910839 3.89472,-8.427792 6.053792,-11.918982 q 4.205916,-6.758762 9.108216,-13.041027 0.311966,-0.398845 -0.08174,-0.07949 -7.534475,6.28941 -11.325221,15.231778 c -1.642551,3.879656 -3.694145,7.6931 -4.936199,11.737084 q -0.17565,0.565638 0.283021,0.190784 0.543002,-0.465349 0.609529,-1.205601 0.04274,-0.490585 0.28861,-0.914552 z"
     id="path262"
     style="fill:#ff2a2a;stroke:none" />
</svg>
