<?xml version="1.0" encoding="UTF-8" standalone="no"?>
<!DOCTYPE svg PUBLIC "-//W3C//DTD SVG 1.1//EN" "http://www.w3.org/Graphics/SVG/1.1/DTD/svg11.dtd">
<svg xmlns="http://www.w3.org/2000/svg" version="1.1" viewBox="0 0 128 128">
<g stroke-width="2.00" fill="none" stroke-linecap="butt">
<path stroke="#734e0e" vector-effect="non-scaling-stroke" d="
  M 19.54 9.00
  Q 18.94 11.00 17.51 11.01
  Q 11.17 11.02 4.77 10.97
  A 0.75 0.75 0.0 0 0 4.05 11.50
  Q 3.36 13.65 4.04 15.76
  A 0.70 0.69 -8.4 0 0 4.71 16.25
  L 78.52 16.25
  A 0.69 0.68 -80.5 0 0 79.17 15.78
  Q 79.90 13.68 79.25 11.53
  A 0.78 0.77 81.3 0 0 78.51 10.98
  Q 52.75 11.02 27.03 10.99
  C 25.41 10.99 24.69 10.27 24.00 8.96"
/>
<path stroke="#7e6925" vector-effect="non-scaling-stroke" d="
  M 112.71 52.00
  L 110.89 52.42
  A 1.21 1.17 -32.9 0 1 109.93 52.23
  Q 98.71 44.14 84.81 45.07
  Q 84.00 45.12 84.70 45.53
  L 88.57 47.79
  Q 89.00 48.04 89.48 48.09
  Q 107.56 50.04 115.99 63.89
  C 128.64 84.68 115.40 111.38 90.86 113.63
  C 88.41 113.86 87.09 115.10 85.05 116.11
  Q 83.55 116.85 85.22 116.93
  C 117.54 118.63 135.92 82.89 115.79 57.80
  A 1.18 1.18 0.0 0 1 115.53 56.91
  L 115.75 55.04"
/>
<path stroke="#7d5d1c" vector-effect="non-scaling-stroke" d="
  M 21.00 25.46
  L 84.81 25.49
  A 0.85 0.84 -77.1 0 0 85.57 25.01
  Q 86.47 23.14 85.85 20.97
  A 1.33 1.33 0.0 0 0 84.57 20.01
  L 21.25 20.04"
/>
<path stroke="#734e0e" vector-effect="non-scaling-stroke" d="
  M 21.25 20.04
  L 11.40 20.05
  A 0.86 0.84 -80.3 0 0 10.60 20.63
  Q 9.86 22.75 10.60 24.87
  A 0.86 0.86 0.0 0 0 11.41 25.45
  L 21.00 25.46"
/>
<path stroke="#efab2a" vector-effect="non-scaling-stroke" d="
  M 21.25 20.04
  L 21.00 25.46"
/>
<path stroke="#734e0e" vector-effect="non-scaling-stroke" d="
  M 79.50 30.46
  A 1.21 1.21 0.0 0 0 78.29 29.25
  L 4.97 29.25
  A 1.21 1.21 0.0 0 0 3.76 30.46
  L 3.76 33.30
  A 1.21 1.21 0.0 0 0 4.97 34.51
  L 78.29 34.51
  A 1.21 1.21 0.0 0 0 79.50 33.30
  L 79.50 30.46"
/>
<path stroke="#734e0e" vector-effect="non-scaling-stroke" d="
  M 14.75 38.54
  L 4.55 38.52
  A 0.71 0.71 0.0 0 0 3.84 39.22
  L 3.78 42.88
  A 0.74 0.74 0.0 0 0 4.51 43.63
  L 14.75 43.71"
/>
<path stroke="#7d5d1c" vector-effect="non-scaling-stroke" d="
  M 14.75 43.71
  Q 32.00 43.76 49.27 43.77
  Q 51.89 43.77 55.12 42.86
  Q 66.07 39.79 77.37 42.63
  Q 79.82 43.25 79.55 40.73
  L 79.39 39.28
  A 0.73 0.73 0.0 0 0 78.69 38.63
  C 57.52 37.72 35.96 38.51 14.75 38.54"
/>
<path stroke="#efab2a" vector-effect="non-scaling-stroke" d="
  M 14.75 43.71
  L 14.75 38.54"
/>
<path stroke="#7d5d1c" vector-effect="non-scaling-stroke" d="
  M 39.46 57.50
  C 27.49 71.75 27.67 90.56 39.33 104.47
  C 46.70 113.27 59.50 118.76 71.75 116.46"
/>
<path stroke="#7e6925" vector-effect="non-scaling-stroke" d="
  M 71.75 116.46
  C 102.71 111.50 114.06 72.10 88.43 52.48
  C 72.92 40.62 52.24 43.13 39.46 57.50"
/>
<path stroke="#fbc641" vector-effect="non-scaling-stroke" d="
  M 71.75 116.46
  L 67.71 113.75"
/>
<path stroke="#7e6925" vector-effect="non-scaling-stroke" d="
  M 67.71 113.75
  Q 87.19 111.77 95.51 96.04
  C 99.95 87.64 100.62 76.82 96.77 68.27
  C 85.41 43.09 52.54 41.49 38.00 64.76"
/>
<path stroke="#fbc641" vector-effect="non-scaling-stroke" d="
  M 38.00 64.76
  Q 36.95 60.89 39.46 57.50"
/>
<path stroke="#efab2a" vector-effect="non-scaling-stroke" d="
  M 44.25 102.46
  L 48.29 105.50"
/>
<path stroke="#7d5d1c" vector-effect="non-scaling-stroke" d="
  M 67.71 113.75
  Q 57.62 113.90 49.04 108.72
  Q 46.99 107.48 48.29 105.50"
/>
<path stroke="#734e0e" vector-effect="non-scaling-stroke" d="
  M 48.29 105.50
  Q 49.27 104.51 50.19 105.06
  Q 60.65 111.39 72.00 109.29"
/>
<path stroke="#7d5d1c" vector-effect="non-scaling-stroke" d="
  M 72.00 109.29
  Q 91.16 104.39 94.75 86.97
  C 100.93 57.06 63.56 39.48 43.96 63.00"
/>
<path stroke="#734e0e" vector-effect="non-scaling-stroke" d="
  M 43.96 63.00
  C 34.84 75.24 35.97 88.21 44.74 100.40
  A 1.04 1.04 0.0 0 1 44.89 101.29
  Q 44.69 101.97 44.25 102.46"
/>
<path stroke="#7d5d1c" vector-effect="non-scaling-stroke" d="
  M 44.25 102.46
  Q 42.40 103.36 41.31 101.94
  Q 28.09 84.65 38.00 64.76"
/>
<path stroke="#efab2a" vector-effect="non-scaling-stroke" d="
  M 72.00 109.29
  Q 70.48 108.83 66.83 108.17
  C 48.75 104.92 38.02 87.43 42.42 69.42
  Q 43.14 66.48 44.25 64.62
  A 0.94 0.93 -42.2 0 0 44.30 63.74
  L 43.96 63.00"
/>
<path stroke="#734e0e" vector-effect="non-scaling-stroke" d="
  M 16.58 48.31
  C 15.27 51.77 16.39 53.02 19.87 53.01
  Q 28.71 52.98 37.60 53.01
  A 1.28 1.28 0.0 0 0 38.40 52.73
  L 44.21 48.00
  Q 44.83 47.50 44.04 47.50
  L 17.75 47.50
  A 1.26 1.25 -79.4 0 0 16.58 48.31"
/>
<path stroke="#7d5d1c" vector-effect="non-scaling-stroke" d="
  M 117.11 80.86
  C 117.21 68.41 108.13 55.71 95.31 53.11
  Q 94.82 53.01 95.16 53.37
  C 110.11 69.31 109.78 92.74 95.16 108.56
  Q 94.45 109.33 95.45 109.03
  C 108.53 105.14 117.01 94.47 117.11 80.86"
/>
<path stroke="#7d5d1c" vector-effect="non-scaling-stroke" d="
  M 21.25 61.96
  Q 26.09 62.51 30.96 62.06
  A 1.04 1.04 0.0 0 0 31.76 61.58
  L 34.55 57.33
  Q 34.89 56.81 34.27 56.81
  L 21.50 56.79"
/>
<path stroke="#734e0e" vector-effect="non-scaling-stroke" d="
  M 21.50 56.79
  L 11.36 56.76
  A 0.85 0.83 -79.2 0 0 10.58 57.30
  Q 9.84 59.25 10.52 61.28
  A 0.90 0.89 -5.7 0 0 11.26 61.88
  Q 16.25 62.53 21.25 61.96"
/>
<path stroke="#efab2a" vector-effect="non-scaling-stroke" d="
  M 21.50 56.79
  L 21.25 61.96"
/>
<path stroke="#734e0e" vector-effect="non-scaling-stroke" d="
  M 10.57 66.43
  Q 9.74 68.74 10.75 70.81
  A 0.81 0.80 -13.0 0 0 11.47 71.25
  L 27.48 71.25
  A 0.60 0.60 0.0 0 0 28.05 70.83
  L 29.48 66.43
  A 0.31 0.31 0.0 0 0 29.19 66.03
  L 11.61 65.71
  A 1.09 1.08 10.1 0 0 10.57 66.43"
/>
<path stroke="#7d5d1c" vector-effect="non-scaling-stroke" d="
  M 15.25 80.46
  L 26.06 80.48
  A 0.64 0.63 -87.0 0 0 26.69 79.91
  L 27.11 75.69
  A 0.61 0.60 -87.4 0 0 26.51 75.03
  L 15.00 75.04"
/>
<path stroke="#734e0e" vector-effect="non-scaling-stroke" d="
  M 15.00 75.04
  L 4.93 74.99
  A 0.86 0.86 0.0 0 0 4.11 75.55
  Q 3.37 77.57 3.89 79.75
  A 0.78 0.77 -6.3 0 0 4.63 80.34
  L 15.25 80.46"
/>
<path stroke="#efab2a" vector-effect="non-scaling-stroke" d="
  M 15.00 75.04
  Q 14.46 77.79 15.25 80.46"
/>
<path stroke="#734e0e" vector-effect="non-scaling-stroke" d="
  M 16.97 84.24
  A 0.69 0.69 0.0 0 0 16.28 84.96
  L 16.46 88.85
  A 0.69 0.69 0.0 0 0 17.15 89.51
  L 26.78 89.50
  A 0.69 0.69 0.0 0 0 27.46 88.72
  L 26.93 84.85
  A 0.69 0.69 0.0 0 0 26.25 84.25
  L 16.97 84.24"
/>
<path stroke="#7d5d1c" vector-effect="non-scaling-stroke" d="
  M 21.50 98.71
  L 30.33 98.69
  A 0.35 0.35 0.0 0 0 30.65 98.21
  L 28.83 93.83
  A 0.82 0.81 78.6 0 0 28.08 93.33
  L 21.50 93.29"
/>
<path stroke="#734e0e" vector-effect="non-scaling-stroke" d="
  M 21.50 93.29
  L 11.59 93.27
  A 1.22 1.21 7.4 0 0 10.41 94.17
  Q 9.86 96.26 10.61 98.16
  A 0.88 0.88 0.0 0 0 11.45 98.73
  L 21.50 98.71"
/>
<path stroke="#efab2a" vector-effect="non-scaling-stroke" d="
  M 21.50 93.29
  Q 20.88 96.00 21.50 98.71"
/>
<path stroke="#734e0e" vector-effect="non-scaling-stroke" d="
  M 36.29 106.87
  L 33.26 102.91
  A 1.03 1.02 71.3 0 0 32.44 102.50
  L 4.91 102.50
  A 0.90 0.90 0.0 0 0 4.07 103.08
  Q 3.32 105.10 3.98 107.27
  A 0.75 0.75 0.0 0 0 4.70 107.80
  L 35.90 107.65
  Q 36.88 107.65 36.29 106.87"
/>
<path stroke="#7d5d1c" vector-effect="non-scaling-stroke" d="
  M 21.00 116.96
  L 48.43 116.92
  Q 49.03 116.92 48.53 116.59
  L 41.24 111.86
  A 1.76 1.73 60.4 0 0 40.26 111.58
  L 21.54 111.75"
/>
<path stroke="#734e0e" vector-effect="non-scaling-stroke" d="
  M 21.54 111.75
  Q 16.31 111.10 11.14 111.80
  A 0.76 0.74 5.5 0 0 10.52 112.30
  Q 9.74 114.51 10.74 116.53
  A 0.92 0.92 0.0 0 0 11.58 117.04
  L 21.00 116.96"
/>
<path stroke="#efab2a" vector-effect="non-scaling-stroke" d="
  M 21.54 111.75
  L 21.00 116.96"
/>
<path stroke="#7d5d1c" vector-effect="non-scaling-stroke" d="
  M 69.21 71.79
  L 73.16 73.66
  A 1.49 1.49 0.0 0 0 75.14 72.95
  C 76.65 69.79 70.68 68.37 68.70 67.89
  A 0.48 0.47 -74.2 0 1 68.36 67.28
  Q 68.86 65.72 67.64 64.47
  Q 66.20 63.01 65.15 64.77
  Q 64.49 65.87 64.77 67.16
  A 0.62 0.61 75.0 0 1 64.36 67.88
  C 55.10 70.78 54.63 80.14 64.17 82.39
  A 0.75 0.74 -83.7 0 1 64.75 83.12
  L 64.75 89.75
  A 0.50 0.50 0.0 0 1 64.05 90.21
  L 59.49 88.19
  A 0.81 0.81 0.0 0 0 58.53 88.43
  L 57.52 89.68
  A 0.83 0.82 -49.2 0 0 57.60 90.80
  Q 60.32 93.34 64.04 93.84
  A 0.78 0.77 -87.4 0 1 64.72 94.59
  L 64.78 96.30
  A 1.48 1.48 0.0 0 0 65.13 97.20
  Q 65.70 97.89 66.69 97.79
  C 68.36 97.63 68.68 95.96 68.43 94.58
  A 0.50 0.48 -10.2 0 1 68.83 94.02
  C 78.04 92.32 78.18 81.64 69.08 79.71
  A 0.74 0.74 0.0 0 1 68.50 78.99
  L 68.50 72.24
  A 0.50 0.50 0.0 0 1 69.21 71.79"
/>
<path stroke="#7d5d1c" vector-effect="non-scaling-stroke" d="
  M 63.95 78.29
  A 0.56 0.56 0.0 0 0 64.75 77.78
  L 64.75 72.52
  A 0.47 0.46 -3.8 0 0 64.22 72.06
  C 59.74 72.62 60.30 76.55 63.95 78.29"
/>
<path stroke="#7d5d1c" vector-effect="non-scaling-stroke" d="
  M 69.85 84.07
  Q 68.50 83.21 68.50 84.81
  L 68.50 89.47
  A 0.47 0.47 0.0 0 0 69.04 89.93
  C 72.50 89.43 73.14 86.16 69.85 84.07"
/>
</g>
<path fill="#000000" d="
  M 19.54 9.00
  Q 18.94 11.00 17.51 11.01
  Q 11.17 11.02 4.77 10.97
  A 0.75 0.75 0.0 0 0 4.05 11.50
  Q 3.36 13.65 4.04 15.76
  A 0.70 0.69 -8.4 0 0 4.71 16.25
  L 78.52 16.25
  A 0.69 0.68 -80.5 0 0 79.17 15.78
  Q 79.90 13.68 79.25 11.53
  A 0.78 0.77 81.3 0 0 78.51 10.98
  Q 52.75 11.02 27.03 10.99
  C 25.41 10.99 24.69 10.27 24.00 8.96
  L 25.25 7.62
  A 1.20 1.18 20.8 0 1 26.09 7.25
  Q 51.50 7.25 76.91 7.25
  C 82.81 7.25 83.64 10.76 83.24 15.76
  A 0.37 0.37 0.0 0 0 83.55 16.16
  Q 89.24 16.92 89.85 21.20
  Q 90.96 28.99 83.39 29.25
  A 0.42 0.42 0.0 0 0 83.00 29.77
  Q 83.80 32.88 82.53 35.79
  A 1.54 1.54 0.0 0 0 82.44 36.74
  L 83.45 40.98
  A 0.58 0.58 0.0 0 0 84.06 41.42
  Q 99.68 40.06 111.91 49.11
  Q 113.20 50.06 112.71 52.00
  L 110.89 52.42
  A 1.21 1.17 -32.9 0 1 109.93 52.23
  Q 98.71 44.14 84.81 45.07
  Q 84.00 45.12 84.70 45.53
  L 88.57 47.79
  Q 89.00 48.04 89.48 48.09
  Q 107.56 50.04 115.99 63.89
  C 128.64 84.68 115.40 111.38 90.86 113.63
  C 88.41 113.86 87.09 115.10 85.05 116.11
  Q 83.55 116.85 85.22 116.93
  C 117.54 118.63 135.92 82.89 115.79 57.80
  A 1.18 1.18 0.0 0 1 115.53 56.91
  L 115.75 55.04
  C 122.57 53.37 127.64 74.46 128.00 79.06
  L 128.00 82.56
  Q 125.08 111.56 98.00 119.57
  Q 90.04 121.92 80.66 119.97
  C 75.95 118.98 70.86 120.77 67.25 120.77
  Q 39.96 120.75 12.66 120.74
  C 6.90 120.74 6.37 117.10 6.51 112.03
  A 0.47 0.47 0.0 0 0 6.02 111.55
  Q 1.18 111.80 0.00 107.19
  L 0.00 103.19
  Q 1.24 98.49 6.39 98.62
  A 0.39 0.39 0.0 0 0 6.78 98.14
  Q 4.98 90.72 12.01 89.45
  A 0.73 0.73 0.0 0 0 12.61 88.73
  L 12.57 84.53
  A 0.44 0.44 0.0 0 0 12.08 84.09
  C 7.54 84.56 1.46 85.05 0.00 79.94
  L 0.00 75.44
  Q 1.49 71.10 6.20 71.11
  A 0.54 0.54 0.0 0 0 6.73 70.44
  Q 5.96 67.29 7.39 64.44
  A 1.07 1.06 46.0 0 0 7.40 63.53
  C 5.40 59.20 6.23 53.23 12.07 52.85
  A 0.57 0.57 0.0 0 0 12.61 52.28
  L 12.58 48.01
  A 0.49 0.49 0.0 0 0 12.09 47.53
  C 7.67 47.48 1.55 48.93 0.00 43.19
  L 0.00 38.94
  Q 1.62 36.45 0.00 33.94
  L 0.00 29.94
  Q 1.30 25.27 6.16 25.38
  A 0.44 0.44 0.0 0 0 6.61 24.95
  L 6.64 20.56
  A 0.44 0.44 0.0 0 0 6.19 20.12
  Q 1.38 20.23 0.00 15.69
  L 0.00 11.44
  C 0.88 8.64 2.62 7.29 5.69 7.26
  Q 11.71 7.21 17.73 7.28
  A 1.26 1.23 -22.4 0 1 18.60 7.63
  Q 19.22 8.22 19.54 9.00
  Z
  M 21.00 25.46
  L 84.81 25.49
  A 0.85 0.84 -77.1 0 0 85.57 25.01
  Q 86.47 23.14 85.85 20.97
  A 1.33 1.33 0.0 0 0 84.57 20.01
  L 21.25 20.04
  L 11.40 20.05
  A 0.86 0.84 -80.3 0 0 10.60 20.63
  Q 9.86 22.75 10.60 24.87
  A 0.86 0.86 0.0 0 0 11.41 25.45
  L 21.00 25.46
  Z
  M 79.50 30.46
  A 1.21 1.21 0.0 0 0 78.29 29.25
  L 4.97 29.25
  A 1.21 1.21 0.0 0 0 3.76 30.46
  L 3.76 33.30
  A 1.21 1.21 0.0 0 0 4.97 34.51
  L 78.29 34.51
  A 1.21 1.21 0.0 0 0 79.50 33.30
  L 79.50 30.46
  Z
  M 14.75 38.54
  L 4.55 38.52
  A 0.71 0.71 0.0 0 0 3.84 39.22
  L 3.78 42.88
  A 0.74 0.74 0.0 0 0 4.51 43.63
  L 14.75 43.71
  Q 32.00 43.76 49.27 43.77
  Q 51.89 43.77 55.12 42.86
  Q 66.07 39.79 77.37 42.63
  Q 79.82 43.25 79.55 40.73
  L 79.39 39.28
  A 0.73 0.73 0.0 0 0 78.69 38.63
  C 57.52 37.72 35.96 38.51 14.75 38.54
  Z
  M 39.46 57.50
  C 27.49 71.75 27.67 90.56 39.33 104.47
  C 46.70 113.27 59.50 118.76 71.75 116.46
  C 102.71 111.50 114.06 72.10 88.43 52.48
  C 72.92 40.62 52.24 43.13 39.46 57.50
  Z
  M 16.58 48.31
  C 15.27 51.77 16.39 53.02 19.87 53.01
  Q 28.71 52.98 37.60 53.01
  A 1.28 1.28 0.0 0 0 38.40 52.73
  L 44.21 48.00
  Q 44.83 47.50 44.04 47.50
  L 17.75 47.50
  A 1.26 1.25 -79.4 0 0 16.58 48.31
  Z
  M 117.11 80.86
  C 117.21 68.41 108.13 55.71 95.31 53.11
  Q 94.82 53.01 95.16 53.37
  C 110.11 69.31 109.78 92.74 95.16 108.56
  Q 94.45 109.33 95.45 109.03
  C 108.53 105.14 117.01 94.47 117.11 80.86
  Z
  M 21.25 61.96
  Q 26.09 62.51 30.96 62.06
  A 1.04 1.04 0.0 0 0 31.76 61.58
  L 34.55 57.33
  Q 34.89 56.81 34.27 56.81
  L 21.50 56.79
  L 11.36 56.76
  A 0.85 0.83 -79.2 0 0 10.58 57.30
  Q 9.84 59.25 10.52 61.28
  A 0.90 0.89 -5.7 0 0 11.26 61.88
  Q 16.25 62.53 21.25 61.96
  Z
  M 10.57 66.43
  Q 9.74 68.74 10.75 70.81
  A 0.81 0.80 -13.0 0 0 11.47 71.25
  L 27.48 71.25
  A 0.60 0.60 0.0 0 0 28.05 70.83
  L 29.48 66.43
  A 0.31 0.31 0.0 0 0 29.19 66.03
  L 11.61 65.71
  A 1.09 1.08 10.1 0 0 10.57 66.43
  Z
  M 15.25 80.46
  L 26.06 80.48
  A 0.64 0.63 -87.0 0 0 26.69 79.91
  L 27.11 75.69
  A 0.61 0.60 -87.4 0 0 26.51 75.03
  L 15.00 75.04
  L 4.93 74.99
  A 0.86 0.86 0.0 0 0 4.11 75.55
  Q 3.37 77.57 3.89 79.75
  A 0.78 0.77 -6.3 0 0 4.63 80.34
  L 15.25 80.46
  Z
  M 16.97 84.24
  A 0.69 0.69 0.0 0 0 16.28 84.96
  L 16.46 88.85
  A 0.69 0.69 0.0 0 0 17.15 89.51
  L 26.78 89.50
  A 0.69 0.69 0.0 0 0 27.46 88.72
  L 26.93 84.85
  A 0.69 0.69 0.0 0 0 26.25 84.25
  L 16.97 84.24
  Z
  M 21.50 98.71
  L 30.33 98.69
  A 0.35 0.35 0.0 0 0 30.65 98.21
  L 28.83 93.83
  A 0.82 0.81 78.6 0 0 28.08 93.33
  L 21.50 93.29
  L 11.59 93.27
  A 1.22 1.21 7.4 0 0 10.41 94.17
  Q 9.86 96.26 10.61 98.16
  A 0.88 0.88 0.0 0 0 11.45 98.73
  L 21.50 98.71
  Z
  M 36.29 106.87
  L 33.26 102.91
  A 1.03 1.02 71.3 0 0 32.44 102.50
  L 4.91 102.50
  A 0.90 0.90 0.0 0 0 4.07 103.08
  Q 3.32 105.10 3.98 107.27
  A 0.75 0.75 0.0 0 0 4.70 107.80
  L 35.90 107.65
  Q 36.88 107.65 36.29 106.87
  Z
  M 21.00 116.96
  L 48.43 116.92
  Q 49.03 116.92 48.53 116.59
  L 41.24 111.86
  A 1.76 1.73 60.4 0 0 40.26 111.58
  L 21.54 111.75
  Q 16.31 111.10 11.14 111.80
  A 0.76 0.74 5.5 0 0 10.52 112.30
  Q 9.74 114.51 10.74 116.53
  A 0.92 0.92 0.0 0 0 11.58 117.04
  L 21.00 116.96
  Z"
/>
<path fill="#e59c1c" d="
  M 19.54 9.00
  L 24.00 8.96
  C 24.69 10.27 25.41 10.99 27.03 10.99
  Q 52.75 11.02 78.51 10.98
  A 0.78 0.77 81.3 0 1 79.25 11.53
  Q 79.90 13.68 79.17 15.78
  A 0.69 0.68 -80.5 0 1 78.52 16.25
  L 4.71 16.25
  A 0.70 0.69 -8.4 0 1 4.04 15.76
  Q 3.36 13.65 4.05 11.50
  A 0.75 0.75 0.0 0 1 4.77 10.97
  Q 11.17 11.02 17.51 11.01
  Q 18.94 11.00 19.54 9.00
  Z"
/>
<path fill="#e59c1c" d="
  M 21.25 20.04
  L 21.00 25.46
  L 11.41 25.45
  A 0.86 0.86 0.0 0 1 10.60 24.87
  Q 9.86 22.75 10.60 20.63
  A 0.86 0.84 -80.3 0 1 11.40 20.05
  L 21.25 20.04
  Z"
/>
<path fill="#f9b938" d="
  M 21.25 20.04
  L 84.57 20.01
  A 1.33 1.33 0.0 0 1 85.85 20.97
  Q 86.47 23.14 85.57 25.01
  A 0.85 0.84 -77.1 0 1 84.81 25.49
  L 21.00 25.46
  L 21.25 20.04
  Z"
/>
<rect fill="#e59c1c" x="3.76" y="29.25" width="75.74" height="5.26" rx="1.21"/>
<path fill="#f9b938" d="
  M 14.75 43.71
  L 14.75 38.54
  C 35.96 38.51 57.52 37.72 78.69 38.63
  A 0.73 0.73 0.0 0 1 79.39 39.28
  L 79.55 40.73
  Q 79.82 43.25 77.37 42.63
  Q 66.07 39.79 55.12 42.86
  Q 51.89 43.77 49.27 43.77
  Q 32.00 43.76 14.75 43.71
  Z"
/>
<path fill="#e59c1c" d="
  M 14.75 38.54
  L 14.75 43.71
  L 4.51 43.63
  A 0.74 0.74 0.0 0 1 3.78 42.88
  L 3.84 39.22
  A 0.71 0.71 0.0 0 1 4.55 38.52
  L 14.75 38.54
  Z"
/>
<path fill="#fcd249" d="
  M 71.75 116.46
  L 67.71 113.75
  Q 87.19 111.77 95.51 96.04
  C 99.95 87.64 100.62 76.82 96.77 68.27
  C 85.41 43.09 52.54 41.49 38.00 64.76
  Q 36.95 60.89 39.46 57.50
  C 52.24 43.13 72.92 40.62 88.43 52.48
  C 114.06 72.10 102.71 111.50 71.75 116.46
  Z"
/>
<path fill="#fcd249" d="
  M 112.71 52.00
  L 115.75 55.04
  L 115.53 56.91
  A 1.18 1.18 0.0 0 0 115.79 57.80
  C 135.92 82.89 117.54 118.63 85.22 116.93
  Q 83.55 116.85 85.05 116.11
  C 87.09 115.10 88.41 113.86 90.86 113.63
  C 115.40 111.38 128.64 84.68 115.99 63.89
  Q 107.56 50.04 89.48 48.09
  Q 89.00 48.04 88.57 47.79
  L 84.70 45.53
  Q 84.00 45.12 84.81 45.07
  Q 98.71 44.14 109.93 52.23
  A 1.21 1.17 -32.9 0 0 110.89 52.42
  L 112.71 52.00
  Z"
/>
<path fill="#e59c1c" d="
  M 16.58 48.31
  A 1.26 1.25 -79.4 0 1 17.75 47.50
  L 44.04 47.50
  Q 44.83 47.50 44.21 48.00
  L 38.40 52.73
  A 1.28 1.28 0.0 0 1 37.60 53.01
  Q 28.71 52.98 19.87 53.01
  C 16.39 53.02 15.27 51.77 16.58 48.31
  Z"
/>
<path fill="#000000" d="
  M 67.71 113.75
  Q 57.62 113.90 49.04 108.72
  Q 46.99 107.48 48.29 105.50
  Q 49.27 104.51 50.19 105.06
  Q 60.65 111.39 72.00 109.29
  Q 91.16 104.39 94.75 86.97
  C 100.93 57.06 63.56 39.48 43.96 63.00
  C 34.84 75.24 35.97 88.21 44.74 100.40
  A 1.04 1.04 0.0 0 1 44.89 101.29
  Q 44.69 101.97 44.25 102.46
  Q 42.40 103.36 41.31 101.94
  Q 28.09 84.65 38.00 64.76
  C 52.54 41.49 85.41 43.09 96.77 68.27
  C 100.62 76.82 99.95 87.64 95.51 96.04
  Q 87.19 111.77 67.71 113.75
  Z"
/>
<path fill="#f9b938" d="
  M 72.00 109.29
  Q 70.48 108.83 66.83 108.17
  C 48.75 104.92 38.02 87.43 42.42 69.42
  Q 43.14 66.48 44.25 64.62
  A 0.94 0.93 -42.2 0 0 44.30 63.74
  L 43.96 63.00
  C 63.56 39.48 100.93 57.06 94.75 86.97
  Q 91.16 104.39 72.00 109.29
  Z
  M 69.21 71.79
  L 73.16 73.66
  A 1.49 1.49 0.0 0 0 75.14 72.95
  C 76.65 69.79 70.68 68.37 68.70 67.89
  A 0.48 0.47 -74.2 0 1 68.36 67.28
  Q 68.86 65.72 67.64 64.47
  Q 66.20 63.01 65.15 64.77
  Q 64.49 65.87 64.77 67.16
  A 0.62 0.61 75.0 0 1 64.36 67.88
  C 55.10 70.78 54.63 80.14 64.17 82.39
  A 0.75 0.74 -83.7 0 1 64.75 83.12
  L 64.75 89.75
  A 0.50 0.50 0.0 0 1 64.05 90.21
  L 59.49 88.19
  A 0.81 0.81 0.0 0 0 58.53 88.43
  L 57.52 89.68
  A 0.83 0.82 -49.2 0 0 57.60 90.80
  Q 60.32 93.34 64.04 93.84
  A 0.78 0.77 -87.4 0 1 64.72 94.59
  L 64.78 96.30
  A 1.48 1.48 0.0 0 0 65.13 97.20
  Q 65.70 97.89 66.69 97.79
  C 68.36 97.63 68.68 95.96 68.43 94.58
  A 0.50 0.48 -10.2 0 1 68.83 94.02
  C 78.04 92.32 78.18 81.64 69.08 79.71
  A 0.74 0.74 0.0 0 1 68.50 78.99
  L 68.50 72.24
  A 0.50 0.50 0.0 0 1 69.21 71.79
  Z"
/>
<path fill="#f9b938" d="
  M 95.31 53.11
  C 108.13 55.71 117.21 68.41 117.11 80.86
  C 117.01 94.47 108.53 105.14 95.45 109.03
  Q 94.45 109.33 95.16 108.56
  C 109.78 92.74 110.11 69.31 95.16 53.37
  Q 94.82 53.01 95.31 53.11
  Z"
/>
<path fill="#e59c1c" d="
  M 21.50 56.79
  L 21.25 61.96
  Q 16.25 62.53 11.26 61.88
  A 0.90 0.89 -5.7 0 1 10.52 61.28
  Q 9.84 59.25 10.58 57.30
  A 0.85 0.83 -79.2 0 1 11.36 56.76
  L 21.50 56.79
  Z"
/>
<path fill="#f9b938" d="
  M 21.50 56.79
  L 34.27 56.81
  Q 34.89 56.81 34.55 57.33
  L 31.76 61.58
  A 1.04 1.04 0.0 0 1 30.96 62.06
  Q 26.09 62.51 21.25 61.96
  L 21.50 56.79
  Z"
/>
<path fill="#f9b938" d="
  M 39.46 57.50
  Q 36.95 60.89 38.00 64.76
  Q 28.09 84.65 41.31 101.94
  Q 42.40 103.36 44.25 102.46
  L 48.29 105.50
  Q 46.99 107.48 49.04 108.72
  Q 57.62 113.90 67.71 113.75
  L 71.75 116.46
  C 59.50 118.76 46.70 113.27 39.33 104.47
  C 27.67 90.56 27.49 71.75 39.46 57.50
  Z"
/>
<path fill="#e59c1c" d="
  M 43.96 63.00
  L 44.30 63.74
  A 0.94 0.93 -42.2 0 1 44.25 64.62
  Q 43.14 66.48 42.42 69.42
  C 38.02 87.43 48.75 104.92 66.83 108.17
  Q 70.48 108.83 72.00 109.29
  Q 60.65 111.39 50.19 105.06
  Q 49.27 104.51 48.29 105.50
  L 44.25 102.46
  Q 44.69 101.97 44.89 101.29
  A 1.04 1.04 0.0 0 0 44.74 100.40
  C 35.97 88.21 34.84 75.24 43.96 63.00
  Z"
/>
<path fill="#000000" d="
  M 68.50 72.24
  L 68.50 78.99
  A 0.74 0.74 0.0 0 0 69.08 79.71
  C 78.18 81.64 78.04 92.32 68.83 94.02
  A 0.50 0.48 -10.2 0 0 68.43 94.58
  C 68.68 95.96 68.36 97.63 66.69 97.79
  Q 65.70 97.89 65.13 97.20
  A 1.48 1.48 0.0 0 1 64.78 96.30
  L 64.72 94.59
  A 0.78 0.77 -87.4 0 0 64.04 93.84
  Q 60.32 93.34 57.60 90.80
  A 0.83 0.82 -49.2 0 1 57.52 89.68
  L 58.53 88.43
  A 0.81 0.81 0.0 0 1 59.49 88.19
  L 64.05 90.21
  A 0.50 0.50 0.0 0 0 64.75 89.75
  L 64.75 83.12
  A 0.75 0.74 -83.7 0 0 64.17 82.39
  C 54.63 80.14 55.10 70.78 64.36 67.88
  A 0.62 0.61 75.0 0 0 64.77 67.16
  Q 64.49 65.87 65.15 64.77
  Q 66.20 63.01 67.64 64.47
  Q 68.86 65.72 68.36 67.28
  A 0.48 0.47 -74.2 0 0 68.70 67.89
  C 70.68 68.37 76.65 69.79 75.14 72.95
  A 1.49 1.49 0.0 0 1 73.16 73.66
  L 69.21 71.79
  A 0.50 0.50 0.0 0 0 68.50 72.24
  Z
  M 63.95 78.29
  A 0.56 0.56 0.0 0 0 64.75 77.78
  L 64.75 72.52
  A 0.47 0.46 -3.8 0 0 64.22 72.06
  C 59.74 72.62 60.30 76.55 63.95 78.29
  Z
  M 69.85 84.07
  Q 68.50 83.21 68.50 84.81
  L 68.50 89.47
  A 0.47 0.47 0.0 0 0 69.04 89.93
  C 72.50 89.43 73.14 86.16 69.85 84.07
  Z"
/>
<path fill="#e59c1c" d="
  M 10.57 66.43
  A 1.09 1.08 10.1 0 1 11.61 65.71
  L 29.19 66.03
  A 0.31 0.31 0.0 0 1 29.48 66.43
  L 28.05 70.83
  A 0.60 0.60 0.0 0 1 27.48 71.25
  L 11.47 71.25
  A 0.81 0.80 -13.0 0 1 10.75 70.81
  Q 9.74 68.74 10.57 66.43
  Z"
/>
<path fill="#f9b938" d="
  M 63.95 78.29
  C 60.30 76.55 59.74 72.62 64.22 72.06
  A 0.47 0.46 -3.8 0 1 64.75 72.52
  L 64.75 77.78
  A 0.56 0.56 0.0 0 1 63.95 78.29
  Z"
/>
<path fill="#e59c1c" d="
  M 15.00 75.04
  Q 14.46 77.79 15.25 80.46
  L 4.63 80.34
  A 0.78 0.77 -6.3 0 1 3.89 79.75
  Q 3.37 77.57 4.11 75.55
  A 0.86 0.86 0.0 0 1 4.93 74.99
  L 15.00 75.04
  Z"
/>
<path fill="#f9b938" d="
  M 15.00 75.04
  L 26.51 75.03
  A 0.61 0.60 -87.4 0 1 27.11 75.69
  L 26.69 79.91
  A 0.64 0.63 -87.0 0 1 26.06 80.48
  L 15.25 80.46
  Q 14.46 77.79 15.00 75.04
  Z"
/>
<path fill="#f9b938" d="
  M 69.85 84.07
  C 73.14 86.16 72.50 89.43 69.04 89.93
  A 0.47 0.47 0.0 0 1 68.50 89.47
  L 68.50 84.81
  Q 68.50 83.21 69.85 84.07
  Z"
/>
<path fill="#e59c1c" d="
  M 16.97 84.24
  L 26.25 84.25
  A 0.69 0.69 0.0 0 1 26.93 84.85
  L 27.46 88.72
  A 0.69 0.69 0.0 0 1 26.78 89.50
  L 17.15 89.51
  A 0.69 0.69 0.0 0 1 16.46 88.85
  L 16.28 84.96
  A 0.69 0.69 0.0 0 1 16.97 84.24
  Z"
/>
<path fill="#e59c1c" d="
  M 21.50 93.29
  Q 20.88 96.00 21.50 98.71
  L 11.45 98.73
  A 0.88 0.88 0.0 0 1 10.61 98.16
  Q 9.86 96.26 10.41 94.17
  A 1.22 1.21 7.4 0 1 11.59 93.27
  L 21.50 93.29
  Z"
/>
<path fill="#f9b938" d="
  M 21.50 93.29
  L 28.08 93.33
  A 0.82 0.81 78.6 0 1 28.83 93.83
  L 30.65 98.21
  A 0.35 0.35 0.0 0 1 30.33 98.69
  L 21.50 98.71
  Q 20.88 96.00 21.50 93.29
  Z"
/>
<path fill="#e59c1c" d="
  M 35.90 107.65
  L 4.70 107.80
  A 0.75 0.75 0.0 0 1 3.98 107.27
  Q 3.32 105.10 4.07 103.08
  A 0.90 0.90 0.0 0 1 4.91 102.50
  L 32.44 102.50
  A 1.03 1.02 71.3 0 1 33.26 102.91
  L 36.29 106.87
  Q 36.88 107.65 35.90 107.65
  Z"
/>
<path fill="#e59c1c" d="
  M 21.54 111.75
  L 21.00 116.96
  L 11.58 117.04
  A 0.92 0.92 0.0 0 1 10.74 116.53
  Q 9.74 114.51 10.52 112.30
  A 0.76 0.74 5.5 0 1 11.14 111.80
  Q 16.31 111.10 21.54 111.75
  Z"
/>
<path fill="#f9b938" d="
  M 21.00 116.96
  L 21.54 111.75
  L 40.26 111.58
  A 1.76 1.73 60.4 0 1 41.24 111.86
  L 48.53 116.59
  Q 49.03 116.92 48.43 116.92
  L 21.00 116.96
  Z"
/>
</svg>
