<?xml version="1.0" encoding="UTF-8" standalone="no"?>
<!DOCTYPE svg PUBLIC "-//W3C//DTD SVG 1.1//EN" "http://www.w3.org/Graphics/SVG/1.1/DTD/svg11.dtd">
<svg xmlns="http://www.w3.org/2000/svg" version="1.1" viewBox="0 0 128 128">
<g stroke-width="2.00" fill="none" stroke-linecap="butt">
<path stroke="#3d367c" vector-effect="non-scaling-stroke" d="
  M 104.96 90.00
  Q 103.88 90.59 101.71 89.05"
/>
<path stroke="#352d71" vector-effect="non-scaling-stroke" d="
  M 101.71 89.05
  L 98.71 83.21
  A 0.69 0.68 70.3 0 0 97.96 82.85
  Q 94.89 83.49 94.15 84.92
  Q 90.46 91.98 86.76 99.04
  Q 84.48 103.39 79.49 103.58
  A 0.31 0.30 73.6 0 0 79.24 104.04
  L 84.96 113.75"
/>
<path stroke="#3d367c" vector-effect="non-scaling-stroke" d="
  M 84.96 113.75
  L 90.95 123.86
  Q 91.68 125.10 92.18 123.75
  Q 94.18 118.34 96.18 112.96
  C 98.54 106.62 108.74 110.41 113.85 111.06
  Q 115.17 111.23 114.50 110.09
  Q 110.61 103.48 106.75 96.91
  C 106.03 95.70 106.12 94.75 107.04 93.75"
/>
<path stroke="#352d71" vector-effect="non-scaling-stroke" d="
  M 33.53 88.75
  C 30.55 89.49 30.14 86.73 28.90 85.15
  A 0.37 0.37 0.0 0 0 28.29 85.19
  L 23.75 92.96"
/>
<path stroke="#3d367c" vector-effect="non-scaling-stroke" d="
  M 23.75 92.96
  L 13.62 109.96
  Q 12.89 111.20 14.32 111.03
  Q 19.89 110.39 26.02 109.27
  C 31.99 108.18 34.14 119.07 35.77 123.61
  Q 36.33 125.15 37.16 123.73
  L 43.81 112.36"
/>
<path stroke="#352d71" vector-effect="non-scaling-stroke" d="
  M 43.81 112.36
  L 49.75 102.49
  Q 50.03 102.03 49.50 102.12
  Q 47.80 102.41 46.13 102.92
  C 39.75 104.84 36.47 100.92 34.49 95.24
  Q 34.15 94.27 35.64 92.85"
/>
<path stroke="#807518" vector-effect="non-scaling-stroke" d="
  M 35.64 92.85
  Q 39.10 94.33 40.03 97.33
  Q 41.04 100.55 44.25 99.53
  L 59.99 94.53
  Q 61.59 94.03 63.18 94.54
  L 78.80 99.53
  Q 81.68 100.45 83.08 97.76
  L 90.68 83.14
  Q 91.45 81.65 92.95 80.88
  L 108.20 73.00
  Q 110.24 71.95 109.54 69.76
  L 104.25 53.21
  A 4.81 4.75 -45.2 0 1 104.26 50.30
  Q 106.66 42.87 109.00 35.50
  C 110.02 32.28 109.02 30.97 106.11 29.47
  Q 99.64 26.16 93.14 22.79
  Q 91.43 21.91 90.55 20.20
  L 83.10 5.75
  Q 81.71 3.06 78.83 3.99
  L 63.30 9.01
  Q 61.67 9.54 60.04 9.02
  L 43.94 3.96
  Q 41.39 3.15 40.15 5.53
  L 32.40 20.46
  A 4.96 4.93 -0.3 0 1 30.33 22.54
  Q 23.07 26.38 15.87 30.19
  Q 12.77 31.83 13.78 34.71
  Q 16.67 42.99 19.03 51.51
  A 1.65 1.61 46.3 0 1 19.02 52.46
  Q 16.76 59.76 14.41 67.03
  C 13.36 70.26 13.26 72.18 16.44 73.81
  C 20.34 75.81 30.00 79.69 32.42 82.97
  Q 34.25 85.45 33.53 88.75"
/>
<path stroke="#b4a189" vector-effect="non-scaling-stroke" d="
  M 35.64 92.85
  Q 33.88 91.10 33.53 88.75"
/>
<path stroke="#7263ed" vector-effect="non-scaling-stroke" d="
  M 43.81 112.36
  Q 39.34 113.78 35.74 111.90
  Q 33.74 110.85 32.12 107.78
  C 30.62 104.95 26.01 94.14 23.75 92.96"
/>
<path stroke="#807518" vector-effect="non-scaling-stroke" d="
  M 38.54 23.50
  L 32.79 29.41"
/>
<path stroke="#ffd818" vector-effect="non-scaling-stroke" d="
  M 32.79 29.41
  Q 29.03 30.29 24.43 32.92
  C 19.70 35.63 22.23 40.31 23.84 44.47
  Q 24.02 44.94 24.00 45.43
  Q 23.94 47.03 25.46 47.75"
/>
<path stroke="#807518" vector-effect="non-scaling-stroke" d="
  M 25.46 47.75
  L 25.35 55.73"
/>
<path stroke="#ffd818" vector-effect="non-scaling-stroke" d="
  M 25.35 55.73
  Q 23.10 59.85 21.87 64.47
  Q 20.86 68.25 23.91 70.33
  Q 28.07 73.16 32.95 74.34"
/>
<path stroke="#807518" vector-effect="non-scaling-stroke" d="
  M 32.95 74.34
  L 39.17 80.55"
/>
<path stroke="#ffd818" vector-effect="non-scaling-stroke" d="
  M 39.17 80.55
  Q 40.14 84.91 42.36 88.81
  C 45.28 93.94 52.67 90.46 57.60 88.08"
/>
<path stroke="#807518" vector-effect="non-scaling-stroke" d="
  M 57.60 88.08
  L 66.00 87.96"
/>
<path stroke="#ffd818" vector-effect="non-scaling-stroke" d="
  M 66.00 87.96
  L 66.31 88.46
  A 1.25 1.23 82.8 0 0 66.98 88.99
  C 70.24 90.03 77.88 93.75 80.05 89.53
  C 81.02 87.65 84.48 82.05 84.21 80.25"
/>
<path stroke="#807518" vector-effect="non-scaling-stroke" d="
  M 84.21 80.25
  L 90.25 74.28"
/>
<path stroke="#ffd818" vector-effect="non-scaling-stroke" d="
  M 90.25 74.28
  Q 94.89 73.24 98.90 70.70
  C 103.54 67.75 99.89 60.59 98.65 56.56
  A 1.08 1.07 5.8 0 0 98.13 55.93
  L 97.79 55.75"
/>
<path stroke="#807518" vector-effect="non-scaling-stroke" d="
  M 97.79 55.75
  L 97.73 47.56"
/>
<path stroke="#ffd818" vector-effect="non-scaling-stroke" d="
  M 97.73 47.56
  Q 100.06 43.32 101.11 38.47
  Q 101.88 34.89 98.42 32.84
  Q 93.58 29.98 90.30 29.40"
/>
<path stroke="#807518" vector-effect="non-scaling-stroke" d="
  M 90.30 29.40
  L 83.86 22.94"
/>
<path stroke="#ffd818" vector-effect="non-scaling-stroke" d="
  M 83.86 22.94
  Q 83.12 19.37 80.57 14.93
  C 78.88 11.96 76.93 11.52 73.61 12.50
  C 71.20 13.22 66.88 13.86 65.25 15.71"
/>
<path stroke="#807518" vector-effect="non-scaling-stroke" d="
  M 65.25 15.71
  L 57.75 15.54"
/>
<path stroke="#ffd818" vector-effect="non-scaling-stroke" d="
  M 57.75 15.54
  Q 52.86 13.11 47.42 12.00
  Q 44.31 11.36 42.94 14.22
  C 42.19 15.79 38.29 21.93 38.54 23.50"
/>
<path stroke="#806300" vector-effect="non-scaling-stroke" d="
  M 57.75 15.54
  Q 47.10 17.05 38.54 23.50"
/>
<path stroke="#803e03" vector-effect="non-scaling-stroke" d="
  M 72.18 18.74
  Q 71.09 20.52 69.77 20.25
  Q 57.00 17.59 46.65 22.98
  C 25.91 33.76 23.07 61.87 40.98 76.84
  C 55.86 89.28 78.75 85.53 89.04 68.90
  C 97.86 54.62 94.59 36.99 81.52 26.19
  C 80.34 25.22 74.85 23.07 76.54 20.03"
/>
<path stroke="#806300" vector-effect="non-scaling-stroke" d="
  M 90.30 29.40
  Q 96.26 37.55 97.73 47.56"
/>
<path stroke="#806300" vector-effect="non-scaling-stroke" d="
  M 97.79 55.75
  Q 96.24 65.85 90.25 74.28"
/>
<path stroke="#806300" vector-effect="non-scaling-stroke" d="
  M 84.21 80.25
  Q 76.08 86.36 66.00 87.96"
/>
<path stroke="#806300" vector-effect="non-scaling-stroke" d="
  M 57.60 88.08
  Q 47.44 86.51 39.17 80.55"
/>
<path stroke="#806300" vector-effect="non-scaling-stroke" d="
  M 32.95 74.34
  Q 26.77 65.98 25.35 55.73"
/>
<path stroke="#806300" vector-effect="non-scaling-stroke" d="
  M 25.46 47.75
  Q 26.69 37.71 32.79 29.41"
/>
<path stroke="#806300" vector-effect="non-scaling-stroke" d="
  M 83.86 22.94
  Q 80.68 19.99 76.54 20.03"
/>
<path stroke="#ffa103" vector-effect="non-scaling-stroke" d="
  M 76.54 20.03
  Q 74.00 20.26 72.18 18.74"
/>
<path stroke="#806300" vector-effect="non-scaling-stroke" d="
  M 72.18 18.74
  Q 69.95 15.21 65.25 15.71"
/>
<path stroke="#ff8803" vector-effect="non-scaling-stroke" d="
  M 89.36 51.77
  A 27.84 27.84 0.0 0 0 61.52 23.93
  A 27.84 27.84 0.0 0 0 33.68 51.77
  A 27.84 27.84 0.0 0 0 61.52 79.61
  A 27.84 27.84 0.0 0 0 89.36 51.77"
/>
<path stroke="#804a00" vector-effect="non-scaling-stroke" d="
  M 74.24 56.12
  C 76.55 54.27 79.88 51.52 80.13 48.60
  C 80.62 43.04 72.98 43.20 69.51 42.59
  A 0.97 0.96 81.4 0 1 68.80 42.06
  C 67.19 38.83 64.52 31.00 59.24 34.15
  C 57.02 35.48 55.58 39.61 54.36 42.01
  A 1.29 1.29 0.0 0 1 53.34 42.71
  C 50.31 43.00 45.72 43.19 43.83 45.56
  C 40.53 49.70 46.52 53.85 48.97 56.37
  A 1.05 1.03 26.8 0 1 49.26 57.22
  C 48.86 61.04 46.57 66.03 50.49 68.75
  Q 52.62 70.23 54.93 69.05
  L 61.12 65.88
  A 0.93 0.92 45.3 0 1 61.98 65.89
  C 64.73 67.36 68.73 70.16 71.75 69.16
  C 76.54 67.58 74.39 60.95 73.77 57.37
  A 1.33 1.32 -24.5 0 1 74.24 56.12"
/>
<path stroke="#807518" vector-effect="non-scaling-stroke" d="
  M 75.31 47.48
  L 67.80 46.26
  A 2.50 2.49 80.7 0 1 65.99 44.95
  L 62.36 38.02
  Q 61.50 36.38 60.66 38.03
  L 57.73 43.77
  Q 56.54 46.09 53.97 46.49
  L 47.52 47.49
  Q 45.89 47.75 47.04 48.93
  L 52.07 54.06
  Q 53.48 55.50 53.19 57.49
  L 52.14 64.68
  A 0.68 0.68 0.0 0 0 52.64 65.43
  Q 53.61 65.69 54.20 65.24
  Q 57.79 62.47 62.24 61.94
  A 1.54 1.51 54.1 0 1 63.12 62.09
  L 69.87 65.55
  Q 71.53 66.40 71.07 64.59
  Q 69.97 60.22 70.03 55.74
  A 1.45 1.44 -22.5 0 1 70.44 54.76
  L 75.88 49.20
  Q 77.26 47.79 75.31 47.48"
/>
<path stroke="#fff418" vector-effect="non-scaling-stroke" d="
  M 64.58 57.98
  Q 68.04 59.39 66.56 56.71
  Q 65.72 55.20 66.18 53.50
  Q 66.29 53.10 66.58 52.81
  L 68.72 50.60
  A 0.62 0.62 0.0 0 0 68.69 49.69
  Q 67.27 48.45 65.28 48.55
  A 1.79 1.79 0.0 0 1 63.40 46.92
  Q 63.18 44.53 61.13 44.73
  A 0.89 0.88 6.1 0 0 60.38 45.33
  C 59.08 49.22 54.28 48.40 54.11 50.19
  A 0.93 0.93 0.0 0 0 54.56 51.07
  Q 57.92 53.08 56.69 56.86
  A 0.89 0.88 32.3 0 0 56.90 57.76
  Q 57.92 58.80 59.12 57.82
  Q 60.82 56.45 64.58 57.98"
/>
<path stroke="#7263ed" vector-effect="non-scaling-stroke" d="
  M 101.71 89.05
  Q 95.26 98.39 90.43 108.62
  C 89.15 111.33 87.35 112.28 84.96 113.75"
/>
</g>
<path fill="#000000" d="
  M 42.31 0.00
  L 44.06 0.00
  L 60.82 5.28
  A 2.68 2.62 -44.4 0 0 62.41 5.28
  L 79.06 0.00
  L 81.06 0.00
  C 87.14 1.71 90.97 12.66 93.65 17.94
  A 4.06 4.01 0.2 0 0 95.45 19.73
  Q 102.64 23.31 109.69 27.06
  C 113.67 29.17 113.66 33.57 112.30 37.67
  Q 109.98 44.64 107.98 51.74
  A 1.59 1.53 -47.7 0 0 108.01 52.70
  Q 110.38 59.54 112.49 66.46
  C 115.14 75.18 108.72 77.39 102.38 80.25
  A 0.81 0.80 -27.3 0 0 102.01 81.39
  L 105.65 87.69
  A 0.95 0.92 44.0 0 1 105.68 88.57
  L 104.96 90.00
  Q 103.88 90.59 101.71 89.05
  L 98.71 83.21
  A 0.69 0.68 70.3 0 0 97.96 82.85
  Q 94.89 83.49 94.15 84.92
  Q 90.46 91.98 86.76 99.04
  Q 84.48 103.39 79.49 103.58
  A 0.31 0.30 73.6 0 0 79.24 104.04
  L 84.96 113.75
  L 90.95 123.86
  Q 91.68 125.10 92.18 123.75
  Q 94.18 118.34 96.18 112.96
  C 98.54 106.62 108.74 110.41 113.85 111.06
  Q 115.17 111.23 114.50 110.09
  Q 110.61 103.48 106.75 96.91
  C 106.03 95.70 106.12 94.75 107.04 93.75
  Q 108.93 93.43 110.24 95.50
  Q 114.04 101.51 117.46 107.76
  C 118.77 110.15 118.55 112.56 116.32 114.07
  C 113.63 115.88 104.23 113.54 100.86 112.95
  A 0.71 0.71 0.0 0 0 100.07 113.41
  C 98.54 117.64 96.58 126.37 92.19 128.00
  L 90.69 128.00
  Q 88.48 127.34 87.80 126.20
  Q 80.70 114.29 73.62 102.31
  A 1.33 1.33 0.0 0 0 72.90 101.72
  C 66.83 99.66 62.29 96.82 56.00 100.05
  A 1.69 1.69 0.0 0 0 55.30 100.72
  C 48.68 112.02 41.18 126.68 37.44 128.00
  L 35.69 128.00
  C 31.52 126.60 29.41 117.39 27.92 113.51
  A 0.83 0.83 0.0 0 0 27.02 112.99
  L 14.43 114.97
  Q 12.51 115.27 11.21 113.84
  Q 8.36 110.72 10.65 106.96
  Q 17.93 95.05 25.00 83.10
  A 0.55 0.54 28.3 0 0 24.77 82.34
  C 18.32 79.14 7.40 76.37 10.48 66.74
  Q 12.72 59.74 15.02 52.65
  A 2.84 2.84 0.0 0 0 15.02 50.91
  Q 12.72 43.91 10.53 36.81
  C 9.36 33.02 9.74 28.97 13.33 27.10
  Q 20.41 23.41 27.57 19.71
  A 4.70 4.67 89.9 0 0 29.57 17.69
  C 32.27 12.33 35.96 1.41 42.31 0.00
  Z
  M 33.53 88.75
  C 30.55 89.49 30.14 86.73 28.90 85.15
  A 0.37 0.37 0.0 0 0 28.29 85.19
  L 23.75 92.96
  L 13.62 109.96
  Q 12.89 111.20 14.32 111.03
  Q 19.89 110.39 26.02 109.27
  C 31.99 108.18 34.14 119.07 35.77 123.61
  Q 36.33 125.15 37.16 123.73
  L 43.81 112.36
  L 49.75 102.49
  Q 50.03 102.03 49.50 102.12
  Q 47.80 102.41 46.13 102.92
  C 39.75 104.84 36.47 100.92 34.49 95.24
  Q 34.15 94.27 35.64 92.85
  Q 39.10 94.33 40.03 97.33
  Q 41.04 100.55 44.25 99.53
  L 59.99 94.53
  Q 61.59 94.03 63.18 94.54
  L 78.80 99.53
  Q 81.68 100.45 83.08 97.76
  L 90.68 83.14
  Q 91.45 81.65 92.95 80.88
  L 108.20 73.00
  Q 110.24 71.95 109.54 69.76
  L 104.25 53.21
  A 4.81 4.75 -45.2 0 1 104.26 50.30
  Q 106.66 42.87 109.00 35.50
  C 110.02 32.28 109.02 30.97 106.11 29.47
  Q 99.64 26.16 93.14 22.79
  Q 91.43 21.91 90.55 20.20
  L 83.10 5.75
  Q 81.71 3.06 78.83 3.99
  L 63.30 9.01
  Q 61.67 9.54 60.04 9.02
  L 43.94 3.96
  Q 41.39 3.15 40.15 5.53
  L 32.40 20.46
  A 4.96 4.93 -0.3 0 1 30.33 22.54
  Q 23.07 26.38 15.87 30.19
  Q 12.77 31.83 13.78 34.71
  Q 16.67 42.99 19.03 51.51
  A 1.65 1.61 46.3 0 1 19.02 52.46
  Q 16.76 59.76 14.41 67.03
  C 13.36 70.26 13.26 72.18 16.44 73.81
  C 20.34 75.81 30.00 79.69 32.42 82.97
  Q 34.25 85.45 33.53 88.75
  Z"
/>
<path fill="#ffe92f" d="
  M 35.64 92.85
  Q 33.88 91.10 33.53 88.75
  Q 34.25 85.45 32.42 82.97
  C 30.00 79.69 20.34 75.81 16.44 73.81
  C 13.26 72.18 13.36 70.26 14.41 67.03
  Q 16.76 59.76 19.02 52.46
  A 1.65 1.61 46.3 0 0 19.03 51.51
  Q 16.67 42.99 13.78 34.71
  Q 12.77 31.83 15.87 30.19
  Q 23.07 26.38 30.33 22.54
  A 4.96 4.93 -0.3 0 0 32.40 20.46
  L 40.15 5.53
  Q 41.39 3.15 43.94 3.96
  L 60.04 9.02
  Q 61.67 9.54 63.30 9.01
  L 78.83 3.99
  Q 81.71 3.06 83.10 5.75
  L 90.55 20.20
  Q 91.43 21.91 93.14 22.79
  Q 99.64 26.16 106.11 29.47
  C 109.02 30.97 110.02 32.28 109.00 35.50
  Q 106.66 42.87 104.26 50.30
  A 4.81 4.75 -45.2 0 0 104.25 53.21
  L 109.54 69.76
  Q 110.24 71.95 108.20 73.00
  L 92.95 80.88
  Q 91.45 81.65 90.68 83.14
  L 83.08 97.76
  Q 81.68 100.45 78.80 99.53
  L 63.18 94.54
  Q 61.59 94.03 59.99 94.53
  L 44.25 99.53
  Q 41.04 100.55 40.03 97.33
  Q 39.10 94.33 35.64 92.85
  Z
  M 38.54 23.50
  L 32.79 29.41
  Q 29.03 30.29 24.43 32.92
  C 19.70 35.63 22.23 40.31 23.84 44.47
  Q 24.02 44.94 24.00 45.43
  Q 23.94 47.03 25.46 47.75
  L 25.35 55.73
  Q 23.10 59.85 21.87 64.47
  Q 20.86 68.25 23.91 70.33
  Q 28.07 73.16 32.95 74.34
  L 39.17 80.55
  Q 40.14 84.91 42.36 88.81
  C 45.28 93.94 52.67 90.46 57.60 88.08
  L 66.00 87.96
  L 66.31 88.46
  A 1.25 1.23 82.8 0 0 66.98 88.99
  C 70.24 90.03 77.88 93.75 80.05 89.53
  C 81.02 87.65 84.48 82.05 84.21 80.25
  L 90.25 74.28
  Q 94.89 73.24 98.90 70.70
  C 103.54 67.75 99.89 60.59 98.65 56.56
  A 1.08 1.07 5.8 0 0 98.13 55.93
  L 97.79 55.75
  L 97.73 47.56
  Q 100.06 43.32 101.11 38.47
  Q 101.88 34.89 98.42 32.84
  Q 93.58 29.98 90.30 29.40
  L 83.86 22.94
  Q 83.12 19.37 80.57 14.93
  C 78.88 11.96 76.93 11.52 73.61 12.50
  C 71.20 13.22 66.88 13.86 65.25 15.71
  L 57.75 15.54
  Q 52.86 13.11 47.42 12.00
  Q 44.31 11.36 42.94 14.22
  C 42.19 15.79 38.29 21.93 38.54 23.50
  Z"
/>
<path fill="#ffc600" d="
  M 57.75 15.54
  Q 47.10 17.05 38.54 23.50
  C 38.29 21.93 42.19 15.79 42.94 14.22
  Q 44.31 11.36 47.42 12.00
  Q 52.86 13.11 57.75 15.54
  Z"
/>
<path fill="#ffc600" d="
  M 83.86 22.94
  Q 80.68 19.99 76.54 20.03
  Q 74.00 20.26 72.18 18.74
  Q 69.95 15.21 65.25 15.71
  C 66.88 13.86 71.20 13.22 73.61 12.50
  C 76.93 11.52 78.88 11.96 80.57 14.93
  Q 83.12 19.37 83.86 22.94
  Z"
/>
<path fill="#000000" d="
  M 57.75 15.54
  L 65.25 15.71
  Q 69.95 15.21 72.18 18.74
  Q 71.09 20.52 69.77 20.25
  Q 57.00 17.59 46.65 22.98
  C 25.91 33.76 23.07 61.87 40.98 76.84
  C 55.86 89.28 78.75 85.53 89.04 68.90
  C 97.86 54.62 94.59 36.99 81.52 26.19
  C 80.34 25.22 74.85 23.07 76.54 20.03
  Q 80.68 19.99 83.86 22.94
  L 90.30 29.40
  Q 96.26 37.55 97.73 47.56
  L 97.79 55.75
  Q 96.24 65.85 90.25 74.28
  L 84.21 80.25
  Q 76.08 86.36 66.00 87.96
  L 57.60 88.08
  Q 47.44 86.51 39.17 80.55
  L 32.95 74.34
  Q 26.77 65.98 25.35 55.73
  L 25.46 47.75
  Q 26.69 37.71 32.79 29.41
  L 38.54 23.50
  Q 47.10 17.05 57.75 15.54
  Z"
/>
<path fill="#ff7b05" d="
  M 72.18 18.74
  Q 74.00 20.26 76.54 20.03
  C 74.85 23.07 80.34 25.22 81.52 26.19
  C 94.59 36.99 97.86 54.62 89.04 68.90
  C 78.75 85.53 55.86 89.28 40.98 76.84
  C 23.07 61.87 25.91 33.76 46.65 22.98
  Q 57.00 17.59 69.77 20.25
  Q 71.09 20.52 72.18 18.74
  Z
  M 89.36 51.77
  A 27.84 27.84 0.0 0 0 61.52 23.93
  A 27.84 27.84 0.0 0 0 33.68 51.77
  A 27.84 27.84 0.0 0 0 61.52 79.61
  A 27.84 27.84 0.0 0 0 89.36 51.77
  Z"
/>
<path fill="#ff9400" d="
  M 89.36 51.77
  A 27.84 27.84 0.0 0 1 61.52 79.61
  A 27.84 27.84 0.0 0 1 33.68 51.77
  A 27.84 27.84 0.0 0 1 61.52 23.93
  A 27.84 27.84 0.0 0 1 89.36 51.77
  Z
  M 74.24 56.12
  C 76.55 54.27 79.88 51.52 80.13 48.60
  C 80.62 43.04 72.98 43.20 69.51 42.59
  A 0.97 0.96 81.4 0 1 68.80 42.06
  C 67.19 38.83 64.52 31.00 59.24 34.15
  C 57.02 35.48 55.58 39.61 54.36 42.01
  A 1.29 1.29 0.0 0 1 53.34 42.71
  C 50.31 43.00 45.72 43.19 43.83 45.56
  C 40.53 49.70 46.52 53.85 48.97 56.37
  A 1.05 1.03 26.8 0 1 49.26 57.22
  C 48.86 61.04 46.57 66.03 50.49 68.75
  Q 52.62 70.23 54.93 69.05
  L 61.12 65.88
  A 0.93 0.92 45.3 0 1 61.98 65.89
  C 64.73 67.36 68.73 70.16 71.75 69.16
  C 76.54 67.58 74.39 60.95 73.77 57.37
  A 1.33 1.32 -24.5 0 1 74.24 56.12
  Z"
/>
<path fill="#ffc600" d="
  M 97.73 47.56
  Q 96.26 37.55 90.30 29.40
  Q 93.58 29.98 98.42 32.84
  Q 101.88 34.89 101.11 38.47
  Q 100.06 43.32 97.73 47.56
  Z"
/>
<path fill="#ffc600" d="
  M 32.79 29.41
  Q 26.69 37.71 25.46 47.75
  Q 23.94 47.03 24.00 45.43
  Q 24.02 44.94 23.84 44.47
  C 22.23 40.31 19.70 35.63 24.43 32.92
  Q 29.03 30.29 32.79 29.41
  Z"
/>
<path fill="#000000" d="
  M 74.24 56.12
  A 1.33 1.32 -24.5 0 0 73.77 57.37
  C 74.39 60.95 76.54 67.58 71.75 69.16
  C 68.73 70.16 64.73 67.36 61.98 65.89
  A 0.93 0.92 45.3 0 0 61.12 65.88
  L 54.93 69.05
  Q 52.62 70.23 50.49 68.75
  C 46.57 66.03 48.86 61.04 49.26 57.22
  A 1.05 1.03 26.8 0 0 48.97 56.37
  C 46.52 53.85 40.53 49.70 43.83 45.56
  C 45.72 43.19 50.31 43.00 53.34 42.71
  A 1.29 1.29 0.0 0 0 54.36 42.01
  C 55.58 39.61 57.02 35.48 59.24 34.15
  C 64.52 31.00 67.19 38.83 68.80 42.06
  A 0.97 0.96 81.4 0 0 69.51 42.59
  C 72.98 43.20 80.62 43.04 80.13 48.60
  C 79.88 51.52 76.55 54.27 74.24 56.12
  Z
  M 75.31 47.48
  L 67.80 46.26
  A 2.50 2.49 80.7 0 1 65.99 44.95
  L 62.36 38.02
  Q 61.50 36.38 60.66 38.03
  L 57.73 43.77
  Q 56.54 46.09 53.97 46.49
  L 47.52 47.49
  Q 45.89 47.75 47.04 48.93
  L 52.07 54.06
  Q 53.48 55.50 53.19 57.49
  L 52.14 64.68
  A 0.68 0.68 0.0 0 0 52.64 65.43
  Q 53.61 65.69 54.20 65.24
  Q 57.79 62.47 62.24 61.94
  A 1.54 1.51 54.1 0 1 63.12 62.09
  L 69.87 65.55
  Q 71.53 66.40 71.07 64.59
  Q 69.97 60.22 70.03 55.74
  A 1.45 1.44 -22.5 0 1 70.44 54.76
  L 75.88 49.20
  Q 77.26 47.79 75.31 47.48
  Z"
/>
<path fill="#ffe92f" d="
  M 75.31 47.48
  Q 77.26 47.79 75.88 49.20
  L 70.44 54.76
  A 1.45 1.44 -22.5 0 0 70.03 55.74
  Q 69.97 60.22 71.07 64.59
  Q 71.53 66.40 69.87 65.55
  L 63.12 62.09
  A 1.54 1.51 54.1 0 0 62.24 61.94
  Q 57.79 62.47 54.20 65.24
  Q 53.61 65.69 52.64 65.43
  A 0.68 0.68 0.0 0 1 52.14 64.68
  L 53.19 57.49
  Q 53.48 55.50 52.07 54.06
  L 47.04 48.93
  Q 45.89 47.75 47.52 47.49
  L 53.97 46.49
  Q 56.54 46.09 57.73 43.77
  L 60.66 38.03
  Q 61.50 36.38 62.36 38.02
  L 65.99 44.95
  A 2.50 2.49 80.7 0 0 67.80 46.26
  L 75.31 47.48
  Z
  M 64.58 57.98
  Q 68.04 59.39 66.56 56.71
  Q 65.72 55.20 66.18 53.50
  Q 66.29 53.10 66.58 52.81
  L 68.72 50.60
  A 0.62 0.62 0.0 0 0 68.69 49.69
  Q 67.27 48.45 65.28 48.55
  A 1.79 1.79 0.0 0 1 63.40 46.92
  Q 63.18 44.53 61.13 44.73
  A 0.89 0.88 6.1 0 0 60.38 45.33
  C 59.08 49.22 54.28 48.40 54.11 50.19
  A 0.93 0.93 0.0 0 0 54.56 51.07
  Q 57.92 53.08 56.69 56.86
  A 0.89 0.88 32.3 0 0 56.90 57.76
  Q 57.92 58.80 59.12 57.82
  Q 60.82 56.45 64.58 57.98
  Z"
/>
<path fill="#ffff00" d="
  M 64.58 57.98
  Q 60.82 56.45 59.12 57.82
  Q 57.92 58.80 56.90 57.76
  A 0.89 0.88 32.3 0 1 56.69 56.86
  Q 57.92 53.08 54.56 51.07
  A 0.93 0.93 0.0 0 1 54.11 50.19
  C 54.28 48.40 59.08 49.22 60.38 45.33
  A 0.89 0.88 6.1 0 1 61.13 44.73
  Q 63.18 44.53 63.40 46.92
  A 1.79 1.79 0.0 0 0 65.28 48.55
  Q 67.27 48.45 68.69 49.69
  A 0.62 0.62 0.0 0 1 68.72 50.60
  L 66.58 52.81
  Q 66.29 53.10 66.18 53.50
  Q 65.72 55.20 66.56 56.71
  Q 68.04 59.39 64.58 57.98
  Z"
/>
<path fill="#ffc600" d="
  M 25.35 55.73
  Q 26.77 65.98 32.95 74.34
  Q 28.07 73.16 23.91 70.33
  Q 20.86 68.25 21.87 64.47
  Q 23.10 59.85 25.35 55.73
  Z"
/>
<path fill="#ffc600" d="
  M 97.79 55.75
  L 98.13 55.93
  A 1.08 1.07 5.8 0 1 98.65 56.56
  C 99.89 60.59 103.54 67.75 98.90 70.70
  Q 94.89 73.24 90.25 74.28
  Q 96.24 65.85 97.79 55.75
  Z"
/>
<path fill="#ffc600" d="
  M 84.21 80.25
  C 84.48 82.05 81.02 87.65 80.05 89.53
  C 77.88 93.75 70.24 90.03 66.98 88.99
  A 1.25 1.23 82.8 0 1 66.31 88.46
  L 66.00 87.96
  Q 76.08 86.36 84.21 80.25
  Z"
/>
<path fill="#ffc600" d="
  M 39.17 80.55
  Q 47.44 86.51 57.60 88.08
  C 52.67 90.46 45.28 93.94 42.36 88.81
  Q 40.14 84.91 39.17 80.55
  Z"
/>
<path fill="#6959e2" d="
  M 101.71 89.05
  Q 95.26 98.39 90.43 108.62
  C 89.15 111.33 87.35 112.28 84.96 113.75
  L 79.24 104.04
  A 0.31 0.30 73.6 0 1 79.49 103.58
  Q 84.48 103.39 86.76 99.04
  Q 90.46 91.98 94.15 84.92
  Q 94.89 83.49 97.96 82.85
  A 0.69 0.68 70.3 0 1 98.71 83.21
  L 101.71 89.05
  Z"
/>
<path fill="#6959e2" d="
  M 33.53 88.75
  Q 33.88 91.10 35.64 92.85
  Q 34.15 94.27 34.49 95.24
  C 36.47 100.92 39.75 104.84 46.13 102.92
  Q 47.80 102.41 49.50 102.12
  Q 50.03 102.03 49.75 102.49
  L 43.81 112.36
  Q 39.34 113.78 35.74 111.90
  Q 33.74 110.85 32.12 107.78
  C 30.62 104.95 26.01 94.14 23.75 92.96
  L 28.29 85.19
  A 0.37 0.37 0.0 0 1 28.90 85.15
  C 30.14 86.73 30.55 89.49 33.53 88.75
  Z"
/>
<path fill="#7a6cf7" d="
  M 101.71 89.05
  Q 103.88 90.59 104.96 90.00
  L 107.04 93.75
  C 106.12 94.75 106.03 95.70 106.75 96.91
  Q 110.61 103.48 114.50 110.09
  Q 115.17 111.23 113.85 111.06
  C 108.74 110.41 98.54 106.62 96.18 112.96
  Q 94.18 118.34 92.18 123.75
  Q 91.68 125.10 90.95 123.86
  L 84.96 113.75
  C 87.35 112.28 89.15 111.33 90.43 108.62
  Q 95.26 98.39 101.71 89.05
  Z"
/>
<path fill="#7a6cf7" d="
  M 23.75 92.96
  C 26.01 94.14 30.62 104.95 32.12 107.78
  Q 33.74 110.85 35.74 111.90
  Q 39.34 113.78 43.81 112.36
  L 37.16 123.73
  Q 36.33 125.15 35.77 123.61
  C 34.14 119.07 31.99 108.18 26.02 109.27
  Q 19.89 110.39 14.32 111.03
  Q 12.89 111.20 13.62 109.96
  L 23.75 92.96
  Z"
/>
</svg>
