<?xml version="1.0" encoding="UTF-8" standalone="no"?>
<!DOCTYPE svg PUBLIC "-//W3C//DTD SVG 1.1//EN" "http://www.w3.org/Graphics/SVG/1.1/DTD/svg11.dtd">
<svg xmlns="http://www.w3.org/2000/svg" version="1.1" viewBox="0 0 373 129">
<g stroke-width="2.00" fill="none" stroke-linecap="butt">
<path stroke="#734e0e" vector-effect="non-scaling-stroke" d="
  M 19.54 9.00
  L 18.79 10.54
  A 0.81 0.81 0.0 0 1 18.06 11.00
  L 5.71 11.01
  A 1.54 1.53 -81.9 0 0 4.24 12.12
  C 3.30 15.40 3.28 16.48 7.09 16.49
  Q 42.81 16.52 78.59 16.49
  A 1.23 1.22 87.6 0 0 79.81 15.16
  L 79.52 11.59
  A 0.65 0.64 -2.4 0 0 78.87 11.00
  L 26.23 11.00
  A 1.08 1.06 68.5 0 1 25.44 10.65
  L 24.00 9.04"
/>
<path stroke="#50381d" vector-effect="non-scaling-stroke" d="
  M 83.46 15.78
  Q 91.55 16.95 89.93 25.26
  C 89.12 29.46 86.77 28.44 83.88 29.54
  A 0.69 0.68 76.1 0 0 83.44 30.27
  Q 83.86 33.19 82.92 35.94
  Q 82.76 36.38 82.85 36.84
  L 83.66 41.24
  A 0.58 0.57 81.8 0 0 84.28 41.71
  Q 100.09 40.34 112.76 49.76
  A 1.57 1.57 0.0 0 1 113.24 51.72
  Q 113.05 52.10 112.50 52.46"
/>
<path stroke="#7d6724" vector-effect="non-scaling-stroke" d="
  M 112.50 52.46
  L 111.17 52.74
  A 1.20 1.20 0.0 0 1 110.20 52.54
  Q 99.20 44.47 85.51 45.56
  Q 84.92 45.60 85.38 45.97
  Q 88.42 48.39 90.00 48.53
  C 131.78 52.29 131.83 110.54 89.73 114.77
  Q 88.43 114.90 85.37 117.28
  Q 84.97 117.58 85.47 117.63
  C 118.39 120.51 135.88 82.99 116.26 58.17
  A 1.31 1.29 28.7 0 1 115.99 57.27
  L 116.04 56.50"
/>
<path stroke="#50381d" vector-effect="non-scaling-stroke" d="
  M 116.04 56.50
  Q 117.69 54.22 119.31 56.19
  Q 132.62 72.35 126.71 93.50"
/>
<path stroke="#4d3118" vector-effect="non-scaling-stroke" d="
  M 126.71 93.50
  L 122.00 103.96"
/>
<path stroke="#734e0e" vector-effect="non-scaling-stroke" d="
  M 122.00 103.96
  L 120.96 105.25"
/>
<path stroke="#5f3016" vector-effect="non-scaling-stroke" d="
  M 120.96 105.25
  L 113.54 113.50"
/>
<path stroke="#50381d" vector-effect="non-scaling-stroke" d="
  M 9.96 53.25
  Q 11.04 53.99 12.19 53.28
  A 0.86 0.85 -17.0 0 0 12.59 52.54
  L 12.47 47.98
  A 0.49 0.49 0.0 0 0 11.95 47.50
  Q 11.41 47.54 11.04 48.00"
/>
<path stroke="#7d5d1c" vector-effect="non-scaling-stroke" d="
  M 20.75 25.46
  L 84.72 25.70
  A 1.58 1.57 -0.0 0 0 86.30 24.13
  L 86.31 21.12
  A 0.86 0.86 0.0 0 0 85.45 20.26
  L 21.25 20.29"
/>
<path stroke="#734e0e" vector-effect="non-scaling-stroke" d="
  M 21.25 20.29
  L 11.12 20.33
  A 0.64 0.64 0.0 0 0 10.48 20.95
  L 10.39 24.76
  A 0.69 0.69 0.0 0 0 11.08 25.47
  L 20.75 25.46"
/>
<path stroke="#efab2a" vector-effect="non-scaling-stroke" d="
  M 21.25 20.29
  Q 21.56 22.94 20.75 25.46"
/>
<path stroke="#734e0e" vector-effect="non-scaling-stroke" d="
  M 79.7274 30.6437
  A 1.21 1.21 0.0 0 0 78.5153 29.4358
  L 4.9954 29.5642
  A 1.21 1.21 0.0 0 0 3.7875 30.7763
  L 3.7926 33.6763
  A 1.21 1.21 0.0 0 0 5.0047 34.8842
  L 78.5246 34.7558
  A 1.21 1.21 0.0 0 0 79.7325 33.5437
  L 79.7274 30.6437"
/>
<path stroke="#7d5d1c" vector-effect="non-scaling-stroke" d="
  M 59.25 42.36
  C 65.96 40.81 71.80 41.67 78.29 42.91
  A 1.29 1.28 -88.4 0 0 79.81 41.46
  L 79.50 39.31
  A 0.66 0.65 -4.0 0 0 78.85 38.75
  L 4.90 38.75
  A 0.79 0.79 0.0 0 0 4.16 39.27
  Q 3.32 41.53 4.16 43.70
  A 0.76 0.75 -9.9 0 0 4.87 44.19
  Q 26.19 44.23 47.51 44.26
  C 51.74 44.27 55.23 43.28 59.25 42.36"
/>
<path stroke="#7d6724" vector-effect="non-scaling-stroke" d="
  M 103.00 81.64
  A 36.19 36.19 0.0 0 0 66.81 45.45
  A 36.19 36.19 0.0 0 0 30.62 81.64
  A 36.19 36.19 0.0 0 0 66.81 117.83
  A 36.19 36.19 0.0 0 0 103.00 81.64"
/>
<path stroke="#734e0e" vector-effect="non-scaling-stroke" d="
  M 16.73 52.91
  A 0.34 0.34 0.0 0 0 17.07 53.23
  L 38.22 53.34
  A 0.34 0.34 0.0 0 0 38.44 53.26
  L 44.10 48.53
  A 0.34 0.34 0.0 0 0 43.89 47.93
  L 16.78 48.03
  A 0.34 0.34 0.0 0 0 16.44 48.39
  L 16.73 52.91"
/>
<path stroke="#7d5d1c" vector-effect="non-scaling-stroke" d="
  M 95.64 109.92
  C 124.53 102.17 124.86 61.51 96.39 53.52
  Q 94.75 53.06 95.93 54.29
  C 110.80 69.83 110.00 94.06 95.42 109.55
  Q 94.88 110.12 95.64 109.92"
/>
<path stroke="#7d5d1c" vector-effect="non-scaling-stroke" d="
  M 10.71 57.31
  A 0.33 0.33 0.0 0 0 10.38 57.64
  L 10.48 62.16
  A 0.33 0.33 0.0 0 0 10.81 62.48
  L 31.51 62.54
  A 0.33 0.33 0.0 0 0 31.80 62.38
  L 34.68 57.62
  A 0.33 0.33 0.0 0 0 34.40 57.11
  L 10.71 57.31"
/>
<path stroke="#734e0e" vector-effect="non-scaling-stroke" d="
  M 10.78 66.61
  Q 10.08 69.09 10.51 70.77
  A 1.28 1.28 0.0 0 0 11.73 71.72
  L 27.49 71.82
  A 0.69 0.68 8.6 0 0 28.15 71.34
  L 29.52 67.07
  A 0.47 0.47 0.0 0 0 29.07 66.45
  L 10.90 66.52
  A 0.13 0.12 -80.3 0 0 10.78 66.61"
/>
<path stroke="#7d5d1c" vector-effect="non-scaling-stroke" d="
  M 14.75 80.96
  L 26.12 81.10
  A 0.65 0.64 2.8 0 0 26.78 80.51
  L 27.21 76.13
  A 0.49 0.49 0.0 0 0 26.72 75.59
  L 14.50 75.79"
/>
<path stroke="#734e0e" vector-effect="non-scaling-stroke" d="
  M 14.50 75.79
  L 4.73 75.59
  A 0.76 0.75 -88.1 0 0 3.96 76.32
  L 3.81 80.22
  A 0.65 0.64 1.7 0 0 4.45 80.89
  L 14.75 80.96"
/>
<path stroke="#efab2a" vector-effect="non-scaling-stroke" d="
  M 14.50 75.79
  L 14.75 80.96"
/>
<path stroke="#734e0e" vector-effect="non-scaling-stroke" d="
  M 27.3804 85.6272
  A 0.79 0.79 0.0 0 0 26.5988 84.8290
  L 17.2793 84.7314
  A 0.79 0.79 0.0 0 0 16.4810 85.5130
  L 16.4396 89.4728
  A 0.79 0.79 0.0 0 0 17.2212 90.2710
  L 26.5407 90.3686
  A 0.79 0.79 0.0 0 0 27.3390 89.5870
  L 27.3804 85.6272"
/>
<path stroke="#7d5d1c" vector-effect="non-scaling-stroke" d="
  M 21.00 99.46
  L 30.35 99.46
  A 0.41 0.40 78.4 0 0 30.72 98.89
  L 28.88 94.49
  A 0.82 0.81 -11.5 0 0 28.11 93.99
  L 21.50 94.04"
/>
<path stroke="#734e0e" vector-effect="non-scaling-stroke" d="
  M 21.50 94.04
  L 11.71 93.99
  A 0.97 0.96 -76.4 0 0 10.85 94.52
  Q 9.76 96.63 10.68 98.97
  A 0.83 0.83 0.0 0 0 11.45 99.49
  L 21.00 99.46"
/>
<path stroke="#efab2a" vector-effect="non-scaling-stroke" d="
  M 21.50 94.04
  L 21.26 94.35
  A 0.93 0.91 56.5 0 0 21.11 95.13
  Q 21.66 97.31 21.00 99.46"
/>
<path stroke="#734e0e" vector-effect="non-scaling-stroke" d="
  M 3.98 104.11
  Q 3.26 106.28 4.18 108.19
  A 0.99 0.99 0.0 0 0 5.07 108.75
  L 36.52 108.75
  Q 37.25 108.75 36.80 108.17
  L 33.23 103.61
  A 0.95 0.93 -18.3 0 0 32.48 103.24
  L 5.16 103.26
  A 1.26 1.24 -80.5 0 0 3.98 104.11"
/>
<path stroke="#7d5d1c" vector-effect="non-scaling-stroke" d="
  M 21.75 117.96
  L 48.54 117.99
  Q 49.60 117.99 48.71 117.41
  L 41.49 112.77
  A 1.83 1.78 -28.0 0 0 40.52 112.49
  L 21.25 112.54"
/>
<path stroke="#734e0e" vector-effect="non-scaling-stroke" d="
  M 21.25 112.54
  L 11.01 112.75
  A 0.66 0.66 0.0 0 0 10.36 113.43
  L 10.48 117.20
  A 0.76 0.75 -0.8 0 0 11.24 117.93
  L 21.75 117.96"
/>
<path stroke="#efab2a" vector-effect="non-scaling-stroke" d="
  M 21.25 112.54
  Q 20.95 115.30 21.75 117.96"
/>
<path stroke="#af6833" vector-effect="non-scaling-stroke" d="
  M 372.72 65.95
  Q 371.40 70.23 371.21 74.75"
/>
<path stroke="#c2862b" vector-effect="non-scaling-stroke" d="
  M 371.21 74.75
  C 370.61 75.12 370.08 75.54 369.82 76.25
  Q 365.38 88.15 355.04 95.50"
/>
<path stroke="#9d6835" vector-effect="non-scaling-stroke" d="
  M 355.04 95.50
  C 350.27 93.19 333.65 94.48 319.25 94.50
  Q 289.83 94.55 129.91 94.49
  C 128.68 94.49 127.76 94.00 126.71 93.50"
/>
<path stroke="#cd9e41" vector-effect="non-scaling-stroke" d="
  M 116.04 56.50
  Q 115.54 53.36 112.50 52.46"
/>
<path stroke="#f0b532" vector-effect="non-scaling-stroke" d="
  M 44.78 103.14
  Q 46.18 104.95 48.54 106.25"
/>
<path stroke="#7d6724" vector-effect="non-scaling-stroke" d="
  M 48.54 106.25
  Q 47.17 107.98 48.54 108.97
  C 69.68 124.35 99.59 107.16 99.68 82.10
  C 99.76 62.05 82.20 45.98 62.41 48.95
  C 36.36 52.87 25.62 82.37 41.54 102.73
  Q 42.68 104.19 44.78 103.14"
/>
<path stroke="#734e0e" vector-effect="non-scaling-stroke" d="
  M 48.54 106.25
  C 49.35 105.60 50.07 105.58 50.98 106.16
  Q 61.85 113.06 74.50 109.68"
/>
<path stroke="#7d5d1c" vector-effect="non-scaling-stroke" d="
  M 74.50 109.68
  C 97.57 103.21 103.55 73.33 84.67 58.59
  C 70.75 47.71 50.68 51.52 41.79 67.25"
/>
<path stroke="#734e0e" vector-effect="non-scaling-stroke" d="
  M 41.79 67.25
  C 35.84 77.95 36.45 88.56 43.36 98.48
  Q 44.82 100.57 44.78 103.14"
/>
<path stroke="#efab2a" vector-effect="non-scaling-stroke" d="
  M 74.50 109.68
  C 51.77 109.65 37.32 90.86 42.75 69.26
  Q 43.03 68.13 41.79 67.25"
/>
<path stroke="#7d5d1c" vector-effect="non-scaling-stroke" d="
  M 69.46 72.39
  L 73.56 74.18
  A 1.53 1.53 0.0 0 0 75.58 73.37
  C 76.76 70.57 71.51 68.94 69.90 68.74
  A 1.37 1.36 -84.4 0 1 68.71 67.29
  Q 68.84 65.16 66.90 64.53
  A 0.98 0.96 30.1 0 0 65.91 64.78
  Q 64.69 66.05 65.01 67.83
  A 0.54 0.53 79.6 0 1 64.59 68.45
  C 55.32 70.38 54.93 80.36 64.43 83.02
  A 0.78 0.78 0.0 0 1 65.00 83.77
  L 65.00 90.23
  A 0.46 0.46 0.0 0 1 64.46 90.68
  C 62.69 90.36 58.54 87.45 57.80 90.36
  A 1.92 1.92 0.0 0 0 58.90 92.59
  L 64.41 94.95
  A 0.97 0.95 9.6 0 1 64.98 95.74
  L 65.19 97.77
  A 0.76 0.75 86.3 0 0 65.96 98.45
  L 67.74 98.37
  A 0.73 0.72 -88.7 0 0 68.44 97.70
  L 68.59 95.45
  A 0.80 0.80 0.0 0 1 69.23 94.72
  C 75.78 93.44 79.40 85.99 72.73 81.74
  Q 72.03 81.30 69.21 80.16
  A 0.73 0.72 -79.5 0 1 68.75 79.48
  L 68.75 72.85
  A 0.51 0.50 11.9 0 1 69.46 72.39"
/>
<path stroke="#7d5d1c" vector-effect="non-scaling-stroke" d="
  M 61.80 77.30
  L 64.00 78.97
  Q 65.00 79.73 65.00 78.47
  L 65.00 73.04
  A 0.56 0.56 0.0 0 0 64.28 72.50
  Q 62.17 73.14 61.26 75.23
  A 1.72 1.72 0.0 0 0 61.80 77.30"
/>
<path stroke="#7d5d1c" vector-effect="non-scaling-stroke" d="
  M 69.89 84.55
  Q 68.68 83.85 68.70 85.25
  L 68.77 90.24
  A 0.44 0.44 0.0 0 0 69.27 90.67
  C 73.15 90.13 73.42 86.60 69.89 84.55"
/>
<path stroke="#9f4b24" vector-effect="non-scaling-stroke" d="
  M 369.96 85.00
  L 369.68 85.00
  A 0.22 0.22 0.0 0 0 369.48 85.13
  C 360.96 102.21 346.03 111.51 327.09 111.50
  Q 235.37 111.48 143.65 111.53
  C 136.09 111.53 126.14 112.28 117.32 112.03
  A 0.78 0.76 -74.5 0 0 116.61 112.44
  Q 116.07 113.49 114.75 113.46"
/>
<path stroke="#d27e24" vector-effect="non-scaling-stroke" d="
  M 120.96 105.25
  L 121.17 105.54
  A 0.87 0.86 71.9 0 0 121.87 105.90
  Q 222.75 106.08 323.65 105.98
  Q 334.18 105.97 339.60 104.58
  C 354.95 100.64 365.38 89.72 371.21 74.75"
/>
<path stroke="#c07f26" vector-effect="non-scaling-stroke" d="
  M 122.00 103.96
  C 123.11 104.17 124.21 104.46 125.34 104.46
  Q 225.85 104.11 326.34 104.27
  C 337.94 104.29 346.25 102.13 355.04 95.50"
/>
</g>
<path fill="#000000" d="
  M 19.54 9.00
  L 18.79 10.54
  A 0.81 0.81 0.0 0 1 18.06 11.00
  L 5.71 11.01
  A 1.54 1.53 -81.9 0 0 4.24 12.12
  C 3.30 15.40 3.28 16.48 7.09 16.49
  Q 42.81 16.52 78.59 16.49
  A 1.23 1.22 87.6 0 0 79.81 15.16
  L 79.52 11.59
  A 0.65 0.64 -2.4 0 0 78.87 11.00
  L 26.23 11.00
  A 1.08 1.06 68.5 0 1 25.44 10.65
  L 24.00 9.04
  L 25.47 7.60
  A 1.21 1.19 22.2 0 1 26.32 7.25
  Q 51.59 7.25 76.84 7.25
  C 83.39 7.25 83.55 10.21 83.46 15.78
  Q 91.55 16.95 89.93 25.26
  C 89.12 29.46 86.77 28.44 83.88 29.54
  A 0.69 0.68 76.1 0 0 83.44 30.27
  Q 83.86 33.19 82.92 35.94
  Q 82.76 36.38 82.85 36.84
  L 83.66 41.24
  A 0.58 0.57 81.8 0 0 84.28 41.71
  Q 100.09 40.34 112.76 49.76
  A 1.57 1.57 0.0 0 1 113.24 51.72
  Q 113.05 52.10 112.50 52.46
  L 111.17 52.74
  A 1.20 1.20 0.0 0 1 110.20 52.54
  Q 99.20 44.47 85.51 45.56
  Q 84.92 45.60 85.38 45.97
  Q 88.42 48.39 90.00 48.53
  C 131.78 52.29 131.83 110.54 89.73 114.77
  Q 88.43 114.90 85.37 117.28
  Q 84.97 117.58 85.47 117.63
  C 118.39 120.51 135.88 82.99 116.26 58.17
  A 1.31 1.29 28.7 0 1 115.99 57.27
  L 116.04 56.50
  Q 117.69 54.22 119.31 56.19
  Q 132.62 72.35 126.71 93.50
  L 122.00 103.96
  L 120.96 105.25
  L 113.54 113.50
  Q 110.94 114.78 108.42 116.22
  C 99.72 121.22 90.28 122.78 80.41 120.87
  C 75.99 120.01 71.29 121.75 67.74 121.75
  Q 41.06 121.74 14.32 121.76
  C 8.47 121.77 5.21 119.41 6.72 113.14
  A 0.37 0.37 0.0 0 0 6.35 112.68
  Q 1.20 112.75 0.00 107.94
  L 0.00 103.94
  Q 0.70 101.12 3.21 99.94
  A 1.89 1.78 33.1 0 1 4.15 99.77
  C 9.14 100.19 3.47 91.66 11.87 90.30
  A 0.81 0.80 -88.9 0 0 12.53 89.66
  Q 12.99 87.39 12.18 85.20
  A 0.73 0.73 0.0 0 0 11.50 84.73
  C 7.27 84.77 1.09 86.14 0.00 80.19
  L 0.00 76.19
  Q 1.14 72.00 5.49 71.92
  A 1.25 1.24 85.2 0 0 6.70 70.48
  Q 6.30 67.94 7.14 65.48
  A 1.89 1.85 -42.0 0 0 7.20 64.55
  C 6.23 59.89 6.00 56.19 9.96 53.25
  Q 11.04 53.99 12.19 53.28
  A 0.86 0.85 -17.0 0 0 12.59 52.54
  L 12.47 47.98
  A 0.49 0.49 0.0 0 0 11.95 47.50
  Q 11.41 47.54 11.04 48.00
  Q 10.99 47.86 10.90 47.75
  A 0.62 0.61 -28.1 0 0 10.28 47.57
  C 6.18 48.68 1.21 48.14 0.00 43.44
  L 0.00 39.44
  Q 1.40 36.72 0.00 33.94
  L 0.00 30.19
  Q 1.16 25.54 5.97 25.58
  A 0.60 0.60 0.0 0 0 6.57 25.00
  L 6.66 20.83
  A 0.47 0.47 0.0 0 0 6.20 20.35
  Q 1.34 20.30 0.00 15.69
  L 0.00 11.69
  C 1.67 5.10 12.54 7.23 17.75 7.28
  A 1.44 1.44 0.0 0 1 18.65 7.62
  Q 19.29 8.17 19.54 9.00
  Z
  M 20.75 25.46
  L 84.72 25.70
  A 1.58 1.57 -0.0 0 0 86.30 24.13
  L 86.31 21.12
  A 0.86 0.86 0.0 0 0 85.45 20.26
  L 21.25 20.29
  L 11.12 20.33
  A 0.64 0.64 0.0 0 0 10.48 20.95
  L 10.39 24.76
  A 0.69 0.69 0.0 0 0 11.08 25.47
  L 20.75 25.46
  Z
  M 79.7274 30.6437
  A 1.21 1.21 0.0 0 0 78.5153 29.4358
  L 4.9954 29.5642
  A 1.21 1.21 0.0 0 0 3.7875 30.7763
  L 3.7926 33.6763
  A 1.21 1.21 0.0 0 0 5.0047 34.8842
  L 78.5246 34.7558
  A 1.21 1.21 0.0 0 0 79.7325 33.5437
  L 79.7274 30.6437
  Z
  M 59.25 42.36
  C 65.96 40.81 71.80 41.67 78.29 42.91
  A 1.29 1.28 -88.4 0 0 79.81 41.46
  L 79.50 39.31
  A 0.66 0.65 -4.0 0 0 78.85 38.75
  L 4.90 38.75
  A 0.79 0.79 0.0 0 0 4.16 39.27
  Q 3.32 41.53 4.16 43.70
  A 0.76 0.75 -9.9 0 0 4.87 44.19
  Q 26.19 44.23 47.51 44.26
  C 51.74 44.27 55.23 43.28 59.25 42.36
  Z
  M 103.00 81.64
  A 36.19 36.19 0.0 0 0 66.81 45.45
  A 36.19 36.19 0.0 0 0 30.62 81.64
  A 36.19 36.19 0.0 0 0 66.81 117.83
  A 36.19 36.19 0.0 0 0 103.00 81.64
  Z
  M 16.73 52.91
  A 0.34 0.34 0.0 0 0 17.07 53.23
  L 38.22 53.34
  A 0.34 0.34 0.0 0 0 38.44 53.26
  L 44.10 48.53
  A 0.34 0.34 0.0 0 0 43.89 47.93
  L 16.78 48.03
  A 0.34 0.34 0.0 0 0 16.44 48.39
  L 16.73 52.91
  Z
  M 95.64 109.92
  C 124.53 102.17 124.86 61.51 96.39 53.52
  Q 94.75 53.06 95.93 54.29
  C 110.80 69.83 110.00 94.06 95.42 109.55
  Q 94.88 110.12 95.64 109.92
  Z
  M 10.71 57.31
  A 0.33 0.33 0.0 0 0 10.38 57.64
  L 10.48 62.16
  A 0.33 0.33 0.0 0 0 10.81 62.48
  L 31.51 62.54
  A 0.33 0.33 0.0 0 0 31.80 62.38
  L 34.68 57.62
  A 0.33 0.33 0.0 0 0 34.40 57.11
  L 10.71 57.31
  Z
  M 10.78 66.61
  Q 10.08 69.09 10.51 70.77
  A 1.28 1.28 0.0 0 0 11.73 71.72
  L 27.49 71.82
  A 0.69 0.68 8.6 0 0 28.15 71.34
  L 29.52 67.07
  A 0.47 0.47 0.0 0 0 29.07 66.45
  L 10.90 66.52
  A 0.13 0.12 -80.3 0 0 10.78 66.61
  Z
  M 14.75 80.96
  L 26.12 81.10
  A 0.65 0.64 2.8 0 0 26.78 80.51
  L 27.21 76.13
  A 0.49 0.49 0.0 0 0 26.72 75.59
  L 14.50 75.79
  L 4.73 75.59
  A 0.76 0.75 -88.1 0 0 3.96 76.32
  L 3.81 80.22
  A 0.65 0.64 1.7 0 0 4.45 80.89
  L 14.75 80.96
  Z
  M 27.3804 85.6272
  A 0.79 0.79 0.0 0 0 26.5988 84.8290
  L 17.2793 84.7314
  A 0.79 0.79 0.0 0 0 16.4810 85.5130
  L 16.4396 89.4728
  A 0.79 0.79 0.0 0 0 17.2212 90.2710
  L 26.5407 90.3686
  A 0.79 0.79 0.0 0 0 27.3390 89.5870
  L 27.3804 85.6272
  Z
  M 21.00 99.46
  L 30.35 99.46
  A 0.41 0.40 78.4 0 0 30.72 98.89
  L 28.88 94.49
  A 0.82 0.81 -11.5 0 0 28.11 93.99
  L 21.50 94.04
  L 11.71 93.99
  A 0.97 0.96 -76.4 0 0 10.85 94.52
  Q 9.76 96.63 10.68 98.97
  A 0.83 0.83 0.0 0 0 11.45 99.49
  L 21.00 99.46
  Z
  M 3.98 104.11
  Q 3.26 106.28 4.18 108.19
  A 0.99 0.99 0.0 0 0 5.07 108.75
  L 36.52 108.75
  Q 37.25 108.75 36.80 108.17
  L 33.23 103.61
  A 0.95 0.93 -18.3 0 0 32.48 103.24
  L 5.16 103.26
  A 1.26 1.24 -80.5 0 0 3.98 104.11
  Z
  M 21.75 117.96
  L 48.54 117.99
  Q 49.60 117.99 48.71 117.41
  L 41.49 112.77
  A 1.83 1.78 -28.0 0 0 40.52 112.49
  L 21.25 112.54
  L 11.01 112.75
  A 0.66 0.66 0.0 0 0 10.36 113.43
  L 10.48 117.20
  A 0.76 0.75 -0.8 0 0 11.24 117.93
  L 21.75 117.96
  Z"
/>
<path fill="#e59c1c" d="
  M 19.54 9.00
  L 24.00 9.04
  L 25.44 10.65
  A 1.08 1.06 68.5 0 0 26.23 11.00
  L 78.87 11.00
  A 0.65 0.64 -2.4 0 1 79.52 11.59
  L 79.81 15.16
  A 1.23 1.22 87.6 0 1 78.59 16.49
  Q 42.81 16.52 7.09 16.49
  C 3.28 16.48 3.30 15.40 4.24 12.12
  A 1.54 1.53 -81.9 0 1 5.71 11.01
  L 18.06 11.00
  A 0.81 0.81 0.0 0 0 18.79 10.54
  L 19.54 9.00
  Z"
/>
<path fill="#9f6f3a" d="
  M 373.00 53.31
  L 372.72 65.95
  Q 371.40 70.23 371.21 74.75
  C 370.61 75.12 370.08 75.54 369.82 76.25
  Q 365.38 88.15 355.04 95.50
  C 350.27 93.19 333.65 94.48 319.25 94.50
  Q 289.83 94.55 129.91 94.49
  C 128.68 94.49 127.76 94.00 126.71 93.50
  Q 132.62 72.35 119.31 56.19
  Q 117.69 54.22 116.04 56.50
  Q 115.54 53.36 112.50 52.46
  Q 113.05 52.10 113.24 51.72
  A 1.57 1.57 0.0 0 0 112.76 49.76
  Q 100.09 40.34 84.28 41.71
  A 0.58 0.57 81.8 0 1 83.66 41.24
  L 82.85 36.84
  Q 82.76 36.38 82.92 35.94
  Q 83.86 33.19 83.44 30.27
  A 0.69 0.68 76.1 0 1 83.88 29.54
  C 86.77 28.44 89.12 29.46 89.93 25.26
  Q 91.55 16.95 83.46 15.78
  L 83.82 15.35
  A 1.05 1.04 20.6 0 1 84.60 15.00
  Q 201.42 15.01 318.25 14.99
  Q 332.17 14.98 338.15 16.33
  Q 359.56 21.16 369.44 41.95
  C 371.08 45.40 371.97 49.48 373.00 53.31
  Z"
/>
<path fill="#e59c1c" d="
  M 21.25 20.29
  Q 21.56 22.94 20.75 25.46
  L 11.08 25.47
  A 0.69 0.69 0.0 0 1 10.39 24.76
  L 10.48 20.95
  A 0.64 0.64 0.0 0 1 11.12 20.33
  L 21.25 20.29
  Z"
/>
<path fill="#f9b938" d="
  M 21.25 20.29
  L 85.45 20.26
  A 0.86 0.86 0.0 0 1 86.31 21.12
  L 86.30 24.13
  A 1.58 1.57 0.0 0 1 84.72 25.70
  L 20.75 25.46
  Q 21.56 22.94 21.25 20.29
  Z"
/>
<rect fill="#e59c1c" x="-37.97" y="-2.66" transform="translate(41.76,32.16) rotate(-0.1)" width="75.94" height="5.32" rx="1.21"/>
<path fill="#f9b938" d="
  M 78.29 42.91
  C 71.80 41.67 65.96 40.81 59.25 42.36
  C 55.23 43.28 51.74 44.27 47.51 44.26
  Q 26.19 44.23 4.87 44.19
  A 0.76 0.75 -9.9 0 1 4.16 43.70
  Q 3.32 41.53 4.16 39.27
  A 0.79 0.79 0.0 0 1 4.90 38.75
  L 78.85 38.75
  A 0.66 0.65 -4.0 0 1 79.50 39.31
  L 79.81 41.46
  A 1.29 1.28 -88.4 0 1 78.29 42.91
  Z"
/>
<path fill="#facd47" d="
  M 103.00 81.64
  A 36.19 36.19 0.0 0 1 66.81 117.83
  A 36.19 36.19 0.0 0 1 30.62 81.64
  A 36.19 36.19 0.0 0 1 66.81 45.45
  A 36.19 36.19 0.0 0 1 103.00 81.64
  Z
  M 44.78 103.14
  Q 46.18 104.95 48.54 106.25
  Q 47.17 107.98 48.54 108.97
  C 69.68 124.35 99.59 107.16 99.68 82.10
  C 99.76 62.05 82.20 45.98 62.41 48.95
  C 36.36 52.87 25.62 82.37 41.54 102.73
  Q 42.68 104.19 44.78 103.14
  Z"
/>
<path fill="#facd47" d="
  M 112.50 52.46
  Q 115.54 53.36 116.04 56.50
  L 115.99 57.27
  A 1.31 1.29 28.7 0 0 116.26 58.17
  C 135.88 82.99 118.39 120.51 85.47 117.63
  Q 84.97 117.58 85.37 117.28
  Q 88.43 114.90 89.73 114.77
  C 131.83 110.54 131.78 52.29 90.00 48.53
  Q 88.42 48.39 85.38 45.97
  Q 84.92 45.60 85.51 45.56
  Q 99.20 44.47 110.20 52.54
  A 1.20 1.20 0.0 0 0 111.17 52.74
  L 112.50 52.46
  Z"
/>
<path fill="#9f6f3a" d="
  M 9.96 53.25
  Q 9.84 50.49 11.04 48.00
  Q 11.41 47.54 11.95 47.50
  A 0.49 0.49 0.0 0 1 12.47 47.98
  L 12.59 52.54
  A 0.86 0.85 -17.0 0 1 12.19 53.28
  Q 11.04 53.99 9.96 53.25
  Z"
/>
<path fill="#e59c1c" d="
  M 16.73 52.91
  L 16.44 48.39
  A 0.34 0.34 0.0 0 1 16.78 48.03
  L 43.89 47.93
  A 0.34 0.34 0.0 0 1 44.10 48.53
  L 38.44 53.26
  A 0.34 0.34 0.0 0 1 38.22 53.34
  L 17.07 53.23
  A 0.34 0.34 0.0 0 1 16.73 52.91
  Z"
/>
<path fill="#000000" d="
  M 48.54 106.25
  C 49.35 105.60 50.07 105.58 50.98 106.16
  Q 61.85 113.06 74.50 109.68
  C 97.57 103.21 103.55 73.33 84.67 58.59
  C 70.75 47.71 50.68 51.52 41.79 67.25
  C 35.84 77.95 36.45 88.56 43.36 98.48
  Q 44.82 100.57 44.78 103.14
  Q 42.68 104.19 41.54 102.73
  C 25.62 82.37 36.36 52.87 62.41 48.95
  C 82.20 45.98 99.76 62.05 99.68 82.10
  C 99.59 107.16 69.68 124.35 48.54 108.97
  Q 47.17 107.98 48.54 106.25
  Z"
/>
<path fill="#f9b938" d="
  M 74.50 109.68
  C 51.77 109.65 37.32 90.86 42.75 69.26
  Q 43.03 68.13 41.79 67.25
  C 50.68 51.52 70.75 47.71 84.67 58.59
  C 103.55 73.33 97.57 103.21 74.50 109.68
  Z
  M 69.46 72.39
  L 73.56 74.18
  A 1.53 1.53 0.0 0 0 75.58 73.37
  C 76.76 70.57 71.51 68.94 69.90 68.74
  A 1.37 1.36 -84.4 0 1 68.71 67.29
  Q 68.84 65.16 66.90 64.53
  A 0.98 0.96 30.1 0 0 65.91 64.78
  Q 64.69 66.05 65.01 67.83
  A 0.54 0.53 79.6 0 1 64.59 68.45
  C 55.32 70.38 54.93 80.36 64.43 83.02
  A 0.78 0.78 0.0 0 1 65.00 83.77
  L 65.00 90.23
  A 0.46 0.46 0.0 0 1 64.46 90.68
  C 62.69 90.36 58.54 87.45 57.80 90.36
  A 1.92 1.92 0.0 0 0 58.90 92.59
  L 64.41 94.95
  A 0.97 0.95 9.6 0 1 64.98 95.74
  L 65.19 97.77
  A 0.76 0.75 86.3 0 0 65.96 98.45
  L 67.74 98.37
  A 0.73 0.72 -88.7 0 0 68.44 97.70
  L 68.59 95.45
  A 0.80 0.80 0.0 0 1 69.23 94.72
  C 75.78 93.44 79.40 85.99 72.73 81.74
  Q 72.03 81.30 69.21 80.16
  A 0.73 0.72 -79.5 0 1 68.75 79.48
  L 68.75 72.85
  A 0.51 0.50 11.9 0 1 69.46 72.39
  Z"
/>
<path fill="#f9b938" d="
  M 96.39 53.52
  C 124.86 61.51 124.53 102.17 95.64 109.92
  Q 94.88 110.12 95.42 109.55
  C 110.00 94.06 110.80 69.83 95.93 54.29
  Q 94.75 53.06 96.39 53.52
  Z"
/>
<path fill="#f9b938" d="
  M 10.71 57.31
  L 34.40 57.11
  A 0.33 0.33 0.0 0 1 34.68 57.62
  L 31.80 62.38
  A 0.33 0.33 0.0 0 1 31.51 62.54
  L 10.81 62.48
  A 0.33 0.33 0.0 0 1 10.48 62.16
  L 10.38 57.64
  A 0.33 0.33 0.0 0 1 10.71 57.31
  Z"
/>
<path fill="#000000" d="
  M 68.75 72.85
  L 68.75 79.48
  A 0.73 0.72 -79.5 0 0 69.21 80.16
  Q 72.03 81.30 72.73 81.74
  C 79.40 85.99 75.78 93.44 69.23 94.72
  A 0.80 0.80 0.0 0 0 68.59 95.45
  L 68.44 97.70
  A 0.73 0.72 -88.7 0 1 67.74 98.37
  L 65.96 98.45
  A 0.76 0.75 86.3 0 1 65.19 97.77
  L 64.98 95.74
  A 0.97 0.95 9.6 0 0 64.41 94.95
  L 58.90 92.59
  A 1.92 1.92 0.0 0 1 57.80 90.36
  C 58.54 87.45 62.69 90.36 64.46 90.68
  A 0.46 0.46 0.0 0 0 65.00 90.23
  L 65.00 83.77
  A 0.78 0.78 0.0 0 0 64.43 83.02
  C 54.93 80.36 55.32 70.38 64.59 68.45
  A 0.54 0.53 79.6 0 0 65.01 67.83
  Q 64.69 66.05 65.91 64.78
  A 0.98 0.96 30.1 0 1 66.90 64.53
  Q 68.84 65.16 68.71 67.29
  A 1.37 1.36 -84.4 0 0 69.90 68.74
  C 71.51 68.94 76.76 70.57 75.58 73.37
  A 1.53 1.53 0.0 0 1 73.56 74.18
  L 69.46 72.39
  A 0.51 0.50 11.9 0 0 68.75 72.85
  Z
  M 61.80 77.30
  L 64.00 78.97
  Q 65.00 79.73 65.00 78.47
  L 65.00 73.04
  A 0.56 0.56 0.0 0 0 64.28 72.50
  Q 62.17 73.14 61.26 75.23
  A 1.72 1.72 0.0 0 0 61.80 77.30
  Z
  M 69.89 84.55
  Q 68.68 83.85 68.70 85.25
  L 68.77 90.24
  A 0.44 0.44 0.0 0 0 69.27 90.67
  C 73.15 90.13 73.42 86.60 69.89 84.55
  Z"
/>
<path fill="#be602b" d="
  M 372.72 65.95
  L 373.00 74.56
  L 369.96 85.00
  L 369.68 85.00
  A 0.22 0.22 0.0 0 0 369.48 85.13
  C 360.96 102.21 346.03 111.51 327.09 111.50
  Q 235.37 111.48 143.65 111.53
  C 136.09 111.53 126.14 112.28 117.32 112.03
  A 0.78 0.76 -74.5 0 0 116.61 112.44
  Q 116.07 113.49 114.75 113.46
  L 113.54 113.50
  L 120.96 105.25
  L 121.17 105.54
  A 0.87 0.86 71.9 0 0 121.87 105.90
  Q 222.75 106.08 323.65 105.98
  Q 334.18 105.97 339.60 104.58
  C 354.95 100.64 365.38 89.72 371.21 74.75
  Q 371.40 70.23 372.72 65.95
  Z"
/>
<path fill="#e59c1c" d="
  M 10.78 66.61
  A 0.13 0.12 -80.3 0 1 10.90 66.52
  L 29.07 66.45
  A 0.47 0.47 0.0 0 1 29.52 67.07
  L 28.15 71.34
  A 0.69 0.68 8.6 0 1 27.49 71.82
  L 11.73 71.72
  A 1.28 1.28 0.0 0 1 10.51 70.77
  Q 10.08 69.09 10.78 66.61
  Z"
/>
<path fill="#e59c1c" d="
  M 41.79 67.25
  Q 43.03 68.13 42.75 69.26
  C 37.32 90.86 51.77 109.65 74.50 109.68
  Q 61.85 113.06 50.98 106.16
  C 50.07 105.58 49.35 105.60 48.54 106.25
  Q 46.18 104.95 44.78 103.14
  Q 44.82 100.57 43.36 98.48
  C 36.45 88.56 35.84 77.95 41.79 67.25
  Z"
/>
<path fill="#f9b938" d="
  M 61.80 77.30
  A 1.72 1.72 0.0 0 1 61.26 75.23
  Q 62.17 73.14 64.28 72.50
  A 0.56 0.56 0.0 0 1 65.00 73.04
  L 65.00 78.47
  Q 65.00 79.73 64.00 78.97
  L 61.80 77.30
  Z"
/>
<path fill="#e59c1c" d="
  M 371.21 74.75
  C 365.38 89.72 354.95 100.64 339.60 104.58
  Q 334.18 105.97 323.65 105.98
  Q 222.75 106.08 121.87 105.90
  A 0.87 0.86 71.9 0 1 121.17 105.54
  L 120.96 105.25
  L 122.00 103.96
  C 123.11 104.17 124.21 104.46 125.34 104.46
  Q 225.85 104.11 326.34 104.27
  C 337.94 104.29 346.25 102.13 355.04 95.50
  Q 365.38 88.15 369.82 76.25
  C 370.08 75.54 370.61 75.12 371.21 74.75
  Z"
/>
<path fill="#e59c1c" d="
  M 14.50 75.79
  L 14.75 80.96
  L 4.45 80.89
  A 0.65 0.64 1.7 0 1 3.81 80.22
  L 3.96 76.32
  A 0.76 0.75 -88.1 0 1 4.73 75.59
  L 14.50 75.79
  Z"
/>
<path fill="#f9b938" d="
  M 14.75 80.96
  L 14.50 75.79
  L 26.72 75.59
  A 0.49 0.49 0.0 0 1 27.21 76.13
  L 26.78 80.51
  A 0.65 0.64 2.8 0 1 26.12 81.10
  L 14.75 80.96
  Z"
/>
<path fill="#f9b938" d="
  M 69.89 84.55
  C 73.42 86.60 73.15 90.13 69.27 90.67
  A 0.44 0.44 0.0 0 1 68.77 90.24
  L 68.70 85.25
  Q 68.68 83.85 69.89 84.55
  Z"
/>
<rect fill="#e59c1c" x="-5.45" y="-2.77" transform="translate(21.91,87.55) rotate(0.6)" width="10.90" height="5.54" rx="0.79"/>
<path fill="#80351d" d="
  M 369.96 85.00
  Q 360.75 106.78 339.41 112.03
  Q 333.44 113.50 320.46 113.50
  Q 217.61 113.53 114.75 113.46
  Q 116.07 113.49 116.61 112.44
  A 0.78 0.76 -74.5 0 1 117.32 112.03
  C 126.14 112.28 136.09 111.53 143.65 111.53
  Q 235.37 111.48 327.09 111.50
  C 346.03 111.51 360.96 102.21 369.48 85.13
  A 0.22 0.22 0.0 0 1 369.68 85.00
  L 369.96 85.00
  Z"
/>
<path fill="#9a6130" d="
  M 126.71 93.50
  C 127.76 94.00 128.68 94.49 129.91 94.49
  Q 289.83 94.55 319.25 94.50
  C 333.65 94.48 350.27 93.19 355.04 95.50
  C 346.25 102.13 337.94 104.29 326.34 104.27
  Q 225.85 104.11 125.34 104.46
  C 124.21 104.46 123.11 104.17 122.00 103.96
  L 126.71 93.50
  Z"
/>
<path fill="#e59c1c" d="
  M 21.50 94.04
  L 21.26 94.35
  A 0.93 0.91 56.5 0 0 21.11 95.13
  Q 21.66 97.31 21.00 99.46
  L 11.45 99.49
  A 0.83 0.83 0.0 0 1 10.68 98.97
  Q 9.76 96.63 10.85 94.52
  A 0.97 0.96 -76.4 0 1 11.71 93.99
  L 21.50 94.04
  Z"
/>
<path fill="#f9b938" d="
  M 21.50 94.04
  L 28.11 93.99
  A 0.82 0.81 -11.5 0 1 28.88 94.49
  L 30.72 98.89
  A 0.41 0.40 78.4 0 1 30.35 99.46
  L 21.00 99.46
  Q 21.66 97.31 21.11 95.13
  A 0.93 0.91 56.5 0 1 21.26 94.35
  L 21.50 94.04
  Z"
/>
<path fill="#e59c1c" d="
  M 3.98 104.11
  A 1.26 1.24 -80.5 0 1 5.16 103.26
  L 32.48 103.24
  A 0.95 0.93 -18.3 0 1 33.23 103.61
  L 36.80 108.17
  Q 37.25 108.75 36.52 108.75
  L 5.07 108.75
  A 0.99 0.99 0.0 0 1 4.18 108.19
  Q 3.26 106.28 3.98 104.11
  Z"
/>
<path fill="#e59c1c" d="
  M 21.25 112.54
  Q 20.95 115.30 21.75 117.96
  L 11.24 117.93
  A 0.76 0.75 -0.8 0 1 10.48 117.20
  L 10.36 113.43
  A 0.66 0.66 0.0 0 1 11.01 112.75
  L 21.25 112.54
  Z"
/>
<path fill="#f9b938" d="
  M 21.25 112.54
  L 40.52 112.49
  A 1.83 1.78 -28.0 0 1 41.49 112.77
  L 48.71 117.41
  Q 49.60 117.99 48.54 117.99
  L 21.75 117.96
  Q 20.95 115.30 21.25 112.54
  Z"
/>
</svg>
