<?xml version="1.0" encoding="UTF-8" standalone="no"?>
<!DOCTYPE svg PUBLIC "-//W3C//DTD SVG 1.1//EN" "http://www.w3.org/Graphics/SVG/1.1/DTD/svg11.dtd">
<svg xmlns="http://www.w3.org/2000/svg" version="1.1" viewBox="0 0 98 95">
<g stroke-width="2.00" fill="none" stroke-linecap="butt">
<path stroke="#cdaca9" vector-effect="non-scaling-stroke" d="
  M 26.72 89.38
  C 28.50 91.07 28.43 92.39 31.57 92.43
  Q 49.63 92.64 68.93 92.34
  A 2.22 2.20 21.3 0 0 70.47 91.67
  L 94.39 67.24
  A 2.12 2.12 0.0 0 0 95.00 65.75
  L 95.00 31.92
  Q 95.00 29.83 93.58 28.30
  Q 80.84 14.48 66.93 1.84
  A 1.26 1.23 65.7 0 0 66.09 1.51
  L 29.48 1.49
  A 1.50 1.50 0.0 0 0 28.41 1.94
  L 3.24 27.05
  A 3.63 3.62 -22.7 0 0 2.19 29.60
  L 2.42 64.02
  A 2.46 2.44 23.5 0 0 3.09 65.70
  Q 15.11 78.35 26.72 89.38"
/>
<path stroke="#d7908a" vector-effect="non-scaling-stroke" d="
  M 29.50 4.96
  L 28.65 5.45
  Q 28.22 5.70 27.87 6.06
  L 5.97 28.20
  A 3.85 3.83 67.7 0 0 4.86 30.88
  L 4.78 62.12
  Q 4.77 64.20 6.25 65.67
  L 29.90 89.25
  A 1.43 1.42 -19.5 0 0 30.77 89.66
  C 37.84 90.42 44.73 89.71 55.08 90.12
  C 59.04 90.28 63.48 89.57 67.81 89.75
  A 1.20 1.19 -66.3 0 0 68.70 89.40
  L 92.13 66.15
  A 1.26 1.25 -22.7 0 0 92.50 65.26
  L 92.50 31.21
  A 1.40 1.39 -68.0 0 0 92.08 30.21
  L 67.38 5.75
  Q 65.80 4.19 63.58 4.21
  L 35.00 4.46"
/>
<path stroke="#cdaca9" vector-effect="non-scaling-stroke" d="
  M 35.00 4.46
  Q 32.02 2.99 29.50 4.96"
/>
<path stroke="#a65d59" vector-effect="non-scaling-stroke" d="
  M 35.00 4.46
  L 29.50 4.96"
/>
<path stroke="#c3342c" vector-effect="non-scaling-stroke" d="
  M 10.35 66.54
  C 12.36 69.29 14.82 71.13 17.26 73.72
  C 20.25 76.88 23.03 78.83 26.37 83.29
  Q 26.67 83.69 26.78 84.17
  Q 26.98 85.03 27.91 85.05
  A 1.19 1.17 68.0 0 1 28.73 85.41
  L 31.58 88.40
  A 1.10 1.08 -25.9 0 0 32.54 88.72
  C 34.48 88.41 48.68 86.85 49.22 88.16
  A 0.43 0.41 78.0 0 0 49.60 88.42
  L 67.86 88.44
  A 0.98 0.97 19.5 0 0 68.61 88.09
  Q 70.97 85.21 73.31 82.32
  C 78.40 76.05 85.89 72.02 90.38 65.41
  A 1.62 1.60 62.5 0 0 90.66 64.50
  Q 90.64 53.65 91.16 42.81
  C 91.32 39.37 90.74 32.54 88.91 29.72
  C 84.91 23.52 79.10 17.91 73.41 14.34
  C 68.53 11.28 68.17 6.40 61.03 5.72
  C 59.18 5.54 58.24 4.99 56.53 6.23
  A 1.67 1.67 0.0 0 1 55.68 6.55
  Q 46.34 7.40 37.02 6.31
  A 1.36 1.34 -18.9 0 1 36.19 5.91
  C 35.12 4.81 33.51 5.25 32.72 6.46
  A 0.89 0.87 15.1 0 1 31.99 6.87
  Q 28.59 6.97 26.90 9.87
  Q 26.10 11.26 24.84 12.25
  Q 20.28 15.83 16.71 20.34
  C 13.72 24.13 9.95 26.70 6.83 30.35
  A 1.58 1.58 0.0 0 0 6.45 31.23
  C 5.31 43.02 6.64 52.37 6.10 62.48
  A 1.83 1.75 32.9 0 0 6.32 63.41
  Q 7.41 65.36 9.50 65.95
  A 1.60 1.57 -9.7 0 1 10.35 66.54"
/>
<path stroke="#ea837c" vector-effect="non-scaling-stroke" d="
  M 16.70 32.70
  Q 16.63 48.13 16.84 60.31
  Q 16.85 61.32 18.03 61.18
  A 0.74 0.73 87.4 0 0 18.68 60.46
  L 18.79 49.25
  A 0.93 0.93 0.0 0 1 19.84 48.34
  C 28.64 49.56 29.51 41.82 27.70 35.52
  C 26.44 31.12 20.45 32.16 17.11 32.28
  A 0.43 0.43 0.0 0 0 16.70 32.70"
/>
<path stroke="#ea8f8b" vector-effect="non-scaling-stroke" d="
  M 61.25 49.07
  C 61.71 50.85 63.58 61.29 65.19 61.22
  A 0.52 0.52 0.0 0 0 65.68 60.60
  L 63.32 48.89
  A 0.91 0.91 0.0 0 1 63.55 48.09
  Q 69.04 42.38 65.68 34.61
  Q 64.78 32.54 62.52 32.45
  L 55.81 32.18
  A 0.58 0.57 -88.6 0 0 55.21 32.76
  L 55.27 60.17
  A 0.88 0.87 -71.9 0 0 55.62 60.87
  L 56.07 61.21
  Q 57.00 61.91 57.03 60.74
  L 57.33 48.93
  A 0.66 0.66 0.0 0 1 58.02 48.29
  L 60.45 48.42
  A 0.87 0.87 0.0 0 1 61.25 49.07"
/>
<path stroke="#ea8f8b" vector-effect="non-scaling-stroke" d="
  M 75.96 35.24
  C 77.34 35.01 82.37 35.21 82.75 33.68
  A 0.88 0.87 -81.7 0 0 81.94 32.58
  L 73.77 32.24
  A 0.50 0.50 0.0 0 0 73.25 32.74
  L 73.25 60.37
  A 0.58 0.58 0.0 0 0 73.86 60.95
  L 83.22 60.63
  A 0.56 0.56 0.0 0 0 83.76 60.06
  C 83.75 58.39 77.21 58.67 75.93 58.59
  A 0.59 0.59 0.0 0 1 75.37 57.98
  L 75.72 48.38
  A 0.70 0.70 0.0 0 1 76.43 47.70
  L 79.75 47.77
  A 0.66 0.66 0.0 0 0 80.42 47.07
  L 80.32 45.64
  A 0.68 0.68 0.0 0 0 79.64 45.00
  L 76.30 45.00
  A 0.71 0.71 0.0 0 1 75.59 44.30
  L 75.46 35.84
  A 0.61 0.61 0.0 0 1 75.96 35.24"
/>
<path stroke="#ea8d84" vector-effect="non-scaling-stroke" d="
  M 44.04 53.89
  C 44.50 55.41 45.11 61.08 47.06 61.02
  A 0.81 0.81 0.0 0 0 47.82 60.03
  Q 44.81 47.10 42.33 34.09
  C 42.06 32.69 41.44 31.99 39.96 32.55
  A 0.97 0.93 -5.4 0 0 39.36 33.25
  L 34.07 59.47
  A 1.59 1.59 0.0 0 0 35.00 61.25
  C 36.02 61.68 37.31 55.06 37.52 54.12
  A 0.76 0.76 0.0 0 1 38.25 53.52
  L 43.42 53.44
  A 0.64 0.63 80.9 0 1 44.04 53.89"
/>
<path stroke="#de8881" vector-effect="non-scaling-stroke" d="
  M 25.77 43.98
  Q 27.25 39.45 25.23 35.12
  A 0.94 0.94 0.0 0 0 24.44 34.57
  L 19.71 34.22
  A 0.90 0.89 2.4 0 0 18.74 35.11
  L 18.77 45.07
  A 0.61 0.61 0.0 0 0 19.38 45.68
  L 23.44 45.67
  Q 25.22 45.67 25.77 43.98"
/>
<path stroke="#de9490" vector-effect="non-scaling-stroke" d="
  M 62.52 34.37
  L 57.77 34.26
  A 0.65 0.64 -89.6 0 0 57.12 34.91
  L 57.25 45.26
  A 0.66 0.66 0.0 0 0 57.94 45.91
  L 61.41 45.80
  Q 64.38 45.70 64.86 42.77
  Q 65.47 39.08 64.16 35.54
  A 1.80 1.79 -9.4 0 0 62.52 34.37"
/>
<path stroke="#d79a93" vector-effect="non-scaling-stroke" d="
  M 38.20 50.16
  A 0.56 0.56 0.0 0 0 38.77 50.83
  L 42.80 50.70
  A 0.56 0.56 0.0 0 0 43.32 49.99
  L 41.01 41.33
  A 0.56 0.56 0.0 0 0 39.92 41.37
  L 38.20 50.16"
/>
</g>
<path fill="#9c7878" d="
  M 27.81 0.00
  L 67.81 0.00
  L 73.12 5.49
  Q 73.47 5.85 73.90 6.09
  Q 75.22 6.82 76.52 8.73
  Q 78.10 11.06 86.27 17.98
  Q 88.31 19.71 96.68 28.96
  A 1.24 1.22 -66.6 0 1 97.00 29.79
  L 97.00 66.88
  A 1.21 1.19 67.8 0 1 96.65 67.73
  L 71.24 93.14
  A 2.98 2.97 -67.3 0 1 69.15 94.00
  L 30.28 94.00
  Q 28.53 94.00 27.28 92.76
  L 1.42 67.06
  Q 0.17 65.81 0.19 64.06
  L 0.43 28.14
  A 1.72 1.70 -22.6 0 1 0.92 26.97
  L 27.81 0.00
  Z
  M 26.72 89.38
  C 28.50 91.07 28.43 92.39 31.57 92.43
  Q 49.63 92.64 68.93 92.34
  A 2.22 2.20 21.3 0 0 70.47 91.67
  L 94.39 67.24
  A 2.12 2.12 0.0 0 0 95.00 65.75
  L 95.00 31.92
  Q 95.00 29.83 93.58 28.30
  Q 80.84 14.48 66.93 1.84
  A 1.26 1.23 65.7 0 0 66.09 1.51
  L 29.48 1.49
  A 1.50 1.50 0.0 0 0 28.41 1.94
  L 3.24 27.05
  A 3.63 3.62 -22.7 0 0 2.19 29.60
  L 2.42 64.02
  A 2.46 2.44 23.5 0 0 3.09 65.70
  Q 15.11 78.35 26.72 89.38
  Z"
/>
<path fill="#fedfda" d="
  M 26.72 89.38
  Q 15.11 78.35 3.09 65.70
  A 2.46 2.44 23.5 0 1 2.42 64.02
  L 2.19 29.60
  A 3.63 3.62 -22.7 0 1 3.24 27.05
  L 28.41 1.94
  A 1.50 1.50 0.0 0 1 29.48 1.49
  L 66.09 1.51
  A 1.26 1.23 65.7 0 1 66.93 1.84
  Q 80.84 14.48 93.58 28.30
  Q 95.00 29.83 95.00 31.92
  L 95.00 65.75
  A 2.12 2.12 0.0 0 1 94.39 67.24
  L 70.47 91.67
  A 2.22 2.20 21.3 0 1 68.93 92.34
  Q 49.63 92.64 31.57 92.43
  C 28.43 92.39 28.50 91.07 26.72 89.38
  Z
  M 29.50 4.96
  L 28.65 5.45
  Q 28.22 5.70 27.87 6.06
  L 5.97 28.20
  A 3.85 3.83 67.7 0 0 4.86 30.88
  L 4.78 62.12
  Q 4.77 64.20 6.25 65.67
  L 29.90 89.25
  A 1.43 1.42 -19.5 0 0 30.77 89.66
  C 37.84 90.42 44.73 89.71 55.08 90.12
  C 59.04 90.28 63.48 89.57 67.81 89.75
  A 1.20 1.19 -66.3 0 0 68.70 89.40
  L 92.13 66.15
  A 1.26 1.25 -22.7 0 0 92.50 65.26
  L 92.50 31.21
  A 1.40 1.39 -68.0 0 0 92.08 30.21
  L 67.38 5.75
  Q 65.80 4.19 63.58 4.21
  L 35.00 4.46
  Q 32.02 2.99 29.50 4.96
  Z"
/>
<path fill="#9c7878" d="
  M 35.00 4.46
  L 29.50 4.96
  Q 32.02 2.99 35.00 4.46
  Z"
/>
<path fill="#b0413a" d="
  M 29.50 4.96
  L 35.00 4.46
  L 63.58 4.21
  Q 65.80 4.19 67.38 5.75
  L 92.08 30.21
  A 1.40 1.39 -68.0 0 1 92.50 31.21
  L 92.50 65.26
  A 1.26 1.25 -22.7 0 1 92.13 66.15
  L 68.70 89.40
  A 1.20 1.19 -66.3 0 1 67.81 89.75
  C 63.48 89.57 59.04 90.28 55.08 90.12
  C 44.73 89.71 37.84 90.42 30.77 89.66
  A 1.43 1.42 -19.5 0 1 29.90 89.25
  L 6.25 65.67
  Q 4.77 64.20 4.78 62.12
  L 4.86 30.88
  A 3.85 3.83 67.7 0 1 5.97 28.20
  L 27.87 6.06
  Q 28.22 5.70 28.65 5.45
  L 29.50 4.96
  Z
  M 10.35 66.54
  C 12.36 69.29 14.82 71.13 17.26 73.72
  C 20.25 76.88 23.03 78.83 26.37 83.29
  Q 26.67 83.69 26.78 84.17
  Q 26.98 85.03 27.91 85.05
  A 1.19 1.17 68.0 0 1 28.73 85.41
  L 31.58 88.40
  A 1.10 1.08 -25.9 0 0 32.54 88.72
  C 34.48 88.41 48.68 86.85 49.22 88.16
  A 0.43 0.41 78.0 0 0 49.60 88.42
  L 67.86 88.44
  A 0.98 0.97 19.5 0 0 68.61 88.09
  Q 70.97 85.21 73.31 82.32
  C 78.40 76.05 85.89 72.02 90.38 65.41
  A 1.62 1.60 62.5 0 0 90.66 64.50
  Q 90.64 53.65 91.16 42.81
  C 91.32 39.37 90.74 32.54 88.91 29.72
  C 84.91 23.52 79.10 17.91 73.41 14.34
  C 68.53 11.28 68.17 6.40 61.03 5.72
  C 59.18 5.54 58.24 4.99 56.53 6.23
  A 1.67 1.67 0.0 0 1 55.68 6.55
  Q 46.34 7.40 37.02 6.31
  A 1.36 1.34 -18.9 0 1 36.19 5.91
  C 35.12 4.81 33.51 5.25 32.72 6.46
  A 0.89 0.87 15.1 0 1 31.99 6.87
  Q 28.59 6.97 26.90 9.87
  Q 26.10 11.26 24.84 12.25
  Q 20.28 15.83 16.71 20.34
  C 13.72 24.13 9.95 26.70 6.83 30.35
  A 1.58 1.58 0.0 0 0 6.45 31.23
  C 5.31 43.02 6.64 52.37 6.10 62.48
  A 1.83 1.75 32.9 0 0 6.32 63.41
  Q 7.41 65.36 9.50 65.95
  A 1.60 1.57 -9.7 0 1 10.35 66.54
  Z"
/>
<path fill="#d6271d" d="
  M 9.50 65.95
  Q 7.41 65.36 6.32 63.41
  A 1.83 1.75 32.9 0 1 6.10 62.48
  C 6.64 52.37 5.31 43.02 6.45 31.23
  A 1.58 1.58 0.0 0 1 6.83 30.35
  C 9.95 26.70 13.72 24.13 16.71 20.34
  Q 20.28 15.83 24.84 12.25
  Q 26.10 11.26 26.90 9.87
  Q 28.59 6.97 31.99 6.87
  A 0.89 0.87 15.1 0 0 32.72 6.46
  C 33.51 5.25 35.12 4.81 36.19 5.91
  A 1.36 1.34 -18.9 0 0 37.02 6.31
  Q 46.34 7.40 55.68 6.55
  A 1.67 1.67 0.0 0 0 56.53 6.23
  C 58.24 4.99 59.18 5.54 61.03 5.72
  C 68.17 6.40 68.53 11.28 73.41 14.34
  C 79.10 17.91 84.91 23.52 88.91 29.72
  C 90.74 32.54 91.32 39.37 91.16 42.81
  Q 90.64 53.65 90.66 64.50
  A 1.62 1.60 62.5 0 1 90.38 65.41
  C 85.89 72.02 78.40 76.05 73.31 82.32
  Q 70.97 85.21 68.61 88.09
  A 0.98 0.97 19.5 0 1 67.86 88.44
  L 49.60 88.42
  A 0.43 0.41 78.0 0 1 49.22 88.16
  C 48.68 86.85 34.48 88.41 32.54 88.72
  A 1.10 1.08 -25.9 0 1 31.58 88.40
  L 28.73 85.41
  A 1.19 1.17 68.0 0 0 27.91 85.05
  Q 26.98 85.03 26.78 84.17
  Q 26.67 83.69 26.37 83.29
  C 23.03 78.83 20.25 76.88 17.26 73.72
  C 14.82 71.13 12.36 69.29 10.35 66.54
  A 1.60 1.57 -9.7 0 0 9.50 65.95
  Z
  M 16.70 32.70
  Q 16.63 48.13 16.84 60.31
  Q 16.85 61.32 18.03 61.18
  A 0.74 0.73 87.4 0 0 18.68 60.46
  L 18.79 49.25
  A 0.93 0.93 0.0 0 1 19.84 48.34
  C 28.64 49.56 29.51 41.82 27.70 35.52
  C 26.44 31.12 20.45 32.16 17.11 32.28
  A 0.43 0.43 0.0 0 0 16.70 32.70
  Z
  M 61.25 49.07
  C 61.71 50.85 63.58 61.29 65.19 61.22
  A 0.52 0.52 0.0 0 0 65.68 60.60
  L 63.32 48.89
  A 0.91 0.91 0.0 0 1 63.55 48.09
  Q 69.04 42.38 65.68 34.61
  Q 64.78 32.54 62.52 32.45
  L 55.81 32.18
  A 0.58 0.57 -88.6 0 0 55.21 32.76
  L 55.27 60.17
  A 0.88 0.87 -71.9 0 0 55.62 60.87
  L 56.07 61.21
  Q 57.00 61.91 57.03 60.74
  L 57.33 48.93
  A 0.66 0.66 0.0 0 1 58.02 48.29
  L 60.45 48.42
  A 0.87 0.87 0.0 0 1 61.25 49.07
  Z
  M 75.96 35.24
  C 77.34 35.01 82.37 35.21 82.75 33.68
  A 0.88 0.87 -81.7 0 0 81.94 32.58
  L 73.77 32.24
  A 0.50 0.50 0.0 0 0 73.25 32.74
  L 73.25 60.37
  A 0.58 0.58 0.0 0 0 73.86 60.95
  L 83.22 60.63
  A 0.56 0.56 0.0 0 0 83.76 60.06
  C 83.75 58.39 77.21 58.67 75.93 58.59
  A 0.59 0.59 0.0 0 1 75.37 57.98
  L 75.72 48.38
  A 0.70 0.70 0.0 0 1 76.43 47.70
  L 79.75 47.77
  A 0.66 0.66 0.0 0 0 80.42 47.07
  L 80.32 45.64
  A 0.68 0.68 0.0 0 0 79.64 45.00
  L 76.30 45.00
  A 0.71 0.71 0.0 0 1 75.59 44.30
  L 75.46 35.84
  A 0.61 0.61 0.0 0 1 75.96 35.24
  Z
  M 44.04 53.89
  C 44.50 55.41 45.11 61.08 47.06 61.02
  A 0.81 0.81 0.0 0 0 47.82 60.03
  Q 44.81 47.10 42.33 34.09
  C 42.06 32.69 41.44 31.99 39.96 32.55
  A 0.97 0.93 -5.4 0 0 39.36 33.25
  L 34.07 59.47
  A 1.59 1.59 0.0 0 0 35.00 61.25
  C 36.02 61.68 37.31 55.06 37.52 54.12
  A 0.76 0.76 0.0 0 1 38.25 53.52
  L 43.42 53.44
  A 0.64 0.63 80.9 0 1 44.04 53.89
  Z"
/>
<path fill="#fedfda" d="
  M 16.70 32.70
  A 0.43 0.43 0.0 0 1 17.11 32.28
  C 20.45 32.16 26.44 31.12 27.70 35.52
  C 29.51 41.82 28.64 49.56 19.84 48.34
  A 0.93 0.93 0.0 0 0 18.79 49.25
  L 18.68 60.46
  A 0.74 0.73 87.4 0 1 18.03 61.18
  Q 16.85 61.32 16.84 60.31
  Q 16.63 48.13 16.70 32.70
  Z
  M 25.77 43.98
  Q 27.25 39.45 25.23 35.12
  A 0.94 0.94 0.0 0 0 24.44 34.57
  L 19.71 34.22
  A 0.90 0.89 2.4 0 0 18.74 35.11
  L 18.77 45.07
  A 0.61 0.61 0.0 0 0 19.38 45.68
  L 23.44 45.67
  Q 25.22 45.67 25.77 43.98
  Z"
/>
<path fill="#fdf6f8" d="
  M 60.45 48.42
  L 58.02 48.29
  A 0.66 0.66 0.0 0 0 57.33 48.93
  L 57.03 60.74
  Q 57.00 61.91 56.07 61.21
  L 55.62 60.87
  A 0.88 0.87 -71.9 0 1 55.27 60.17
  L 55.21 32.76
  A 0.58 0.57 -88.6 0 1 55.81 32.18
  L 62.52 32.45
  Q 64.78 32.54 65.68 34.61
  Q 69.04 42.38 63.55 48.09
  A 0.91 0.91 0.0 0 0 63.32 48.89
  L 65.68 60.60
  A 0.52 0.52 0.0 0 1 65.19 61.22
  C 63.58 61.29 61.71 50.85 61.25 49.07
  A 0.87 0.87 0.0 0 0 60.45 48.42
  Z
  M 62.52 34.37
  L 57.77 34.26
  A 0.65 0.64 -89.6 0 0 57.12 34.91
  L 57.25 45.26
  A 0.66 0.66 0.0 0 0 57.94 45.91
  L 61.41 45.80
  Q 64.38 45.70 64.86 42.77
  Q 65.47 39.08 64.16 35.54
  A 1.80 1.79 -9.4 0 0 62.52 34.37
  Z"
/>
<path fill="#fdf6f8" d="
  M 75.46 35.84
  L 75.59 44.30
  A 0.71 0.71 0.0 0 0 76.30 45.00
  L 79.64 45.00
  A 0.68 0.68 0.0 0 1 80.32 45.64
  L 80.42 47.07
  A 0.66 0.66 0.0 0 1 79.75 47.77
  L 76.43 47.70
  A 0.70 0.70 0.0 0 0 75.72 48.38
  L 75.37 57.98
  A 0.59 0.59 0.0 0 0 75.93 58.59
  C 77.21 58.67 83.75 58.39 83.76 60.06
  A 0.56 0.56 0.0 0 1 83.22 60.63
  L 73.86 60.95
  A 0.58 0.58 0.0 0 1 73.25 60.37
  L 73.25 32.74
  A 0.50 0.50 0.0 0 1 73.77 32.24
  L 81.94 32.58
  A 0.88 0.87 -81.7 0 1 82.75 33.68
  C 82.37 35.21 77.34 35.01 75.96 35.24
  A 0.61 0.61 0.0 0 0 75.46 35.84
  Z"
/>
<path fill="#fef3eb" d="
  M 43.42 53.44
  L 38.25 53.52
  A 0.76 0.76 0.0 0 0 37.52 54.12
  C 37.31 55.06 36.02 61.68 35.00 61.25
  A 1.59 1.59 0.0 0 1 34.07 59.47
  L 39.36 33.25
  A 0.97 0.93 -5.4 0 1 39.96 32.55
  C 41.44 31.99 42.06 32.69 42.33 34.09
  Q 44.81 47.10 47.82 60.03
  A 0.81 0.81 0.0 0 1 47.06 61.02
  C 45.11 61.08 44.50 55.41 44.04 53.89
  A 0.64 0.63 80.9 0 0 43.42 53.44
  Z
  M 38.20 50.16
  A 0.56 0.56 0.0 0 0 38.77 50.83
  L 42.80 50.70
  A 0.56 0.56 0.0 0 0 43.32 49.99
  L 41.01 41.33
  A 0.56 0.56 0.0 0 0 39.92 41.37
  L 38.20 50.16
  Z"
/>
<path fill="#be3128" d="
  M 25.77 43.98
  Q 25.22 45.67 23.44 45.67
  L 19.38 45.68
  A 0.61 0.61 0.0 0 1 18.77 45.07
  L 18.74 35.11
  A 0.90 0.89 2.4 0 1 19.71 34.22
  L 24.44 34.57
  A 0.94 0.94 0.0 0 1 25.23 35.12
  Q 27.25 39.45 25.77 43.98
  Z"
/>
<path fill="#be3128" d="
  M 62.52 34.37
  A 1.80 1.79 -9.4 0 1 64.16 35.54
  Q 65.47 39.08 64.86 42.77
  Q 64.38 45.70 61.41 45.80
  L 57.94 45.91
  A 0.66 0.66 0.0 0 1 57.25 45.26
  L 57.12 34.91
  A 0.65 0.64 -89.6 0 1 57.77 34.26
  L 62.52 34.37
  Z"
/>
<path fill="#b0413a" d="
  M 38.20 50.16
  L 39.92 41.37
  A 0.56 0.56 0.0 0 1 41.01 41.33
  L 43.32 49.99
  A 0.56 0.56 0.0 0 1 42.80 50.70
  L 38.77 50.83
  A 0.56 0.56 0.0 0 1 38.20 50.16
  Z"
/>
</svg>
