<?xml version="1.0" encoding="UTF-8" standalone="no"?>
<!-- Created with Inkscape (http://www.inkscape.org/) -->

<svg
   width="3.08812mm"
   height="9.7161617mm"
   viewBox="0 0 3.08812 9.7161618"
   version="1.1"
   id="svg19283"
   inkscape:version="1.2.1 (9c6d41e410, 2022-07-14)"
   sodipodi:docname="pare1.svg"
   xmlns:inkscape="http://www.inkscape.org/namespaces/inkscape"
   xmlns:sodipodi="http://sodipodi.sourceforge.net/DTD/sodipodi-0.dtd"
   xmlns="http://www.w3.org/2000/svg"
   xmlns:svg="http://www.w3.org/2000/svg">
  <sodipodi:namedview
     id="namedview19285"
     pagecolor="#ffffff"
     bordercolor="#666666"
     borderopacity="1.0"
     inkscape:showpageshadow="false"
     inkscape:pageopacity="0.0"
     inkscape:pagecheckerboard="0"
     inkscape:deskcolor="#d1d1d1"
     inkscape:document-units="mm"
     showgrid="false"
     inkscape:zoom="0.49085999"
     inkscape:cx="169.09099"
     inkscape:cy="226.13373"
     inkscape:window-width="1366"
     inkscape:window-height="705"
     inkscape:window-x="-8"
     inkscape:window-y="-8"
     inkscape:window-maximized="1"
     inkscape:current-layer="layer1" />
  <defs
     id="defs19280" />
  <g
     inkscape:label="Capa 1"
     inkscape:groupmode="layer"
     id="layer1"
     transform="translate(-7.172448,-88.727468)">
    <g
       id="g76122-4-7-4-3"
       style="display:inline"
       transform="matrix(0.35857676,0,0,0.35454748,51.168709,58.157037)">
      <path
         d="m -118.53729,113.6282 v -0.37078 l -0.81324,-0.46976 v 0.3711 l 0.81324,0.46944"
         style="fill:#999d93;fill-opacity:1;fill-rule:nonzero;stroke:none;stroke-width:0.0388549"
         id="path354-2-0-6-11" />
      <path
         d="m -118.53729,113.6282 v -0.37078 l 2.01929,-1.16566 v 0.3708 l -2.01929,1.16564"
         style="fill:#596579;fill-opacity:1;fill-rule:nonzero;stroke:none;stroke-width:0.0388549"
         id="path356-0-9-1-5" />
      <path
         d="m -118.53729,113.25742 2.01929,-1.16566 -0.81362,-0.46975 -2.01891,1.16565 0.81324,0.46976"
         style="fill:#b2b8ac;fill-opacity:1;fill-rule:nonzero;stroke:none;stroke-width:0.0388549"
         id="path358-2-0-9-4" />
      <path
         d="m -118.13863,112.79392 0.86024,-0.47978 V 95.055878 l -0.86024,0.479945 v 17.258097"
         style="fill:#596579;fill-opacity:1;fill-rule:nonzero;stroke:none;stroke-width:0.0388549"
         id="path360-3-79-9-03" />
      <path
         d="m -118.13863,112.79392 -0.43557,-0.25715 V 95.278988 l 0.43557,0.256835 v 17.258097"
         style="fill:#999d93;fill-opacity:1;fill-rule:nonzero;stroke:none;stroke-width:0.0388549"
         id="path362-3-8-5-4" />
      <g
         id="g9897-1-8"
         transform="matrix(1.4034157,0,0,1.4034157,46.93887,-34.78403)">
        <path
           d="m -116.99896,92.550936 1.60479,-2.7795 v -2.62118 l -1.60479,-0.92646 -2.26977,1.31025 -1.60478,2.77993 v 2.62075 l 1.60478,0.92646 2.26977,-1.31025"
           style="fill:#5d6266;fill-opacity:1;fill-rule:nonzero;stroke:none;stroke-width:0.0352778"
           id="path364-0-2-1-8" />
        <path
           d="m -118.61186,87.905166 2.26978,-1.31053 -0.65688,-0.37084 -2.26977,1.31025 0.65687,0.37112"
           style="fill:#83888c;fill-opacity:1;fill-rule:nonzero;stroke:none;stroke-width:0.0352778"
           id="path366-7-3-9-8" />
        <path
           d="m -116.34208,92.921776 1.60514,-2.77993 v -2.62046 l -1.60514,-0.92675 -2.26978,1.31053 -1.60478,2.77965 v 2.62075 l 1.60478,0.92628 2.26978,-1.31007"
           style="fill:#e1e3e1;fill-opacity:1;fill-rule:nonzero;stroke:none;stroke-width:0.0352778"
           id="path368-0-2-2-7" />
        <path
           d="m -114.95814,90.142806 -0.0282,0.0922 c -0.47836,0.83065 -0.95743,1.66081 -1.43792,2.49051 l -0.0656,0.0699 c -0.67204,0.39095 -1.34373,0.78038 -2.01542,1.16802 l -0.0706,0.008 c -0.47166,-0.27742 -0.94227,-0.55675 -1.41217,-0.83756 l -0.0272,-0.0606 c 0.005,-0.78176 0.0109,-1.56422 0.0159,-2.34668 3.6e-4,-0.0382 0.01,-0.0703 0.0332,-0.11053 0.47802,-0.82613 0.95497,-1.65237 1.43157,-2.47921 0.0219,-0.0382 0.0434,-0.0615 0.0748,-0.0794 0.66887,-0.3864 1.33774,-0.77403 2.00625,-1.16321 0.0346,-0.0197 0.0586,-0.0211 0.0825,-0.007 0.46708,0.27795 0.93451,0.55562 1.40265,0.8315 0.0219,0.0129 0.03,0.0342 0.03,0.0702 -0.001,0.38873 -0.018,1.96039 -0.0198,2.35367"
           style="fill:#c43c5f;fill-opacity:1;fill-rule:nonzero;stroke:none;stroke-width:0.0352778"
           id="path370-8-4-8-0" />
        <path
           d="m -117.18699,90.168976 c 0,0.0346 -0.001,0.0702 3.6e-4,0.10446 0.006,0.16221 0.0427,0.29422 0.1337,0.37387 0.10231,0.0896 0.32808,-0.0525 0.4124,-0.24472 0.0409,-0.0939 0.079,-0.1906 0.10442,-0.28444 0.048,-0.17569 0.0423,-0.3295 0.0318,-0.47805 -0.006,-0.0846 -0.018,-0.16672 -0.0416,-0.23661 -0.0512,-0.15102 -0.16122,-0.17706 -0.3048,-0.0865 -0.14323,0.09 -0.22895,0.23608 -0.28011,0.40997 -0.0469,0.15808 -0.0614,0.30413 -0.0561,0.44206 z m 0.96626,-0.56014 c -0.007,0.16535 -0.0208,0.33084 -0.0751,0.5104 -0.0617,0.20465 -0.15063,0.40252 -0.29598,0.57189 -0.25047,0.29242 -0.59372,0.4039 -0.73695,0.14499 -0.15558,-0.28017 -0.16757,-0.66146 -0.0162,-1.12187 0.14464,-0.43988 0.44203,-0.74923 0.74119,-0.76027 0.18944,-0.007 0.29315,0.12707 0.34113,0.32879 0.0236,0.10019 0.0286,0.21664 0.042,0.32607"
           style="fill:#e1e3e1;fill-opacity:1;fill-rule:nonzero;stroke:none;stroke-width:0.0352778"
           id="path372-6-8-0-1" />
        <path
           d="m -119.90161,92.401426 c 0.0649,-0.10668 0.12312,-0.20285 0.18415,-0.30346 0.0836,0.0518 0.18627,0.0494 0.2981,0.019 0.10618,-0.0283 0.21202,-0.085 0.31256,-0.20603 0.0928,-0.11147 0.10442,-0.22295 0.10054,-0.32423 -0.004,-0.0882 -0.0557,-0.11603 -0.13018,-0.0993 -0.12382,0.0274 -0.25012,0.0641 -0.37147,0.0817 -0.12065,0.0181 -0.22331,-0.014 -0.26811,-0.13078 -0.10054,-0.25936 0.0201,-0.61708 0.3242,-0.86966 0.20885,-0.1735 0.40816,-0.24974 0.58738,-0.21058 0.0318,0.007 0.0596,0.0229 0.0871,0.0339 -0.0579,0.0988 -0.11254,0.19086 -0.16793,0.2854 -0.13088,-0.0533 -0.28716,-0.011 -0.46425,0.14633 -0.0734,0.0649 -0.12418,0.14718 -0.13759,0.24197 -0.0131,0.0932 0.008,0.16098 0.0773,0.16193 0.0755,0.002 0.1577,-0.014 0.23813,-0.0278 0.0765,-0.0134 0.15804,-0.043 0.23213,-0.049 0.27799,-0.0222 0.34678,0.36724 0.14146,0.7433 -0.13088,0.2406 -0.29422,0.37014 -0.47343,0.46179 -0.18027,0.092 -0.34537,0.12097 -0.49036,0.0784 l -0.0797,-0.0328"
           style="fill:#e1e3e1;fill-opacity:1;fill-rule:nonzero;stroke:none;stroke-width:0.0352778"
           id="path374-9-0-1-8" />
        <path
           d="m -115.83549,89.325096 c 0.11183,-0.0645 0.21907,-0.1228 0.32561,-0.19018 0.0318,-0.0204 0.0674,-0.0638 0.0921,-0.10294 0.0893,-0.14291 0.11642,-0.27862 0.0907,-0.39441 -0.0307,-0.13684 -0.0988,-0.17776 -0.2413,-0.0798 -0.0332,0.0226 -0.0667,0.0406 -0.0998,0.0599 -0.055,0.0325 -0.11042,0.0642 -0.16722,0.0971 0,0.20765 0,0.40598 0,0.6102 z m 0.004,0.2661 c 0,0.23562 0,0.46137 0,0.69385 -0.0727,0.042 -0.14006,0.0814 -0.20744,0.1185 l -0.0208,-0.0141 -0.001,-0.0357 c -0.004,-0.56405 -0.007,-1.12822 -0.0109,-1.69266 v -0.0634 l 0.0571,-0.0332 c 0.15522,-0.0903 0.31115,-0.17459 0.46602,-0.2727 0.17992,-0.11327 0.3041,-0.0963 0.39652,0.0233 0.10301,0.13268 0.0991,0.48478 -0.0561,0.75956 -0.085,0.15088 -0.18626,0.25989 -0.3055,0.33267 -0.10407,0.0631 -0.20779,0.12058 -0.3175,0.18383"
           style="fill:#e1e3e1;fill-opacity:1;fill-rule:nonzero;stroke:none;stroke-width:0.0352778"
           id="path376-8-9-0-0" />
        <path
           d="m -118.17935,90.116766 c -0.13723,0.0794 -0.26811,0.15491 -0.40181,0.23178 0,-0.0943 0,-0.18204 0,-0.27905 0.34819,-0.19403 0.69391,-0.38735 1.04563,-0.58388 0,0.0868 10e-4,0.16757 -0.002,0.25054 l -0.0392,0.0466 c -0.10866,0.0627 -0.21731,0.12238 -0.32597,0.18302 l -0.0543,0.0314 c -0.006,0.51579 -0.0113,1.02693 -0.0169,1.54202 -0.073,0.0423 -0.14287,0.083 -0.22084,0.12774 0.005,-0.51509 0.01,-1.02732 0.0152,-1.55014"
           style="fill:#e1e3e1;fill-opacity:1;fill-rule:nonzero;stroke:none;stroke-width:0.0352778"
           id="path378-8-9-7-1" />
      </g>
    </g>
  </g>
</svg>
