<?xml version="1.0" encoding="UTF-8" standalone="no"?>
<!-- Created with Inkscape (http://www.inkscape.org/) -->

<svg
   width="3.08812mm"
   height="9.7161617mm"
   viewBox="0 0 3.08812 9.7161618"
   version="1.1"
   id="svg19283"
   inkscape:version="1.2.1 (9c6d41e410, 2022-07-14)"
   sodipodi:docname="pare2.svg"
   xmlns:inkscape="http://www.inkscape.org/namespaces/inkscape"
   xmlns:sodipodi="http://sodipodi.sourceforge.net/DTD/sodipodi-0.dtd"
   xmlns="http://www.w3.org/2000/svg"
   xmlns:svg="http://www.w3.org/2000/svg">
  <sodipodi:namedview
     id="namedview19285"
     pagecolor="#ffffff"
     bordercolor="#666666"
     borderopacity="1.0"
     inkscape:showpageshadow="false"
     inkscape:pageopacity="0.0"
     inkscape:pagecheckerboard="0"
     inkscape:deskcolor="#d1d1d1"
     inkscape:document-units="mm"
     showgrid="false"
     inkscape:zoom="7.8537598"
     inkscape:cx="17.825857"
     inkscape:cy="7.8943081"
     inkscape:window-width="1366"
     inkscape:window-height="705"
     inkscape:window-x="-8"
     inkscape:window-y="-8"
     inkscape:window-maximized="1"
     inkscape:current-layer="layer1" />
  <defs
     id="defs19280" />
  <g
     inkscape:label="Capa 1"
     inkscape:groupmode="layer"
     id="layer1"
     transform="translate(-56.835289,-136.69334)">
    <g
       id="g76122-4-7-4-9-6-7"
       style="display:inline"
       transform="matrix(0.35857676,0,0,0.35454748,100.83155,106.12291)">
      <path
         d="m -118.53729,113.6282 v -0.37078 l -0.81324,-0.46976 v 0.3711 l 0.81324,0.46944"
         style="fill:#999d93;fill-opacity:1;fill-rule:nonzero;stroke:none;stroke-width:0.0388549"
         id="path354-2-0-6-1-8-1" />
      <path
         d="m -118.53729,113.6282 v -0.37078 l 2.01929,-1.16566 v 0.3708 l -2.01929,1.16564"
         style="fill:#596579;fill-opacity:1;fill-rule:nonzero;stroke:none;stroke-width:0.0388549"
         id="path356-0-9-1-4-9-6" />
      <path
         d="m -118.53729,113.25742 2.01929,-1.16566 -0.81362,-0.46975 -2.01891,1.16565 0.81324,0.46976"
         style="fill:#b2b8ac;fill-opacity:1;fill-rule:nonzero;stroke:none;stroke-width:0.0388549"
         id="path358-2-0-9-0-9-7" />
      <path
         d="m -118.13863,112.79392 0.86024,-0.47978 V 95.055878 l -0.86024,0.479945 v 17.258097"
         style="fill:#596579;fill-opacity:1;fill-rule:nonzero;stroke:none;stroke-width:0.0388549"
         id="path360-3-79-9-0-7-5" />
      <path
         d="m -118.13863,112.79392 -0.43557,-0.25715 V 95.278988 l 0.43557,0.256835 v 17.258097"
         style="fill:#999d93;fill-opacity:1;fill-rule:nonzero;stroke:none;stroke-width:0.0388549"
         id="path362-3-8-5-8-6-9" />
      <g
         id="g9897-1-9-9-0"
         transform="matrix(1.4034157,0,0,1.4034157,46.93887,-34.78403)">
        <path
           d="m -116.99896,92.550936 1.60479,-2.7795 v -2.62118 l -1.60479,-0.92646 -2.26977,1.31025 -1.60478,2.77993 v 2.62075 l 1.60478,0.92646 2.26977,-1.31025"
           style="fill:#5d6266;fill-opacity:1;fill-rule:nonzero;stroke:none;stroke-width:0.0352778"
           id="path364-0-2-1-4-9-3" />
        <path
           d="m -118.61186,87.905166 2.26978,-1.31053 -0.65688,-0.37084 -2.26977,1.31025 0.65687,0.37112"
           style="fill:#83888c;fill-opacity:1;fill-rule:nonzero;stroke:none;stroke-width:0.0352778"
           id="path366-7-3-9-2-6-0" />
        <path
           d="m -116.34208,92.921776 1.60514,-2.77993 v -2.62046 l -1.60514,-0.92675 -2.26978,1.31053 -1.60478,2.77965 v 2.62075 l 1.60478,0.92628 2.26978,-1.31007"
           style="fill:#e1e3e1;fill-opacity:1;fill-rule:nonzero;stroke:none;stroke-width:0.0352778"
           id="path368-0-2-2-6-8-3" />
        <path
           d="m -114.95814,90.142806 -0.0282,0.0922 c -0.47836,0.83065 -0.95743,1.66081 -1.43792,2.49051 l -0.0656,0.0699 c -0.67204,0.39095 -1.34373,0.78038 -2.01542,1.16802 l -0.0706,0.008 c -0.47166,-0.27742 -0.94227,-0.55675 -1.41217,-0.83756 l -0.0272,-0.0606 c 0.005,-0.78176 0.0109,-1.56422 0.0159,-2.34668 3.6e-4,-0.0382 0.01,-0.0703 0.0332,-0.11053 0.47802,-0.82613 0.95497,-1.65237 1.43157,-2.47921 0.0219,-0.0382 0.0434,-0.0615 0.0748,-0.0794 0.66887,-0.3864 1.33774,-0.77403 2.00625,-1.16321 0.0346,-0.0197 0.0586,-0.0211 0.0825,-0.007 0.46708,0.27795 0.93451,0.55562 1.40265,0.8315 0.0219,0.0129 0.03,0.0342 0.03,0.0702 -0.001,0.38873 -0.018,1.96039 -0.0198,2.35367"
           style="fill:#4d4d4d;fill-opacity:1;fill-rule:nonzero;stroke:none;stroke-width:0.0352778"
           id="path370-8-4-8-7-6-8" />
      </g>
    </g>
  </g>
</svg>
