<?xml version="1.0" encoding="UTF-8" standalone="no"?>
<!DOCTYPE svg PUBLIC "-//W3C//DTD SVG 1.1//EN" "http://www.w3.org/Graphics/SVG/1.1/DTD/svg11.dtd">
<svg xmlns="http://www.w3.org/2000/svg" version="1.1" viewBox="0.00 0.00 128.00 128.00">
<g stroke-width="2.00" fill="none" stroke-linecap="butt">
<path stroke="#243e4f" vector-effect="non-scaling-stroke" d="
  M 91.61 29.87
  Q 90.14 31.26 88.50 30.70
  Q 78.42 27.23 69.51 24.44"
/>
<path stroke="#203747" vector-effect="non-scaling-stroke" d="
  M 69.51 24.44
  Q 64.92 22.17 62.27 23.06
  Q 33.14 32.86 4.50 42.55
  A 0.25 0.25 0.0 0 0 4.47 43.01
  Q 32.22 56.51 59.96 70.04
  C 63.62 71.82 67.19 71.06 70.53 68.82"
/>
<path stroke="#243e4f" vector-effect="non-scaling-stroke" d="
  M 70.53 68.82
  L 106.04 51.54
  Q 106.77 51.18 105.99 50.98
  L 72.07 42.14
  Q 71.45 41.98 71.08 42.50
  Q 69.72 44.45 67.37 44.47
  C 64.63 44.50 60.04 45.20 57.77 43.44
  C 54.04 40.55 56.51 34.88 59.85 32.81
  C 64.54 29.92 70.17 32.66 71.82 37.70
  Q 72.00 38.23 72.54 38.37
  L 111.61 48.59
  Q 111.92 48.67 112.21 48.54
  Q 118.10 45.74 123.98 42.74
  A 0.04 0.04 0.0 0 0 123.97 42.66
  Q 103.36 35.85 97.31 33.70
  Q 95.83 33.17 96.00 31.30"
/>
<path stroke="#203747" vector-effect="non-scaling-stroke" d="
  M 60.66 40.71
  L 67.34 40.75
  A 0.93 0.93 0.0 0 0 68.28 39.83
  L 68.28 39.64
  A 4.12 4.10 -89.6 0 0 64.21 35.49
  L 63.87 35.49
  A 4.12 4.10 -89.6 0 0 59.74 39.58
  L 59.74 39.77
  A 0.93 0.93 0.0 0 0 60.66 40.71"
/>
<path stroke="#1b2f3f" vector-effect="non-scaling-stroke" d="
  M 37.62 83.94
  Q 47.99 90.40 60.37 93.88
  Q 61.22 94.11 61.63 95.66"
/>
<path stroke="#80703f" vector-effect="non-scaling-stroke" d="
  M 61.63 95.66
  C 61.29 96.72 60.41 97.66 59.23 97.38
  C 49.04 94.97 38.33 89.40 30.21 83.60
  Q 28.87 82.64 28.65 84.27
  Q 28.42 85.87 28.33 86.56
  Q 28.10 88.18 29.38 89.21
  Q 38.41 96.51 50.97 101.73
  C 58.00 104.66 63.88 106.25 71.12 103.87
  C 81.09 100.59 90.83 95.53 98.79 89.09
  A 2.92 2.90 -27.5 0 0 99.76 86.04
  L 99.19 84.04
  Q 98.84 82.80 97.79 83.55
  Q 85.38 92.47 69.75 97.19
  Q 67.04 98.00 66.45 95.66"
/>
<path stroke="#1b2f3f" vector-effect="non-scaling-stroke" d="
  M 66.45 95.66
  Q 66.62 94.18 67.80 93.85
  Q 83.75 89.31 97.01 79.52
  Q 97.39 79.24 97.26 78.78
  L 92.75 62.56
  A 0.28 0.28 0.0 0 0 92.35 62.38
  Q 80.29 68.34 69.50 73.49
  Q 63.88 76.17 59.34 73.93
  Q 50.86 69.76 42.34 65.66"
/>
<path stroke="#152632" vector-effect="non-scaling-stroke" d="
  M 42.34 65.66
  L 35.70 62.48
  Q 35.26 62.27 35.13 62.74
  L 30.78 78.69
  Q 30.63 79.23 31.09 79.54
  L 37.62 83.94"
/>
<path stroke="#305571" vector-effect="non-scaling-stroke" d="
  M 42.34 65.66
  L 37.62 83.94"
/>
<path stroke="#9b9f7d" vector-effect="non-scaling-stroke" d="
  M 66.45 95.66
  Q 64.02 96.31 61.63 95.66"
/>
<path stroke="#80703f" vector-effect="non-scaling-stroke" d="
  M 114.51 86.26
  A 0.63 0.63 0.0 0 0 113.88 85.63
  L 110.36 85.63
  A 0.63 0.63 0.0 0 0 109.73 86.26
  L 109.73 90.38
  A 0.63 0.63 0.0 0 0 110.36 91.01
  L 113.88 91.01
  A 0.63 0.63 0.0 0 0 114.51 90.38
  L 114.51 86.26"
/>
<path stroke="#80703f" vector-effect="non-scaling-stroke" d="
  M 113.66 95.08
  A 0.33 0.33 0.0 0 0 113.33 94.77
  L 110.92 94.77
  A 0.33 0.33 0.0 0 0 110.59 95.08
  L 110.00 104.24
  A 0.33 0.33 0.0 0 0 110.33 104.59
  L 113.93 104.57
  A 0.33 0.33 0.0 0 0 114.26 104.22
  L 113.66 95.08"
/>
<path stroke="#437496" vector-effect="non-scaling-stroke" d="
  M 69.51 24.44
  Q 44.60 32.97 20.56 41.05
  Q 18.73 41.67 19.45 43.45
  A 1.74 1.72 2.1 0 0 20.30 44.35
  L 70.53 68.82"
/>
</g>
<path fill="#000000" d="
  M 91.61 29.87
  Q 90.14 31.26 88.50 30.70
  Q 78.42 27.23 69.51 24.44
  Q 64.92 22.17 62.27 23.06
  Q 33.14 32.86 4.50 42.55
  A 0.25 0.25 0.0 0 0 4.47 43.01
  Q 32.22 56.51 59.96 70.04
  C 63.62 71.82 67.19 71.06 70.53 68.82
  L 106.04 51.54
  Q 106.77 51.18 105.99 50.98
  L 72.07 42.14
  Q 71.45 41.98 71.08 42.50
  Q 69.72 44.45 67.37 44.47
  C 64.63 44.50 60.04 45.20 57.77 43.44
  C 54.04 40.55 56.51 34.88 59.85 32.81
  C 64.54 29.92 70.17 32.66 71.82 37.70
  Q 72.00 38.23 72.54 38.37
  L 111.61 48.59
  Q 111.92 48.67 112.21 48.54
  Q 118.10 45.74 123.98 42.74
  A 0.04 0.04 0.0 0 0 123.97 42.66
  Q 103.36 35.85 97.31 33.70
  Q 95.83 33.17 96.00 31.30
  C 96.72 30.29 97.50 29.82 98.79 30.26
  Q 111.96 34.68 125.10 39.14
  Q 127.32 39.89 128.00 42.03
  L 128.00 44.13
  Q 122.18 48.41 114.48 51.63
  Q 113.98 51.84 113.98 52.38
  L 114.01 81.27
  Q 114.01 81.75 114.48 81.88
  Q 117.83 82.78 118.21 86.49
  Q 118.56 89.86 118.01 92.25
  Q 117.31 95.32 117.47 97.04
  Q 117.79 100.39 118.00 103.64
  C 118.37 109.21 113.64 108.36 109.98 108.34
  C 107.76 108.33 106.11 106.67 106.20 104.43
  Q 106.36 100.71 106.71 97.26
  Q 106.93 95.18 106.39 93.08
  Q 105.50 89.54 106.15 85.56
  Q 106.61 82.76 109.61 82.03
  A 0.85 0.83 -7.1 0 0 110.25 81.22
  L 110.25 54.26
  Q 110.25 53.67 109.72 53.93
  L 96.78 60.25
  A 0.70 0.68 -19.3 0 0 96.40 61.02
  Q 99.06 72.88 103.03 83.70
  C 104.19 86.85 103.37 90.32 100.68 92.42
  Q 87.75 102.47 71.81 107.60
  C 63.72 110.20 56.65 108.25 49.01 105.02
  Q 38.27 100.47 28.43 93.36
  C 25.34 91.13 23.49 87.85 24.87 84.05
  Q 28.77 73.35 31.60 61.01
  Q 31.73 60.45 31.22 60.20
  L 0.00 44.52
  L 0.00 41.75
  Q 0.95 39.80 1.98 39.45
  Q 31.11 29.60 60.25 19.76
  C 64.52 18.32 67.50 19.65 72.83 21.45
  Q 81.62 24.42 90.21 27.29
  Q 91.48 27.72 91.61 29.87
  Z
  M 60.66 40.71
  L 67.34 40.75
  A 0.93 0.93 0.0 0 0 68.28 39.83
  L 68.28 39.64
  A 4.12 4.10 -89.6 0 0 64.21 35.49
  L 63.87 35.49
  A 4.12 4.10 -89.6 0 0 59.74 39.58
  L 59.74 39.77
  A 0.93 0.93 0.0 0 0 60.66 40.71
  Z
  M 37.62 83.94
  Q 47.99 90.40 60.37 93.88
  Q 61.22 94.11 61.63 95.66
  C 61.29 96.72 60.41 97.66 59.23 97.38
  C 49.04 94.97 38.33 89.40 30.21 83.60
  Q 28.87 82.64 28.65 84.27
  Q 28.42 85.87 28.33 86.56
  Q 28.10 88.18 29.38 89.21
  Q 38.41 96.51 50.97 101.73
  C 58.00 104.66 63.88 106.25 71.12 103.87
  C 81.09 100.59 90.83 95.53 98.79 89.09
  A 2.92 2.90 -27.5 0 0 99.76 86.04
  L 99.19 84.04
  Q 98.84 82.80 97.79 83.55
  Q 85.38 92.47 69.75 97.19
  Q 67.04 98.00 66.45 95.66
  Q 66.62 94.18 67.80 93.85
  Q 83.75 89.31 97.01 79.52
  Q 97.39 79.24 97.26 78.78
  L 92.75 62.56
  A 0.28 0.28 0.0 0 0 92.35 62.38
  Q 80.29 68.34 69.50 73.49
  Q 63.88 76.17 59.34 73.93
  Q 50.86 69.76 42.34 65.66
  L 35.70 62.48
  Q 35.26 62.27 35.13 62.74
  L 30.78 78.69
  Q 30.63 79.23 31.09 79.54
  L 37.62 83.94
  Z
  M 114.51 86.26
  A 0.63 0.63 0.0 0 0 113.88 85.63
  L 110.36 85.63
  A 0.63 0.63 0.0 0 0 109.73 86.26
  L 109.73 90.38
  A 0.63 0.63 0.0 0 0 110.36 91.01
  L 113.88 91.01
  A 0.63 0.63 0.0 0 0 114.51 90.38
  L 114.51 86.26
  Z
  M 113.66 95.08
  A 0.33 0.33 0.0 0 0 113.33 94.77
  L 110.92 94.77
  A 0.33 0.33 0.0 0 0 110.59 95.08
  L 110.00 104.24
  A 0.33 0.33 0.0 0 0 110.33 104.59
  L 113.93 104.57
  A 0.33 0.33 0.0 0 0 114.26 104.22
  L 113.66 95.08
  Z"
/>
<path fill="#3f6d8e" d="
  M 69.51 24.44
  Q 44.60 32.97 20.56 41.05
  Q 18.73 41.67 19.45 43.45
  A 1.74 1.72 2.1 0 0 20.30 44.35
  L 70.53 68.82
  C 67.19 71.06 63.62 71.82 59.96 70.04
  Q 32.22 56.51 4.47 43.01
  A 0.25 0.25 0.0 0 1 4.50 42.55
  Q 33.14 32.86 62.27 23.06
  Q 64.92 22.17 69.51 24.44
  Z"
/>
<path fill="#477b9e" d="
  M 69.51 24.44
  Q 78.42 27.23 88.50 30.70
  Q 90.14 31.26 91.61 29.87
  L 96.00 31.30
  Q 95.83 33.17 97.31 33.70
  Q 103.36 35.85 123.97 42.66
  A 0.04 0.04 0.0 0 1 123.98 42.74
  Q 118.10 45.74 112.21 48.54
  Q 111.92 48.67 111.61 48.59
  L 72.54 38.37
  Q 72.00 38.23 71.82 37.70
  C 70.17 32.66 64.54 29.92 59.85 32.81
  C 56.51 34.88 54.04 40.55 57.77 43.44
  C 60.04 45.20 64.63 44.50 67.37 44.47
  Q 69.72 44.45 71.08 42.50
  Q 71.45 41.98 72.07 42.14
  L 105.99 50.98
  Q 106.77 51.18 106.04 51.54
  L 70.53 68.82
  L 20.30 44.35
  A 1.74 1.72 2.1 0 1 19.45 43.45
  Q 18.73 41.67 20.56 41.05
  Q 44.60 32.97 69.51 24.44
  Z"
/>
<path fill="#3f6d8e" d="
  M 60.66 40.71
  A 0.93 0.93 0.0 0 1 59.74 39.77
  L 59.74 39.58
  A 4.12 4.10 -89.6 0 1 63.87 35.49
  L 64.21 35.49
  A 4.12 4.10 -89.6 0 1 68.28 39.64
  L 68.28 39.83
  A 0.93 0.93 0.0 0 1 67.34 40.75
  L 60.66 40.71
  Z"
/>
<path fill="#294b64" d="
  M 42.34 65.66
  L 37.62 83.94
  L 31.09 79.54
  Q 30.63 79.23 30.78 78.69
  L 35.13 62.74
  Q 35.26 62.27 35.70 62.48
  L 42.34 65.66
  Z"
/>
<path fill="#365e7d" d="
  M 66.45 95.66
  Q 64.02 96.31 61.63 95.66
  Q 61.22 94.11 60.37 93.88
  Q 47.99 90.40 37.62 83.94
  L 42.34 65.66
  Q 50.86 69.76 59.34 73.93
  Q 63.88 76.17 69.50 73.49
  Q 80.29 68.34 92.35 62.38
  A 0.28 0.28 0.0 0 1 92.75 62.56
  L 97.26 78.78
  Q 97.39 79.24 97.01 79.52
  Q 83.75 89.31 67.80 93.85
  Q 66.62 94.18 66.45 95.66
  Z"
/>
<path fill="#ffe07d" d="
  M 61.63 95.66
  Q 64.02 96.31 66.45 95.66
  Q 67.04 98.00 69.75 97.19
  Q 85.38 92.47 97.79 83.55
  Q 98.84 82.80 99.19 84.04
  L 99.76 86.04
  A 2.92 2.90 -27.5 0 1 98.79 89.09
  C 90.83 95.53 81.09 100.59 71.12 103.87
  C 63.88 106.25 58.00 104.66 50.97 101.73
  Q 38.41 96.51 29.38 89.21
  Q 28.10 88.18 28.33 86.56
  Q 28.42 85.87 28.65 84.27
  Q 28.87 82.64 30.21 83.60
  C 38.33 89.40 49.04 94.97 59.23 97.38
  C 60.41 97.66 61.29 96.72 61.63 95.66
  Z"
/>
<rect fill="#ffe07d" x="109.73" y="85.63" width="4.78" height="5.38" rx="0.63"/>
<path fill="#ffe07d" d="
  M 113.66 95.08
  L 114.26 104.22
  A 0.33 0.33 0.0 0 1 113.93 104.57
  L 110.33 104.59
  A 0.33 0.33 0.0 0 1 110.00 104.24
  L 110.59 95.08
  A 0.33 0.33 0.0 0 1 110.92 94.77
  L 113.33 94.77
  A 0.33 0.33 0.0 0 1 113.66 95.08
  Z"
/>
</svg>
