<?xml version="1.0" encoding="UTF-8" standalone="no"?>
<!-- Created with Inkscape (http://www.inkscape.org/) -->

<svg
   width="513.28851"
   height="1073.7627"
   viewBox="0 0 513.28851 1073.7627"
   version="1.1"
   id="svg13400"
   inkscape:version="1.2.1 (9c6d41e410, 2022-07-14)"
   sodipodi:docname="04.profe1.svg"
   xmlns:inkscape="http://www.inkscape.org/namespaces/inkscape"
   xmlns:sodipodi="http://sodipodi.sourceforge.net/DTD/sodipodi-0.dtd"
   xmlns="http://www.w3.org/2000/svg"
   xmlns:svg="http://www.w3.org/2000/svg">
  <sodipodi:namedview
     id="namedview13402"
     pagecolor="#ffffff"
     bordercolor="#666666"
     borderopacity="1.0"
     inkscape:showpageshadow="2"
     inkscape:pageopacity="0.0"
     inkscape:pagecheckerboard="0"
     inkscape:deskcolor="#d1d1d1"
     inkscape:document-units="px"
     showgrid="false"
     inkscape:zoom="0.49085999"
     inkscape:cx="-52.968261"
     inkscape:cy="407.44816"
     inkscape:window-width="1366"
     inkscape:window-height="705"
     inkscape:window-x="-8"
     inkscape:window-y="-8"
     inkscape:window-maximized="1"
     inkscape:current-layer="layer1" />
  <defs
     id="defs13397" />
  <g
     inkscape:label="Capa 1"
     inkscape:groupmode="layer"
     id="layer1"
     transform="translate(-213.95837,170.178)">
    <g
       id="cabello_tras"
       transform="translate(1.2436537,-307.73586)"
       style="display:inline"
       inkscape:export-filename="..\..\Desktop\profe.png"
       inkscape:export-xdpi="72.0241"
       inkscape:export-ydpi="72.0241">
      <g
         id="g451">
        <path
           style="fill:#822439"
           d="m 626.256,632.535 c -0.629,9.465 -4.052,20.213 3.28,27.16 6.551,6.208 20.2,7.472 24.53,14.785 4.047,6.835 -1.957,15.52 -7.815,22.794 -5.858,7.275 -12.031,15.857 -8.298,22.813 1.724,3.213 5.377,5.528 7.417,8.613 3.771,5.701 1.019,13.879 -6.327,18.801 -0.156,-3.716 -3.987,-6.454 -8.33,-7.992 -4.343,-1.538 -9.321,-2.195 -13.747,-3.628 -13.582,-4.398 -20.282,-16.696 -15.333,-28.144 2.327,-5.382 6.928,-10.627 7.065,-16.031 0.178,-7.054 -7.206,-12.042 -14.357,-16.012 -7.151,-3.97 -15.046,-8.258 -16.435,-15.064 -1.56,-7.647 5.591,-15.612 9.005,-23.504 0.492,-1.137 0.91,-2.346 0.519,-3.405 -0.844,-2.285 -4.75,-2.728 -7.959,-3.181 -15.031,-2.121 -25.766,-12.205 -25.298,-23.762 0.273,-6.731 4.345,-13.659 10.688,-19.215 2.798,-2.451 6.385,-5.299 10.589,-6.21 3.571,-0.774 6.779,0.259 9.592,1.359 7.84,3.066 15.332,6.51 21.499,11.123 6.201,4.639 11.149,10.181 14.554,16.318 3.398,6.123 5.253,12.851 5.246,19.811 10e-4,0.855 -0.028,1.712 -0.085,2.571 z"
           id="path427" />
        <path
           style="fill:#822439"
           d="m 624.066,642.258 c 5.259,13.09 28.952,18.092 29.792,30.531 1.179,17.466 -20.176,20.008 -12.036,35.4 2.955,5.588 12.827,7.483 15.59,13.14 6.887,14.419 -32.813,25.546 -23.018,39.041 6.906,9.515 22.438,7.221 30.588,1.207 -18.307,1.131 -28.281,-6.791 -15.205,-18.674 9.029,-7.797 33.447,-21.029 20.962,-27.516 -20.594,-10.701 -13.819,-22.536 -2.633,-34.319 15.412,-16.236 13.982,-25.429 -4.788,-30.013 -8.29,-2.027 -20.131,-3.481 -21.077,-11.144 -1.494,-12.1 7.722,-14.75 10.858,-30.611 2.952,-14.932 -8.429,-38.764 -51.774,-45.151 -3.275,-0.483 27.111,41.448 25.529,44.971 -0.788,1.758 -8.59,18.695 -2.788,33.138 z"
           id="path429" />
        <path
           style="fill:#a4425a"
           d="m 616.558,639.344 c -10.405,30.874 26.387,17.365 25.138,42.064 -2.132,10.294 -15.094,19.349 -10.734,29.904 2.652,5.696 12.827,7.483 15.59,13.14 6.887,14.419 -28.427,23.789 -18.414,37.182 5.229,6.994 15.126,5.995 24.659,4.803 -18.307,1.131 -24.844,-8.945 -11.768,-20.828 9.029,-7.797 30.816,-20.146 18.85,-27.1 -26.41,-15.35 -7.933,-30.618 -2.634,-34.319 17.818,-10.804 13.982,-25.429 -4.787,-30.013 -8.29,-2.027 -15.379,-5.578 -17.643,-12.95 -3.258,-10.604 12.145,-20.507 6.318,-38.256 -11.678,-35.57 -52.82,-46.083 -63.329,-42.865 -9.615,8.328 -13.934,27.327 -2.704,36.354 12.101,9.727 16.8,0.423 32.883,13.305 12.138,9.722 9.467,24.108 8.575,29.579 z"
           id="path431" />
        <path
           style="fill:#a4425a"
           d="m 656.196,697.788 c 2.121,5.75 10.108,7.567 18.019,5.93 8.514,-0.536 15.464,5.126 13.951,11.364 -2.834,10.845 -21.919,15.736 -27.497,25.69 -5.64,10.534 11.378,7.389 19.603,7.828 12.987,2.96 -1.159,10.936 -6.494,15.676 2.949,-2.872 7.69,-6.084 8.354,-9.513 -4.966,-3.274 -13.603,-1.716 -20.103,-2.324 -9.191,-3.349 -7.103,-12.663 0.492,-18.443 8.274,-6.392 23.51,-15.933 15.477,-24.025 -5.64,-4.698 -18.597,-1.202 -24.776,-5.519 -6.619,-6.326 -6.763,-18.164 2.697,-25.039 1.746,-1.684 7.73,-2.109 6.181,0.694 -4.614,5.423 -8.248,11.957 -5.904,17.681 z"
           id="path433" />
        <path
           style="fill:#822439"
           d="m 586.482,577.716 c -0.9,1.096 5.436,23.812 5.436,23.812 31.837,5.562 26.031,37.145 26.218,36.111 1.111,-6.133 11.216,-22.592 8.192,-33.307 -6.865,-24.326 -38.946,-27.712 -39.846,-26.616 z"
           id="path435" />
        <path
           style="fill:#822439"
           d="m 583.437,640.278 c 2.782,13.744 -14.661,29.596 -8.469,40.623 8.695,15.484 28.333,7.212 29.935,24.329 0.582,6.214 -6.792,12.658 -6.008,18.837 2.131,15.674 42.194,5.761 41.33,22.068 -0.609,11.497 -15.14,17.133 -25.437,15.985 16.253,-7.985 20.366,-19.623 2.605,-23.372 -12.037,-2.24 -40.227,-1.596 -33.174,-13.236 11.633,-19.201 -0.723,-25.99 -16.814,-30.579 -22.172,-6.322 -26.057,-14.868 -12.584,-27.957 5.95,-5.783 15.248,-12.813 11.799,-19.816 -5.446,-11.058 -22.78,-4.94 -26.847,-19.877 -2.089,-7.673 -1.88,-17.211 10.19,-32.281 1.868,-2.332 9.38,16.122 12.687,18.356 1.65,1.115 17.717,11.756 20.787,26.92 z"
           id="path437" />
        <path
           style="fill:#a4425a"
           d="m 588.226,634.12 c 26.029,21.264 -12.876,27.721 1.909,48.192 7.537,7.744 23.629,9.134 25.771,20.275 0.9,6.158 -6.792,12.658 -6.008,18.837 2.131,15.674 37.476,6.406 36.368,22.732 -0.578,8.526 -9.581,12.512 -18.379,16.156 16.254,-7.985 16.236,-19.781 -1.525,-23.53 -12.037,-2.24 -37.49,-2.128 -31.141,-13.914 14.015,-26.013 -10.235,-30.01 -16.814,-30.579 -21.208,-0.51 -26.057,-14.868 -12.584,-27.957 5.95,-5.783 10.027,-12.28 7.865,-19.678 -3.11,-10.643 -24.546,-19.838 -26.641,-29.562 -2.534,-11.759 0.826,-31.497 30.289,-54.417 2.56,-1.991 19.086,21.927 17.592,23.24 -29.763,26.143 -12.212,44.067 -6.702,50.205 z"
           id="path439" />
        <path
           style="fill:#a4425a"
           d="m 586.857,703.381 c 1.383,5.945 -4.424,11.401 -12.085,13.871 -7.564,3.706 -10.352,11.935 -5.595,16.52 8.442,7.871 27.448,2.714 37.738,8.482 10.665,6.233 -5.607,11.869 -12.383,16.265 -9.441,8.876 7.063,8.767 14.25,10.204 -4.112,-1.009 -9.943,-1.433 -12.414,-4.035 2.419,-5.222 10.657,-8.115 15.867,-11.812 5.985,-7.352 -0.971,-14.28 -10.664,-15.501 -10.612,-1.411 -28.915,-2.104 -26.554,-12.938 2.204,-6.767 15.205,-10.118 18.081,-16.823 2.135,-8.635 -4.317,-18.809 -16.21,-20.052 -2.426,-0.584 -7.769,1.979 -4.89,3.614 6.95,2.373 13.681,6.173 14.859,12.205 z"
           id="path441" />
        <path
           style="fill:#822439"
           d="m 588.791,585.423 c 1.377,0.495 -13.735,13.721 -11.331,32.041 2.216,9.034 9.207,16.764 8.473,15.972 -4.355,-4.691 -20.066,-11.197 -22.806,-21.982 -3.196,-12.576 24.287,-26.526 25.664,-26.031 z"
           id="path443" />
        <path
           style="fill:#a4425a"
           d="m 621.91,648.191 c 13.814,17.779 -28.772,34.281 6.62,45.947 12.649,3.282 27.092,9.554 21.708,21.685 -3.992,9.445 -21.33,17.414 -21.537,26.884 -0.154,7.016 11.914,14.232 21.98,9.155 -18.225,16.819 -48.222,4.851 -42.767,-12.582 2.279,-7.284 14.218,-16.204 15.446,-22.723 0.053,-18.893 -37.611,-16.598 -47.476,-30.129 -5.652,-6.696 16.286,-20.96 15.679,-31.493 -0.573,-9.956 -11.142,-11.765 -15.075,-20.527 -7.033,-15.668 30.23,-37.378 -1.144,-62.664 20.103,2.214 33.364,18.477 33.087,29.587 -0.292,11.718 -11.933,20.426 -9.51,29.239 2.566,9.336 18.454,11.924 22.989,17.621 z"
           id="path445" />
        <path
           style="fill:#822439"
           d="m 587.631,643.943 c 5.926,-0.078 23.732,8.294 15.528,22.041 -2.379,3.987 -9.086,9.444 -9.302,14.334 -0.492,11.119 15.711,13.788 13.302,14.609 -3.856,1.314 -24.134,-2.544 -23.66,-15.144 0.24,-6.374 4.678,-7.931 10.135,-17.227 6.189,-10.542 -8.373,-18.581 -6.003,-18.613 z"
           id="path447" />
        <path
           style="fill:#822439"
           d="m 628.754,704.601 c 5.672,-0.807 20.602,9.351 5.306,16.644 -3.415,1.628 -11.897,5.548 -16.346,10.326 -4.635,4.977 -5.173,10.773 -5.267,10.077 -0.523,-3.872 2.297,-12.189 10.032,-17.571 5.814,-4.045 9.856,-7.51 10.281,-10.36 1.13,-7.575 -5.84,-8.855 -4.006,-9.116 z"
           id="path449" />
      </g>
      <path
         style="fill:#822439"
         d="M 469.414,146.607 C 428.247,131.36 275.778,212.169 323.806,392.844 l 165.429,40.404 209.645,-23.633 c 0,0 31.256,-44.978 -1.525,-136.46 -28.138,-78.522 -123.5,-163.902 -227.941,-126.548 z"
         id="path453" />
      <path
         style="fill:#822439"
         d="m 343.806,295.694 c 39.561,93.2 -97.878,281.77 195.756,266.94 0,0 21.751,-1.977 34.603,-4.943 12.853,-2.966 103.81,-7.909 107.765,-100.844 21.751,-97.878 -40.535,-189.824 -40.535,-189.824 l -121.606,-63.275 -91.946,6.921 z"
         id="path455" />
      <g
         id="g461">
        <path
           style="fill:#86e786"
           d="m 564.937,572.191 c -7.539,6.731 -11.644,-4.614 -5.932,-8.569 0,0 -8.019,-4.614 6.921,-12.523 14.94,-7.909 37.899,-6.701 39.656,-1.867 1.758,4.833 3.076,13.841 -3.076,14.72 10e-4,0 -25.265,-2.747 -37.569,8.239 z"
           id="path457" />
        <path
           style="fill:#59a459"
           d="m 558.236,557.031 c -0.873,0.775 -2.526,4.724 1.208,6.262 0,0 -2.527,1.758 -2.746,4.065 -0.22,2.307 0.11,4.943 2.197,6.042 2.087,1.098 4.614,-0.22 4.614,-0.22 0,0 5.712,-6.591 17.027,-8.129 11.315,-1.538 21.421,-1.208 21.421,-1.208 0,0 3.295,-0.11 3.955,-2.636 0.66,-2.526 -13.841,-4.833 -19.554,-2.746 -3.199,1.169 -8.294,2.028 -13.161,3.793 -3.823,1.386 -6.173,-0.497 5.362,-3.903 11.534,-3.405 7.58,-8.239 2.746,-8.349 -4.833,-0.111 -12.303,-2.528 -23.069,7.029 z"
           id="path459" />
      </g>
    </g>
    <g
       id="pie_der"
       transform="translate(-7.3013933,-308.73745)"
       style="display:inline">
      <path
         style="fill:#e4a782"
         d="m 454.529,1117.891 c 0,0 -0.439,11.425 -6.591,21.531 -3.904,6.414 -30.759,23.289 -36.031,27.243 -5.273,3.955 -11.864,27.243 -11.864,27.243 l 30.319,7.031 52.729,-22.849 c 0,0 18.135,-10.585 18.455,-11.864 0.879,-3.515 -1.911,-22.131 -3.515,-29.44 -1.977,-9.008 -2.197,-25.046 -2.197,-25.046 z"
         id="path465" />
      <path
         style="fill:#ffd8b1"
         d="m 447.938,981.235 c 0,0 -3.296,27.683 -3.296,40.865 0,9.399 6.031,38.902 8.06,69.636 0.817,12.371 1.204,28.237 0.069,39.776 1.318,7.031 8.624,9.594 21.531,9.887 16.122,0.365 21.531,-5.273 22.41,-11.425 -0.698,-10.357 0.177,-24.769 0.875,-36.045 1.955,-31.605 7.694,-62.739 7.694,-70.511 0,-10.546 -4.441,-27.415 -4.441,-27.415 0,0 -2.732,-19.724 -29.515,-23.678 -19.559,-2.886 -23.387,8.91 -23.387,8.91 z"
         id="path467" />
      <path
         style="fill:#e4a782"
         d="m 472.97,1072.863 c 8.515,1.464 17.46,2.692 26.19,2.142 2.47,-24.314 6.12,-45.386 6.12,-51.587 0,-10.546 -4.441,-27.415 -4.441,-27.415 0,0 -2.732,-19.724 -29.515,-23.678 -19.558,-2.888 -23.386,8.909 -23.386,8.909 0,0 -3.296,27.683 -3.296,40.865 0,6.681 3.047,23.526 5.538,43.746 6.346,4.458 16.093,5.867 22.79,7.018 z"
         id="path469" />
      <g
         id="g479">
        <polygon
           style="fill:#441d2c"
           points="485.068,1175.234 472.545,1190.174 487.485,1193.689 491.659,1173.037 "
           id="polygon471" />
        <path
           style="fill:#8d4563"
           d="m 500.887,1148.21 c 2.856,5.273 2.519,31.639 2.856,36.691 0.22,3.296 -12.743,8.788 -16.258,8.788 -0.879,0 -0.22,-9.008 -0.22,-9.008 -10.546,8.788 -20.652,19.334 -40.531,24.465 -22.986,5.934 -42.989,2.518 -52.404,-1.836 -6.98,-3.228 -8.564,-9.447 -8.788,-14.94 -0.236,-5.789 5.531,-12.811 13.553,-19.336 5.671,-4.612 16.546,-9.665 23.577,-14.279 0.647,0.647 -16.258,11.425 -3.296,18.235 10.85,5.701 23.569,4.847 35.238,0.484 28.916,-10.809 45.116,-31.399 46.273,-29.264 z"
           id="path473" />
        <path
           style="fill:#753656"
           d="m 499.129,1151.725 c 0,0 2.856,15.16 2.856,20.432 0,5.273 0.659,12.743 0.659,12.743 0,0 -11.425,6.811 -12.743,6.591 -1.318,-0.22 -0.659,-12.084 -0.659,-12.084 0,0 -10.326,10.106 -11.864,11.864 -1.538,1.758 -16.478,13.182 -32.956,17.137 0,0 16.698,-17.796 19.334,-32.516 16.918,-7.908 35.373,-24.167 35.373,-24.167 z"
           id="path475" />
        <path
           style="fill:#ad6488"
           d="m 396.088,1179.188 c -5.273,7.031 1.538,19.554 30.978,19.334 0,0 -13.402,5.053 -26.584,0.659 -11.34,-3.78 -11.956,-8.576 -10.765,-12.743 1.318,-4.613 6.371,-7.25 6.371,-7.25 z"
           id="path477" />
      </g>
      <path
         style="fill:#e4a782"
         d="m 427.539,775.398 19.424,210.211 c 0,0 2.112,15.466 24.043,16.059 24.387,0.659 29.833,-5.664 29.833,-5.664 l 16.809,-191.731 z"
         id="path481" />
    </g>
    <g
       id="pie_izq"
       transform="translate(-7.3013933,-308.73745)"
       style="display:inline">
      <path
         style="fill:#e4a782"
         d="m 572.568,1117.891 c 0,0 0.439,11.425 6.591,21.531 3.904,6.414 30.758,23.289 36.031,27.243 5.273,3.955 11.864,27.243 11.864,27.243 l -30.319,7.031 -52.729,-22.849 c 0,0 -18.135,-10.585 -18.455,-11.864 -0.879,-3.515 1.911,-22.131 3.515,-29.44 1.977,-9.008 2.197,-25.046 2.197,-25.046 z"
         id="path485" />
      <path
         style="fill:#ffd8b1"
         d="m 579.159,981.235 c 0,0 3.296,27.683 3.296,40.865 0,9.399 -6.031,38.902 -8.06,69.636 -0.817,12.371 -1.204,28.237 -0.069,39.776 -1.318,7.031 -8.624,9.594 -21.531,9.887 -16.122,0.365 -21.531,-5.273 -22.41,-11.425 0.698,-10.357 -0.177,-24.769 -0.875,-36.045 -1.955,-31.605 -7.693,-62.739 -7.693,-70.511 0,-10.546 4.441,-27.415 4.441,-27.415 0,0 2.732,-19.724 29.515,-23.678 19.558,-2.886 23.386,8.91 23.386,8.91 z"
         id="path487" />
      <path
         style="fill:#e4a782"
         d="m 545.891,1072.866 c 7.766,-0.035 14.698,-1.577 21.938,-4.18 2.914,-1.048 5.981,-2.051 9.077,-2.756 2.493,-20.258 5.549,-37.139 5.549,-43.83 0,-13.182 -3.296,-40.865 -3.296,-40.865 0,0 -3.828,-11.797 -23.386,-8.909 -26.783,3.954 -29.515,23.678 -29.515,23.678 0,0 -4.441,16.869 -4.441,27.415 0,5.965 3.379,25.694 5.834,48.831 6.082,0.153 12.152,0.643 18.24,0.616 z"
         id="path489" />
      <polygon
         style="fill:#441d2c"
         points="535.6,1169.961 539.613,1193.689 554.714,1188.855 540.214,1170.84 "
         id="polygon491" />
      <path
         style="fill:#8d4563"
         d="m 526.211,1148.21 c -2.856,5.273 -2.519,31.639 -2.856,36.691 -0.22,3.296 12.743,8.788 16.258,8.788 0.879,0 0.22,-9.008 0.22,-9.008 10.546,8.788 20.652,19.334 40.531,24.465 22.986,5.934 42.989,2.518 52.404,-1.836 6.98,-3.228 8.564,-9.447 8.788,-14.94 0.439,-10.765 -19.773,-25.925 -37.13,-33.615 -0.647,0.647 16.258,11.425 3.296,18.235 -10.85,5.701 -23.569,4.847 -35.238,0.484 -28.917,-10.809 -45.117,-31.399 -46.273,-29.264 z"
         id="path493" />
      <path
         style="fill:#ad6488"
         d="m 580.639,1199.841 c 1.099,1.648 15.607,5.08 31.18,3.928 7.685,-0.569 18.693,-3.269 18.803,-9.86 0,0 -7.364,3.656 -19.883,5.493 -16.478,2.416 -31.198,-1.209 -30.1,0.439 z"
         id="path495" />
      <path
         style="fill:#753656"
         d="m 526.702,1149.309 c 0,0 -1.813,11.205 -1.813,16.643 0,5.438 -0.329,19.279 -0.329,19.279 0,0 5.767,5.767 14.171,7.25 l 0.329,-9.887 c 0,0 7.58,6.262 9.557,7.745 1.977,1.483 8.404,7.415 11.699,9.228 0,0 -17.686,-17.741 -21.256,-39.547 -8.898,-6.592 -11.369,-11.041 -12.358,-10.711 z"
         id="path497" />
      <path
         style="fill:#753656"
         d="m 610.299,1162.93 c 0,0 5.493,5.053 3.296,10.326 0,0 19.773,6.371 26.364,17.357 0,0 -0.879,-8.349 -13.402,-17.357 -12.523,-9.007 -16.258,-10.326 -16.258,-10.326 z"
         id="path499" />
      <path
         style="fill:#e4a782"
         d="m 599.558,775.398 -19.424,210.211 c 0,0 -2.112,15.466 -24.044,16.059 -24.387,0.659 -29.833,-5.664 -29.833,-5.664 L 509.448,804.273 Z"
         id="path501" />
    </g>
    <g
       id="falda"
       style="display:inline"
       transform="matrix(3.7795276,0,0,3.7795276,-689.18146,-257.19315)">
      <path
         style="fill:#956851;stroke-width:0.264583"
         d="m 357.1338,261.55351 c -0.81862,4.62941 -8.81247,5.82003 -16.99947,4.8805 -0.68607,-0.0791 -1.37425,-0.17198 -2.06005,-0.28125 -5.55255,-0.87657 -8.09175,0.1905 -12.71429,1.01838 -2.77389,0.49768 -6.30131,0.90911 -11.6795,0.76253 -2.34606,-0.0651 -4.34578,-0.27887 -6.08277,-0.56727 -5.76183,-0.95806 -8.6659,-2.73447 -11.84222,-2.53444 -0.64188,0.0373 -1.29514,0.15822 -1.9857,0.38126 -8.17298,2.6506 -14.75793,-0.64399 -14.68596,-2.1881 1.61607,-3.65998 2.9972,-7.9592 4.1783,-12.55607 4.52728,-17.62733 6.11055,-39.62823 6.74767,-46.78521 0.18362,-2.05317 0.81835,-5.90841 0.84878,-6.04785 1.23693,-5.81078 7.42209,-16.14381 7.42209,-16.14381 h 36.1778 c 0,0 6.13384,10.3333 7.34537,16.14381 1.81133,8.70797 4.56432,47.43159 14.49281,62.70599 0.27199,0.42333 0.55113,0.8255 0.83714,1.21153 z"
         id="path571" />
      <path
         style="fill:#7f5340;stroke-width:0.264583"
         d="m 340.13433,266.43427 c -0.68607,-0.0791 -1.37425,-0.17198 -2.06005,-0.28125 -5.55255,-0.87656 -8.09175,0.1905 -12.71429,1.01838 -2.60879,-14.46027 -1.61131,-55.94191 -0.18124,-56.26047 1.47638,-0.32808 2.49,37.01944 14.95558,55.52334 z"
         id="path573" />
      <path
         style="fill:#7f5340;stroke-width:0.264583"
         d="m 307.59772,267.36667 c -5.76183,-0.95806 -8.6659,-2.73447 -11.84222,-2.53445 7.85204,-14.04408 9.68666,-34.69428 11.80968,-33.8664 2.65774,1.03214 2.31589,21.31483 0.0325,36.40085 z"
         id="path575" />
      <path
         style="fill:#7f5340;stroke-width:0.264583"
         d="m 295.53219,197.83152 c -3.19035,9.34297 -7.44061,43.71366 -12.27005,52.6378 4.52728,-17.62734 6.11055,-39.62824 6.74767,-46.78522 0.18362,-2.05316 0.81835,-5.90841 0.84878,-6.04784 1.23693,-5.81078 7.42209,-16.14382 7.42209,-16.14382 h 1.86479 c 0.11853,3.88303 -2.1717,9.18925 -4.61328,16.33908 z"
         id="path577" />
      <path
         style="fill:#7f5340;stroke-width:0.264583"
         d="m 356.29666,260.34224 c -14.72538,-10.1936 -14.02794,-45.24586 -20.30597,-63.38252 -1.88595,-5.4483 -3.17844,-11.50038 -3.70867,-15.46728 h 2.17646 c 0,0 6.13384,10.3333 7.34537,16.14382 1.81133,8.70796 4.56432,47.43159 14.49281,62.70598 z"
         id="path579" />
      <path
         style="fill:#6d4838;stroke-width:0.264583"
         d="m 297.45068,181.84593 c 0,0 -0.52308,3.48773 -2.32515,5.52238 0.17436,0.26167 7.73112,5.2316 21.59529,4.88288 13.8639,-0.34872 21.07221,-4.18544 21.07221,-4.18544 l -2.26722,-4.82468 z"
         id="path581" />
    </g>
    <g
       id="tronco"
       style="display:inline"
       transform="matrix(3.7795276,0,0,3.7795276,-689.18146,-257.19315)">
      <g
         id="g569"
         transform="matrix(0.26458333,0,0,0.26458333,180.4141,-13.637764)">
        <path
           style="fill:#c7805e"
           d="m 617.629,599.464 c -9.664,-14.309 -27.201,-26.324 -56.502,-32.019 -13.735,-2.67 -29.884,-4.183 -48.687,-4.341 v -0.01 c -0.187,10e-4 -0.37,0.004 -0.556,0.005 -0.186,-0.001 -0.369,-0.004 -0.556,-0.005 v 0.01 c -58.917,0.497 -89.374,15.747 -103.568,36.763 0,0 28.48,35.936 28.592,36.488 l 6.263,77.878 c 0,0 -8.891,44.733 67.356,44.733 0.645,0 1.281,-0.007 1.913,-0.017 0.632,0.01 1.268,0.017 1.913,0.017 76.246,0 67.147,-43.643 67.147,-43.643 l 13.615,-73.249 c 0.112,-0.553 23.07,-42.61 23.07,-42.61 z"
           id="path565" />
        <path
           style="fill:#c7805e"
           d="m 492.367,540.297 v 26.807 c 0,4.998 8.516,9.051 19.02,9.051 10.505,0 19.02,-4.052 19.02,-9.051 v -26.807 z"
           id="path567" />
      </g>
      <path
         style="fill:#ffeb68;stroke-width:0.264583"
         d="m 344.03428,144.69128 c -2.45533,-3.63537 -7.02177,-6.45345 -14.24516,-8.00603 -2.6543,4.77917 -7.90337,8.03328 -13.94619,8.03328 -6.0415,0 -11.28977,-3.25278 -13.9446,-8.03036 -7.21598,1.5531 -11.77846,4.37012 -14.2322,8.00311 -1.47744,2.18758 4.64423,11.72792 4.6736,11.87424 0,0 7.11464,22.18796 3.97563,28.20458 10.46347,6.80111 32.43659,4.9702 40.54554,0.78475 -6.01636,-11.24823 2.49978,-28.98907 2.49978,-28.98907 0.0294,-0.14631 6.15104,-9.68692 4.6736,-11.8745 z"
         id="path583" />
      <path
         style="fill:#d7b436;stroke-width:0.264583"
         d="m 300.28622,181.16595 c -0.90011,-5.94281 -4.25979,-12.47035 -3.83593,-10.3005 0.94774,4.85061 1.52744,9.81022 0.69956,12.45288 -0.19526,0.62336 -0.66992,1.5576 -0.58658,1.60973 1.06177,0.95752 3.06626,1.56924 3.06626,1.56924 0.52652,0.22013 1.00674,-3.02048 0.65669,-5.33135 z"
         id="path585" />
      <path
         style="fill:#d7b436;stroke-width:0.264583"
         d="m 336.55028,185.64799 c -0.20558,-0.84138 -1.25968,-2.55217 -1.61846,-4.07511 -0.71596,-3.03663 -0.82814,-7.28822 -0.40693,-10.34707 -3.7547,4.52755 -2.10714,14.16897 -1.23507,15.62259 0.91334,-0.0471 3.29618,-1.05383 3.26046,-1.20041 z"
         id="path587" />
      <path
         style="fill:#d7b436;stroke-width:0.264583"
         d="m 334.39022,138.20793 c -5.58059,-1.16258 -8.60319,-3.60415 -9.76577,-3.37158 0,0 -6.5106,7.44061 -8.95191,7.32446 -2.44158,-0.11616 -8.13832,-7.78934 -8.13832,-7.78934 -1.2319,0.25427 -4.65032,1.97644 -9.88219,3.60416 -0.16642,0.33284 3.29459,4.71725 5.52874,7.79515 2.44871,3.3737 5.93751,6.99347 9.58506,7.78378 1.06203,-0.11801 2.10343,-2.44369 2.77547,-4.77097 0.36116,-1.25042 2.56223,4.58946 4.19497,4.77097 3.48774,-0.75565 6.83022,-4.09813 9.25724,-7.33875 2.42729,-3.24114 5.57107,-7.65916 5.39671,-8.00788 z"
         id="path589" />
      <path
         style="fill:#d7b436;stroke-width:0.264583"
         d="m 311.81597,144.16952 c 0,0 0.0505,27.99504 0.19659,30.47868 0.0463,0.78899 7.99015,0.73263 8.00073,0 0.0259,-1.8071 -0.64479,-30.81681 -0.64479,-30.81681 0,0 -2.86305,-1.23984 -3.84334,-1.18349 -0.98028,0.0564 -3.70919,1.52162 -3.70919,1.52162 z"
         id="path591" />
      <path
         style="fill:#fff7e8;stroke-width:0.264583"
         d="m 312.34329,144.101 c 0,0 0.32411,26.26201 0.42915,28.634 0.0333,0.75353 5.68113,0.53816 5.69119,-0.1614 0.0246,-1.72561 -0.33867,-28.7954 -0.33867,-28.7954 0,0 -2.1881,-1.18401 -2.93846,-1.1303 -0.75036,0.0537 -2.84321,1.4531 -2.84321,1.4531 z"
         id="path593" />
      <path
         style="fill:#d6c8b0;stroke-width:0.264583"
         d="m 318.1448,152.95528 c -0.0939,-3.19114 0.1569,-9.17311 0.1569,-9.17311 0,0 -2.3831,-1.18824 -3.19352,-1.13427 -0.81042,0.054 -2.87814,1.1229 -2.87814,1.1229 0,0 0.2675,6.37381 0.34873,9.15537 0,0 1.96188,-0.26167 3.00831,-4.01108 0.78475,2.35453 2.55772,4.04019 2.55772,4.04019 z"
         id="path595" />
      <g
         id="g601"
         transform="matrix(0.26458333,0,0,0.26458333,180.4141,-13.637764)">
        <path
           style="fill:#fff7e8"
           d="m 484.409,554.132 c 0,0 11.425,22.849 26.364,32.956 2.772,1.875 -4.833,35.153 -12.743,36.031 -26.364,-5.712 -50.532,-50.532 -49.214,-53.168 18.017,-6.152 31.199,-16.698 35.593,-15.819 z"
           id="path597" />
        <path
           style="fill:#d6c8b0"
           d="m 484.409,554.132 c 0,0 11.425,22.849 26.364,32.956 -11.46,-1.4 -16.301,-9.038 -21.641,-14.83 -5.971,-6.479 -6.603,-18.502 -4.723,-18.126 z"
           id="path599" />
      </g>
      <g
         id="g607"
         transform="matrix(0.26458333,0,0,0.26458333,180.4141,-13.637764)">
        <path
           style="fill:#fff7e8"
           d="m 537.998,554.132 c 0,0 -11.425,22.849 -26.364,32.956 -2.772,1.875 4.833,35.153 12.743,36.031 26.364,-5.712 50.532,-50.532 49.214,-53.168 -18.017,-6.152 -31.199,-16.698 -35.593,-15.819 z"
           id="path603" />
        <path
           style="fill:#d6c8b0"
           d="m 537.998,554.132 c 0,0 -11.425,22.849 -26.364,32.956 23.966,-1.978 28.909,-32.297 26.364,-32.956 z"
           id="path605" />
      </g>
      <g
         id="g615"
         transform="matrix(0.26458333,0,0,0.26458333,180.4141,-13.637764)">
        <circle
           style="fill:#d6c8b0"
           cx="510.33899"
           cy="639.10797"
           r="8.2950001"
           id="circle609" />
        <circle
           style="fill:#784a24"
           cx="509.845"
           cy="637.625"
           r="6.4089999"
           id="circle611" />
        <circle
           style="fill:#b07747"
           cx="509.319"
           cy="637"
           r="5.1960001"
           id="circle613" />
      </g>
      <g
         id="g623"
         transform="matrix(0.26458333,0,0,0.26458333,180.4141,-13.637764)">
        <circle
           style="fill:#d6c8b0"
           cx="510.33899"
           cy="675.24902"
           r="8.2950001"
           id="circle617" />
        <circle
           style="fill:#784a24"
           cx="509.845"
           cy="673.76599"
           r="6.4089999"
           id="circle619" />
        <path
           style="fill:#b07747"
           d="m 514.515,673.142 c 0,2.87 -2.326,5.196 -5.196,5.196 -2.87,0 -5.196,-2.327 -5.196,-5.196 0,-2.87 2.326,-5.196 5.196,-5.196 2.87,0 5.196,2.326 5.196,5.196 z"
           id="path621" />
      </g>
    </g>
    <g
       id="brazo_izq"
       style="display:inline"
       transform="matrix(3.779198,-0.04991482,0.04991482,3.779198,-694.65231,-240.331)"
       inkscape:transform-center-x="-13.976653"
       inkscape:transform-center-y="37.27448">
      <g
         id="g517"
         transform="matrix(0.26458333,0,0,0.26458333,180.4141,-13.637764)">
        <path
           style="fill:#ffeb68"
           d="m 612.513,593.108 c 7.063,0.706 16.797,26.429 22.949,44.005 6.152,17.576 27.243,65.032 36.91,88.321 0,0 -15.489,15.489 -46.138,23.398 -0.62,0.302 -6.262,-0.33 -7.909,-2.746 -1.302,-1.91 -0.272,-6.578 -1.758,-9.227 -11.988,-21.372 -34.431,-60.457 -39.368,-69.434 -6.906,-12.556 -5.964,-26.054 -5.964,-26.054 0,0 18.913,-40.494 41.278,-48.263 z"
           id="path513" />
        <path
           style="fill:#d7b436"
           d="m 610.966,624.876 -2.967,26.298 c 0,0 -15.136,17.491 -14.5,21.091 0.659,3.735 8.127,7.251 9.666,12.963 1.539,5.712 3.077,19.773 5.713,37.129 -9.667,-17.796 -24.841,-42.742 -31.747,-55.299 -6.906,-12.556 3.076,-28.122 3.076,-28.122 z"
           id="path515" />
      </g>
      <g
         id="g547"
         transform="matrix(0.26458333,0,0,0.26458333,180.4141,-13.637764)">
        <path
           style="fill:#ffd8b1"
           d="m 702.135,817.117 c -7.47,19.773 -34.694,11.765 -35.372,9.008 -10.568,-42.937 -41.172,-77.93 -40.425,-87.442 0.794,-10.123 6.591,-14.5 12.743,-18.894 6.564,-4.689 17.137,-8.349 24.167,0.879 10.001,13.127 18.374,53.886 32.444,81.766 1.561,3.094 5.125,8.311 6.443,14.683 z"
           id="path545" />
      </g>
      <g
         id="g551"
         transform="matrix(0.26458333,0,0,0.26458333,180.4141,-13.637764)">
        <path
           style="fill:#e4a782"
           d="m 670.718,775.4 c 3.968,-1.432 8.347,-2.551 12.762,-2.982 -7.497,-21.533 -13.496,-42.91 -20.232,-51.751 -7.031,-9.227 -17.604,-5.567 -24.167,-0.879 -6.152,4.394 -11.949,8.772 -12.743,18.894 -0.506,6.444 13.376,24.593 25.67,48.975 4.626,-5.905 11.799,-9.763 18.71,-12.257 z"
           id="path549" />
      </g>
      <g
         id="g563"
         transform="matrix(0.26458333,0,0,0.26458333,180.4141,-13.637764)">
        <path
           style="fill:#ffeb68"
           d="m 625.905,755.753 c 0,0 -3.296,-10.546 -2.636,-19.444 0.659,-8.898 4.614,-20.103 15.819,-24.387 11.205,-4.284 21.751,1.318 27.683,6.262 5.932,4.943 10.875,16.148 14.83,27.353 1.734,4.914 -19.538,4.586 -25.046,5.932 -14.83,3.625 -22.849,17.906 -22.849,17.906 z"
           id="path553" />
        <path
           style="fill:#d7b436"
           d="m 624.477,747.844 c 0,0 -3.955,-1.099 -4.833,-3.515 -0.878,-2.416 4.394,-9.887 8.349,-12.303 3.515,-7.69 13.402,-10.546 13.402,-10.546 0,0 -14.501,15.598 -16.918,26.364 z"
           id="path555" />
        <path
           style="fill:#d7b436"
           d="m 677.928,735.995 c -10.497,0.338 -21.123,-0.435 -31.318,2.311 -8.468,2.281 -16.35,9.77 -20.604,17.623 l 7.699,13.446 c 0,0 8.019,-14.281 22.849,-17.906 5.508,-1.346 26.78,-1.018 25.046,-5.932 -1.141,-3.233 -2.367,-6.46 -3.672,-9.542 z"
           id="path557" />
        <path
           style="fill:#fff7e8"
           d="m 642.493,786.951 c -3.955,-1.758 -5.712,-7.031 -9.667,-12.303 -3.955,-5.272 -7.909,-8.788 -7.909,-8.788 0,0 11.864,-16.698 24.607,-20.652 12.743,-3.955 32.956,-7.909 36.471,-6.152 3.515,1.758 0,16.698 0,16.698 0,0 3.515,6.152 4.394,9.667 0.472,1.887 -16.529,2.499 -29.001,7.909 -10.768,4.67 -17.063,14.435 -18.895,13.621 z"
           id="path559" />
        <path
           style="fill:#d6c8b0"
           d="m 642.493,786.951 c 2.203,-8.695 9.606,-15.616 17.979,-20.795 7.495,-4.636 16.734,1.681 22.446,-3.812 4.509,-4.336 -16.376,-16.217 -10.635,-18.867 6.505,-3.003 11.843,-5.355 13.711,-4.421 3.515,1.758 0,16.698 0,16.698 0,0 3.515,6.152 4.394,9.667 0.472,1.887 -16.529,2.499 -29.001,7.909 -10.767,4.67 -17.062,14.435 -18.894,13.621 z"
           id="path561" />
      </g>
      <g
         id="g643"
         transform="matrix(0.26458333,0,0,0.26458333,180.4141,-13.637764)">
        <path
           style="fill:#e4a782"
           d="m 677.854,831.674 c 0,0 5.795,18.202 6.376,32.753 0.4,10.036 -4.276,31.823 -14.694,29.164 -4.745,-1.211 -2.504,-7.092 -0.194,-11.828 3.158,-6.472 2.763,-11.294 2.127,-16.678 -0.865,-7.325 -6.835,-18.948 -5.639,-26.137 1.197,-7.189 6.317,-18.143 12.024,-7.274 z"
           id="path627" />
        <path
           style="fill:#e4a782"
           d="m 688.828,825.801 c 0,0 6.762,23.969 6.598,42.561 -0.113,12.824 -10.891,40.036 -23.717,35.146 -4.61,-1.758 -1.829,-7.929 1.593,-13.721 4.116,-6.969 3.412,-11.975 3.736,-18.363 0.477,-9.404 -13.401,-26.083 -11.428,-35.176 1.971,-9.093 16.615,-24.661 23.218,-10.447 z"
           id="path629" />
        <path
           style="fill:#e4a782"
           d="m 694.443,832.718 c 0,0 6.761,23.969 6.598,42.561 -0.113,12.824 -9.853,38.474 -22.993,34.504 -7.634,-2.307 -1.699,-8.717 1.722,-14.509 4.116,-6.969 2.558,-10.546 2.882,-16.934 0.477,-9.404 -13.4,-26.083 -11.428,-35.176 1.973,-9.091 16.617,-24.66 23.219,-10.446 z"
           id="path631" />
        <path
           style="fill:#ffd8b1"
           d="m 707.721,841.428 c 0.082,9.897 -3.405,19.84 -10.334,26.265 -3.625,3.362 -22.721,3.266 -29.31,-1.358 -14.702,-13.55 -2.816,-34.329 -1.394,-49.978 2.979,-6.342 21.129,-11.391 31.183,-7.168 2.27,1.467 9.084,19.785 9.855,32.239 z"
           id="path633" />
        <path
           style="fill:#e4a782"
           d="m 699.337,865.341 c -2.662,-18.954 -19.127,-9.42 -20.565,4.276 7.548,6.093 15.521,3.516 17.839,1.366 0.699,-0.648 2.129,-4.632 2.758,-5.347 -0.012,-0.098 -0.019,-0.197 -0.032,-0.295 z"
           id="path635" />
        <path
           style="fill:#ffd8b1"
           d="m 706.362,836.012 c 0,0 6.762,23.969 6.598,42.562 -0.065,7.329 -2.96,17.41 -9.114,26.182 -4.089,5.828 -10.045,10.701 -15.615,8.465 -2.234,-0.897 -2.079,-3.115 -1.911,-4.933 0.283,-3.084 4.283,-6.583 6.436,-10.227 4.116,-6.969 3.821,-10.264 4.145,-16.653 0.242,-4.778 -5.549,-11.206 -8.756,-17.79 -3.105,-6.376 -5.971,-12.685 -5.001,-17.158 1.972,-9.094 16.616,-24.662 23.218,-10.448 z"
           id="path637" />
        <path
           style="fill:#ffd8b1"
           d="m 667.131,865.698 c 0,0 3.888,11.661 4.537,19.563 0.308,3.761 2.424,8.247 6.113,7.071 3.595,-1.146 5.784,-3.083 5.798,-10.503 0.006,-7.232 -0.092,-11.208 -0.092,-11.208 0,0 12.837,-14.48 10.019,-22.181 -2.818,-7.701 -12.731,-19.026 -18.761,-15.779 -6.029,3.246 -19.695,15.606 -7.614,33.037 z"
           id="path639" />
        <path
           style="fill:#e4a782"
           d="m 678.847,843.042 c 13.841,0 17.796,-8.349 22.947,-1.453 1.052,1.409 8.14,19.086 10.647,26.459 -1.013,-10.401 -4.041,-20.853 -5.502,-26.868 -0.831,-12.448 -3.265,-23.184 -8.318,-33.29 -10.054,-4.224 -31.295,2.006 -34.274,8.349 1.099,3.955 2.011,4.499 1.758,7.031 -0.346,3.467 -0.895,7.52 -1.758,11.205 -0.871,3.719 8.268,8.567 14.5,8.567 z"
           id="path641" />
      </g>
    </g>
    <g
       id="brazo_der"
       style="display:inline"
       transform="matrix(2.664308,2.680726,-2.680726,2.664308,45.394333,-879.25733)"
       inkscape:transform-center-x="28.433938"
       inkscape:transform-center-y="-11.588394">
      <g
         id="g511"
         transform="matrix(0.26458333,0,0,0.26458333,180.4141,-13.637764)">
        <path
           style="fill:#ffeb68"
           d="m 404.609,599.544 c -12.029,13.182 -12.029,52.399 -31.967,80.906 -1.352,1.932 -6.756,2.307 -8.239,3.955 -1.102,1.225 -4.614,18.51 -4.614,18.785 0,0 -19.169,44.215 14.226,40.261 33.395,-3.955 50.497,-48.327 72.063,-70.305 10.036,-10.228 6.439,-31.774 6.439,-31.774 0,0 -7.835,-16.775 -19.382,-30.802 -6.395,-7.769 -25.172,-14.703 -28.526,-11.026 z"
           id="path505" />
        <path
           style="fill:#d7b436"
           d="m 370.939,681.713 c 0,0 3.515,-2.197 5.273,-4.614 1.758,-2.417 10.766,-19.883 15.709,-40.645 0.184,-0.771 -0.989,29.331 -11.86,48.719 -2.051,-1.319 -4.98,-2.664 -9.122,-3.46 z"
           id="path507" />
        <path
           style="fill:#d7b436"
           d="m 412.786,624.876 0.227,26.078 c 0,0 13.697,13.25 12.853,16.807 -4.614,19.444 -38.888,64.263 -70.195,70.525 5.761,4.376 16.807,10.875 35.592,-0.989 19.444,-9.887 48.452,-57.682 55.358,-70.238 6.906,-12.556 -3.076,-28.122 -3.076,-28.122 z"
           id="path509" />
      </g>
      <g
         id="g535"
         transform="matrix(0.26458333,0,0,0.26458333,180.4141,-13.637764)">
        <path
           style="fill:#ffd8b1"
           d="m 276.931,648.541 c -13.877,-4.752 -31.23,-0.339 -40.251,16.595 -3.579,6.719 -5.861,16.018 -3.996,25.573 1.119,5.733 6.693,14.124 15.152,16.277 6.041,3.36 26.537,11.143 37.197,-5.424 1.558,-1.917 7.782,-13.564 8.75,-21.773 1.248,-10.586 -0.823,-24.237 -16.852,-31.248 z"
           id="path521" />
        <path
           style="fill:#ffd8b1"
           d="m 258.656,655.459 c -1.432,-1.31 -32.944,-30.122 -39.492,-22.96 -6.548,7.162 16.07,27.58 32.706,30.956 z"
           id="path523" />
        <path
           style="fill:#ffd8b1"
           d="m 249.011,666.375 c -1.715,-0.908 -39.453,-20.882 -43.993,-12.305 -4.539,8.577 22.482,22.659 39.433,21.749 z"
           id="path525" />
        <path
           style="fill:#ffd8b1"
           d="m 245.873,682.107 c -1.886,-0.456 -43.391,-10.479 -45.669,-1.046 -2.278,9.433 27.387,16.397 43.586,11.324 z"
           id="path527" />
        <path
           style="fill:#ffd8b1"
           d="m 250.686,696.43 c -0.93,-10e-4 -14.307,-1.669 -24.268,-0.057 -6.709,1.086 -11.442,4.566 -11.388,7.62 0.074,4.163 6.606,4.647 14.94,4.218 6.859,-0.353 15.133,-1.586 20.348,0.372 z"
           id="path529" />
        <path
           style="fill:#ffd8b1"
           d="m 273.144,649.201 c 0,0 -11.719,-12.206 -15.035,-20.284 -0.804,-1.959 -4.001,-2.307 -5.271,-1.657 -2.711,1.387 -5.359,5.094 -1.554,12.341 3.713,7.074 5.846,10.911 5.846,10.911 0,0 -4.584,20.353 2.011,26.515 6.595,6.161 19.869,14.222 23.855,8.136 3.985,-6.084 10.43,-24.78 -9.852,-35.962 z"
           id="path531" />
        <path
           style="fill:#e4a782"
           d="m 257.13,650.513 c 0,0 4.28,3.474 5.269,9.735 0.989,6.261 -1.318,13.512 4.614,22.08 0,0 -8.569,0.989 -13.512,-10.875 -4.943,-11.864 3.629,-20.94 3.629,-20.94 z"
           id="path533" />
      </g>
      <g
         id="g539"
         transform="matrix(0.26458333,0,0,0.26458333,180.4141,-13.637764)">
        <path
           style="fill:#ffd8b1"
           d="m 377.405,738.445 c -30.97,13.091 -74.471,-24.479 -104.79,-30.411 -1.977,-9.228 3.296,-22.08 15.819,-33.944 16.478,11.205 62.616,16.478 62.616,16.478 0,0 12.83,1.987 21.751,13.841 7.074,9.401 12.479,25.395 4.604,34.036 z"
           id="path537" />
      </g>
      <g
         id="g543"
         transform="matrix(0.26458333,0,0,0.26458333,180.4141,-13.637764)">
        <path
           style="fill:#e4a782"
           d="m 372.8,704.409 c -8.921,-11.854 -21.751,-13.841 -21.751,-13.841 0,0 -11.098,-1.269 -24.35,-3.883 -1.112,9.453 -5.063,18.767 -9.71,26.885 -1.911,3.339 -4.083,6.737 -6.561,9.897 23.015,11.381 47.479,23.219 66.977,14.978 7.875,-8.641 2.47,-24.635 -4.605,-34.036 z"
           id="path541" />
      </g>
      <g
         id="g655"
         transform="matrix(0.26458333,0,0,0.26458333,180.4141,-13.637764)">
        <path
           style="fill:#ffeb68"
           d="m 366.274,691.829 c 0,0 9.948,4.807 15.99,11.372 6.042,6.565 11.513,17.113 6.978,28.218 -4.536,11.105 -15.835,14.969 -23.498,15.917 -7.663,0.948 -19.219,-3.107 -30.099,-7.883 -4.771,-2.095 10.014,-17.392 12.798,-22.332 7.496,-13.3 2.559,-28.916 2.559,-28.916 z"
           id="path645" />
        <path
           style="fill:#d7b436"
           d="m 339.521,728.949 c -2.182,3.399 -5.641,9.527 -3.878,10.504 9.59,5.314 20.982,9.002 28.704,9.049 11.128,0.067 21.828,-5.592 26.365,-16.698 1.838,-4.5 2.197,-9.008 -0.259,-13.383 -3.806,2.928 -11.59,12.292 -16.439,14.701 -3.679,1.828 -4.581,-4.324 -8.568,-3.076 -9.62,3.013 -17.356,4.396 -25.925,-1.097 z"
           id="path647" />
        <path
           style="fill:#d7b436"
           d="m 345.117,743.299 c 6.932,-7.89 14.761,-15.116 19.729,-24.432 4.127,-7.739 4.051,-18.611 1.23,-27.085 l -15.075,-3.577 c 0,0 4.936,15.617 -2.559,28.916 -2.784,4.939 -17.57,20.237 -12.798,22.332 3.139,1.378 6.332,2.691 9.473,3.846 z"
           id="path649" />
        <path
           style="fill:#fff7e8"
           d="m 332.167,682.599 c 3.987,-1.684 9.036,0.639 15.588,1.359 6.552,0.72 11.821,0.238 11.821,0.238 0,0 4.071,20.075 -1.757,32.077 -5.828,12.002 -16.764,29.455 -20.45,30.818 -3.686,1.363 -12.184,-11.418 -12.184,-11.418 0,0 -6.892,-1.642 -10.058,-3.404 -1.699,-0.946 9.479,-13.769 14.06,-26.569 3.954,-11.05 1.133,-22.321 2.98,-23.101 z"
           id="path651" />
        <path
           style="fill:#d6c8b0"
           d="m 332.167,682.599 c 4.838,7.553 4.826,17.687 2.879,27.339 -1.743,8.639 -12.669,11.061 -12.568,18.985 0.08,6.255 23.031,-0.86 21.039,5.142 -2.257,6.8 -4.191,12.303 -6.15,13.027 -3.686,1.363 -12.184,-11.418 -12.184,-11.418 0,0 -6.892,-1.642 -10.058,-3.404 -1.699,-0.946 9.479,-13.769 14.06,-26.569 3.956,-11.051 1.135,-22.322 2.982,-23.102 z"
           id="path653" />
      </g>
    </g>
    <g
       id="cabeza"
       transform="translate(1.2436537,-307.73586)"
       style="display:inline">
      <path
         style="fill:#e4a782"
         d="m 341.51,383.839 c 0,0 -3.928,-46.12 -28.35,-39.397 -8.894,2.452 -14.755,19.439 -13.789,36.717 1.002,17.919 7.382,48.176 32.841,50.796 z"
         id="path659" />
      <path
         style="fill:#e4a782"
         d="m 669.527,383.839 c 0,0 3.928,-46.12 28.351,-39.397 8.894,2.452 14.755,19.439 13.789,36.717 -1.002,17.919 -7.382,48.176 -32.841,50.796 z"
         id="path661" />
      <path
         style="fill:#ffd8b1"
         d="m 691.673,441.656 c -1.494,53.485 -43.703,108.27 -178.101,108.27 -134.398,0 -191.476,-54.776 -192.961,-108.27 -0.22,-7.795 0.431,-15.388 1.889,-22.7 0.158,-0.809 0.334,-1.626 0.51,-2.434 l -0.009,0.009 35.249,-139.23 c 0,0 26.742,-92.97 147.922,-92.97 118.025,0 147.096,89.868 147.096,89.868 l 35.917,141.981 0.132,0.518 c 1.768,7.979 2.602,16.354 2.356,24.958 z"
         id="path663" />
      <path
         style="fill:#e4a782"
         d="m 689.186,416.162 c -5.985,-11.882 -17.629,-34.581 -29.282,-55.277 -36.532,-4.675 -64.057,-16.601 -89.384,-27.48 -48.783,-20.942 -85.104,-51.156 -102.997,-75.191 -0.026,-0.026 -0.044,-0.035 -0.07,-0.062 -24.747,58.819 -97.61,102.707 -118.148,114.158 -13.762,17.137 -26.47,45.004 -26.294,44.196 l -0.009,0.009 35.249,-139.23 c 0,0 26.742,-92.97 147.922,-92.97 118.025,0 147.096,89.868 147.096,89.868 z"
         id="path665" />
      <path
         style="fill:#e4a782"
         d="m 506.138,531.532 c -105.414,0 -173.487,-40.786 -185.518,-89.876 1.485,53.476 58.564,108.261 192.961,108.261 134.397,0 176.598,-54.785 178.092,-108.261 -7.795,43.246 -50.76,89.876 -185.535,89.876 z"
         id="path667" />
    </g>
    <g
       id="mejillas"
       style="display:inline"
       transform="matrix(3.7795276,0,0,3.7795276,62.876535,-207.29778)">
      <g
         id="g679"
         transform="matrix(0.26458333,0,0,0.26458333,-16.620167,-27.64435)">
        <path
           style="fill:#f9b3a8"
           d="m 340.31,429.924 c -19.29,1.002 -31.523,9.922 -32.244,18.912 -0.571,7.127 5.923,27.076 33.509,26.118 31.726,-1.098 41.788,-47.254 -1.265,-45.03 z"
           id="path673" />
        <path
           style="fill:#c45c57"
           d="m 337.349,445.11 c -0.738,0.51 -1.758,0.413 -2.434,-0.272 -0.782,-0.8 -0.809,-2.092 -0.062,-2.891 4.051,-4.35 9.245,-8.384 9.465,-8.551 0.853,-0.668 2.083,-0.457 2.733,0.457 0.65,0.914 0.483,2.197 -0.378,2.856 -0.053,0.044 -5.176,4.007 -9.008,8.129 -0.097,0.096 -0.202,0.193 -0.316,0.272 z"
           id="path675" />
        <path
           style="fill:#c45c57"
           d="m 348.334,446.393 c -0.765,0.518 -1.802,0.404 -2.47,-0.316 -0.756,-0.817 -0.747,-2.109 0.018,-2.883 3.849,-3.902 8.208,-7.277 8.393,-7.417 0.835,-0.677 2.083,-0.457 2.733,0.457 0.65,0.914 0.475,2.197 -0.378,2.856 -0.044,0.035 -4.341,3.357 -8.006,7.074 -0.097,0.079 -0.194,0.159 -0.29,0.229 z"
           id="path677" />
      </g>
      <g
         id="g687"
         transform="matrix(0.26458333,0,0,0.26458333,-16.620167,-27.64435)">
        <path
           style="fill:#f9b3a8"
           d="m 677.814,435.118 c -19.343,0.325 -32.226,8.814 -33.623,17.77 -1.107,7.101 3.893,27.252 31.514,27.252 31.769,-0.01 45.259,-45.752 2.109,-45.022 z"
           id="path681" />
        <path
           style="fill:#c45c57"
           d="m 663.129,449.987 c -0.782,0.483 -1.784,0.352 -2.408,-0.36 -0.721,-0.826 -0.65,-2.118 0.149,-2.883 4.368,-4.21 9.86,-8.05 10.089,-8.217 0.896,-0.633 2.109,-0.387 2.698,0.554 0.58,0.94 0.316,2.206 -0.589,2.839 -0.053,0.035 -5.466,3.823 -9.597,7.804 -0.104,0.096 -0.218,0.184 -0.342,0.263 z"
           id="path683" />
        <path
           style="fill:#c45c57"
           d="m 674.009,451.648 c -0.8,0.492 -1.828,0.343 -2.443,-0.404 -0.694,-0.844 -0.589,-2.136 0.228,-2.883 4.139,-3.77 8.735,-6.987 8.938,-7.118 0.888,-0.642 2.109,-0.387 2.689,0.554 0.58,0.94 0.316,2.206 -0.589,2.839 -0.044,0.035 -4.587,3.208 -8.524,6.784 -0.097,0.088 -0.193,0.167 -0.299,0.228 z"
           id="path685" />
      </g>
    </g>
    <g
       id="cejas"
       style="display:inline"
       transform="matrix(3.7795276,0,0,3.7795276,62.876535,-207.29778)">
      <g
         id="g693"
         transform="matrix(0.26458333,0,0,0.26458333,-16.620167,-27.64435)">
        <path
           style="fill:#e4a782"
           d="m 448.426,311.178 c -29.264,-2.329 -66.43,22.919 -60.181,28.122 2.109,1.758 19.967,-11.855 47.421,-12.804 8.331,-0.29 19.501,0.817 30.838,2.68 6.248,1.038 -3.463,-16.829 -18.078,-17.998 z"
           id="path689" />
        <path
           style="fill:#a4425a"
           d="m 447.301,310.888 c -29.247,-2.619 -59.443,22.199 -57.72,24.37 1.714,2.171 17.471,-11.293 44.934,-12.233 8.331,-0.29 17.822,0.677 29.168,2.54 6.248,1.028 -5.607,-13.71 -16.382,-14.677 z"
           id="path691" />
      </g>
      <g
         id="g699"
         transform="matrix(0.26458333,0,0,0.26458333,-16.620167,-27.64435)">
        <path
           style="fill:#e4a782"
           d="m 562.461,311.178 c 29.264,-2.329 66.43,22.919 60.181,28.122 -2.109,1.758 -19.967,-11.855 -47.421,-12.804 -8.331,-0.29 -19.501,0.817 -30.838,2.68 -6.239,1.038 3.464,-16.829 18.078,-17.998 z"
           id="path695" />
        <path
           style="fill:#a4425a"
           d="m 563.586,310.888 c 29.247,-2.619 59.443,22.199 57.721,24.37 -1.714,2.171 -17.471,-11.293 -44.934,-12.233 -8.331,-0.29 -17.822,0.677 -29.168,2.54 -6.248,1.028 5.607,-13.71 16.381,-14.677 z"
           id="path697" />
      </g>
    </g>
    <g
       id="ojos"
       style="display:inline"
       transform="matrix(3.7795276,0,0,3.7795276,62.876535,-207.29778)">
      <g
         id="g721"
         transform="matrix(0.26458333,0,0,0.26458333,-16.620167,-27.64435)">
        <path
           style="fill:#e4a782"
           d="m 403.906,450.541 c -21.338,-4.517 -22.656,-33.307 -16.109,-59.918 6.143,-24.949 19.747,-49.134 41.55,-51.525 24.501,-2.689 37.763,24.712 38.149,55.954 0.387,30.944 -14.5,65.876 -63.59,55.489 z"
           id="path701" />
        <path
           style="fill:#fdfdfd"
           d="m 407.078,444.679 c -19.545,-4.139 -20.731,-30.53 -14.72,-54.908 5.633,-22.832 18.095,-44.96 38.044,-47.148 22.419,-2.461 34.555,22.603 34.915,51.2 0.369,28.35 -13.261,60.374 -58.239,50.856 z"
           id="path703" />
        <path
           style="fill:#c5c5be"
           d="m 433.144,402.443 c 9.447,6.16 18.543,13.85 25.398,23.165 4.983,-9.421 6.916,-20.881 6.785,-31.787 -0.36,-28.597 -12.506,-53.66 -34.915,-51.2 -18.561,2.039 -30.644,21.355 -36.77,42.429 13.858,3.288 27.348,9.466 39.502,17.393 z"
           id="path705" />
        <path
           style="fill:#822439"
           d="m 421.713,441.561 c -12.057,-1.459 -14.131,-19.8 -11.75,-37.218 2.223,-16.285 8.604,-32.551 20.52,-35.531 13.393,-3.348 22.049,13.138 23.798,32.982 1.732,19.739 -4.806,43.115 -32.568,39.767 z"
           id="path707" />
        <path
           style="fill:#4c0b1d"
           d="m 426.286,425.074 c -6.601,-0.799 -7.736,-10.839 -6.432,-20.374 1.217,-8.915 4.71,-17.819 11.233,-19.45 7.332,-1.833 12.07,7.192 13.028,18.055 0.948,10.805 -2.632,23.602 -17.829,21.769 z"
           id="path709" />
        <path
           style="fill:#fdfdfd"
           d="m 423.875,372.574 c -11.688,1.186 -23.165,17.4 -7.11,21.575 16.021,4.166 23.245,-23.21 7.11,-21.575 z"
           id="path711" />
        <path
           style="fill:#563117"
           d="m 409.542,351.644 c -6.833,8.229 -22.461,11.851 -30.847,4.608 3.049,7.052 15.056,12.769 26.17,5.966 z"
           id="path713" />
        <path
           style="fill:#563117"
           d="m 402.638,366.853 c -4.089,5.115 -15.367,9.983 -21.847,5.981 2.096,4.383 7.64,6.235 14.631,4.913 2.141,-3.198 7.216,-10.894 7.216,-10.894 z"
           id="path715" />
        <path
           style="fill:#563117"
           d="m 447.097,345.399 c 3.513,2.216 11.314,1.174 12.288,-2.952 1.167,3.723 -3.48,9.245 -9.196,8.5 z"
           id="path717" />
        <path
           style="fill:#563117"
           d="m 391.681,392.522 c -4.28,-1.248 2.663,-20.714 8.428,-30.495 6.415,-10.897 16.065,-21.566 29.871,-23.078 9.799,-1.072 18.771,3.252 25.064,11.354 4.939,6.354 8.05,17.902 6.565,18.385 -1.485,0.483 -6.89,-22.234 -31.224,-20.081 -26.84,2.364 -38.431,43.994 -38.704,43.915 z"
           id="path719" />
      </g>
      <g
         id="g743"
         transform="matrix(0.26458333,0,0,0.26458333,-16.620167,-27.64435)">
        <path
           style="fill:#e4a782"
           d="m 612.712,449.68 c 21.056,-4.421 22.752,-32.771 16.662,-58.968 -5.704,-24.563 -18.771,-48.388 -40.188,-50.769 -24.079,-2.68 -37.499,24.273 -38.307,55.023 -0.809,30.458 13.366,64.873 61.833,54.714 z"
           id="path723" />
        <path
           style="fill:#fdfdfd"
           d="m 610.102,444.793 c 19.598,-4.113 21.153,-30.504 15.476,-54.891 -5.317,-22.84 -17.471,-44.986 -37.385,-47.201 -22.383,-2.487 -34.863,22.559 -35.618,51.156 -0.765,28.36 12.417,60.401 57.527,50.936 z"
           id="path725" />
        <path
           style="fill:#c5c5be"
           d="m 584.616,402.522 c -9.526,6.152 -18.728,13.832 -25.714,23.139 -4.851,-9.43 -6.635,-20.889 -6.345,-31.804 0.756,-28.597 13.244,-53.643 35.618,-51.156 18.534,2.065 30.345,21.39 36.181,42.482 -13.894,3.27 -27.472,9.43 -39.74,17.339 z"
           id="path727" />
        <path
           style="fill:#563117"
           d="m 609.32,351.644 c 6.833,8.229 22.461,11.851 30.847,4.608 -3.049,7.052 -15.056,12.769 -26.17,5.966 z"
           id="path729" />
        <path
           style="fill:#563117"
           d="m 616.224,366.853 c 4.089,5.115 15.367,9.983 21.847,5.981 -2.096,4.383 -7.64,6.235 -14.631,4.913 -2.141,-3.198 -7.216,-10.894 -7.216,-10.894 z"
           id="path731" />
        <path
           style="fill:#563117"
           d="m 571.765,345.399 c -3.513,2.216 -11.314,1.174 -12.288,-2.952 -1.167,3.723 3.48,9.245 9.196,8.5 z"
           id="path733" />
        <path
           style="fill:#563117"
           d="m 625.964,392.522 c 4.289,-1.248 -2.417,-20.714 -8.067,-30.495 -6.292,-10.897 -15.81,-21.566 -29.607,-23.078 -9.79,-1.072 -18.807,3.252 -25.204,11.354 -5.018,6.354 -8.261,17.902 -6.784,18.385 1.476,0.483 7.154,-22.234 31.453,-20.081 26.829,2.364 37.937,43.994 38.209,43.915 z"
           id="path735" />
        <path
           style="fill:#822439"
           d="m 601.131,442.254 c 11.899,-2.566 12.505,-21.021 8.727,-38.141 -3.524,-16.012 -11.187,-31.611 -23.306,-33.474 -13.613,-2.092 -20.925,15.124 -21.074,35.047 -0.15,19.8 8.251,42.474 35.653,36.568 z"
           id="path737" />
        <path
           style="fill:#4c0b1d"
           d="m 595.241,425.476 c 6.262,-1.35 6.581,-11.063 4.592,-20.072 -1.855,-8.427 -5.888,-16.636 -12.265,-17.616 -7.164,-1.101 -11.012,7.96 -11.091,18.444 -0.078,10.419 4.343,22.352 18.764,19.244 z"
           id="path739" />
        <path
           style="fill:#fdfdfd"
           d="m 580.435,374.295 c -11.759,1.45 -24.923,18.016 -9.395,21.865 15.511,3.849 25.644,-23.86 9.395,-21.865 z"
           id="path741" />
      </g>
    </g>
    <path
       style="display:inline;fill:#e4a782;stroke-width:0.999999"
       d="m 497.92016,124.08463 c 0,-2.91799 2.05598,-11.319 7.444,-10.00999 5.387,1.30999 9.51799,8.26999 7.03,10.44899 -2.47899,2.17101 -14.46599,1.73101 -14.474,-0.439 z"
       id="nariz" />
    <g
       id="gafas"
       style="display:inline"
       transform="matrix(3.7795276,0,0,3.7795276,62.876535,-207.29778)">
      <path
         style="fill:#e4a782;stroke-width:0.264583"
         d="m 142.12917,62.982187 c -9.33979,0 -16.95027,7.525544 -17.09764,16.830675 -1.1774,-1.563423 -3.64331,-2.639748 -6.49552,-2.639748 -2.88158,0 -5.36919,1.09855 -6.53177,2.687902 -0.12197,-9.327356 -7.74329,-16.878829 -17.09896,-16.878829 -9.4316,0 -17.10478,7.673181 -17.10478,17.104783 0,9.431601 7.67318,17.104781 17.10478,17.104781 8.49445,0 15.55962,-6.22511 16.88015,-14.352321 1.04299,-1.767681 3.67083,-3.022599 6.75058,-3.022599 3.03345,0 5.62531,1.218935 6.69925,2.944547 1.28773,8.165573 8.37247,14.430113 16.89417,14.430113 9.43161,0 17.10479,-7.67318 17.10479,-17.104785 -2.7e-4,-9.431338 -7.67345,-17.104519 -17.10505,-17.104519 z M 94.90528,95.528851 c -8.51482,0 -15.44214,-6.92732 -15.44214,-15.442145 0,-8.514821 6.92732,-15.442142 15.44214,-15.442142 8.51482,0 15.44214,6.927056 15.44214,15.442142 -2.6e-4,8.515085 -6.92732,15.442145 -15.44214,15.442145 z m 47.22389,0 c -8.51482,0 -15.44214,-6.92732 -15.44214,-15.442145 0,-8.514821 6.92732,-15.442142 15.44214,-15.442142 8.51482,0 15.44214,6.927056 15.44214,15.442142 0,8.515085 -6.92732,15.442145 -15.44214,15.442145 z"
         id="path671" />
      <g
         id="g791"
         transform="matrix(0.26458333,0,0,0.26458333,-16.307033,-26.574243)">
        <g
           id="g767">
          <path
             style="fill:#7c5b3c"
             d="m 420.33,463.382 c -35.647,0 -64.648,-29.001 -64.648,-64.648 0,-35.647 29.001,-64.648 64.648,-64.648 35.647,0 64.648,29.001 64.648,64.648 0,35.647 -29.001,64.648 -64.648,64.648 z m 0,-123.011 c -32.182,0 -58.364,26.182 -58.364,58.364 0,32.182 26.182,58.364 58.364,58.364 32.182,0 58.364,-26.182 58.364,-58.364 0,-32.182 -26.183,-58.364 -58.364,-58.364 z"
             id="path755" />
          <g
             id="g761">
            <path
               style="fill:#aa866d"
               d="m 421.962,460.005 c 32.364,0 58.695,-26.33 58.695,-58.695 0,-11.005 -3.047,-21.311 -8.338,-30.123 4.488,8.291 7.04,17.778 7.04,27.851 0,32.365 -26.33,58.695 -58.695,58.695 -21.359,0 -40.088,-11.47 -50.357,-28.572 9.934,18.351 29.363,30.844 51.655,30.844 z"
               id="path757" />
            <path
               style="fill:#aa866d"
               d="m 358.196,400.463 c 0,-34.694 28.225,-62.92 62.92,-62.92 22.963,0 43.089,12.367 54.076,30.788 -10.662,-19.631 -31.467,-32.988 -55.333,-32.988 -34.694,0 -62.92,28.226 -62.92,62.92 0,11.731 3.23,22.72 8.844,32.131 -4.838,-8.906 -7.587,-19.104 -7.587,-29.931 z"
               id="path759" />
          </g>
          <path
             style="opacity:0.3;fill:#fdfdfd"
             d="m 471.033,374.6 -87.575,66.461 c -8.364,-7.29 -14.554,-17.011 -17.451,-28.059 v -0.006 l 84.911,-61.339 c 8.647,5.624 15.647,13.568 20.115,22.943 z"
             id="path763" />
          <path
             style="opacity:0.3;fill:#fdfdfd"
             d="m 433.567,344.148 -69.364,52.636 c 1.024,-30.069 25.809,-54.213 56.13,-54.213 4.556,-0.001 8.992,0.546 13.234,1.577 z"
             id="path765" />
        </g>
        <g
           id="g781">
          <path
             style="fill:#7c5b3c"
             d="m 598.814,463.382 c -35.647,0 -64.648,-29.001 -64.648,-64.648 0,-35.647 29.001,-64.648 64.648,-64.648 35.647,0 64.648,29.001 64.648,64.648 0,35.647 -29.001,64.648 -64.648,64.648 z m 0,-123.011 c -32.182,0 -58.364,26.182 -58.364,58.364 0,32.182 26.182,58.364 58.364,58.364 32.182,0 58.364,-26.182 58.364,-58.364 0,-32.182 -26.182,-58.364 -58.364,-58.364 z"
             id="path769" />
          <g
             id="g775">
            <path
               style="fill:#aa866d"
               d="m 600.447,460.005 c 32.364,0 58.695,-26.33 58.695,-58.695 0,-11.005 -3.047,-21.311 -8.338,-30.123 4.488,8.291 7.04,17.778 7.04,27.851 0,32.365 -26.33,58.695 -58.695,58.695 -21.359,0 -40.088,-11.47 -50.357,-28.572 9.934,18.351 29.362,30.844 51.655,30.844 z"
               id="path771" />
            <path
               style="fill:#aa866d"
               d="m 536.68,400.463 c 0,-34.694 28.226,-62.92 62.92,-62.92 22.963,0 43.089,12.367 54.076,30.788 -10.662,-19.631 -31.467,-32.988 -55.333,-32.988 -34.694,0 -62.92,28.226 -62.92,62.92 0,11.731 3.231,22.72 8.844,32.131 -4.837,-8.906 -7.587,-19.104 -7.587,-29.931 z"
               id="path773" />
          </g>
          <path
             style="opacity:0.3;fill:#fdfdfd"
             d="m 649.518,374.6 -87.575,66.461 c -8.364,-7.29 -14.554,-17.011 -17.451,-28.059 v -0.006 l 84.911,-61.339 c 8.646,5.624 15.647,13.568 20.115,22.943 z"
             id="path777" />
          <path
             style="opacity:0.3;fill:#fdfdfd"
             d="m 612.052,344.148 -69.364,52.636 c 1.024,-30.069 25.809,-54.213 56.13,-54.213 4.555,-0.001 8.992,0.546 13.234,1.577 z"
             id="path779" />
        </g>
        <g
           id="g789">
          <path
             style="fill:#7c5b3c"
             d="m 509.643,397.713 c 12.435,0 22.924,5.413 26.239,12.82 0.71,-1.586 1.097,-3.261 1.097,-4.996 0,-9.839 -12.239,-17.815 -27.336,-17.815 -15.097,0 -27.336,7.976 -27.336,17.815 0,1.735 0.388,3.41 1.097,4.996 3.315,-7.406 13.804,-12.82 26.239,-12.82 z"
             id="path783" />
          <path
             style="fill:#aa866d"
             d="m 491.866,396.334 c -0.438,0 -0.863,-0.229 -1.095,-0.637 -0.342,-0.604 -0.13,-1.37 0.473,-1.713 5.156,-2.924 11.746,-4.535 18.555,-4.535 0.694,0 1.257,0.563 1.257,1.257 0,0.694 -0.563,1.257 -1.257,1.257 -6.382,0 -12.531,1.494 -17.315,4.207 -0.195,0.111 -0.408,0.164 -0.618,0.164 z"
             id="path785" />
          <path
             style="fill:#604128"
             d="m 483.205,410.057 c 0.064,0.159 0.129,0.318 0.199,0.476 3.315,-7.406 13.804,-12.819 26.238,-12.819 12.435,0 22.924,5.413 26.239,12.819 0.423,-0.946 0.729,-1.925 0.91,-2.928 -3.076,-7.645 -13.747,-13.285 -26.441,-13.285 -14.018,0 -25.565,6.878 -27.145,15.737 z"
             id="path787" />
        </g>
      </g>
    </g>
    <g
       id="cabello_del"
       transform="translate(1.2436537,-307.73586)"
       style="display:inline">
      <path
         style="fill:#a4425a"
         d="m 460.615,242.807 c 17.954,24.141 54.399,54.487 103.305,75.525 31.892,13.718 81.229,27.815 126.461,29.01 0,0 1.637,-86.764 -58.207,-142.415 -53.379,-48.317 -149.773,-64.889 -178.862,-27.17 -26.39,20.582 -11.565,49.363 7.303,65.05 z"
         id="path793" />
      <path
         style="fill:#a4425a"
         d="m 473.042,169.311 c 0,0 -52.667,-16.021 -104.06,44.846 -50.497,59.803 -32.226,146.252 -32.226,146.252 0,0 120.855,-61.913 131.374,-145.33 z"
         id="path795" />
      <path
         style="fill:#a4425a"
         d="m 341.352,273.416 c 0,0 -35.548,67.967 -17.471,136.41 0,0 12.462,-54.759 39.16,-85.772 z"
         id="path797" />
      <path
         style="fill:#a4425a"
         d="m 672.313,290.939 c 0,0 32.876,50.444 14.799,118.886 0,0 -12.462,-54.759 -39.16,-85.772 z"
         id="path799" />
      <path
         style="fill:#822439"
         d="m 687.086,363.995 c 0.334,-10.054 -14.202,-30.038 -17.893,-32.92 -1.854,-1.591 -35.012,-15.502 -56.534,-30.416 -17.295,-11.978 -27.911,-26.118 -29.695,-25.758 -2.223,0.448 4.464,14.096 14.667,25.758 10.203,11.662 23.921,21.364 21.83,20.749 -36.137,-10.616 -72.581,-23.974 -101.617,-45.444 -42.579,-31.488 -52.456,-64.848 -54.741,-64.048 -6.336,3.498 -27.727,74.427 -98.04,107.699 -3.603,1.705 -1.793,-16.46 8.586,-38.641 8.858,-18.938 25.758,-30.592 23.078,-32.736 -4.359,-1.898 -23.658,18.235 -37.033,41.682 -8.024,14.07 -10.265,32.314 -16.1,39.362 -27.929,33.711 -19.747,80.438 -19.721,80.543 0,0 5.932,-26.057 18.376,-52.404 20.626,-11.539 93.532,-55.62 118.297,-114.676 35.486,49.662 125.591,94.332 201.855,102.364 16.768,29.844 24.703,64.716 24.703,64.716 3.48,-15.089 2.065,-32.349 -0.018,-45.83 z"
         id="path801" />
      <path
         style="fill:#822439"
         d="m 656.767,301.643 c 4.025,-1.881 -11.89,-39.81 -39.099,-66.614 -16.328,-16.082 -47.219,-32.771 -53.66,-30.618 -5.906,2.68 7.69,-1.793 47.948,40.074 32.718,34.028 42.394,58.503 44.811,57.158 z"
         id="path803" />
      <path
         style="fill:#d67b8c"
         d="m 405.154,189.234 c -15.247,1.801 -26.725,16.812 -38.29,31.76 -11.574,14.957 -11.802,28.913 11.68,12.462 23.472,-16.451 39.054,-45.69 26.61,-44.222 z"
         id="path805" />
      <path
         style="fill:#d67b8c"
         d="m 392.261,229.097 c 3.805,-3.331 16.821,-14.316 18.965,-11.451 2.144,2.865 -12.523,16.46 -17.532,16.821 -5.018,0.36 -4.298,-2.865 -1.433,-5.37 z"
         id="path807" />
      <path
         style="fill:#d67b8c"
         d="m 501.032,161.112 c 3.928,-1.09 32.92,-0.712 41.146,2.865 8.226,3.577 -1.793,12.883 -20.397,11.811 -18.605,-1.072 -33.632,-11.09 -20.749,-14.676 z"
         id="path809" />
      <path
         style="fill:#d67b8c"
         d="m 498.528,235.539 c 6.802,16.821 26.118,26.839 31.488,24.334 5.37,-2.505 -6.442,-12.523 -4.649,-15.74 1.793,-3.216 8.586,1.793 13.235,1.432 4.649,-0.36 2.259,-6.749 -2.144,-13.956 -3.937,-6.442 5.721,5.721 12.163,0 3.234,-2.874 -11.811,-16.46 -17.172,-13.595 -5.695,3.032 4.649,12.883 5.009,17.172 0.36,4.289 -20.951,-16.61 -22.902,-7.514 -1.072,5.009 3.867,8.314 2.144,8.586 -5.291,0.836 -20.714,-9.472 -17.172,-0.719 z"
         id="path811" />
      <path
         style="fill:#822439"
         d="m 462.03,195.105 c -1.459,-1.696 0.202,-9.562 7.874,-15.74 4.605,-3.709 14.316,-4.297 20.037,-1.432 1.722,0.861 -11.258,3.832 -16.46,8.226 -4.649,3.936 -9.306,11.45 -11.451,8.946 z"
         id="path813" />
      <path
         style="fill:#822439"
         d="m 464.175,198.33 c 3.041,-3.796 11.539,-5.967 12.163,-4.297 1.072,2.865 -8.946,11.451 -11.811,10.379 -2.857,-1.073 -1.785,-4.298 -0.352,-6.082 z"
         id="path815" />
    </g>
    <g
       id="mechones"
       style="display:inline"
       transform="matrix(3.7795276,0,0,3.7795276,62.876535,-207.29778)">
      <g
         id="g827"
         transform="matrix(0.26458333,0,0,0.26458333,-16.307033,-26.574243)">
        <path
           style="fill:#822439"
           d="m 675.628,393.607 c 1.382,21.418 24.332,38.064 21.346,56.795 -4.193,26.301 -27.063,21.727 -23.416,47.675 1.324,9.42 10.945,16.076 12.049,25.524 2.654,24.02 -41.846,24.988 -35.899,48.776 4.193,16.772 20.964,19.44 31.256,13.722 -19.281,-5.471 -27.14,-21.084 -9.937,-33.561 11.752,-8.012 41.102,-18.059 30.203,-32.528 -17.979,-23.867 -7.306,-38.733 7.911,-51.801 20.968,-18.005 22.338,-32.164 4.35,-46.271 -7.944,-6.234 -19.738,-13.005 -18.341,-24.712 2.204,-18.484 22.026,-16.198 21.602,-39.884 -0.218,-12.166 -3.39,-26.196 -20.541,-43.781 -2.654,-2.721 -4.704,27.512 -7.431,32.108 -1.36,2.293 -14.677,24.306 -13.152,47.938 z"
           id="path819" />
        <path
           style="fill:#a4425a"
           d="m 668.767,386.365 c -20.327,41.616 21.905,35.987 12.96,72.042 -5.394,14.398 -21.604,22.735 -20.366,40.052 0.977,9.462 10.945,16.076 12.049,25.524 2.654,24.02 -36.767,24.101 -30.563,47.823 3.24,12.388 13.784,14.772 24.011,16.729 -19.281,-5.471 -22.918,-22.929 -5.715,-35.407 11.753,-8.012 38.108,-17.779 27.89,-32.737 -22.553,-33.015 1.285,-48.393 7.911,-51.801 21.773,-9.03 22.337,-32.165 4.35,-46.271 -7.944,-6.234 -14.174,-14.254 -14.231,-26.044 -0.083,-16.96 19.234,-38.928 18.388,-54.132 -1.024,-18.385 -10.074,-38.329 -29.061,-55.646 -2.808,-2.561 -32.064,26.848 -30.113,28.207 38.88,27.064 26.286,60.431 22.49,71.661 z"
           id="path821" />
        <path
           style="fill:#a4425a"
           d="m 691.645,488.298 c 0.412,9.335 8.108,15.14 16.795,15.806 8.97,2.53 14.403,13.618 10.904,22.257 -6.291,14.939 -27.542,14.726 -36.395,27.276 -9.096,13.384 9.476,15.372 17.845,19.23 12.513,9.447 -4.587,15.727 -11.573,20.657 3.939,-3.098 9.837,-6.001 11.586,-10.814 -4.12,-6.782 -13.534,-7.846 -20.068,-11.283 -8.467,-8.541 -3.421,-21.506 6.224,-27.094 10.536,-6.228 29.248,-14.397 23.449,-29.504 -4.377,-9.152 -18.858,-9.035 -23.91,-17.833 -4.884,-11.941 -1.365,-29.512 10.548,-35.991 2.328,-1.811 8.647,-0.103 6.177,3.438 -6.45,6.224 -12.233,14.472 -11.582,23.855 z"
           id="path823" />
        <path
           style="fill:#822439"
           d="m 668.894,315.086 c -1.271,1.271 14.993,11.435 5.845,42.437 0.508,14.23 -4.326,28.394 -3.812,26.936 3.049,-8.64 17.28,-24.395 16.772,-41.421 -0.593,-19.852 -17.534,-29.223 -18.805,-27.952 z"
           id="path825" />
      </g>
      <g
         id="g837"
         transform="matrix(0.26458333,0,0,0.26458333,-16.307033,-26.574243)">
        <path
           style="fill:#822439"
           d="m 336.926,393.607 c -1.382,21.418 -24.332,38.064 -21.346,56.795 4.193,26.301 27.063,21.727 23.416,47.675 -1.324,9.42 -10.945,16.076 -12.049,25.524 -2.654,24.02 41.846,24.988 35.899,48.776 -4.193,16.772 -20.965,19.44 -31.256,13.722 19.281,-5.471 27.14,-21.084 9.936,-33.561 -11.752,-8.012 -41.102,-18.059 -30.203,-32.528 17.979,-23.867 7.306,-38.733 -7.911,-51.801 -20.968,-18.005 -22.337,-32.164 -4.35,-46.271 7.944,-6.234 19.738,-13.005 18.341,-24.712 -2.204,-18.484 -22.025,-16.198 -21.602,-39.884 0.218,-12.166 3.389,-26.196 20.541,-43.781 2.654,-2.721 4.704,27.512 7.431,32.108 1.361,2.293 14.678,24.306 13.153,47.938 z"
           id="path829" />
        <path
           style="fill:#a4425a"
           d="m 343.787,386.365 c 20.327,41.616 -21.905,35.987 -12.96,72.042 5.394,14.398 21.604,22.735 20.366,40.052 -0.977,9.462 -10.945,16.076 -12.049,25.524 -2.654,24.02 36.767,24.101 30.563,47.823 -3.24,12.388 -13.784,14.772 -24.011,16.729 19.281,-5.471 22.918,-22.929 5.714,-35.407 -11.752,-8.012 -38.108,-17.779 -27.89,-32.737 22.553,-33.015 -1.285,-48.393 -7.911,-51.801 -21.773,-9.03 -22.337,-32.165 -4.35,-46.271 7.944,-6.234 14.174,-14.254 14.231,-26.044 0.082,-16.96 -19.234,-38.928 -18.388,-54.132 1.024,-18.385 10.074,-38.329 29.061,-55.646 1.404,-1.281 9.42,5.431 16.841,12.633 -24.254,43.87 -13.013,76.005 -9.217,87.235 z"
           id="path831" />
        <path
           style="fill:#a4425a"
           d="m 321.9,488.9 c -0.412,9.335 -7.242,9.911 -17.786,15.203 -8.329,4.181 -14.403,13.618 -10.904,22.257 6.291,14.939 27.542,14.726 36.395,27.276 9.096,13.384 -9.476,15.372 -17.845,19.23 -12.513,9.447 4.587,15.727 11.573,20.657 -3.939,-3.098 -9.837,-6.001 -11.586,-10.814 4.12,-6.782 13.534,-7.846 20.067,-11.283 8.467,-8.541 3.421,-21.506 -6.224,-27.094 -10.536,-6.228 -29.248,-14.397 -23.449,-29.504 4.376,-9.152 22.427,-0.771 29.288,-16.399 8.236,-18.76 -6.003,-39.261 -17.915,-45.741 -2.328,-1.811 -11.94,3.17 -8.767,6.099 9.911,9.149 17.804,20.73 17.153,30.113 z"
           id="path833" />
        <path
           style="fill:#822439"
           d="m 343.66,315.086 c 1.271,1.271 -10.785,13.664 -6.285,39.914 0.75,14.625 4.767,30.917 4.252,29.459 -3.049,-8.64 -17.28,-24.395 -16.772,-41.421 0.593,-19.852 17.534,-29.223 18.805,-27.952 z"
           id="path835" />
      </g>
    </g>
    <g
       id="boca"
       transform="matrix(0.79827467,0,0,0.79827467,449.64504,147.47677)"
       style="display:inline"
       inkscape:export-filename="profe1.png"
       inkscape:export-xdpi="72.0241"
       inkscape:export-ydpi="72.0241">
      <path
         fill="#da6d7d"
         d="m 17.86,20.61 q -0.93,0.34 -1.12,1.12 -2.36,1.29 -3.88,4.21 -0.24,0.45 -0.23,-0.06 0.02,-1.88 0.67,-3.64 l 2.44,-5.98 q 2.46,-2.44 6.03,-0.31 0.99,0.59 0.1,1.33 z"
         id="path860-7" />
      <path
         fill="#da6d7d"
         d="m 127.06,20.91 q -0.17,0.12 -0.56,-0.19 -0.02,-0.29 -0.09,-0.51 -0.08,-0.27 -0.31,-0.44 -1.82,-1.35 -3.67,-2.45 a 0.68,0.68 0 0 1 -0.08,-1.11 c 2.72,-2.22 5.94,-1.56 7.44,1.65 q 1.73,3.7 2.56,7.56 0.12,0.54 -0.41,0.7 l -0.31,0.08 A 0.3,0.29 72.5 0 1 131.26,26 q -1.03,-3.4 -4.2,-5.09 z"
         id="path862-4" />
      <path
         fill="#e1add3"
         d="m 15.74,16.26 -2.44,5.98 q -0.27,-3.46 2.44,-5.98 z"
         id="path864-7" />
      <path
         fill="#ff9096"
         d="m 64.19,17.59 -16.92,1.46 q 8.37,-1.71 16.92,-1.46 z"
         id="path874-6" />
      <path
         fill="#d93f57"
         d="m 64.19,17.59 15.78,0.03 q 6.87,0.88 13.78,1.64 2.14,0.23 4.29,-0.07 l 24.2,2.36 -10.37,1.8 q -6.03,-0.96 -11.91,-0.29 -2.36,0.01 -4.66,-0.18 -2.81,-0.23 -4.63,-0.19 -8.45,0.18 -16.92,0.42 -2.21,0.06 -4.46,0.26 L 32.18,23.04 21.79,21.5 47.27,19.05 Z"
         id="path876" />
      <path
         fill="#ff9096"
         d="m 79.97,17.62 q 9.21,-0.4 18.07,1.57 -2.15,0.3 -4.29,0.07 -6.91,-0.76 -13.78,-1.64 z"
         id="path878" />
      <path
         fill="#721a44"
         d="m 17.86,20.61 3.93,0.89 10.39,1.54 q 9.67,4.65 19.23,6.1 20.67,4.91 41.86,-0.13 9.27,-2.08 18.6,-5.66 l 10.37,-1.8 4.26,-0.83 q 0.39,0.31 0.56,0.19 -0.37,1.12 -0.77,1.57 -2.5,2.06 -3.37,5.14 0.68,-0.29 0.05,0.08 l -0.57,0.24 a 1.62,1.58 5.5 0 0 -0.68,0.55 q -6.41,9.28 -13.33,13.16 -4.21,2.35 -6.12,3.92 -9.94,-9.29 -23.22,-9.81 c -2.35,-0.09 -4.59,0.25 -6.89,0.7 q -2.57,0.52 -5.36,-0.05 -5.75,-1.17 -12.56,-0.18 -0.28,0.04 -0.47,0.26 -0.11,0.13 -0.28,0.16 -8.18,1.43 -13.74,6.45 a 2,1.99 -46.4 0 1 -2.61,0.07 Q 35.72,42 34.02,41.5 27.2,36.18 21.4,28.68 l -4.66,-6.95 q 0.19,-0.78 1.12,-1.12 z"
         id="path886" />
      <path
         fill="#e1add3"
         d="m 126.29,22.48 q -0.51,2.99 -3.37,5.14 0.87,-3.08 3.37,-5.14 z"
         id="path894" />
      <path
         fill="#ffddeb"
         d="m 69.29,23.37 30.67,-0.31 q 5.88,-0.67 11.91,0.29 -9.33,3.58 -18.6,5.66 Q 91.29,29 84,30 69.41,32 51.41,29.14 41.85,27.69 32.18,23.04 Z"
         id="path896-4" />
      <path
         fill="#ff9096"
         d="m 99.96,23.06 -30.67,0.31 q 2.25,-0.2 4.46,-0.26 8.47,-0.24 16.92,-0.42 1.82,-0.04 4.63,0.19 2.3,0.19 4.66,0.18 z"
         id="path898" />
      <path
         fill="#ff6563"
         d="m 122.97,27.7 q -3.42,8.33 -8.52,15.57 l -4.24,5.88 q -6.61,7 -14.13,12.62 -2.31,0.83 -4.46,1.89 C 76.37,71.24 59.55,69.27 45.97,59.76 Q 45.16,59.19 42.41,56.78 40.67,55.25 38.65,54 C 37.44,52.57 35.91,51.37 34.78,50 Q 26.83,40.31 21.4,28.68 q 5.8,7.5 12.62,12.82 4.13,3.7 9.11,5.19 3.45,2.31 7.48,3.26 4.64,1.1 4.73,1.12 13.53,3.68 27.29,0.93 0.21,-0.04 5.32,-0.82 4.31,-0.66 8.13,-3.08 3.21,-0.35 6.19,-2.53 1.91,-1.57 6.12,-3.92 6.92,-3.88 13.33,-13.16 a 1.62,1.58 5.5 0 1 0.68,-0.55 z M 90.14,53.92 c 1.66,1.41 2.51,2.86 3.56,4.66 q 0.31,0.55 0.92,0.37 1,-0.29 1.9,-0.94 a 0.93,0.92 62.2 0 0 0.33,-1.08 Q 96.07,54.86 94.47,53.08 93.31,51.8 91.63,52.16 l -1.11,0.24 q -1.75,0.37 -0.38,1.52 z"
         id="path912-3" />
      <path
         fill="#e1add3"
         d="M 93.27,29.01 Q 72.08,34.05 51.41,29.14 69.41,32 84,30 q 7.29,-1 9.27,-0.99 z"
         id="path920-0" />
      <path
         fill="#bf273e"
         d="m 102.27,45.57 q -2.98,2.18 -6.19,2.53 -26.84,0.33 -52.95,-1.41 -4.98,-1.49 -9.11,-5.19 1.7,0.5 3.12,1.67 a 2,1.99 -46.4 0 0 2.61,-0.07 q 5.56,-5.02 13.74,-6.45 0.17,-0.03 0.28,-0.16 0.19,-0.22 0.47,-0.26 6.81,-0.99 12.56,0.18 2.79,0.57 5.36,0.05 c 2.3,-0.45 4.54,-0.79 6.89,-0.7 q 13.28,0.52 23.22,9.81 z"
         id="path936-9" />
      <path
         fill="#e1add3"
         d="m 114.45,43.27 q -0.05,1.35 -1.06,2.58 -1.47,1.76 -3.18,3.3 z"
         id="path940-6" />
      <path
         fill="#ffddeb"
         d="m 43.13,46.69 q 26.11,1.74 52.95,1.41 -3.82,2.42 -8.13,3.08 Q 82.84,51.96 82.63,52 68.87,54.75 55.34,51.07 55.25,51.05 50.61,49.95 46.58,49 43.13,46.69 Z"
         id="path948-2" />
      <path
         fill="#ff9096"
         d="m 93.7,58.58 c -1.05,-1.8 -1.9,-3.25 -3.56,-4.66 q -1.37,-1.15 0.38,-1.52 l 1.11,-0.24 q 1.68,-0.36 2.84,0.92 1.6,1.78 2.38,3.85 a 0.93,0.92 62.2 0 1 -0.33,1.08 q -0.9,0.65 -1.9,0.94 -0.61,0.18 -0.92,-0.37 z"
         id="path958" />
    </g>
  </g>
</svg>
