<?xml version="1.0" encoding="UTF-8" standalone="no"?>
<!DOCTYPE svg PUBLIC "-//W3C//DTD SVG 1.1//EN" "http://www.w3.org/Graphics/SVG/1.1/DTD/svg11.dtd">
<svg xmlns="http://www.w3.org/2000/svg" version="1.1" viewBox="0.00 0.00 128.00 128.00">
<g stroke-width="2.00" fill="none" stroke-linecap="butt">
<path stroke="#806760" vector-effect="non-scaling-stroke" d="
  M 97.92 85.95
  C 98.20 83.41 99.99 83.73 102.18 83.73"
/>
<path stroke="#80584f" vector-effect="non-scaling-stroke" d="
  M 102.18 83.73
  L 106.24 83.71
  Q 106.73 83.71 106.73 83.22
  L 106.73 46.20
  Q 106.73 45.62 106.16 45.61
  L 102.12 45.56"
/>
<path stroke="#806760" vector-effect="non-scaling-stroke" d="
  M 102.12 45.56
  Q 94.52 45.98 89.18 43.38
  Q 83.14 40.43 77.01 37.68
  Q 72.57 35.68 68.54 35.57
  Q 61.27 35.38 53.90 35.58
  Q 49.27 35.71 45.15 40.37
  Q 44.70 40.88 45.37 40.93
  Q 48.53 41.17 51.47 40.76
  C 52.86 40.57 53.69 39.08 55.10 39.33
  Q 55.96 39.48 56.37 40.29
  A 1.88 1.88 0.0 0 1 55.97 42.53
  Q 53.65 44.70 50.19 44.69
  Q 27.95 44.68 8.00 44.71
  C 5.06 44.71 3.28 47.61 3.89 50.33
  C 4.93 54.88 8.23 55.93 12.55 55.91
  Q 36.86 55.81 54.94 55.93
  C 61.59 55.97 65.06 61.52 69.23 65.85
  C 72.13 68.86 71.89 72.81 68.10 74.98
  C 64.06 77.29 60.17 79.99 55.48 79.82
  C 49.85 79.62 43.37 78.70 39.99 84.42
  C 38.22 87.41 39.55 91.33 43.25 91.52
  Q 54.45 92.08 64.71 92.47
  Q 68.01 92.59 71.26 91.31
  Q 78.41 88.51 85.96 85.65
  C 88.62 84.64 90.31 82.32 92.40 80.53
  A 1.53 1.52 -63.6 0 1 93.46 80.17
  Q 94.56 80.22 94.96 80.83
  Q 95.88 82.22 94.71 83.41
  L 92.21 85.95"
/>
<path stroke="#80584f" vector-effect="non-scaling-stroke" d="
  M 46.48 76.07
  Q 52.05 76.11 57.67 75.94
  Q 58.92 75.90 61.28 74.41
  Q 61.78 74.10 61.37 73.67
  L 55.77 67.80
  Q 55.29 67.30 54.91 67.87
  L 54.20 68.95
  Q 53.35 70.23 52.00 69.52
  L 51.75 69.39
  Q 50.26 68.61 51.03 67.11
  L 54.58 60.23
  Q 54.91 59.59 54.19 59.59
  L 38.77 59.59
  Q 38.31 59.59 38.15 60.02
  Q 37.15 62.66 37.80 64.94
  Q 38.13 66.10 40.46 68.13
  Q 42.96 70.31 42.64 72.58"
/>
<path stroke="#5a6d7f" vector-effect="non-scaling-stroke" d="
  M 119.98 89.17
  Q 122.08 89.42 123.47 89.03
  Q 124.25 88.81 124.25 88.00
  L 124.25 39.21
  A 0.97 0.97 0.0 0 0 123.29 38.24
  L 120.04 38.23"
/>
<path stroke="#677180" vector-effect="non-scaling-stroke" d="
  M 120.04 38.23
  L 111.44 38.24
  A 0.96 0.96 0.0 0 0 110.48 39.20
  L 110.48 88.22
  A 0.92 0.91 0.3 0 0 111.39 89.13
  L 119.98 89.17"
/>
<path stroke="#c0deff" vector-effect="non-scaling-stroke" d="
  M 120.04 38.23
  L 119.98 89.17"
/>
<path stroke="#80584f" vector-effect="non-scaling-stroke" d="
  M 64.87 71.90
  A 0.87 0.87 0.0 0 0 66.12 71.91
  L 67.34 70.67
  A 0.87 0.87 0.0 0 0 67.37 69.47
  L 59.66 61.11
  A 0.87 0.87 0.0 0 0 58.25 61.29
  L 57.28 63.09
  A 0.87 0.87 0.0 0 0 57.42 64.11
  L 64.87 71.90"
/>
<path stroke="#ffbfaf" vector-effect="non-scaling-stroke" d="
  M 102.12 45.56
  L 102.18 83.73"
/>
<path stroke="#677180" vector-effect="non-scaling-stroke" d="
  M 119.12 81.86
  A 1.81 1.81 0.0 0 0 117.31 80.05
  A 1.81 1.81 0.0 0 0 115.50 81.86
  A 1.81 1.81 0.0 0 0 117.31 83.67
  A 1.81 1.81 0.0 0 0 119.12 81.86"
/>
</g>
<path fill="#000000" d="
  M 128.00 38.54
  L 128.00 88.98
  Q 126.53 92.90 121.50 92.94
  Q 117.18 92.98 113.43 92.98
  C 109.78 92.98 107.10 91.87 106.71 88.08
  Q 106.65 87.55 106.12 87.53
  Q 103.00 87.43 99.75 87.54
  Q 98.59 87.58 97.92 85.95
  C 98.20 83.41 99.99 83.73 102.18 83.73
  L 106.24 83.71
  Q 106.73 83.71 106.73 83.22
  L 106.73 46.20
  Q 106.73 45.62 106.16 45.61
  L 102.12 45.56
  Q 94.52 45.98 89.18 43.38
  Q 83.14 40.43 77.01 37.68
  Q 72.57 35.68 68.54 35.57
  Q 61.27 35.38 53.90 35.58
  Q 49.27 35.71 45.15 40.37
  Q 44.70 40.88 45.37 40.93
  Q 48.53 41.17 51.47 40.76
  C 52.86 40.57 53.69 39.08 55.10 39.33
  Q 55.96 39.48 56.37 40.29
  A 1.88 1.88 0.0 0 1 55.97 42.53
  Q 53.65 44.70 50.19 44.69
  Q 27.95 44.68 8.00 44.71
  C 5.06 44.71 3.28 47.61 3.89 50.33
  C 4.93 54.88 8.23 55.93 12.55 55.91
  Q 36.86 55.81 54.94 55.93
  C 61.59 55.97 65.06 61.52 69.23 65.85
  C 72.13 68.86 71.89 72.81 68.10 74.98
  C 64.06 77.29 60.17 79.99 55.48 79.82
  C 49.85 79.62 43.37 78.70 39.99 84.42
  C 38.22 87.41 39.55 91.33 43.25 91.52
  Q 54.45 92.08 64.71 92.47
  Q 68.01 92.59 71.26 91.31
  Q 78.41 88.51 85.96 85.65
  C 88.62 84.64 90.31 82.32 92.40 80.53
  A 1.53 1.52 -63.6 0 1 93.46 80.17
  Q 94.56 80.22 94.96 80.83
  Q 95.88 82.22 94.71 83.41
  L 92.21 85.95
  C 90.98 86.86 90.25 87.94 88.77 88.54
  Q 80.07 92.03 72.25 94.96
  Q 68.47 96.37 64.72 96.22
  Q 54.80 95.80 44.59 95.39
  Q 41.14 95.25 39.18 93.98
  C 35.36 91.49 34.34 86.83 36.62 82.82
  Q 39.85 77.12 46.48 76.07
  Q 52.05 76.11 57.67 75.94
  Q 58.92 75.90 61.28 74.41
  Q 61.78 74.10 61.37 73.67
  L 55.77 67.80
  Q 55.29 67.30 54.91 67.87
  L 54.20 68.95
  Q 53.35 70.23 52.00 69.52
  L 51.75 69.39
  Q 50.26 68.61 51.03 67.11
  L 54.58 60.23
  Q 54.91 59.59 54.19 59.59
  L 38.77 59.59
  Q 38.31 59.59 38.15 60.02
  Q 37.15 62.66 37.80 64.94
  Q 38.13 66.10 40.46 68.13
  Q 42.96 70.31 42.64 72.58
  Q 40.72 73.75 39.44 72.61
  C 35.80 69.34 32.34 65.99 34.23 60.40
  Q 34.49 59.61 33.66 59.60
  Q 24.29 59.48 13.91 59.68
  C 6.72 59.82 1.62 57.90 0.00 50.37
  L 0.00 47.78
  C 1.16 43.28 4.39 40.87 9.02 40.91
  Q 24.05 41.02 38.59 40.93
  A 1.59 1.59 0.0 0 0 39.74 40.44
  C 44.16 35.98 47.56 31.98 54.38 31.82
  Q 61.90 31.63 68.66 31.81
  C 75.73 32.00 83.70 36.50 89.95 39.60
  Q 96.03 42.62 106.20 41.74
  Q 106.92 41.68 106.80 40.97
  C 106.19 37.24 108.43 34.30 112.25 34.37
  Q 117.85 34.48 122.91 34.40
  C 125.43 34.35 127.32 36.15 128.00 38.54
  Z
  M 119.98 89.17
  Q 122.08 89.42 123.47 89.03
  Q 124.25 88.81 124.25 88.00
  L 124.25 39.21
  A 0.97 0.97 0.0 0 0 123.29 38.24
  L 120.04 38.23
  L 111.44 38.24
  A 0.96 0.96 0.0 0 0 110.48 39.20
  L 110.48 88.22
  A 0.92 0.91 0.3 0 0 111.39 89.13
  L 119.98 89.17
  Z
  M 64.87 71.90
  A 0.87 0.87 0.0 0 0 66.12 71.91
  L 67.34 70.67
  A 0.87 0.87 0.0 0 0 67.37 69.47
  L 59.66 61.11
  A 0.87 0.87 0.0 0 0 58.25 61.29
  L 57.28 63.09
  A 0.87 0.87 0.0 0 0 57.42 64.11
  L 64.87 71.90
  Z"
/>
<path fill="#ffcebf" d="
  M 102.12 45.56
  L 102.18 83.73
  C 99.99 83.73 98.20 83.41 97.92 85.95
  L 92.21 85.95
  L 94.71 83.41
  Q 95.88 82.22 94.96 80.83
  Q 94.56 80.22 93.46 80.17
  A 1.53 1.52 -63.6 0 0 92.40 80.53
  C 90.31 82.32 88.62 84.64 85.96 85.65
  Q 78.41 88.51 71.26 91.31
  Q 68.01 92.59 64.71 92.47
  Q 54.45 92.08 43.25 91.52
  C 39.55 91.33 38.22 87.41 39.99 84.42
  C 43.37 78.70 49.85 79.62 55.48 79.82
  C 60.17 79.99 64.06 77.29 68.10 74.98
  C 71.89 72.81 72.13 68.86 69.23 65.85
  C 65.06 61.52 61.59 55.97 54.94 55.93
  Q 36.86 55.81 12.55 55.91
  C 8.23 55.93 4.93 54.88 3.89 50.33
  C 3.28 47.61 5.06 44.71 8.00 44.71
  Q 27.95 44.68 50.19 44.69
  Q 53.65 44.70 55.97 42.53
  A 1.88 1.88 0.0 0 0 56.37 40.29
  Q 55.96 39.48 55.10 39.33
  C 53.69 39.08 52.86 40.57 51.47 40.76
  Q 48.53 41.17 45.37 40.93
  Q 44.70 40.88 45.15 40.37
  Q 49.27 35.71 53.90 35.58
  Q 61.27 35.38 68.54 35.57
  Q 72.57 35.68 77.01 37.68
  Q 83.14 40.43 89.18 43.38
  Q 94.52 45.98 102.12 45.56
  Z"
/>
<path fill="#cde2ff" d="
  M 120.04 38.23
  L 119.98 89.17
  L 111.39 89.13
  A 0.92 0.91 0.3 0 1 110.48 88.22
  L 110.48 39.20
  A 0.96 0.96 0.0 0 1 111.44 38.24
  L 120.04 38.23
  Z
  M 119.12 81.86
  A 1.81 1.81 0.0 0 0 117.31 80.05
  A 1.81 1.81 0.0 0 0 115.50 81.86
  A 1.81 1.81 0.0 0 0 117.31 83.67
  A 1.81 1.81 0.0 0 0 119.12 81.86
  Z"
/>
<path fill="#b3dafe" d="
  M 120.04 38.23
  L 123.29 38.24
  A 0.97 0.97 0.0 0 1 124.25 39.21
  L 124.25 88.00
  Q 124.25 88.81 123.47 89.03
  Q 122.08 89.42 119.98 89.17
  L 120.04 38.23
  Z"
/>
<path fill="#ffb09e" d="
  M 102.12 45.56
  L 106.16 45.61
  Q 106.73 45.62 106.73 46.20
  L 106.73 83.22
  Q 106.73 83.71 106.24 83.71
  L 102.18 83.73
  L 102.12 45.56
  Z"
/>
<path fill="#ffb09e" d="
  M 46.48 76.07
  L 42.64 72.58
  Q 42.96 70.31 40.46 68.13
  Q 38.13 66.10 37.80 64.94
  Q 37.15 62.66 38.15 60.02
  Q 38.31 59.59 38.77 59.59
  L 54.19 59.59
  Q 54.91 59.59 54.58 60.23
  L 51.03 67.11
  Q 50.26 68.61 51.75 69.39
  L 52.00 69.52
  Q 53.35 70.23 54.20 68.95
  L 54.91 67.87
  Q 55.29 67.30 55.77 67.80
  L 61.37 73.67
  Q 61.78 74.10 61.28 74.41
  Q 58.92 75.90 57.67 75.94
  Q 52.05 76.11 46.48 76.07
  Z"
/>
<path fill="#ffb09e" d="
  M 64.87 71.90
  L 57.42 64.11
  A 0.87 0.87 0.0 0 1 57.28 63.09
  L 58.25 61.29
  A 0.87 0.87 0.0 0 1 59.66 61.11
  L 67.37 69.47
  A 0.87 0.87 0.0 0 1 67.34 70.67
  L 66.12 71.91
  A 0.87 0.87 0.0 0 1 64.87 71.90
  Z"
/>
<circle fill="#000000" cx="117.31" cy="81.86" r="1.81"/>
</svg>
