<?xml version="1.0" encoding="UTF-8" standalone="no"?>
<!DOCTYPE svg PUBLIC "-//W3C//DTD SVG 1.1//EN" "http://www.w3.org/Graphics/SVG/1.1/DTD/svg11.dtd">
<svg xmlns="http://www.w3.org/2000/svg" version="1.1" viewBox="0 0 1500 843">
<g stroke-width="2.00" fill="none" stroke-linecap="butt">
<path stroke="#7b6f17" vector-effect="non-scaling-stroke" d="
  M 36.06 0.00
  L 1.73 44.10
  A 1.05 0.99 7.5 0 1 1.30 44.41
  L 1.04 44.50"
/>
<path stroke="#7b6f17" vector-effect="non-scaling-stroke" d="
  M 171.31 0.00
  L 57.37 144.00
  A 0.99 0.96 18.6 0 1 56.60 144.37
  L 1.29 143.96
  A 0.28 0.27 -84.0 0 0 1.01 144.19
  L 0.96 144.50"
/>
<path stroke="#7b6f17" vector-effect="non-scaling-stroke" d="
  M 316.06 0.00
  L 205.53 141.92
  Q 204.38 143.39 206.24 143.40
  L 336.50 144.37
  A 0.92 0.91 19.4 0 0 337.24 144.02
  L 451.06 0.00"
/>
<path stroke="#7b6f17" vector-effect="non-scaling-stroke" d="
  M 593.39 0.06
  L 482.24 142.97
  Q 481.92 143.37 482.43 143.38
  L 614.02 144.37
  A 1.14 1.13 19.1 0 0 614.91 143.94
  Q 670.98 73.09 726.98 2.24
  Q 727.84 1.16 728.56 0.00"
/>
<path stroke="#7b6f17" vector-effect="non-scaling-stroke" d="
  M 871.06 0.00
  L 760.04 142.59
  A 0.30 0.29 -65.9 0 0 760.22 143.07
  Q 762.72 143.47 765.26 143.49
  Q 828.32 143.83 891.48 144.44
  A 1.04 1.03 19.2 0 0 892.29 144.05
  Q 948.18 73.58 1003.97 2.95
  Q 1005.52 0.99 1006.06 0.00"
/>
<path stroke="#7b6f17" vector-effect="non-scaling-stroke" d="
  M 1148.56 0.00
  L 1037.55 142.60
  Q 1037.24 143.00 1037.74 143.06
  Q 1041.23 143.44 1044.76 143.47
  Q 1106.80 143.87 1168.99 144.44
  A 1.03 1.01 -70.4 0 0 1169.79 144.05
  L 1283.81 0.00"
/>
<path stroke="#7b6f17" vector-effect="non-scaling-stroke" d="
  M 1426.06 0.00
  L 1315.05 142.61
  Q 1314.74 143.02 1315.25 143.07
  Q 1318.32 143.37 1323.50 143.41
  Q 1384.71 143.97 1446.56 144.33
  A 1.30 1.30 0.0 0 0 1447.57 143.85
  L 1497.35 80.90
  A 0.44 0.41 -68.5 0 1 1497.67 80.75
  L 1497.96 80.75"
/>
<path stroke="#7b6f17" vector-effect="non-scaling-stroke" d="
  M 1497.96 156.96
  Q 750.39 157.03 2.81 156.81
  Q 1.93 156.81 1.04 156.75"
/>
<path stroke="#7b6f17" vector-effect="non-scaling-stroke" d="
  M 1497.71 167.00
  C 1476.04 167.39 1454.36 167.23 1432.75 167.25
  C 1076.12 167.46 699.14 167.20 332.06 167.30
  C 221.72 167.32 111.37 167.54 1.02 167.05"
/>
<path stroke="#7b6f17" vector-effect="non-scaling-stroke" d="
  M 1497.99 675.30
  Q 1456.86 676.54 1443.06 675.70
  C 1435.71 675.25 1428.37 675.70 1421.00 675.69
  Q 1291.09 675.54 1161.17 675.83
  A 0.15 0.09 78.9 0 1 1161.07 675.72
  L 1161.00 675.48
  A 0.11 0.10 82.8 0 0 1160.90 675.40
  C 833.47 676.11 506.00 675.95 178.56 675.50
  C 130.41 675.43 82.27 675.93 34.11 675.53
  C 25.48 675.45 13.75 676.01 3.52 675.63
  A 0.50 0.50 0.0 0 0 3.00 676.13
  L 3.00 685.01
  A 0.83 0.83 0.0 0 0 3.84 685.84
  C 106.29 685.61 208.66 685.66 311.06 685.67
  C 545.53 685.70 779.98 685.76 1014.44 685.65
  C 1103.63 685.61 1192.83 685.63 1282.02 685.78
  C 1331.49 685.87 1380.96 685.70 1430.43 685.87
  C 1452.95 685.94 1475.43 685.57 1497.96 686.00"
/>
<path stroke="#7b6f17" vector-effect="non-scaling-stroke" d="
  M 1497.96 698.75
  C 1474.26 698.25 1450.60 698.39 1426.76 698.51
  A 1.03 1.02 -70.8 0 0 1425.95 698.91
  L 1314.47 841.73"
/>
<path stroke="#7b6f17" vector-effect="non-scaling-stroke" d="
  M 1170.75 841.71
  L 1283.51 699.11
  Q 1284.00 698.50 1283.22 698.50
  L 1149.52 698.50
  A 1.63 1.61 -70.8 0 0 1148.24 699.13
  Q 1092.87 770.22 1037.52 841.26
  Q 1037.20 841.67 1036.50 841.54"
/>
<path stroke="#7b6f17" vector-effect="non-scaling-stroke" d="
  M 893.35 841.52
  L 1005.87 699.22
  Q 1006.43 698.50 1005.52 698.50
  L 871.73 698.50
  A 1.10 1.07 -70.3 0 0 870.88 698.92
  L 760.15 841.07
  A 1.21 1.21 0.0 0 1 759.62 841.46
  Q 759.40 841.54 759.25 841.73"
/>
<path stroke="#7b6f17" vector-effect="non-scaling-stroke" d="
  M 615.75 841.71
  L 728.48 699.10
  Q 728.92 698.55 728.22 698.55
  Q 666.59 698.35 604.75 698.66
  C 602.18 698.68 597.61 698.27 594.00 698.68
  A 1.26 1.23 -73.6 0 0 593.18 699.14
  Q 537.95 770.05 482.70 840.95
  Q 482.33 841.43 481.75 841.54"
/>
<path stroke="#7b6f17" vector-effect="non-scaling-stroke" d="
  M 338.25 841.71
  L 450.98 699.09
  Q 451.45 698.50 450.70 698.50
  L 316.65 698.50
  A 1.02 1.00 18.4 0 0 315.85 698.89
  L 204.99 841.22
  A 0.76 0.76 0.0 0 1 204.52 841.50
  L 204.25 841.54"
/>
<path stroke="#7b6f17" vector-effect="non-scaling-stroke" d="
  M 58.36 841.53
  L 171.19 698.83
  Q 171.45 698.50 171.03 698.50
  L 36.76 698.50
  A 1.03 1.01 -70.4 0 0 35.96 698.89
  L 1.04 743.50"
/>
<path stroke="#7b6f17" vector-effect="non-scaling-stroke" d="
  M 1497.77 779.58
  L 1448.61 841.12
  A 0.56 0.50 66.4 0 0 1448.50 841.45
  L 1448.50 841.71"
/>
</g>
<path fill="#f6de2d" d="
  M 1.31 0.00
  L 36.06 0.00
  L 1.73 44.10
  A 1.05 0.99 7.5 0 1 1.30 44.41
  L 1.04 44.50
  Q 1.02 22.76 1.00 1.03
  C 1.00 0.32 1.09 0.52 1.31 0.00
  Z"
/>
<path fill="#000000" d="
  M 36.06 0.00
  L 171.31 0.00
  L 57.37 144.00
  A 0.99 0.96 18.6 0 1 56.60 144.37
  L 1.29 143.96
  A 0.28 0.27 -84.0 0 0 1.01 144.19
  L 0.96 144.50
  L 0.00 143.19
  L 0.00 46.44
  L 1.04 44.50
  L 1.30 44.41
  A 1.05 0.99 7.5 0 0 1.73 44.10
  L 36.06 0.00
  Z"
/>
<path fill="#f6de2d" d="
  M 171.31 0.00
  L 316.06 0.00
  L 205.53 141.92
  Q 204.38 143.39 206.24 143.40
  L 336.50 144.37
  A 0.92 0.91 19.4 0 0 337.24 144.02
  L 451.06 0.00
  L 593.39 0.06
  L 482.24 142.97
  Q 481.92 143.37 482.43 143.38
  L 614.02 144.37
  A 1.14 1.13 19.1 0 0 614.91 143.94
  Q 670.98 73.09 726.98 2.24
  Q 727.84 1.16 728.56 0.00
  L 871.06 0.00
  L 760.04 142.59
  A 0.30 0.29 -65.9 0 0 760.22 143.07
  Q 762.72 143.47 765.26 143.49
  Q 828.32 143.83 891.48 144.44
  A 1.04 1.03 19.2 0 0 892.29 144.05
  Q 948.18 73.58 1003.97 2.95
  Q 1005.52 0.99 1006.06 0.00
  L 1148.56 0.00
  L 1037.55 142.60
  Q 1037.24 143.00 1037.74 143.06
  Q 1041.23 143.44 1044.76 143.47
  Q 1106.80 143.87 1168.99 144.44
  A 1.03 1.01 -70.4 0 0 1169.79 144.05
  L 1283.81 0.00
  L 1426.06 0.00
  L 1315.05 142.61
  Q 1314.74 143.02 1315.25 143.07
  Q 1318.32 143.37 1323.50 143.41
  Q 1384.71 143.97 1446.56 144.33
  A 1.30 1.30 0.0 0 0 1447.57 143.85
  L 1497.35 80.90
  A 0.44 0.41 -68.5 0 1 1497.67 80.75
  L 1497.96 80.75
  L 1497.96 156.96
  Q 750.39 157.03 2.81 156.81
  Q 1.93 156.81 1.04 156.75
  L 0.96 144.50
  L 1.01 144.19
  A 0.28 0.27 -84.0 0 1 1.29 143.96
  L 56.60 144.37
  A 0.99 0.96 18.6 0 0 57.37 144.00
  L 171.31 0.00
  Z"
/>
<path fill="#000000" d="
  M 316.06 0.00
  L 451.06 0.00
  L 337.24 144.02
  A 0.92 0.91 19.4 0 1 336.50 144.37
  L 206.24 143.40
  Q 204.38 143.39 205.53 141.92
  L 316.06 0.00
  Z"
/>
<path fill="#000000" d="
  M 593.39 0.06
  L 728.56 0.00
  Q 727.84 1.16 726.98 2.24
  Q 670.98 73.09 614.91 143.94
  A 1.14 1.13 19.1 0 1 614.02 144.37
  L 482.43 143.38
  Q 481.92 143.37 482.24 142.97
  L 593.39 0.06
  Z"
/>
<path fill="#000000" d="
  M 871.06 0.00
  L 1006.06 0.00
  Q 1005.52 0.99 1003.97 2.95
  Q 948.18 73.58 892.29 144.05
  A 1.04 1.03 19.2 0 1 891.48 144.44
  Q 828.32 143.83 765.26 143.49
  Q 762.72 143.47 760.22 143.07
  A 0.30 0.29 -65.9 0 1 760.04 142.59
  L 871.06 0.00
  Z"
/>
<path fill="#000000" d="
  M 1148.56 0.00
  L 1283.81 0.00
  L 1169.79 144.05
  A 1.03 1.01 -70.4 0 1 1168.99 144.44
  Q 1106.80 143.87 1044.76 143.47
  Q 1041.23 143.44 1037.74 143.06
  Q 1037.24 143.00 1037.55 142.60
  L 1148.56 0.00
  Z"
/>
<path fill="#000000" d="
  M 1426.06 0.00
  L 1497.81 0.00
  L 1497.96 80.75
  L 1497.67 80.75
  A 0.44 0.41 -68.5 0 0 1497.35 80.90
  L 1447.57 143.85
  A 1.30 1.30 0.0 0 1 1446.56 144.33
  Q 1384.71 143.97 1323.50 143.41
  Q 1318.32 143.37 1315.25 143.07
  Q 1314.74 143.02 1315.05 142.61
  L 1426.06 0.00
  Z"
/>
<path fill="#000000" d="
  M 1497.96 156.96
  L 1497.71 167.00
  C 1476.04 167.39 1454.36 167.23 1432.75 167.25
  C 1076.12 167.46 699.14 167.20 332.06 167.30
  C 221.72 167.32 111.37 167.54 1.02 167.05
  L 1.04 156.75
  Q 1.93 156.81 2.81 156.81
  Q 750.39 157.03 1497.96 156.96
  Z"
/>
<path fill="#f6de2d" d="
  M 1.02 167.05
  C 111.37 167.54 221.72 167.32 332.06 167.30
  C 699.14 167.20 1076.12 167.46 1432.75 167.25
  C 1454.36 167.23 1476.04 167.39 1497.71 167.00
  C 1497.89 167.23 1498.00 167.37 1498.00 167.69
  Q 1498.01 421.43 1497.99 675.30
  Q 1456.86 676.54 1443.06 675.70
  C 1435.71 675.25 1428.37 675.70 1421.00 675.69
  Q 1291.09 675.54 1161.17 675.83
  A 0.15 0.09 78.9 0 1 1161.07 675.72
  L 1161.00 675.48
  A 0.11 0.10 82.8 0 0 1160.90 675.40
  C 833.47 676.11 506.00 675.95 178.56 675.50
  C 130.41 675.43 82.27 675.93 34.11 675.53
  C 25.48 675.45 13.75 676.01 3.52 675.63
  A 0.50 0.50 0.0 0 0 3.00 676.13
  L 3.00 685.01
  A 0.83 0.83 0.0 0 0 3.84 685.84
  C 106.29 685.61 208.66 685.66 311.06 685.67
  C 545.53 685.70 779.98 685.76 1014.44 685.65
  C 1103.63 685.61 1192.83 685.63 1282.02 685.78
  C 1331.49 685.87 1380.96 685.70 1430.43 685.87
  C 1452.95 685.94 1475.43 685.57 1497.96 686.00
  L 1497.96 698.75
  C 1474.26 698.25 1450.60 698.39 1426.76 698.51
  A 1.03 1.02 -70.8 0 0 1425.95 698.91
  L 1314.47 841.73
  Q 1242.33 841.17 1170.75 841.71
  L 1283.51 699.11
  Q 1284.00 698.50 1283.22 698.50
  L 1149.52 698.50
  A 1.63 1.61 -70.8 0 0 1148.24 699.13
  Q 1092.87 770.22 1037.52 841.26
  Q 1037.20 841.67 1036.50 841.54
  L 893.35 841.52
  L 1005.87 699.22
  Q 1006.43 698.50 1005.52 698.50
  L 871.73 698.50
  A 1.10 1.07 -70.3 0 0 870.88 698.92
  L 760.15 841.07
  A 1.21 1.21 0.0 0 1 759.62 841.46
  Q 759.40 841.54 759.25 841.73
  Q 687.50 841.17 615.75 841.71
  L 728.48 699.10
  Q 728.92 698.55 728.22 698.55
  Q 666.59 698.35 604.75 698.66
  C 602.18 698.68 597.61 698.27 594.00 698.68
  A 1.26 1.23 -73.6 0 0 593.18 699.14
  Q 537.95 770.05 482.70 840.95
  Q 482.33 841.43 481.75 841.54
  L 338.25 841.71
  L 450.98 699.09
  Q 451.45 698.50 450.70 698.50
  L 316.65 698.50
  A 1.02 1.00 18.4 0 0 315.85 698.89
  L 204.99 841.22
  A 0.76 0.76 0.0 0 1 204.52 841.50
  L 204.25 841.54
  L 58.36 841.53
  L 171.19 698.83
  Q 171.45 698.50 171.03 698.50
  L 36.76 698.50
  A 1.03 1.01 -70.4 0 0 35.96 698.89
  L 1.04 743.50
  L 1.02 167.05
  Z"
/>
<path fill="#000000" d="
  M 1497.99 675.30
  Q 1498.72 675.86 1500.00 675.81
  L 1500.00 685.81
  L 1497.96 686.00
  C 1475.43 685.57 1452.95 685.94 1430.43 685.87
  C 1380.96 685.70 1331.49 685.87 1282.02 685.78
  C 1192.83 685.63 1103.63 685.61 1014.44 685.65
  C 779.98 685.76 545.53 685.70 311.06 685.67
  C 208.66 685.66 106.29 685.61 3.84 685.84
  A 0.83 0.83 0.0 0 1 3.00 685.01
  L 3.00 676.13
  A 0.50 0.50 0.0 0 1 3.52 675.63
  C 13.75 676.01 25.48 675.45 34.11 675.53
  C 82.27 675.93 130.41 675.43 178.56 675.50
  C 506.00 675.95 833.47 676.11 1160.90 675.40
  A 0.11 0.10 82.8 0 1 1161.00 675.48
  L 1161.07 675.72
  A 0.15 0.09 78.9 0 0 1161.17 675.83
  Q 1291.09 675.54 1421.00 675.69
  C 1428.37 675.70 1435.71 675.25 1443.06 675.70
  Q 1456.86 676.54 1497.99 675.30
  Z"
/>
<path fill="#000000" d="
  M 58.36 841.53
  L 56.69 843.00
  L 43.69 843.00
  L 0.00 842.29
  L 0.00 745.19
  L 1.04 743.50
  L 35.96 698.89
  A 1.03 1.01 -70.4 0 1 36.76 698.50
  L 171.03 698.50
  Q 171.45 698.50 171.19 698.83
  L 58.36 841.53
  Z"
/>
<path fill="#000000" d="
  M 338.25 841.71
  L 336.69 843.00
  L 323.69 843.00
  L 323.69 842.91
  A 0.10 0.09 90.0 0 0 323.60 842.81
  Q 264.46 842.52 205.32 841.78
  Q 204.76 841.77 204.25 841.54
  L 204.52 841.50
  A 0.76 0.76 0.0 0 0 204.99 841.22
  L 315.85 698.89
  A 1.02 1.00 18.4 0 1 316.65 698.50
  L 450.70 698.50
  Q 451.45 698.50 450.98 699.09
  L 338.25 841.71
  Z"
/>
<path fill="#000000" d="
  M 615.75 841.71
  L 614.19 843.00
  L 601.19 843.00
  L 601.19 842.91
  A 0.10 0.09 90.0 0 0 601.10 842.81
  Q 541.96 842.51 482.82 841.78
  Q 482.26 841.77 481.75 841.54
  Q 482.33 841.43 482.70 840.95
  Q 537.95 770.05 593.18 699.14
  A 1.26 1.23 -73.6 0 1 594.00 698.68
  C 597.61 698.27 602.18 698.68 604.75 698.66
  Q 666.59 698.35 728.22 698.55
  Q 728.92 698.55 728.48 699.10
  L 615.75 841.71
  Z"
/>
<path fill="#000000" d="
  M 893.35 841.52
  L 891.69 843.00
  L 878.69 843.00
  L 878.69 842.91
  A 0.10 0.10 0.0 0 0 878.60 842.81
  L 759.25 841.73
  Q 759.40 841.54 759.62 841.46
  A 1.21 1.21 0.0 0 0 760.15 841.07
  L 870.88 698.92
  A 1.10 1.07 -70.3 0 1 871.73 698.50
  L 1005.52 698.50
  Q 1006.43 698.50 1005.87 699.22
  L 893.35 841.52
  Z"
/>
<path fill="#000000" d="
  M 1170.75 841.71
  L 1169.19 843.00
  L 1156.19 843.00
  L 1156.19 842.91
  A 0.09 0.09 0.0 0 0 1156.10 842.82
  Q 1096.83 842.50 1037.57 841.78
  Q 1037.01 841.77 1036.50 841.54
  Q 1037.20 841.67 1037.52 841.26
  Q 1092.87 770.22 1148.24 699.13
  A 1.63 1.61 -70.8 0 1 1149.52 698.50
  L 1283.22 698.50
  Q 1284.00 698.50 1283.51 699.11
  L 1170.75 841.71
  Z"
/>
<path fill="#000000" d="
  M 1497.96 698.75
  L 1497.77 779.58
  L 1448.61 841.12
  A 0.56 0.50 66.4 0 0 1448.50 841.45
  L 1448.50 841.71
  L 1446.69 843.00
  L 1433.69 843.00
  Q 1374.97 842.34 1316.25 842.00
  Q 1315.48 842.00 1314.47 841.73
  L 1425.95 698.91
  A 1.03 1.02 -70.8 0 1 1426.76 698.51
  C 1450.60 698.39 1474.26 698.25 1497.96 698.75
  Z"
/>
<path fill="#f6de2d" d="
  M 1497.77 779.58
  L 1497.99 840.55
  A 1.05 1.04 -90.0 0 1 1496.95 841.60
  L 1448.50 841.71
  L 1448.50 841.45
  A 0.56 0.50 66.4 0 1 1448.61 841.12
  L 1497.77 779.58
  Z"
/>
</svg>
