<?xml version="1.0" encoding="UTF-8" standalone="no"?>
<!DOCTYPE svg PUBLIC "-//W3C//DTD SVG 1.1//EN" "http://www.w3.org/Graphics/SVG/1.1/DTD/svg11.dtd">
<svg xmlns="http://www.w3.org/2000/svg" version="1.1" viewBox="0 0 500 937">
<g stroke-width="2.00" fill="none" stroke-linecap="butt">
<path stroke="#a9a462" vector-effect="non-scaling-stroke" d="
  M 443.23 227.16
  Q 440.09 222.64 434.40 222.42"
/>
<path stroke="#3f557f" vector-effect="non-scaling-stroke" d="
  M 434.40 222.42
  Q 435.48 215.74 434.94 208.72
  A 2.57 2.57 0.0 0 0 433.86 206.81
  C 363.14 157.27 270.06 144.23 186.25 158.04
  C 141.86 165.35 99.25 181.14 62.37 207.19
  A 0.99 0.97 72.7 0 0 61.96 207.99
  L 62.07 222.42"
/>
<path stroke="#a9a462" vector-effect="non-scaling-stroke" d="
  M 62.07 222.42
  Q 56.68 222.61 53.25 227.29"
/>
<path stroke="#a9a462" vector-effect="non-scaling-stroke" d="
  M 275.54 41.98
  C 255.86 48.85 238.79 49.24 219.29 41.77
  Q 217.14 40.94 216.39 43.12
  C 215.33 46.22 216.40 49.10 217.97 52.38
  C 222.58 62.06 214.20 80.95 210.78 90.80
  C 210.01 93.04 208.99 97.87 209.60 100.79
  C 211.78 111.25 227.33 120.55 236.54 124.70
  C 243.50 127.84 250.12 127.95 257.06 125.31
  Q 272.10 119.57 282.32 107.84
  Q 287.82 101.53 285.33 93.44
  C 282.93 85.62 272.96 59.88 276.62 54.21
  C 278.19 51.78 280.98 45.30 278.76 42.74
  Q 277.49 41.30 275.54 41.98"
/>
<path stroke="#958d45" vector-effect="non-scaling-stroke" d="
  M 434.40 222.42
  C 418.72 225.08 421.12 252.67 435.00 252.04"
/>
<path stroke="#323b4d" vector-effect="non-scaling-stroke" d="
  M 433.71 268.50
  L 433.41 268.41
  A 0.65 0.64 -55.4 0 0 432.84 268.52
  L 429.01 271.35"
/>
<path stroke="#392e31" vector-effect="non-scaling-stroke" d="
  M 429.01 271.35
  Q 411.66 282.35 393.15 291.71"
/>
<path stroke="#323b4d" vector-effect="non-scaling-stroke" d="
  M 393.15 291.71
  Q 390.76 292.04 388.71 293.75"
/>
<path stroke="#938a95" vector-effect="non-scaling-stroke" d="
  M 388.71 293.75
  Q 388.07 293.84 387.50 294.09
  Q 368.08 302.49 347.71 308.25"
/>
<path stroke="#392e31" vector-effect="non-scaling-stroke" d="
  M 347.71 308.25
  L 338.16 312.04
  A 1.54 1.50 -47.8 0 1 337.23 312.10
  Q 334.50 311.41 332.46 313.25"
/>
<path stroke="#938a95" vector-effect="non-scaling-stroke" d="
  M 332.46 313.25
  Q 328.51 313.12 327.32 313.36
  Q 312.37 316.40 297.29 318.63
  C 296.27 318.78 295.26 319.24 294.25 319.54"
/>
<path stroke="#392e31" vector-effect="non-scaling-stroke" d="
  M 294.25 319.54
  Q 286.15 319.24 278.22 320.74"
/>
<path stroke="#938a95" vector-effect="non-scaling-stroke" d="
  M 278.22 320.74
  C 258.25 321.90 238.23 322.04 218.27 320.75"
/>
<path stroke="#392e31" vector-effect="non-scaling-stroke" d="
  M 218.27 320.75
  Q 210.44 319.51 202.50 319.31"
/>
<path stroke="#938a95" vector-effect="non-scaling-stroke" d="
  M 202.50 319.31
  C 201.53 319.34 200.70 318.77 199.81 318.65
  Q 185.15 316.70 170.68 313.61
  Q 168.71 313.19 164.84 313.08"
/>
<path stroke="#392e31" vector-effect="non-scaling-stroke" d="
  M 164.84 313.08
  Q 162.20 311.16 158.95 312.15
  A 1.28 1.25 -39.3 0 1 158.03 312.07
  C 154.92 310.55 152.28 308.63 148.75 308.46"
/>
<path stroke="#938a95" vector-effect="non-scaling-stroke" d="
  M 148.75 308.46
  L 148.75 308.35
  A 0.14 0.13 -81.3 0 0 148.66 308.22
  Q 125.34 301.25 103.04 291.50"
/>
<path stroke="#323b4d" vector-effect="non-scaling-stroke" d="
  M 103.04 291.50
  Q 101.91 290.41 100.50 289.74
  Q 81.95 280.94 64.96 269.41
  C 64.15 268.86 63.46 268.96 62.54 269.00"
/>
<path stroke="#958d45" vector-effect="non-scaling-stroke" d="
  M 61.75 252.29
  C 76.99 250.42 76.75 223.73 62.07 222.42"
/>
<path stroke="#9a8881" vector-effect="non-scaling-stroke" d="
  M 439.64 337.75
  Q 427.54 339.28 419.68 349.70
  Q 406.37 367.34 402.91 388.01
  A 0.36 0.35 -71.3 0 1 402.39 388.27
  C 396.15 384.83 395.23 377.22 395.87 370.82
  C 398.45 344.86 396.98 319.18 388.71 293.75"
/>
<path stroke="#402b1d" vector-effect="non-scaling-stroke" d="
  M 393.15 291.71
  Q 404.57 294.04 415.92 291.40
  C 422.21 289.93 428.47 287.09 429.77 280.00
  Q 430.45 276.24 429.01 271.35"
/>
<path stroke="#9a8881" vector-effect="non-scaling-stroke" d="
  M 103.04 291.50
  C 96.16 317.21 94.74 342.69 96.16 369.43
  Q 96.95 384.21 93.65 398.75
  Q 91.95 406.26 91.15 398.60
  C 89.53 382.95 75.87 343.32 56.75 338.21"
/>
<path stroke="#a17b65" vector-effect="non-scaling-stroke" d="
  M 148.75 308.46
  C 144.69 310.87 138.51 313.52 140.99 318.32
  A 1.51 1.49 -0.4 0 0 141.68 318.99
  Q 146.28 321.21 149.97 319.23
  Q 158.83 314.48 164.84 313.08"
/>
<path stroke="#a17b65" vector-effect="non-scaling-stroke" d="
  M 202.50 319.31
  C 206.99 323.72 213.27 325.52 218.27 320.75"
/>
<path stroke="#a17b65" vector-effect="non-scaling-stroke" d="
  M 278.22 320.74
  C 283.72 325.60 289.05 323.49 294.25 319.54"
/>
<path stroke="#a17b65" vector-effect="non-scaling-stroke" d="
  M 332.46 313.25
  Q 339.41 315.05 345.66 318.46
  C 349.40 320.49 352.68 320.81 355.88 318.16
  A 1.22 1.21 -16.9 0 0 356.32 317.34
  C 356.81 312.82 351.87 310.77 347.71 308.25"
/>
<path stroke="#f1c7a6" vector-effect="non-scaling-stroke" d="
  M 310.46 554.50
  Q 302.76 557.85 297.75 559.21
  C 260.92 569.15 220.81 568.48 185.18 554.26"
/>
<path stroke="#9a8881" vector-effect="non-scaling-stroke" d="
  M 189.1200 377.9300
  A 25.50 15.21 90.0 0 0 204.3300 352.4300
  A 25.50 15.21 90.0 0 0 189.1200 326.9300
  A 25.50 15.21 90.0 0 0 173.9100 352.4300
  A 25.50 15.21 90.0 0 0 189.1200 377.9300"
/>
<path stroke="#9a8881" vector-effect="non-scaling-stroke" d="
  M 307.5155 377.9300
  A 25.50 15.18 90.1 0 0 322.7400 352.4565
  A 25.50 15.18 90.1 0 0 307.6045 326.9300
  A 25.50 15.18 90.1 0 0 292.3800 352.4035
  A 25.50 15.18 90.1 0 0 307.5155 377.9300"
/>
<path stroke="#f1c7a6" vector-effect="non-scaling-stroke" d="
  M 276.14 418.21
  C 274.08 417.53 272.24 417.44 270.13 418.42
  Q 253.99 425.94 236.30 421.90
  C 233.53 421.26 222.92 415.77 219.61 418.86
  Q 217.58 420.76 219.89 422.31
  C 236.64 433.57 258.20 433.21 275.30 423.58
  C 276.45 422.93 277.95 421.43 277.79 420.22
  A 2.45 2.44 5.8 0 0 276.14 418.21"
/>
<path stroke="#f1c7a6" vector-effect="non-scaling-stroke" d="
  M 171.27 460.63
  C 173.84 468.88 209.97 472.15 217.75 472.74
  C 247.28 474.99 277.16 474.62 305.50 468.78
  C 308.96 468.06 323.66 463.53 324.09 460.10
  A 1.35 1.35 0.0 0 0 322.48 458.61
  Q 247.85 474.15 173.18 458.53
  Q 170.44 457.96 171.27 460.63"
/>
<path stroke="#f1c7a6" vector-effect="non-scaling-stroke" d="
  M 214.01 482.05
  C 214.92 486.88 223.64 489.61 227.73 490.39
  Q 247.86 494.27 267.95 490.23
  C 271.72 489.47 279.85 486.46 281.15 482.29
  Q 281.54 481.03 280.30 481.46
  C 257.89 489.18 237.20 488.06 214.68 481.44
  A 0.53 0.53 0.0 0 0 214.01 482.05"
/>
<path stroke="#9a9a98" vector-effect="non-scaling-stroke" d="
  M 200.38 339.77
  A 9.06 9.06 0.0 0 0 191.32 330.71
  A 9.06 9.06 0.0 0 0 182.26 339.77
  A 9.06 9.06 0.0 0 0 191.32 348.83
  A 9.06 9.06 0.0 0 0 200.38 339.77"
/>
<path stroke="#9a9a98" vector-effect="non-scaling-stroke" d="
  M 318.84 339.76
  A 9.05 9.05 0.0 0 0 309.79 330.71
  A 9.05 9.05 0.0 0 0 300.74 339.76
  A 9.05 9.05 0.0 0 0 309.79 348.81
  A 9.05 9.05 0.0 0 0 318.84 339.76"
/>
<path stroke="#9d9190" vector-effect="non-scaling-stroke" d="
  M 311.04 558.50
  Q 310.45 560.89 310.06 563.32
  C 305.82 589.88 277.03 597.99 254.28 598.80
  C 226.92 599.79 190.46 589.66 184.86 558.14"
/>
<path stroke="#a9a462" vector-effect="non-scaling-stroke" d="
  M 316.75 570.46
  Q 316.28 571.01 315.94 571.63
  Q 300.01 600.41 284.21 629.25"
/>
<path stroke="#3f557f" vector-effect="non-scaling-stroke" d="
  M 284.21 629.25
  L 251.41 600.59
  A 2.47 2.43 64.4 0 0 249.72 599.98
  Q 248.70 600.01 248.38 600.95
  A 1.91 1.91 0.0 0 1 247.78 601.80
  Q 230.75 615.51 213.71 629.21
  Q 213.26 629.57 212.25 629.79"
/>
<path stroke="#a9a462" vector-effect="non-scaling-stroke" d="
  M 212.25 629.79
  Q 196.16 600.58 180.40 571.20
  C 180.12 570.68 179.51 570.41 179.00 570.21"
/>
<path stroke="#958d45" vector-effect="non-scaling-stroke" d="
  M 212.25 629.79
  L 247.17 694.36
  Q 248.12 696.12 249.07 694.36
  L 284.21 629.25"
/>
<path stroke="#a9a462" vector-effect="non-scaling-stroke" d="
  M 355.75 606.54
  Q 355.28 607.04 355.57 607.44
  Q 377.18 637.76 388.70 672.27
  Q 392.06 682.35 395.04 688.04"
/>
<path stroke="#a9a462" vector-effect="non-scaling-stroke" d="
  M 408.62 752.66
  L 408.71 760.00"
/>
<path stroke="#feec90" vector-effect="non-scaling-stroke" d="
  M 408.71 760.00
  Q 333.56 789.79 258.31 819.31
  Q 257.56 819.60 256.35 819.55"
/>
<path stroke="#958d45" vector-effect="non-scaling-stroke" d="
  M 256.35 819.55
  Q 253.24 774.49 250.10 729.44
  Q 249.18 716.12 248.90 702.78
  A 0.22 0.20 -84.4 0 0 248.76 702.59
  L 248.50 702.50
  A 0.17 0.17 0.0 0 0 248.27 702.64
  C 244.51 741.55 242.64 780.79 239.75 819.79"
/>
<path stroke="#feec90" vector-effect="non-scaling-stroke" d="
  M 239.75 819.79
  C 239.38 819.72 239.11 819.79 238.76 819.66
  Q 163.12 789.91 87.54 760.00"
/>
<path stroke="#a9a462" vector-effect="non-scaling-stroke" d="
  M 87.54 760.00
  L 87.91 755.72
  A 1.54 1.50 -57.7 0 0 87.72 754.81
  Q 87.14 753.74 87.25 752.54"
/>
<path stroke="#a9a462" vector-effect="non-scaling-stroke" d="
  M 102.54 686.58
  Q 102.09 685.18 103.16 684.24
  A 1.86 1.83 78.1 0 0 103.67 683.44
  C 112.26 655.92 124.14 629.69 141.50 606.54"
/>
<path stroke="#fdc632" vector-effect="non-scaling-stroke" d="
  M 302.67 737.58
  C 309.97 748.85 330.92 762.81 344.82 758.85
  C 355.67 755.75 381.08 741.67 376.92 727.31
  Q 373.75 716.36 370.10 705.56
  C 368.69 701.40 367.42 696.43 367.24 692.75
  C 367.00 687.64 369.04 685.04 370.33 680.82
  Q 371.12 678.22 370.40 675.58
  Q 369.75 673.18 367.43 674.09
  Q 339.34 685.20 311.23 674.58
  Q 308.16 673.42 307.41 675.49
  Q 306.57 677.82 307.48 680.12
  C 309.06 684.10 310.91 687.74 310.77 692.08
  C 310.48 700.79 305.97 712.04 302.00 723.54
  C 300.35 728.34 299.72 733.03 302.67 737.58"
/>
<path stroke="#323b4d" vector-effect="non-scaling-stroke" d="
  M 256.75 670.10
  Q 258.57 671.26 259.28 669.23
  C 260.59 665.50 261.98 657.29 265.04 654.63
  C 266.28 653.56 267.95 653.79 269.04 652.21
  C 270.93 649.44 268.37 647.29 265.67 646.80
  Q 246.28 643.31 228.41 648.76
  C 222.95 650.42 227.93 657.13 231.98 653.98
  A 1.02 1.02 0.0 0 1 233.51 654.31
  L 239.81 666.07
  Q 241.14 668.56 243.04 666.47
  Q 244.25 665.14 244.47 663.24
  C 244.67 661.53 245.47 648.89 249.23 651.30
  Q 251.21 652.57 251.60 654.89
  C 252.29 658.97 253.48 668.02 256.75 670.10"
/>
<path stroke="#a8b4ca" vector-effect="non-scaling-stroke" d="
  M 87.54 760.00
  Q 85.19 774.92 84.29 790.00"
/>
<path stroke="#a9a462" vector-effect="non-scaling-stroke" d="
  M 84.29 790.00
  L 82.85 808.99"
/>
<path stroke="#a8b4ca" vector-effect="non-scaling-stroke" d="
  M 82.85 808.99
  L 82.21 814.00"
/>
<path stroke="#a8b4ca" vector-effect="non-scaling-stroke" d="
  M 413.40 812.21
  L 413.21 809.00"
/>
<path stroke="#a9a462" vector-effect="non-scaling-stroke" d="
  M 413.21 809.00
  L 411.71 789.72"
/>
<path stroke="#a8b4ca" vector-effect="non-scaling-stroke" d="
  M 411.71 789.72
  Q 411.14 775.07 408.71 760.00"
/>
<path stroke="#949cac" vector-effect="non-scaling-stroke" d="
  M 256.35 819.55
  L 258.54 850.25"
/>
<path stroke="#958d45" vector-effect="non-scaling-stroke" d="
  M 258.54 850.25
  L 259.79 868.75"
/>
<path stroke="#949cac" vector-effect="non-scaling-stroke" d="
  M 259.79 868.75
  L 260.09 874.99"
/>
<path stroke="#949cac" vector-effect="non-scaling-stroke" d="
  M 261.99 901.79
  L 262.25 906.25"
/>
<path stroke="#3f557f" vector-effect="non-scaling-stroke" d="
  M 262.25 906.25
  C 255.18 909.89 252.14 916.41 243.74 909.20
  C 240.88 906.74 235.95 901.91 234.54 902.00"
/>
<path stroke="#949cac" vector-effect="non-scaling-stroke" d="
  M 234.54 902.00
  L 234.54 901.75"
/>
<path stroke="#949cac" vector-effect="non-scaling-stroke" d="
  M 235.74 873.18
  L 235.79 871.00"
/>
<path stroke="#958d45" vector-effect="non-scaling-stroke" d="
  M 235.79 871.00
  L 236.28 870.35
  A 1.64 1.61 -25.4 0 0 236.60 869.48
  L 237.78 850.08"
/>
<path stroke="#949cac" vector-effect="non-scaling-stroke" d="
  M 237.78 850.08
  L 239.75 819.79"
/>
<path stroke="#feec90" vector-effect="non-scaling-stroke" d="
  M 237.78 850.08
  L 85.85 790.18
  Q 85.40 790.01 84.93 790.00
  L 84.29 790.00"
/>
<path stroke="#feec90" vector-effect="non-scaling-stroke" d="
  M 411.71 789.72
  Q 336.89 819.04 262.27 848.54
  Q 260.36 849.30 258.54 850.25"
/>
<path stroke="#feec90" vector-effect="non-scaling-stroke" d="
  M 235.79 871.00
  Q 235.97 869.90 235.53 868.95
  A 1.24 1.23 88.1 0 0 234.85 868.31
  L 82.85 808.99"
/>
<path stroke="#feec90" vector-effect="non-scaling-stroke" d="
  M 413.21 809.00
  L 259.79 868.75"
/>
<path stroke="#a8b4ca" vector-effect="non-scaling-stroke" d="
  M 234.54 902.00
  L 233.96 908.39"
/>
<path stroke="#feec90" vector-effect="non-scaling-stroke" d="
  M 233.96 908.39
  Q 159.62 877.44 85.21 846.74
  C 84.23 846.33 83.24 846.45 82.29 846.75"
/>
<path stroke="#feec90" vector-effect="non-scaling-stroke" d="
  M 413.46 849.25
  Q 411.70 849.10 410.55 849.54
  Q 337.50 877.88 264.44 906.20
  Q 263.30 906.64 262.25 906.25"
/>
<path stroke="#a9a462" vector-effect="non-scaling-stroke" d="
  M 233.96 908.39
  Q 233.08 918.92 232.52 928.68
  C 232.41 930.56 231.19 932.98 231.36 934.59
  Q 231.65 937.30 232.06 934.61
  C 232.96 928.73 234.91 926.93 241.01 926.63
  Q 249.68 926.21 258.35 926.82
  C 260.38 926.96 261.74 928.22 263.26 929.35
  Q 263.92 929.84 263.86 929.02
  L 262.25 906.25"
/>
<path stroke="#9c8a30" vector-effect="non-scaling-stroke" d="
  M 380.00 898.54
  Q 344.41 917.55 308.75 936.45
  Q 308.13 936.78 307.44 937.00"
/>
<path stroke="#9c8a30" vector-effect="non-scaling-stroke" d="
  M 260.11 937.01
  Q 260.94 931.46 255.49 931.34
  Q 244.95 931.11 238.21 931.63
  A 0.68 0.67 -86.6 0 0 237.60 932.18
  L 236.69 937.00"
/>
<path stroke="#9c8a30" vector-effect="non-scaling-stroke" d="
  M 188.94 937.00
  Q 188.25 936.84 187.65 936.53
  Q 151.78 917.62 116.00 898.54"
/>
<path stroke="#323b4d" vector-effect="non-scaling-stroke" d="
  M 175.69 937.00
  Q 176.00 936.51 175.98 936.06
  A 0.72 0.71 6.7 0 0 175.45 935.40
  Q 142.77 926.37 116.48 904.98"
/>
<path stroke="#323b4d" vector-effect="non-scaling-stroke" d="
  M 380.71 904.75
  C 379.65 905.43 378.58 905.86 377.62 906.65
  Q 360.19 921.08 339.02 929.21
  Q 329.18 932.99 319.39 936.89"
/>
</g>
<path fill="#536c9c" d="
  M 443.23 227.16
  Q 440.09 222.64 434.40 222.42
  Q 435.48 215.74 434.94 208.72
  A 2.57 2.57 0.0 0 0 433.86 206.81
  C 363.14 157.27 270.06 144.23 186.25 158.04
  C 141.86 165.35 99.25 181.14 62.37 207.19
  A 0.99 0.97 72.7 0 0 61.96 207.99
  L 62.07 222.42
  Q 56.68 222.61 53.25 227.29
  C 48.17 223.25 43.00 218.89 37.68 215.54
  Q 23.14 206.40 7.23 199.71
  A 0.46 0.46 0.0 0 1 7.08 198.97
  C 26.09 179.57 44.42 160.94 55.17 136.37
  Q 63.38 117.61 68.54 97.70
  A 0.89 0.88 5.7 0 1 69.36 97.04
  C 71.06 96.98 72.37 95.60 73.64 95.07
  Q 92.58 87.23 111.08 78.39
  A 1.58 1.52 -88.9 0 0 111.80 77.67
  Q 112.30 76.64 113.45 77.16
  A 1.14 1.12 44.3 0 0 114.40 77.16
  Q 140.28 65.00 165.52 51.59
  C 192.86 37.07 218.63 19.85 244.70 3.22
  C 251.24 -0.96 256.48 5.35 261.49 8.49
  Q 266.08 11.36 267.93 12.66
  C 315.69 46.17 370.82 72.94 425.68 96.41
  Q 428.03 97.41 428.62 99.89
  C 437.28 135.77 450.00 168.43 479.90 192.39
  C 481.73 193.85 485.01 195.76 486.99 198.23
  A 1.44 1.44 0.0 0 1 486.54 200.41
  C 482.60 202.49 478.42 204.05 474.72 206.25
  C 467.23 210.70 458.90 214.47 452.17 219.90
  Q 447.74 223.47 443.23 227.16
  Z
  M 275.54 41.98
  C 255.86 48.85 238.79 49.24 219.29 41.77
  Q 217.14 40.94 216.39 43.12
  C 215.33 46.22 216.40 49.10 217.97 52.38
  C 222.58 62.06 214.20 80.95 210.78 90.80
  C 210.01 93.04 208.99 97.87 209.60 100.79
  C 211.78 111.25 227.33 120.55 236.54 124.70
  C 243.50 127.84 250.12 127.95 257.06 125.31
  Q 272.10 119.57 282.32 107.84
  Q 287.82 101.53 285.33 93.44
  C 282.93 85.62 272.96 59.88 276.62 54.21
  C 278.19 51.78 280.98 45.30 278.76 42.74
  Q 277.49 41.30 275.54 41.98
  Z"
/>
<path fill="#ffdc28" d="
  M 219.29 41.77
  C 238.79 49.24 255.86 48.85 275.54 41.98
  Q 277.49 41.30 278.76 42.74
  C 280.98 45.30 278.19 51.78 276.62 54.21
  C 272.96 59.88 282.93 85.62 285.33 93.44
  Q 287.82 101.53 282.32 107.84
  Q 272.10 119.57 257.06 125.31
  C 250.12 127.95 243.50 127.84 236.54 124.70
  C 227.33 120.55 211.78 111.25 209.60 100.79
  C 208.99 97.87 210.01 93.04 210.78 90.80
  C 214.20 80.95 222.58 62.06 217.97 52.38
  C 216.40 49.10 215.33 46.22 216.39 43.12
  Q 217.14 40.94 219.29 41.77
  Z"
/>
<path fill="#2b3d61" d="
  M 434.40 222.42
  C 418.72 225.08 421.12 252.67 435.00 252.04
  C 434.65 257.48 435.49 263.36 433.71 268.50
  L 433.41 268.41
  A 0.65 0.64 -55.4 0 0 432.84 268.52
  L 429.01 271.35
  Q 411.66 282.35 393.15 291.71
  Q 390.76 292.04 388.71 293.75
  Q 388.07 293.84 387.50 294.09
  Q 368.08 302.49 347.71 308.25
  L 338.16 312.04
  A 1.54 1.50 -47.8 0 1 337.23 312.10
  Q 334.50 311.41 332.46 313.25
  Q 328.51 313.12 327.32 313.36
  Q 312.37 316.40 297.29 318.63
  C 296.27 318.78 295.26 319.24 294.25 319.54
  Q 286.15 319.24 278.22 320.74
  C 258.25 321.90 238.23 322.04 218.27 320.75
  Q 210.44 319.51 202.50 319.31
  C 201.53 319.34 200.70 318.77 199.81 318.65
  Q 185.15 316.70 170.68 313.61
  Q 168.71 313.19 164.84 313.08
  Q 162.20 311.16 158.95 312.15
  A 1.28 1.25 -39.3 0 1 158.03 312.07
  C 154.92 310.55 152.28 308.63 148.75 308.46
  L 148.75 308.35
  A 0.14 0.13 -81.3 0 0 148.66 308.22
  Q 125.34 301.25 103.04 291.50
  Q 101.91 290.41 100.50 289.74
  Q 81.95 280.94 64.96 269.41
  C 64.15 268.86 63.46 268.96 62.54 269.00
  Q 61.78 261.12 62.40 253.23
  A 0.75 0.75 0.0 0 0 62.09 252.55
  L 61.75 252.29
  C 76.99 250.42 76.75 223.73 62.07 222.42
  L 61.96 207.99
  A 0.99 0.97 72.7 0 1 62.37 207.19
  C 99.25 181.14 141.86 165.35 186.25 158.04
  C 270.06 144.23 363.14 157.27 433.86 206.81
  A 2.57 2.57 0.0 0 1 434.94 208.72
  Q 435.48 215.74 434.40 222.42
  Z"
/>
<path fill="#ffdc28" d="
  M 62.07 222.42
  C 76.75 223.73 76.99 250.42 61.75 252.29
  C 50.49 248.68 50.68 236.90 53.25 227.29
  Q 56.68 222.61 62.07 222.42
  Z"
/>
<path fill="#ffdc28" d="
  M 434.40 222.42
  Q 440.09 222.64 443.23 227.16
  C 447.35 236.46 446.55 249.05 435.00 252.04
  C 421.12 252.67 418.72 225.08 434.40 222.42
  Z"
/>
<path fill="#383838" d="
  M 433.71 268.50
  Q 437.41 285.98 438.00 289.25
  Q 442.30 312.94 439.64 337.75
  Q 427.54 339.28 419.68 349.70
  Q 406.37 367.34 402.91 388.01
  A 0.36 0.35 -71.3 0 1 402.39 388.27
  C 396.15 384.83 395.23 377.22 395.87 370.82
  C 398.45 344.86 396.98 319.18 388.71 293.75
  Q 390.76 292.04 393.15 291.71
  Q 404.57 294.04 415.92 291.40
  C 422.21 289.93 428.47 287.09 429.77 280.00
  Q 430.45 276.24 429.01 271.35
  L 432.84 268.52
  A 0.65 0.64 -55.4 0 1 433.41 268.41
  L 433.71 268.50
  Z"
/>
<path fill="#383838" d="
  M 62.54 269.00
  C 63.46 268.96 64.15 268.86 64.96 269.41
  Q 81.95 280.94 100.50 289.74
  Q 101.91 290.41 103.04 291.50
  C 96.16 317.21 94.74 342.69 96.16 369.43
  Q 96.95 384.21 93.65 398.75
  Q 91.95 406.26 91.15 398.60
  C 89.53 382.95 75.87 343.32 56.75 338.21
  C 55.43 312.51 56.05 293.10 62.54 269.00
  Z"
/>
<path fill="#471e01" d="
  M 429.01 271.35
  Q 430.45 276.24 429.77 280.00
  C 428.47 287.09 422.21 289.93 415.92 291.40
  Q 404.57 294.04 393.15 291.71
  Q 411.66 282.35 429.01 271.35
  Z"
/>
<path fill="#fbd7c9" d="
  M 103.04 291.50
  Q 125.34 301.25 148.66 308.22
  A 0.14 0.13 -81.3 0 1 148.75 308.35
  L 148.75 308.46
  C 144.69 310.87 138.51 313.52 140.99 318.32
  A 1.51 1.49 -0.4 0 0 141.68 318.99
  Q 146.28 321.21 149.97 319.23
  Q 158.83 314.48 164.84 313.08
  Q 168.71 313.19 170.68 313.61
  Q 185.15 316.70 199.81 318.65
  C 200.70 318.77 201.53 319.34 202.50 319.31
  C 206.99 323.72 213.27 325.52 218.27 320.75
  C 238.23 322.04 258.25 321.90 278.22 320.74
  C 283.72 325.60 289.05 323.49 294.25 319.54
  C 295.26 319.24 296.27 318.78 297.29 318.63
  Q 312.37 316.40 327.32 313.36
  Q 328.51 313.12 332.46 313.25
  Q 339.41 315.05 345.66 318.46
  C 349.40 320.49 352.68 320.81 355.88 318.16
  A 1.22 1.21 -16.9 0 0 356.32 317.34
  C 356.81 312.82 351.87 310.77 347.71 308.25
  Q 368.08 302.49 387.50 294.09
  Q 388.07 293.84 388.71 293.75
  C 396.98 319.18 398.45 344.86 395.87 370.82
  C 395.23 377.22 396.15 384.83 402.39 388.27
  A 0.36 0.35 -71.3 0 0 402.91 388.01
  Q 406.37 367.34 419.68 349.70
  Q 427.54 339.28 439.64 337.75
  Q 440.82 338.48 444.33 339.93
  C 454.99 344.33 456.20 363.68 454.84 372.83
  C 451.89 392.66 441.95 419.66 420.44 426.17
  A 1.72 1.72 0.0 0 0 419.26 427.44
  C 417.30 436.34 415.22 445.46 412.08 453.75
  C 395.52 497.49 363.76 529.40 321.75 549.38
  C 318.80 550.79 314.12 552.54 310.46 554.50
  Q 302.76 557.85 297.75 559.21
  C 260.92 569.15 220.81 568.48 185.18 554.26
  C 179.69 550.86 172.07 547.76 168.09 545.72
  C 122.55 522.39 88.44 480.23 77.82 429.82
  C 76.41 423.10 67.66 418.73 63.68 413.31
  Q 46.77 390.21 44.09 361.33
  C 43.25 352.28 44.52 338.32 56.75 338.21
  C 75.87 343.32 89.53 382.95 91.15 398.60
  Q 91.95 406.26 93.65 398.75
  Q 96.95 384.21 96.16 369.43
  C 94.74 342.69 96.16 317.21 103.04 291.50
  Z
  M 189.1200 377.9300
  A 25.50 15.21 90.0 0 0 204.3300 352.4300
  A 25.50 15.21 90.0 0 0 189.1200 326.9300
  A 25.50 15.21 90.0 0 0 173.9100 352.4300
  A 25.50 15.21 90.0 0 0 189.1200 377.9300
  Z
  M 307.5155 377.9300
  A 25.50 15.18 90.1 0 0 322.7400 352.4565
  A 25.50 15.18 90.1 0 0 307.6045 326.9300
  A 25.50 15.18 90.1 0 0 292.3800 352.4035
  A 25.50 15.18 90.1 0 0 307.5155 377.9300
  Z
  M 276.14 418.21
  C 274.08 417.53 272.24 417.44 270.13 418.42
  Q 253.99 425.94 236.30 421.90
  C 233.53 421.26 222.92 415.77 219.61 418.86
  Q 217.58 420.76 219.89 422.31
  C 236.64 433.57 258.20 433.21 275.30 423.58
  C 276.45 422.93 277.95 421.43 277.79 420.22
  A 2.45 2.44 5.8 0 0 276.14 418.21
  Z
  M 171.27 460.63
  C 173.84 468.88 209.97 472.15 217.75 472.74
  C 247.28 474.99 277.16 474.62 305.50 468.78
  C 308.96 468.06 323.66 463.53 324.09 460.10
  A 1.35 1.35 0.0 0 0 322.48 458.61
  Q 247.85 474.15 173.18 458.53
  Q 170.44 457.96 171.27 460.63
  Z
  M 214.01 482.05
  C 214.92 486.88 223.64 489.61 227.73 490.39
  Q 247.86 494.27 267.95 490.23
  C 271.72 489.47 279.85 486.46 281.15 482.29
  Q 281.54 481.03 280.30 481.46
  C 257.89 489.18 237.20 488.06 214.68 481.44
  A 0.53 0.53 0.0 0 0 214.01 482.05
  Z"
/>
<path fill="#471e01" d="
  M 347.71 308.25
  C 351.87 310.77 356.81 312.82 356.32 317.34
  A 1.22 1.21 -16.9 0 1 355.88 318.16
  C 352.68 320.81 349.40 320.49 345.66 318.46
  Q 339.41 315.05 332.46 313.25
  Q 334.50 311.41 337.23 312.10
  A 1.54 1.50 -47.8 0 0 338.16 312.04
  L 347.71 308.25
  Z"
/>
<path fill="#471e01" d="
  M 148.75 308.46
  C 152.28 308.63 154.92 310.55 158.03 312.07
  A 1.28 1.25 -39.3 0 0 158.95 312.15
  Q 162.20 311.16 164.84 313.08
  Q 158.83 314.48 149.97 319.23
  Q 146.28 321.21 141.68 318.99
  A 1.51 1.49 -0.4 0 1 140.99 318.32
  C 138.51 313.52 144.69 310.87 148.75 308.46
  Z"
/>
<path fill="#471e01" d="
  M 218.27 320.75
  C 213.27 325.52 206.99 323.72 202.50 319.31
  Q 210.44 319.51 218.27 320.75
  Z"
/>
<path fill="#471e01" d="
  M 294.25 319.54
  C 289.05 323.49 283.72 325.60 278.22 320.74
  Q 286.15 319.24 294.25 319.54
  Z"
/>
<path fill="#383838" d="
  M 189.1200 377.9300
  A 25.50 15.21 90.0 0 1 173.9100 352.4300
  A 25.50 15.21 90.0 0 1 189.1200 326.9300
  A 25.50 15.21 90.0 0 1 204.3300 352.4300
  A 25.50 15.21 90.0 0 1 189.1200 377.9300
  Z
  M 200.38 339.77
  A 9.06 9.06 0.0 0 0 191.32 330.71
  A 9.06 9.06 0.0 0 0 182.26 339.77
  A 9.06 9.06 0.0 0 0 191.32 348.83
  A 9.06 9.06 0.0 0 0 200.38 339.77
  Z"
/>
<path fill="#383838" d="
  M 307.5155 377.9300
  A 25.50 15.18 90.1 0 1 292.3800 352.4035
  A 25.50 15.18 90.1 0 1 307.6045 326.9300
  A 25.50 15.18 90.1 0 1 322.7400 352.4565
  A 25.50 15.18 90.1 0 1 307.5155 377.9300
  Z
  M 318.84 339.76
  A 9.05 9.05 0.0 0 0 309.79 330.71
  A 9.05 9.05 0.0 0 0 300.74 339.76
  A 9.05 9.05 0.0 0 0 309.79 348.81
  A 9.05 9.05 0.0 0 0 318.84 339.76
  Z"
/>
<circle fill="#fcfbf7" cx="191.32" cy="339.77" r="9.06"/>
<circle fill="#fcfbf7" cx="309.79" cy="339.76" r="9.05"/>
<path fill="#e6b683" d="
  M 276.14 418.21
  A 2.45 2.44 5.8 0 1 277.79 420.22
  C 277.95 421.43 276.45 422.93 275.30 423.58
  C 258.20 433.21 236.64 433.57 219.89 422.31
  Q 217.58 420.76 219.61 418.86
  C 222.92 415.77 233.53 421.26 236.30 421.90
  Q 253.99 425.94 270.13 418.42
  C 272.24 417.44 274.08 417.53 276.14 418.21
  Z"
/>
<path fill="#e6b683" d="
  M 217.75 472.74
  C 209.97 472.15 173.84 468.88 171.27 460.63
  Q 170.44 457.96 173.18 458.53
  Q 247.85 474.15 322.48 458.61
  A 1.35 1.35 0.0 0 1 324.09 460.10
  C 323.66 463.53 308.96 468.06 305.50 468.78
  C 277.16 474.62 247.28 474.99 217.75 472.74
  Z"
/>
<path fill="#e6b683" d="
  M 227.73 490.39
  C 223.64 489.61 214.92 486.88 214.01 482.05
  A 0.53 0.53 0.0 0 1 214.68 481.44
  C 237.20 488.06 257.89 489.18 280.30 481.46
  Q 281.54 481.03 281.15 482.29
  C 279.85 486.46 271.72 489.47 267.95 490.23
  Q 247.86 494.27 227.73 490.39
  Z"
/>
<path fill="#e6b683" d="
  M 185.18 554.26
  C 220.81 568.48 260.92 569.15 297.75 559.21
  Q 302.76 557.85 310.46 554.50
  L 311.04 558.50
  Q 310.45 560.89 310.06 563.32
  C 305.82 589.88 277.03 597.99 254.28 598.80
  C 226.92 599.79 190.46 589.66 184.86 558.14
  L 185.18 554.26
  Z"
/>
<path fill="#536c9c" d="
  M 184.86 558.14
  C 190.46 589.66 226.92 599.79 254.28 598.80
  C 277.03 597.99 305.82 589.88 310.06 563.32
  Q 310.45 560.89 311.04 558.50
  Q 313.09 564.87 316.75 570.46
  Q 316.28 571.01 315.94 571.63
  Q 300.01 600.41 284.21 629.25
  L 251.41 600.59
  A 2.47 2.43 64.4 0 0 249.72 599.98
  Q 248.70 600.01 248.38 600.95
  A 1.91 1.91 0.0 0 1 247.78 601.80
  Q 230.75 615.51 213.71 629.21
  Q 213.26 629.57 212.25 629.79
  Q 196.16 600.58 180.40 571.20
  C 180.12 570.68 179.51 570.41 179.00 570.21
  Q 182.53 564.64 184.86 558.14
  Z"
/>
<path fill="#ffdc28" d="
  M 179.00 570.21
  C 179.51 570.41 180.12 570.68 180.40 571.20
  Q 196.16 600.58 212.25 629.79
  L 247.17 694.36
  Q 248.12 696.12 249.07 694.36
  L 284.21 629.25
  Q 300.01 600.41 315.94 571.63
  Q 316.28 571.01 316.75 570.46
  C 331.43 574.35 340.15 585.13 347.15 597.85
  C 348.51 600.33 352.83 606.30 355.75 606.54
  Q 355.28 607.04 355.57 607.44
  Q 377.18 637.76 388.70 672.27
  Q 392.06 682.35 395.04 688.04
  Q 394.22 688.25 394.50 689.25
  Q 403.15 720.88 407.26 747.94
  Q 407.61 750.21 408.62 752.66
  L 408.71 760.00
  Q 333.56 789.79 258.31 819.31
  Q 257.56 819.60 256.35 819.55
  Q 253.24 774.49 250.10 729.44
  Q 249.18 716.12 248.90 702.78
  A 0.22 0.20 -84.4 0 0 248.76 702.59
  L 248.50 702.50
  A 0.17 0.17 0.0 0 0 248.27 702.64
  C 244.51 741.55 242.64 780.79 239.75 819.79
  C 239.38 819.72 239.11 819.79 238.76 819.66
  Q 163.12 789.91 87.54 760.00
  L 87.91 755.72
  A 1.54 1.50 -57.7 0 0 87.72 754.81
  Q 87.14 753.74 87.25 752.54
  Q 87.62 752.59 87.94 752.49
  A 0.81 0.80 85.5 0 0 88.50 751.83
  Q 93.23 718.71 102.54 686.58
  Q 102.09 685.18 103.16 684.24
  A 1.86 1.83 78.1 0 0 103.67 683.44
  C 112.26 655.92 124.14 629.69 141.50 606.54
  Q 147.72 601.42 148.75 599.47
  C 154.23 589.04 161.33 577.42 172.87 572.80
  Q 175.97 571.57 179.00 570.21
  Z
  M 302.67 737.58
  C 309.97 748.85 330.92 762.81 344.82 758.85
  C 355.67 755.75 381.08 741.67 376.92 727.31
  Q 373.75 716.36 370.10 705.56
  C 368.69 701.40 367.42 696.43 367.24 692.75
  C 367.00 687.64 369.04 685.04 370.33 680.82
  Q 371.12 678.22 370.40 675.58
  Q 369.75 673.18 367.43 674.09
  Q 339.34 685.20 311.23 674.58
  Q 308.16 673.42 307.41 675.49
  Q 306.57 677.82 307.48 680.12
  C 309.06 684.10 310.91 687.74 310.77 692.08
  C 310.48 700.79 305.97 712.04 302.00 723.54
  C 300.35 728.34 299.72 733.03 302.67 737.58
  Z"
/>
<path fill="#2b3d61" d="
  M 284.21 629.25
  L 249.07 694.36
  Q 248.12 696.12 247.17 694.36
  L 212.25 629.79
  Q 213.26 629.57 213.71 629.21
  Q 230.75 615.51 247.78 601.80
  A 1.91 1.91 0.0 0 0 248.38 600.95
  Q 248.70 600.01 249.72 599.98
  A 2.47 2.43 64.4 0 1 251.41 600.59
  L 284.21 629.25
  Z
  M 256.75 670.10
  Q 258.57 671.26 259.28 669.23
  C 260.59 665.50 261.98 657.29 265.04 654.63
  C 266.28 653.56 267.95 653.79 269.04 652.21
  C 270.93 649.44 268.37 647.29 265.67 646.80
  Q 246.28 643.31 228.41 648.76
  C 222.95 650.42 227.93 657.13 231.98 653.98
  A 1.02 1.02 0.0 0 1 233.51 654.31
  L 239.81 666.07
  Q 241.14 668.56 243.04 666.47
  Q 244.25 665.14 244.47 663.24
  C 244.67 661.53 245.47 648.89 249.23 651.30
  Q 251.21 652.57 251.60 654.89
  C 252.29 658.97 253.48 668.02 256.75 670.10
  Z"
/>
<path fill="#536c9c" d="
  M 141.50 606.54
  C 124.14 629.69 112.26 655.92 103.67 683.44
  A 1.86 1.83 78.1 0 1 103.16 684.24
  Q 102.09 685.18 102.54 686.58
  Q 100.80 686.26 99.53 687.28
  C 84.76 699.21 67.40 718.50 76.70 738.88
  C 78.43 742.67 83.18 751.75 87.25 752.54
  Q 87.14 753.74 87.72 754.81
  A 1.54 1.50 -57.7 0 1 87.91 755.72
  L 87.54 760.00
  Q 85.19 774.92 84.29 790.00
  L 82.85 808.99
  L 82.21 814.00
  L 81.25 819.38
  A 0.67 0.66 23.7 0 1 80.19 819.79
  Q 74.78 815.61 69.17 811.79
  C 30.57 785.45 4.40 739.42 25.50 692.53
  C 34.31 672.93 48.54 655.22 65.95 642.42
  C 80.03 632.06 91.08 624.87 106.18 618.03
  C 113.69 614.63 122.91 611.84 131.24 608.50
  Q 135.09 606.96 141.50 606.54
  Z"
/>
<path fill="#536c9c" d="
  M 355.75 606.54
  Q 373.04 611.36 385.27 616.54
  C 419.42 631.00 452.54 656.44 468.21 690.23
  C 475.40 705.73 478.67 721.25 476.19 738.13
  C 471.04 773.20 444.53 801.14 415.24 819.01
  A 0.63 0.63 0.0 0 1 414.29 818.56
  L 413.40 812.21
  L 413.21 809.00
  L 411.71 789.72
  Q 411.14 775.07 408.71 760.00
  L 408.62 752.66
  C 418.22 743.09 424.24 729.44 418.70 716.04
  Q 412.18 700.27 396.59 688.39
  Q 396.24 688.13 395.04 688.04
  Q 392.06 682.35 388.70 672.27
  Q 377.18 637.76 355.57 607.44
  Q 355.28 607.04 355.75 606.54
  Z"
/>
<path fill="#383838" d="
  M 256.75 670.10
  C 253.48 668.02 252.29 658.97 251.60 654.89
  Q 251.21 652.57 249.23 651.30
  C 245.47 648.89 244.67 661.53 244.47 663.24
  Q 244.25 665.14 243.04 666.47
  Q 241.14 668.56 239.81 666.07
  L 233.51 654.31
  A 1.02 1.02 0.0 0 0 231.98 653.98
  C 227.93 657.13 222.95 650.42 228.41 648.76
  Q 246.28 643.31 265.67 646.80
  C 268.37 647.29 270.93 649.44 269.04 652.21
  C 267.95 653.79 266.28 653.56 265.04 654.63
  C 261.98 657.29 260.59 665.50 259.28 669.23
  Q 258.57 671.26 256.75 670.10
  Z"
/>
<path fill="#fbb03b" d="
  M 344.82 758.85
  C 330.92 762.81 309.97 748.85 302.67 737.58
  C 299.72 733.03 300.35 728.34 302.00 723.54
  C 305.97 712.04 310.48 700.79 310.77 692.08
  C 310.91 687.74 309.06 684.10 307.48 680.12
  Q 306.57 677.82 307.41 675.49
  Q 308.16 673.42 311.23 674.58
  Q 339.34 685.20 367.43 674.09
  Q 369.75 673.18 370.40 675.58
  Q 371.12 678.22 370.33 680.82
  C 369.04 685.04 367.00 687.64 367.24 692.75
  C 367.42 696.43 368.69 701.40 370.10 705.56
  Q 373.75 716.36 376.92 727.31
  C 381.08 741.67 355.67 755.75 344.82 758.85
  Z"
/>
<path fill="#2b3d61" d="
  M 256.35 819.55
  L 258.54 850.25
  L 259.79 868.75
  L 260.09 874.99
  Q 259.62 888.47 261.99 901.79
  L 262.25 906.25
  C 255.18 909.89 252.14 916.41 243.74 909.20
  C 240.88 906.74 235.95 901.91 234.54 902.00
  L 234.54 901.75
  L 234.87 901.76
  A 0.28 0.27 -1.0 0 0 235.15 901.48
  Q 234.99 887.63 236.58 873.85
  A 0.57 0.57 0.0 0 0 236.08 873.22
  L 235.74 873.18
  L 235.79 871.00
  L 236.28 870.35
  A 1.64 1.61 -25.4 0 0 236.60 869.48
  L 237.78 850.08
  L 239.75 819.79
  C 242.64 780.79 244.51 741.55 248.27 702.64
  A 0.17 0.17 0.0 0 1 248.50 702.50
  L 248.76 702.59
  A 0.22 0.20 -84.4 0 1 248.90 702.78
  Q 249.18 716.12 250.10 729.44
  Q 253.24 774.49 256.35 819.55
  Z"
/>
<path fill="#fcfbf7" d="
  M 87.54 760.00
  Q 163.12 789.91 238.76 819.66
  C 239.11 819.79 239.38 819.72 239.75 819.79
  L 237.78 850.08
  L 85.85 790.18
  Q 85.40 790.01 84.93 790.00
  L 84.29 790.00
  Q 85.19 774.92 87.54 760.00
  Z"
/>
<path fill="#fcfbf7" d="
  M 408.71 760.00
  Q 411.14 775.07 411.71 789.72
  Q 336.89 819.04 262.27 848.54
  Q 260.36 849.30 258.54 850.25
  L 256.35 819.55
  Q 257.56 819.60 258.31 819.31
  Q 333.56 789.79 408.71 760.00
  Z"
/>
<path fill="#ffdc28" d="
  M 84.29 790.00
  L 84.93 790.00
  Q 85.40 790.01 85.85 790.18
  L 237.78 850.08
  L 236.60 869.48
  A 1.64 1.61 -25.4 0 1 236.28 870.35
  L 235.79 871.00
  Q 235.97 869.90 235.53 868.95
  A 1.24 1.23 88.1 0 0 234.85 868.31
  L 82.85 808.99
  L 84.29 790.00
  Z"
/>
<path fill="#ffdc28" d="
  M 411.71 789.72
  L 413.21 809.00
  L 259.79 868.75
  L 258.54 850.25
  Q 260.36 849.30 262.27 848.54
  Q 336.89 819.04 411.71 789.72
  Z"
/>
<path fill="#fcfbf7" d="
  M 82.85 808.99
  L 234.85 868.31
  A 1.24 1.23 88.1 0 1 235.53 868.95
  Q 235.97 869.90 235.79 871.00
  L 235.74 873.18
  Q 234.37 887.44 234.54 901.75
  L 234.54 902.00
  L 233.96 908.39
  Q 159.62 877.44 85.21 846.74
  C 84.23 846.33 83.24 846.45 82.29 846.75
  Q 82.78 830.37 82.21 814.00
  L 82.85 808.99
  Z"
/>
<path fill="#fcfbf7" d="
  M 413.21 809.00
  L 413.40 812.21
  Q 411.95 830.79 413.46 849.25
  Q 411.70 849.10 410.55 849.54
  Q 337.50 877.88 264.44 906.20
  Q 263.30 906.64 262.25 906.25
  L 261.99 901.79
  Q 262.44 899.84 262.26 898.00
  Q 261.12 886.52 260.09 874.99
  L 259.79 868.75
  L 413.21 809.00
  Z"
/>
<path fill="#ffdc28" d="
  M 233.96 908.39
  Q 233.08 918.92 232.52 928.68
  C 232.41 930.56 231.19 932.98 231.36 934.59
  Q 231.65 937.30 232.06 934.61
  C 232.96 928.73 234.91 926.93 241.01 926.63
  Q 249.68 926.21 258.35 926.82
  C 260.38 926.96 261.74 928.22 263.26 929.35
  Q 263.92 929.84 263.86 929.02
  L 262.25 906.25
  Q 263.30 906.64 264.44 906.20
  Q 337.50 877.88 410.55 849.54
  Q 411.70 849.10 413.46 849.25
  L 413.02 879.83
  A 1.54 1.53 -14.9 0 1 412.25 881.14
  C 406.11 884.67 398.82 887.80 393.40 890.82
  Q 386.65 894.59 380.00 898.54
  Q 344.41 917.55 308.75 936.45
  Q 308.13 936.78 307.44 937.00
  L 260.11 937.01
  Q 260.94 931.46 255.49 931.34
  Q 244.95 931.11 238.21 931.63
  A 0.68 0.67 -86.6 0 0 237.60 932.18
  L 236.69 937.00
  L 188.94 937.00
  Q 188.25 936.84 187.65 936.53
  Q 151.78 917.62 116.00 898.54
  Q 100.69 889.56 84.90 881.85
  Q 82.86 880.85 82.96 878.58
  C 83.39 868.03 82.13 859.37 82.29 846.75
  C 83.24 846.45 84.23 846.33 85.21 846.74
  Q 159.62 877.44 233.96 908.39
  Z"
/>
<path fill="#383838" d="
  M 116.00 898.54
  Q 151.78 917.62 187.65 936.53
  Q 188.25 936.84 188.94 937.00
  L 175.69 937.00
  Q 176.00 936.51 175.98 936.06
  A 0.72 0.71 6.7 0 0 175.45 935.40
  Q 142.77 926.37 116.48 904.98
  Q 115.74 902.12 116.00 898.54
  Z"
/>
<path fill="#383838" d="
  M 380.00 898.54
  L 380.71 904.75
  C 379.65 905.43 378.58 905.86 377.62 906.65
  Q 360.19 921.08 339.02 929.21
  Q 329.18 932.99 319.39 936.89
  L 307.44 937.00
  Q 308.13 936.78 308.75 936.45
  Q 344.41 917.55 380.00 898.54
  Z"
/>
<path fill="#536c9c" d="
  M 234.54 902.00
  C 235.95 901.91 240.88 906.74 243.74 909.20
  C 252.14 916.41 255.18 909.89 262.25 906.25
  L 263.86 929.02
  Q 263.92 929.84 263.26 929.35
  C 261.74 928.22 260.38 926.96 258.35 926.82
  Q 249.68 926.21 241.01 926.63
  C 234.91 926.93 232.96 928.73 232.06 934.61
  Q 231.65 937.30 231.36 934.59
  C 231.19 932.98 232.41 930.56 232.52 928.68
  Q 233.08 918.92 233.96 908.39
  L 234.54 902.00
  Z"
/>
<path fill="#2b3d61" d="
  M 380.71 904.75
  Q 382.15 920.87 381.04 937.01
  L 319.39 936.89
  Q 329.18 932.99 339.02 929.21
  Q 360.19 921.08 377.62 906.65
  C 378.58 905.86 379.65 905.43 380.71 904.75
  Z"
/>
<path fill="#2b3d61" d="
  M 116.48 904.98
  Q 142.77 926.37 175.45 935.40
  A 0.72 0.71 6.7 0 1 175.98 936.06
  Q 176.00 936.51 175.69 937.00
  L 114.69 937.00
  L 116.48 904.98
  Z"
/>
<path fill="#383838" d="
  M 260.11 937.01
  L 236.69 937.00
  L 237.60 932.18
  A 0.68 0.67 -86.6 0 1 238.21 931.63
  Q 244.95 931.11 255.49 931.34
  Q 260.94 931.46 260.11 937.01
  Z"
/>
</svg>
